<svg width="125" height="142" viewBox="0 0 125 142" fill="none" xmlns="http://www.w3.org/2000/svg">
<rect y="24.8759" width="96.1128" height="120.443" rx="8" transform="rotate(-15 0 24.8759)" fill="#FEF2F2"/>
<rect x="17.8392" y="32.0363" width="54.0966" height="17.737" rx="8.86849" transform="rotate(-15 17.8392 32.0363)" fill="white"/>
<path d="M33.0738 33.1905L27.6368 42.6076" stroke="#F87171" stroke-width="1.44169" stroke-linecap="round" stroke-linejoin="round"/>
<path d="M27.5037 34.683L33.0739 33.1905L34.8152 39.6891" stroke="#F87171" stroke-width="1.44169" stroke-linecap="round" stroke-linejoin="round"/>
<path d="M44.0684 39.0275C43.3627 39.2166 42.7091 39.2003 42.1077 38.9787C41.5083 38.7534 40.9822 38.3385 40.5294 37.7341C40.0786 37.1261 39.7249 36.3434 39.4685 35.3863C39.2148 34.4283 39.1324 33.5777 39.221 32.8342C39.3118 32.0872 39.5611 31.4692 39.9691 30.9801C40.3799 30.4903 40.9367 30.1513 41.6396 29.9629C42.3425 29.7746 42.9942 29.7898 43.5949 30.0086C44.1956 30.2274 44.7205 30.6379 45.1698 31.2403C45.6219 31.8419 45.9758 32.6198 46.2315 33.5741C46.4887 34.5341 46.5728 35.3905 46.4835 36.1433C46.3964 36.8924 46.1478 37.5133 45.7378 38.006C45.3306 38.4979 44.7742 38.8384 44.0684 39.0275ZM43.709 37.686C44.2576 37.539 44.6181 37.153 44.7905 36.528C44.9651 35.8994 44.9111 35.0579 44.6286 34.0036C44.4418 33.3065 44.212 32.7402 43.9392 32.305C43.6664 31.8697 43.365 31.5677 43.0349 31.3989C42.7041 31.2272 42.3573 31.19 41.9944 31.2872C41.4487 31.4335 41.09 31.8205 40.9183 32.4484C40.7458 33.0734 40.7983 33.9091 41.0756 34.9556C41.2604 35.6564 41.4881 36.2262 41.7588 36.6651C42.0324 37.1032 42.3345 37.4081 42.6653 37.5798C42.9954 37.7486 43.3433 37.784 43.709 37.686ZM49.2441 37.5626C48.9841 37.6322 48.7367 37.6005 48.502 37.4674C48.2673 37.3343 48.1162 37.136 48.0486 36.8723C47.9768 36.6159 48.0093 36.3714 48.146 36.1388C48.2827 35.9062 48.4811 35.755 48.7411 35.6854C48.9926 35.618 49.2356 35.6509 49.4703 35.784C49.7079 35.9163 49.8626 36.1106 49.9343 36.367C49.9782 36.5421 49.975 36.7129 49.9247 36.8795C49.8772 37.0453 49.7936 37.1902 49.6737 37.3142C49.5559 37.4346 49.4127 37.5174 49.2441 37.5626ZM54.4098 36.206C53.989 36.3157 53.5595 36.3527 53.1212 36.317C52.6821 36.2785 52.2589 36.1392 51.8517 35.8992C51.4436 35.6564 51.0726 35.2888 50.7385 34.7965C50.4037 34.3013 50.1298 33.6504 49.9168 32.8439C49.7154 32.0924 49.6159 31.401 49.6182 30.7695C49.6205 30.1381 49.7173 29.5793 49.9085 29.0932C50.0991 28.6042 50.3771 28.1959 50.7425 27.8683C51.1108 27.5399 51.5578 27.3053 52.0836 27.1645C52.635 27.0167 53.1527 26.9944 53.6366 27.0974C54.1234 27.1997 54.5487 27.4043 54.9126 27.711C55.2758 28.0148 55.552 28.3941 55.7412 28.8487L54.1768 29.2678C54.0065 28.9521 53.7702 28.7276 53.4681 28.5942C53.168 28.4571 52.8294 28.4392 52.4522 28.5402C51.8436 28.7033 51.4458 29.0931 51.2589 29.7098C51.0748 30.3256 51.105 31.0954 51.3494 32.019L51.4094 32.003C51.482 31.714 51.6057 31.4497 51.7803 31.21C51.9549 30.9702 52.1692 30.7643 52.4232 30.5921C52.6793 30.4163 52.9645 30.2863 53.2788 30.2021C53.7931 30.0643 54.2874 30.0635 54.7619 30.1997C55.2391 30.3352 55.6556 30.5865 56.0112 30.9537C56.366 31.3179 56.6163 31.7776 56.762 32.3327C56.9195 32.9091 56.927 33.4629 56.7845 33.9941C56.6413 34.5224 56.3678 34.9816 55.9639 35.3715C55.56 35.7615 55.042 36.0396 54.4098 36.206ZM54.0567 34.9225C54.3681 34.8391 54.6264 34.6887 54.8316 34.4714C55.0367 34.2542 55.1763 33.9978 55.2502 33.7024C55.3242 33.407 55.3169 33.0996 55.2283 32.7804C55.1469 32.4653 55.0021 32.1994 54.794 31.9826C54.5887 31.7651 54.3447 31.6146 54.0621 31.5311C53.7794 31.4476 53.4823 31.4475 53.1709 31.531C52.9395 31.593 52.7356 31.6951 52.5593 31.8372C52.3831 31.9794 52.2417 32.149 52.1352 32.3459C52.028 32.54 51.9591 32.7514 51.9285 32.9801C51.9 33.2052 51.9153 33.4338 51.9745 33.666C52.0592 33.971 52.2061 34.2333 52.415 34.4529C52.6239 34.6725 52.8719 34.8266 53.1589 34.915C53.446 35.0035 53.7453 35.006 54.0567 34.9225ZM62.9998 32.0117L62.8758 31.5489C62.7847 31.2089 62.7723 30.8769 62.8386 30.5529C62.9077 30.2281 63.0576 29.9414 63.288 29.6929C63.5185 29.4443 63.8308 29.2672 64.2251 29.1616C64.6309 29.0529 64.9942 29.0489 65.3152 29.1497C65.6354 29.2476 65.9038 29.4207 66.1204 29.6689C66.3398 29.9164 66.4955 30.2115 66.5873 30.5544L66.7114 31.0172C66.8025 31.3573 66.8149 31.6893 66.7486 32.0133C66.6823 32.3373 66.5339 32.6235 66.3034 32.8721C66.0758 33.1199 65.762 33.2974 65.362 33.4046C64.962 33.5117 64.6001 33.5153 64.2762 33.4153C63.9524 33.3153 63.6807 33.1415 63.4613 32.8941C63.2448 32.6459 63.0909 32.3518 62.9998 32.0117ZM63.9944 31.2491L64.1184 31.712C64.1789 31.9377 64.2887 32.1303 64.4478 32.2898C64.6069 32.4493 64.8236 32.4923 65.0979 32.4188C65.375 32.3445 65.5402 32.2008 65.5933 31.9875C65.6485 31.7706 65.6454 31.5478 65.5842 31.3193L65.4602 30.8564C65.3989 30.6278 65.293 30.4326 65.1425 30.2709C64.9912 30.1062 64.7727 30.0622 64.487 30.1387C64.2184 30.2107 64.054 30.3573 63.9939 30.5786C63.933 30.7971 63.9332 31.0206 63.9944 31.2491ZM57.1924 28.1842L57.0683 27.7213C56.9765 27.3785 56.9651 27.0447 57.0343 26.7199C57.1034 26.3951 57.2536 26.1099 57.4848 25.8642C57.7153 25.6156 58.0276 25.4385 58.4219 25.3329C58.8248 25.2249 59.1867 25.2214 59.5077 25.3222C59.8308 25.4193 60.1006 25.592 60.3172 25.8402C60.5338 26.0884 60.688 26.384 60.7799 26.7268L60.9039 27.1897C60.9958 27.5326 61.0085 27.866 60.9422 28.19C60.878 28.5104 60.7303 28.7934 60.4991 29.0391C60.2679 29.2848 59.9537 29.4609 59.5565 29.5673C59.1537 29.6752 58.7907 29.6806 58.4676 29.5835C58.1474 29.4855 57.8776 29.3128 57.6581 29.0654C57.4387 28.818 57.2835 28.5242 57.1924 28.1842ZM58.1955 27.4193L58.3195 27.8822C58.3808 28.1108 58.4895 28.3052 58.6458 28.4654C58.8041 28.6221 59.0204 28.6636 59.2947 28.5901C59.569 28.5166 59.7327 28.3732 59.7858 28.16C59.841 27.9431 59.838 27.7203 59.7767 27.4917L59.6527 27.0289C59.5914 26.8003 59.4856 26.6051 59.335 26.4433C59.1837 26.2787 58.9666 26.2343 58.6838 26.3101C58.4123 26.3828 58.248 26.5294 58.1907 26.7499C58.1334 26.9705 58.135 27.1936 58.1955 27.4193ZM59.4678 34.7221L63.1504 24.3277L64.2219 24.0406L60.5393 34.435L59.4678 34.7221Z" fill="#F87171"/>
<circle opacity="0.5" cx="29.7662" cy="62.8216" r="3.55274" transform="rotate(-15 29.7662 62.8216)" fill="#FECACA"/>
<circle opacity="0.5" cx="45.7808" cy="58.5305" r="3.55274" transform="rotate(-15 45.7808 58.5305)" fill="#FECACA"/>
<g opacity="0.5" filter="url(#filter0_dd_140_522)">
<circle cx="61.7953" cy="54.2393" r="3.55274" transform="rotate(-15 61.7953 54.2393)" fill="#F87171"/>
</g>
<circle opacity="0.5" cx="77.8097" cy="49.9483" r="3.55274" transform="rotate(-15 77.8097 49.9483)" fill="#FECACA"/>
<path d="M37.3844 92.5423C36.886 92.6758 36.4103 92.6676 35.9574 92.5176C35.5037 92.3649 35.1046 92.0832 34.7599 91.6724C34.4152 91.2616 34.1559 90.7318 33.9821 90.083C33.8082 89.4341 33.7682 88.847 33.862 88.3215C33.9551 87.7934 34.162 87.3521 34.4825 86.9977C34.8024 86.6406 35.2129 86.3949 35.714 86.2606C36.1017 86.1568 36.4276 86.1387 36.6917 86.2064C36.9551 86.2716 37.1723 86.3702 37.3434 86.5025C37.5146 86.6347 37.6496 86.7483 37.7486 86.8434L37.8237 86.8232L37.0202 83.8245L38.0765 83.5414L40.2475 91.6437L39.2189 91.9193L38.9666 90.9777L38.8637 91.0053C38.825 91.1457 38.7637 91.3176 38.6797 91.521C38.595 91.7218 38.4522 91.9169 38.2514 92.1064C38.0532 92.2952 37.7642 92.4405 37.3844 92.5423ZM37.3313 91.5685C37.69 91.4724 37.9669 91.2979 38.162 91.0449C38.359 90.7886 38.4773 90.4756 38.5168 90.106C38.5555 89.7338 38.5156 89.3261 38.3968 88.8831C38.2795 88.4452 38.1134 88.0785 37.8985 87.7827C37.6835 87.4869 37.4277 87.2813 37.1311 87.1657C36.8337 87.0475 36.5043 87.0369 36.143 87.1337C35.7685 87.234 35.4821 87.4153 35.2838 87.6777C35.0848 87.9373 34.9666 88.2503 34.929 88.6165C34.8934 88.9794 34.9311 89.3679 35.042 89.782C35.1544 90.2013 35.3195 90.5642 35.5372 90.8705C35.7569 91.1734 36.0172 91.3906 36.3181 91.522C36.6217 91.6527 36.9594 91.6682 37.3313 91.5685ZM41.894 91.2025L39.723 83.1003L40.7832 82.8162L41.5867 85.8149L41.6619 85.7948C41.7001 85.663 41.7602 85.4971 41.8423 85.297C41.9244 85.0969 42.0632 84.9028 42.2587 84.7148C42.4535 84.524 42.7448 84.3767 43.1325 84.2729C43.631 84.1393 44.108 84.1472 44.5635 84.2965C45.0184 84.4431 45.4182 84.7219 45.7629 85.1327C46.1095 85.5402 46.3697 86.0683 46.5436 86.7171C46.7174 87.3659 46.7578 87.9544 46.6647 88.4825C46.5716 89.0106 46.3667 89.4542 46.0502 89.8132C45.733 90.1696 45.3252 90.4145 44.8267 90.5481C44.4469 90.6499 44.1227 90.6689 43.854 90.6052C43.588 90.5408 43.3668 90.4432 43.1904 90.3124C43.0159 90.1782 42.8782 90.0596 42.7771 89.9567L42.6703 89.9853L42.9226 90.9269L41.894 91.2025ZM42.1203 87.8854C42.239 88.3284 42.4082 88.7015 42.6279 89.0044C42.8469 89.3048 43.1045 89.517 43.4007 89.6412C43.6988 89.762 44.0271 89.7744 44.3858 89.6783C44.7551 89.5793 45.0385 89.3974 45.236 89.1324C45.4336 88.8675 45.5504 88.5493 45.5866 88.1778C45.6246 87.8029 45.5875 87.4058 45.4751 86.9864C45.3642 86.5724 45.2012 86.2174 44.9863 85.9217C44.7733 85.6226 44.5157 85.4103 44.2136 85.2849C43.9107 85.1569 43.572 85.1431 43.1975 85.2434C42.8336 85.3409 42.5523 85.5152 42.3539 85.7663C42.1574 86.014 42.04 86.3196 42.0017 86.6832C41.9635 87.0468 42.003 87.4475 42.1203 87.8854Z" fill="#1E293B"/>
<path d="M45.3122 100.871L49.6541 117.076L46.7187 117.862L43.1421 104.514L43.0471 104.539L39.9059 107.976L39.185 105.286L42.5191 101.62L45.3122 100.871ZM59.3952 114.796C58.0923 115.145 56.8857 115.115 55.7754 114.706C54.6689 114.29 53.6976 113.524 52.8616 112.408C52.0293 111.286 51.3765 109.841 50.903 108.074C50.4348 106.305 50.2825 104.735 50.4462 103.363C50.6138 101.983 51.0741 100.842 51.8272 99.9396C52.5856 99.0353 53.6136 98.4093 54.9112 98.0616C56.2088 97.7139 57.4121 97.7421 58.521 98.146C59.6299 98.5499 60.5991 99.3078 61.4285 100.42C62.2632 101.53 62.9165 102.967 63.3886 104.728C63.8635 106.501 64.0186 108.082 63.8539 109.472C63.693 110.855 63.2341 112.001 62.4771 112.91C61.7254 113.818 60.6981 114.447 59.3952 114.796ZM58.7316 112.32C59.7444 112.048 60.41 111.336 60.7284 110.182C61.0506 109.021 60.951 107.468 60.4294 105.521C60.0845 104.234 59.6603 103.189 59.1566 102.385C58.653 101.582 58.0965 101.024 57.4872 100.713C56.8765 100.396 56.2362 100.327 55.5663 100.507C54.5588 100.777 53.8966 101.491 53.5796 102.65C53.2613 103.804 53.3581 105.347 53.8701 107.279C54.2111 108.573 54.6315 109.625 55.1313 110.435C55.6363 111.244 56.1942 111.807 56.8049 112.124C57.4142 112.435 58.0565 112.501 58.7316 112.32ZM68.9503 112.092C68.4703 112.22 68.0137 112.162 67.5803 111.916C67.147 111.67 66.868 111.304 66.7432 110.817C66.6107 110.344 66.6707 109.893 66.9231 109.463C67.1755 109.034 67.5417 108.755 68.0217 108.626C68.4859 108.502 68.9347 108.562 69.368 108.808C69.8066 109.052 70.0922 109.411 70.2246 109.885C70.3056 110.208 70.2996 110.523 70.2068 110.831C70.1192 111.137 69.9647 111.404 69.7434 111.633C69.5259 111.856 69.2616 112.008 68.9503 112.092ZM78.6215 109.551C77.5665 109.834 76.5693 109.889 75.6299 109.717C74.689 109.539 73.88 109.168 73.2029 108.603C72.531 108.037 72.0591 107.31 71.7872 106.421L74.6356 105.658C74.8665 106.309 75.2995 106.775 75.9348 107.057C76.5687 107.334 77.2522 107.374 77.9854 107.178C78.5604 107.023 79.0367 106.755 79.4144 106.371C79.7921 105.987 80.0473 105.525 80.18 104.987C80.3127 104.448 80.2958 103.879 80.1294 103.279C79.9707 102.665 79.6959 102.157 79.305 101.753C78.914 101.349 78.453 101.074 77.922 100.928C77.3896 100.776 76.8254 100.78 76.2293 100.94C75.7426 101.065 75.2893 101.282 74.8693 101.593C74.4493 101.903 74.1424 102.246 73.9487 102.62L71.1815 102.895L69.7892 94.3125L79.1891 91.7939L79.8463 94.2467L72.8756 96.1145L73.5599 100.536L73.6549 100.511C73.8609 100.077 74.2071 99.67 74.6934 99.2909C75.1784 98.9066 75.748 98.6267 76.4021 98.4515C77.3832 98.1886 78.321 98.1861 79.2155 98.4439C80.1086 98.6964 80.8848 99.1669 81.5442 99.8552C82.2035 100.544 82.6724 101.407 82.9508 102.446C83.2378 103.517 83.2457 104.538 82.9746 105.51C82.7073 106.475 82.2002 107.315 81.4532 108.029C80.71 108.737 79.7661 109.245 78.6215 109.551ZM87.1761 107.022L90.4127 91.5342L90.383 91.4234L82.3836 93.5668L81.7264 91.114L92.7641 88.1564L93.4362 90.6646L90.2223 106.205L87.1761 107.022Z" fill="#1E293B"/>
<defs>
<filter id="filter0_dd_140_522" x="55.8732" y="48.3172" width="11.8442" height="11.8442" filterUnits="userSpaceOnUse" color-interpolation-filters="sRGB">
<feFlood flood-opacity="0" result="BackgroundImageFix"/>
<feColorMatrix in="SourceAlpha" type="matrix" values="0 0 0 0 0 0 0 0 0 0 0 0 0 0 0 0 0 0 127 0" result="hardAlpha"/>
<feMorphology radius="2.3685" operator="dilate" in="SourceAlpha" result="effect1_dropShadow_140_522"/>
<feOffset/>
<feComposite in2="hardAlpha" operator="out"/>
<feColorMatrix type="matrix" values="0 0 0 0 0.764706 0 0 0 0 0.882353 0 0 0 0 0.937255 0 0 0 0.69 0"/>
<feBlend mode="normal" in2="BackgroundImageFix" result="effect1_dropShadow_140_522"/>
<feColorMatrix in="SourceAlpha" type="matrix" values="0 0 0 0 0 0 0 0 0 0 0 0 0 0 0 0 0 0 127 0" result="hardAlpha"/>
<feMorphology radius="1.18425" operator="dilate" in="SourceAlpha" result="effect2_dropShadow_140_522"/>
<feOffset/>
<feComposite in2="hardAlpha" operator="out"/>
<feColorMatrix type="matrix" values="0 0 0 0 1 0 0 0 0 1 0 0 0 0 1 0 0 0 0.5 0"/>
<feBlend mode="normal" in2="effect1_dropShadow_140_522" result="effect2_dropShadow_140_522"/>
<feBlend mode="normal" in="SourceGraphic" in2="effect2_dropShadow_140_522" result="shape"/>
</filter>
</defs>
</svg>
