<svg width="162" height="100" viewBox="0 0 162 100" fill="none" xmlns="http://www.w3.org/2000/svg">
<rect width="161.93" height="99.5042" rx="7.36046" fill="#FEF2F2"/>
<rect x="7.3606" y="7.36047" width="49.8139" height="14.907" rx="3.68023" fill="white"/>
<path d="M12.9356 17.814V12.0148H13.7256V14.5661H16.7186V12.0148H17.5058V17.814H16.7186V15.2542H13.7256V17.814H12.9356ZM20.459 17.9046C20.0343 17.9046 19.669 17.8121 19.3632 17.6271C19.0573 17.4402 18.8214 17.1797 18.6553 16.8456C18.491 16.5095 18.4089 16.1178 18.4089 15.6704C18.4089 15.2249 18.491 14.8323 18.6553 14.4925C18.8214 14.1508 19.0526 13.8846 19.349 13.694C19.6473 13.5033 19.9956 13.408 20.3939 13.408C20.6298 13.408 20.8601 13.4476 21.0848 13.5269C21.3113 13.6043 21.5152 13.7289 21.6964 13.9007C21.8795 14.0706 22.0239 14.2943 22.1297 14.5718C22.2373 14.8493 22.2911 15.1881 22.2911 15.5883V15.88H18.8846V15.274H21.535C21.535 15.0399 21.4878 14.8323 21.3934 14.6511C21.3009 14.4679 21.1688 14.3235 20.997 14.2178C20.8271 14.1121 20.627 14.0592 20.3967 14.0592C20.1437 14.0592 19.9248 14.1206 19.7398 14.2433C19.5567 14.366 19.4151 14.5265 19.315 14.7247C19.215 14.9229 19.165 15.1362 19.165 15.3646V15.8035C19.165 16.1131 19.2188 16.3764 19.3264 16.5935C19.4358 16.8087 19.5878 16.973 19.7822 17.0862C19.9767 17.1976 20.2032 17.2533 20.4618 17.2533C20.6298 17.2533 20.7827 17.2297 20.9206 17.1825C21.0584 17.1334 21.1763 17.0608 21.2745 16.9645C21.3746 16.8682 21.452 16.7474 21.5067 16.602L22.2316 16.7663C22.1655 16.9928 22.0504 17.192 21.8861 17.3637C21.7238 17.5336 21.5209 17.6667 21.2773 17.763C21.0357 17.8574 20.7629 17.9046 20.459 17.9046ZM24.3863 17.9131C24.1106 17.9131 23.8605 17.8612 23.6359 17.7573C23.4131 17.6535 23.2357 17.5034 23.1035 17.3071C22.9733 17.1089 22.9081 16.8673 22.9081 16.5822C22.9081 16.3349 22.9563 16.1329 23.0526 15.9762C23.1507 15.8177 23.281 15.6931 23.4433 15.6025C23.6057 15.5119 23.7859 15.4439 23.9842 15.3986C24.1824 15.3533 24.3834 15.3184 24.5873 15.2938C24.8497 15.2598 25.0621 15.2334 25.2244 15.2145C25.3886 15.1957 25.5085 15.1645 25.584 15.1211C25.6595 15.0777 25.6973 15.0031 25.6973 14.8974V14.8747C25.6973 14.6124 25.6246 14.4085 25.4793 14.2631C25.3339 14.1178 25.1159 14.0451 24.8252 14.0451C24.5231 14.0451 24.2862 14.1112 24.1144 14.2433C23.9426 14.3754 23.8218 14.5199 23.752 14.6765L23.0384 14.4727C23.1422 14.2084 23.2866 13.9988 23.4716 13.844C23.6585 13.6874 23.8671 13.576 24.0974 13.5099C24.3296 13.442 24.5665 13.408 24.8082 13.408C24.9648 13.408 25.1376 13.4268 25.3263 13.4646C25.5151 13.5005 25.6945 13.5713 25.8644 13.677C26.0361 13.7808 26.1777 13.9347 26.2891 14.1385C26.4005 14.3405 26.4562 14.6067 26.4562 14.937V17.814H25.7086V17.2222H25.6746C25.6256 17.3241 25.5472 17.4289 25.4396 17.5365C25.332 17.6422 25.1914 17.7318 25.0177 17.8055C24.844 17.8772 24.6335 17.9131 24.3863 17.9131ZM24.5278 17.2731C24.7789 17.2731 24.9913 17.224 25.1649 17.1259C25.3386 17.0277 25.4708 16.9003 25.5614 16.7436C25.6539 16.5869 25.7001 16.4199 25.7001 16.2424V15.6563C25.6699 15.6884 25.6095 15.7176 25.5189 15.7441C25.4283 15.7705 25.3245 15.7931 25.2074 15.812C25.0923 15.8309 24.979 15.8479 24.8676 15.863C24.7581 15.8762 24.6675 15.8875 24.5958 15.897C24.4278 15.9196 24.272 15.9555 24.1286 16.0046C23.987 16.0536 23.8728 16.1263 23.7859 16.2226C23.701 16.317 23.6585 16.4444 23.6585 16.6049C23.6585 16.8257 23.7406 16.9928 23.9049 17.1061C24.0691 17.2174 24.2768 17.2731 24.5278 17.2731ZM27.469 17.814V13.4646H28.2024V14.1385H28.2477C28.327 13.9139 28.4685 13.7346 28.6724 13.6005C28.8782 13.4646 29.1094 13.3966 29.3662 13.3966C29.4171 13.3966 29.4785 13.3985 29.5502 13.4023C29.6238 13.4042 29.6814 13.408 29.7229 13.4136V14.1583C29.6946 14.1508 29.638 14.1414 29.553 14.13C29.47 14.1168 29.385 14.1102 29.2982 14.1102C29.0924 14.1102 28.9084 14.1536 28.746 14.2405C28.5856 14.3254 28.4591 14.4434 28.3666 14.5944C28.2741 14.7454 28.2278 14.9172 28.2278 15.1098V17.814H27.469ZM32.5501 13.4646V14.0876H30.2367V13.4646H32.5501ZM30.8823 12.4226H31.6412V16.5539C31.6412 16.7295 31.6666 16.8616 31.7176 16.9503C31.7705 17.0372 31.8384 17.0957 31.9215 17.1259C32.0046 17.1561 32.0942 17.1712 32.1905 17.1712C32.2603 17.1712 32.3198 17.1674 32.3689 17.1599C32.418 17.1504 32.4567 17.1429 32.485 17.1372L32.6294 17.7856C32.5822 17.8026 32.5152 17.8206 32.4284 17.8394C32.3434 17.8602 32.2358 17.8706 32.1055 17.8706C31.8998 17.8725 31.7035 17.8328 31.5166 17.7517C31.3297 17.6686 31.1768 17.5421 31.0578 17.3722C30.9408 17.2023 30.8823 16.9881 30.8823 16.7295V12.4226ZM35.4642 17.814V12.0148H37.4803C37.9295 12.0148 38.3014 12.0922 38.5959 12.247C38.8904 12.3999 39.1094 12.6123 39.2529 12.8841C39.3963 13.1541 39.4681 13.4637 39.4681 13.8129C39.4681 14.1621 39.3954 14.4698 39.25 14.736C39.1066 15.0022 38.8885 15.2098 38.5959 15.359C38.3033 15.5081 37.9324 15.5827 37.4831 15.5827H35.9059V14.8917H37.4321C37.7285 14.8917 37.9682 14.8483 38.1514 14.7615C38.3364 14.6746 38.4704 14.551 38.5534 14.3905C38.6384 14.2301 38.6809 14.0375 38.6809 13.8129C38.6809 13.5864 38.6384 13.39 38.5534 13.2239C38.4685 13.0578 38.3335 12.9294 38.1485 12.8388C37.9635 12.7463 37.721 12.7001 37.4208 12.7001H36.2542V17.814H35.4642ZM38.2618 15.2032L39.6918 17.814H38.7856L37.3812 15.2032H38.2618ZM41.6156 17.9131C41.34 17.9131 41.0899 17.8612 40.8653 17.7573C40.6425 17.6535 40.4651 17.5034 40.3329 17.3071C40.2027 17.1089 40.1375 16.8673 40.1375 16.5822C40.1375 16.3349 40.1857 16.1329 40.2819 15.9762C40.3801 15.8177 40.5104 15.6931 40.6727 15.6025C40.8351 15.5119 41.0153 15.4439 41.2136 15.3986C41.4118 15.3533 41.6128 15.3184 41.8167 15.2938C42.0791 15.2598 42.2915 15.2334 42.4538 15.2145C42.618 15.1957 42.7379 15.1645 42.8134 15.1211C42.8889 15.0777 42.9267 15.0031 42.9267 14.8974V14.8747C42.9267 14.6124 42.854 14.4085 42.7086 14.2631C42.5633 14.1178 42.3453 14.0451 42.0545 14.0451C41.7525 14.0451 41.5156 14.1112 41.3438 14.2433C41.172 14.3754 41.0512 14.5199 40.9814 14.6765L40.2678 14.4727C40.3716 14.2084 40.516 13.9988 40.701 13.844C40.8879 13.6874 41.0965 13.576 41.3268 13.5099C41.559 13.442 41.7959 13.408 42.0376 13.408C42.1942 13.408 42.367 13.4268 42.5557 13.4646C42.7445 13.5005 42.9238 13.5713 43.0937 13.677C43.2655 13.7808 43.4071 13.9347 43.5185 14.1385C43.6299 14.3405 43.6856 14.6067 43.6856 14.937V17.814H42.938V17.2222H42.904C42.8549 17.3241 42.7766 17.4289 42.669 17.5365C42.5614 17.6422 42.4208 17.7318 42.2471 17.8055C42.0734 17.8772 41.8629 17.9131 41.6156 17.9131ZM41.7572 17.2731C42.0083 17.2731 42.2207 17.224 42.3943 17.1259C42.568 17.0277 42.7001 16.9003 42.7908 16.7436C42.8833 16.5869 42.9295 16.4199 42.9295 16.2424V15.6563C42.8993 15.6884 42.8389 15.7176 42.7483 15.7441C42.6577 15.7705 42.5538 15.7931 42.4368 15.812C42.3217 15.8309 42.2084 15.8479 42.097 15.863C41.9875 15.8762 41.8969 15.8875 41.8252 15.897C41.6572 15.9196 41.5014 15.9555 41.358 16.0046C41.2164 16.0536 41.1022 16.1263 41.0153 16.2226C40.9304 16.317 40.8879 16.4444 40.8879 16.6049C40.8879 16.8257 40.97 16.9928 41.1343 17.1061C41.2985 17.2174 41.5062 17.2731 41.7572 17.2731ZM46.6607 13.4646V14.0876H44.3472V13.4646H46.6607ZM44.9929 12.4226H45.7517V16.5539C45.7517 16.7295 45.7772 16.8616 45.8282 16.9503C45.881 17.0372 45.949 17.0957 46.0321 17.1259C46.1151 17.1561 46.2048 17.1712 46.3011 17.1712C46.3709 17.1712 46.4304 17.1674 46.4795 17.1599C46.5285 17.1504 46.5672 17.1429 46.5955 17.1372L46.74 17.7856C46.6928 17.8026 46.6258 17.8206 46.5389 17.8394C46.454 17.8602 46.3464 17.8706 46.2161 17.8706C46.0103 17.8725 45.814 17.8328 45.6271 17.7517C45.4402 17.6686 45.2873 17.5421 45.1684 17.3722C45.0514 17.2023 44.9929 16.9881 44.9929 16.7295V12.4226ZM49.2797 17.9046C48.855 17.9046 48.4897 17.8121 48.1839 17.6271C47.8781 17.4402 47.6421 17.1797 47.476 16.8456C47.3117 16.5095 47.2296 16.1178 47.2296 15.6704C47.2296 15.2249 47.3117 14.8323 47.476 14.4925C47.6421 14.1508 47.8734 13.8846 48.1697 13.694C48.468 13.5033 48.8163 13.408 49.2146 13.408C49.4506 13.408 49.6809 13.4476 49.9055 13.5269C50.132 13.6043 50.3359 13.7289 50.5171 13.9007C50.7002 14.0706 50.8447 14.2943 50.9504 14.5718C51.058 14.8493 51.1118 15.1881 51.1118 15.5883V15.88H47.7053V15.274H50.3557C50.3557 15.0399 50.3085 14.8323 50.2142 14.6511C50.1217 14.4679 49.9895 14.3235 49.8177 14.2178C49.6478 14.1121 49.4477 14.0592 49.2174 14.0592C48.9645 14.0592 48.7455 14.1206 48.5605 14.2433C48.3774 14.366 48.2358 14.5265 48.1357 14.7247C48.0357 14.9229 47.9857 15.1362 47.9857 15.3646V15.8035C47.9857 16.1131 48.0395 16.3764 48.1471 16.5935C48.2566 16.8087 48.4085 16.973 48.603 17.0862C48.7974 17.1976 49.0239 17.2533 49.2826 17.2533C49.4506 17.2533 49.6035 17.2297 49.7413 17.1825C49.8791 17.1334 49.9971 17.0608 50.0952 16.9645C50.1953 16.8682 50.2727 16.7474 50.3274 16.602L51.0523 16.7663C50.9862 16.9928 50.8711 17.192 50.7069 17.3637C50.5445 17.5336 50.3416 17.6667 50.0981 17.763C49.8564 17.8574 49.5836 17.9046 49.2797 17.9046Z" fill="#1F2937"/>
<g clip-path="url(#clip0_140_550)">
<rect x="113.801" y="7.36047" width="40.7688" height="84.7833" rx="11.0407" fill="#FCA5A5"/>
<path d="M127.34 39.546V50.2521H125.4V41.4331H125.338L122.834 43.0328V41.2554L125.494 39.546H127.34ZM129.617 50.2521V48.8511L133.333 45.2074C133.689 44.8485 133.985 44.5296 134.222 44.2508C134.459 43.972 134.637 43.7019 134.755 43.4405C134.874 43.1791 134.933 42.9003 134.933 42.6041C134.933 42.266 134.856 41.9768 134.703 41.7363C134.55 41.4924 134.339 41.3042 134.07 41.1717C133.802 41.0393 133.497 40.9731 133.156 40.9731C132.804 40.9731 132.495 41.0463 132.23 41.1926C131.965 41.3355 131.76 41.5394 131.613 41.8043C131.471 42.0691 131.399 42.3845 131.399 42.7505H129.554C129.554 42.0709 129.709 41.4802 130.019 40.9783C130.329 40.4765 130.756 40.0879 131.3 39.8126C131.847 39.5372 132.474 39.3996 133.182 39.3996C133.9 39.3996 134.53 39.5338 135.074 39.8021C135.618 40.0705 136.04 40.4381 136.339 40.9051C136.642 41.3721 136.794 41.9053 136.794 42.5048C136.794 42.9056 136.717 43.2994 136.564 43.6862C136.411 44.0731 136.141 44.5017 135.754 44.9722C135.37 45.4427 134.832 46.0125 134.138 46.6816L132.293 48.5583V48.6315H136.956V50.2521H129.617ZM142.275 50.456C141.414 50.456 140.676 50.2381 140.059 49.8025C139.445 49.3634 138.973 48.7308 138.642 47.9049C138.315 47.0754 138.151 46.077 138.151 44.9095C138.154 43.742 138.32 42.7487 138.647 41.9297C138.978 41.1073 139.451 40.48 140.064 40.0478C140.681 39.6157 141.418 39.3996 142.275 39.3996C143.133 39.3996 143.87 39.6157 144.487 40.0478C145.103 40.48 145.576 41.1073 145.903 41.9297C146.234 42.7522 146.4 43.7455 146.4 44.9095C146.4 46.0805 146.234 47.0807 145.903 47.9101C145.576 48.7361 145.103 49.3669 144.487 49.8025C143.873 50.2381 143.136 50.456 142.275 50.456ZM142.275 48.8197C142.944 48.8197 143.472 48.4904 143.859 47.8317C144.25 47.1695 144.445 46.1955 144.445 44.9095C144.445 44.0591 144.356 43.3447 144.178 42.7662C144 42.1876 143.749 41.752 143.425 41.4593C143.101 41.163 142.718 41.0149 142.275 41.0149C141.61 41.0149 141.083 41.346 140.697 42.0082C140.31 42.6668 140.115 43.6339 140.111 44.9095C140.108 45.7633 140.193 46.4812 140.367 47.0632C140.545 47.6452 140.796 48.0844 141.12 48.3806C141.444 48.6733 141.829 48.8197 142.275 48.8197Z" fill="white"/>
<path d="M126.502 60.2521V54.4529H127.349V56.6078H127.4C127.449 56.5172 127.519 56.4124 127.612 56.2935C127.704 56.1745 127.833 56.0707 127.997 55.982C128.161 55.8914 128.378 55.8461 128.648 55.8461C128.999 55.8461 129.313 55.9348 129.588 56.1123C129.864 56.2897 130.08 56.5455 130.237 56.8796C130.395 57.2138 130.475 57.6158 130.475 58.0859C130.475 58.5559 130.396 58.959 130.24 59.295C130.083 59.6291 129.868 59.8868 129.594 60.068C129.32 60.2474 129.008 60.337 128.657 60.337C128.393 60.337 128.176 60.2927 128.008 60.2039C127.842 60.1152 127.712 60.0114 127.618 59.8925C127.523 59.7735 127.451 59.6678 127.4 59.5753H127.329V60.2521H126.502ZM127.332 58.0774C127.332 58.3832 127.376 58.6513 127.465 58.8816C127.553 59.1119 127.682 59.2922 127.85 59.4224C128.018 59.5508 128.224 59.615 128.467 59.615C128.72 59.615 128.931 59.5479 129.101 59.4139C129.271 59.278 129.4 59.0939 129.486 58.8618C129.575 58.6296 129.62 58.3681 129.62 58.0774C129.62 57.7905 129.576 57.5328 129.489 57.3044C129.404 57.0759 129.276 56.8957 129.104 56.7635C128.934 56.6314 128.722 56.5653 128.467 56.5653C128.222 56.5653 128.014 56.6286 127.844 56.755C127.676 56.8815 127.549 57.058 127.462 57.2845C127.375 57.5111 127.332 57.7754 127.332 58.0774ZM131.266 61.8831V55.9027H132.093V56.6078H132.164C132.213 56.5172 132.283 56.4124 132.376 56.2935C132.468 56.1745 132.597 56.0707 132.761 55.982C132.925 55.8914 133.142 55.8461 133.412 55.8461C133.763 55.8461 134.077 55.9348 134.352 56.1123C134.628 56.2897 134.844 56.5455 135.001 56.8796C135.159 57.2138 135.239 57.6158 135.239 58.0859C135.239 58.5559 135.16 58.959 135.004 59.295C134.847 59.6291 134.632 59.8868 134.358 60.068C134.084 60.2474 133.772 60.337 133.421 60.337C133.157 60.337 132.94 60.2927 132.772 60.2039C132.606 60.1152 132.476 60.0114 132.382 59.8925C132.287 59.7735 132.215 59.6678 132.164 59.5753H132.113V61.8831H131.266ZM132.096 58.0774C132.096 58.3832 132.14 58.6513 132.229 58.8816C132.317 59.1119 132.446 59.2922 132.614 59.4224C132.782 59.5508 132.988 59.615 133.231 59.615C133.484 59.615 133.695 59.5479 133.865 59.4139C134.035 59.278 134.164 59.0939 134.25 58.8618C134.339 58.6296 134.384 58.3681 134.384 58.0774C134.384 57.7905 134.34 57.5328 134.253 57.3044C134.168 57.0759 134.04 56.8957 133.868 56.7635C133.698 56.6314 133.486 56.5653 133.231 56.5653C132.986 56.5653 132.778 56.6286 132.608 56.755C132.44 56.8815 132.313 57.058 132.226 57.2845C132.139 57.5111 132.096 57.7754 132.096 58.0774ZM136.028 60.2521V55.9027H136.84V56.6106H136.894C136.985 56.3709 137.133 56.184 137.339 56.05C137.545 55.914 137.791 55.8461 138.078 55.8461C138.369 55.8461 138.612 55.914 138.808 56.05C139.007 56.1859 139.153 56.3728 139.247 56.6106H139.293C139.396 56.3784 139.562 56.1934 139.788 56.0556C140.015 55.9159 140.285 55.8461 140.598 55.8461C140.993 55.8461 141.314 55.9697 141.564 56.217C141.815 56.4643 141.94 56.8371 141.94 57.3355V60.2521H141.094V57.4148C141.094 57.1203 141.013 56.907 140.853 56.7749C140.692 56.6427 140.501 56.5766 140.278 56.5766C140.002 56.5766 139.788 56.6616 139.635 56.8315C139.482 56.9995 139.406 57.2156 139.406 57.4799V60.2521H138.562V57.361C138.562 57.125 138.488 56.9353 138.341 56.7918C138.194 56.6484 138.002 56.5766 137.766 56.5766C137.606 56.5766 137.458 56.6191 137.322 56.7041C137.188 56.7871 137.079 56.9032 136.996 57.0523C136.915 57.2015 136.874 57.3742 136.874 57.5705V60.2521H136.028Z" fill="white"/>
<path d="M113.024 57.5036C114.081 57.5036 115.096 57.0835 115.843 56.3358C116.591 55.5881 117.011 54.574 117.011 53.5166C117.011 52.4592 116.591 51.4452 115.843 50.6975C115.096 49.9498 114.081 49.5297 113.024 49.5297L113.024 53.5166L113.024 57.5036Z" fill="white"/>
</g>
<path d="M7.11523 59.7709H16.7113C16.8187 59.7709 16.9182 59.7144 16.9731 59.6221L20.975 52.9032C21.1225 52.6555 21.4995 52.7321 21.5387 53.0176L22.4308 59.5077C22.4515 59.6585 22.5804 59.7709 22.7327 59.7709H23.5863C23.743 59.7709 23.8742 59.652 23.8896 59.4959L25.6034 42.0396C25.6399 41.6679 26.1843 41.6753 26.2106 42.0478L28.1994 70.159C28.2251 70.5229 28.7523 70.5424 28.8049 70.1815L30.7284 56.9867C30.7684 56.7124 31.1241 56.6296 31.2811 56.8581L33.1921 59.6388C33.249 59.7215 33.3429 59.7709 33.4433 59.7709H53.3527C53.4565 59.7709 53.5532 59.7181 53.6092 59.6307L57.9894 52.802C58.1383 52.5697 58.4946 52.6392 58.5454 52.9103L59.1186 55.9687C59.1819 56.3062 59.6683 56.2976 59.7195 55.9581L62.192 39.5684C62.2461 39.2098 62.7692 39.2288 62.7972 39.5903L65.2166 70.8348C65.2438 71.1864 65.7469 71.2187 65.8188 70.8734L68.6234 57.4059C68.6881 57.0956 69.1246 57.0779 69.2141 57.382L69.8533 59.5523C69.8915 59.6819 70.0105 59.7709 70.1457 59.7709H91.0326C91.1373 59.7709 91.2346 59.7172 91.2904 59.6286L94.7297 54.1692C94.8605 53.9615 95.1707 53.9859 95.2675 54.2114L96.3478 56.7264C96.4699 57.0106 96.8888 56.9532 96.9299 56.6467L99.2144 39.6104C99.2626 39.2504 99.787 39.2616 99.8199 39.6233L102.468 68.739C102.501 69.1008 103.026 69.1118 103.074 68.7516L105.122 53.3796C105.142 53.2281 105.271 53.1151 105.424 53.1151H113.494" stroke="#FCA5A5" stroke-width="1.84011"/>
<defs>
<clipPath id="clip0_140_550">
<rect x="113.801" y="7.36047" width="40.7688" height="84.7833" rx="11.0407" fill="white"/>
</clipPath>
</defs>
</svg>
