<svg width="387" height="289" viewBox="0 0 387 289" fill="none" xmlns="http://www.w3.org/2000/svg">
<path d="M387 253.387H0.469727V253.58H387V253.387Z" fill="#EBEBEB"/>
<path d="M348.27 265.83H322.665V266.023H348.27V265.83Z" fill="#EBEBEB"/>
<path d="M256.522 267.928H249.802V268.121H256.522V267.928Z" fill="#EBEBEB"/>
<path d="M321.891 258.651H285.042V258.845H321.891V258.651Z" fill="#EBEBEB"/>
<path d="M59.3292 259.95H41.0239V260.143H59.3292V259.95Z" fill="#EBEBEB"/>
<path d="M86.1932 259.95H66.2119V260.143H86.1932V259.95Z" fill="#EBEBEB"/>
<path d="M152.076 263.215H102.105V263.408H152.076V263.215Z" fill="#EBEBEB"/>
<path d="M183.696 218.91H34.419C31.9862 218.91 30.0063 216.93 30.0063 214.497V4.66397C30.0063 2.23115 31.9862 0.251343 34.419 0.251343H183.696C186.128 0.251343 188.108 2.23115 188.108 4.66397V214.497C188.108 216.93 186.128 218.91 183.696 218.91ZM34.419 0.44538C32.0921 0.44538 30.1996 2.33783 30.1996 4.66474V214.498C30.1996 216.825 32.0921 218.717 34.419 218.717H183.696C186.022 218.717 187.915 216.825 187.915 214.498V4.66397C187.915 2.33783 186.022 0.444608 183.696 0.444608L34.419 0.44538Z" fill="#EBEBEB"/>
<path d="M350.905 218.91H201.629C199.196 218.91 197.217 216.93 197.217 214.497V4.66397C197.217 2.23115 199.197 0.251343 201.629 0.251343H350.905C353.339 0.251343 355.318 2.23115 355.318 4.66397V214.497C355.319 216.93 353.339 218.91 350.905 218.91ZM201.629 0.44538C199.303 0.44538 197.411 2.33783 197.411 4.66474V214.498C197.411 216.825 199.303 218.717 201.629 218.717H350.905C353.232 218.717 355.125 216.825 355.125 214.498V4.66397C355.125 2.33783 353.232 0.444608 350.905 0.444608L201.629 0.44538Z" fill="#EBEBEB"/>
<path d="M341.711 20.3879H219.589V253.387H341.711V20.3879Z" fill="#EBEBEB"/>
<path d="M332.627 27.9863H228.672V253.387H332.627V27.9863Z" fill="#F5F5F5"/>
<path d="M295.264 46.682H266.038V54.7636H295.264V46.682Z" fill="white"/>
<path d="M308.435 126.928H324.291C325.658 126.928 326.767 128.037 326.767 129.404C326.767 130.772 325.658 131.88 324.291 131.88H308.435C307.067 131.88 305.958 130.772 305.958 129.404C305.958 128.037 307.067 126.928 308.435 126.928Z" fill="white"/>
<path d="M136.093 45.1831H54.8779V110.637H136.093V45.1831Z" fill="#EBEBEB"/>
<path d="M131.732 106.277V49.5403L59.2325 49.5403L59.2325 106.277L131.732 106.277Z" fill="#FAFAFA"/>
<path d="M123.277 78.6522V75.9419L67.6881 75.9419V78.6522L123.277 78.6522Z" fill="#E0E0E0"/>
<path d="M123.277 84.8264V82.1161L67.6877 82.1161V84.8264L123.277 84.8264Z" fill="#E0E0E0"/>
<path d="M123.277 91.0008V88.2904L67.6877 88.2904V91.0008L123.277 91.0008Z" fill="#E0E0E0"/>
<path d="M109.34 97.1751V94.4647H81.6256V97.1751H109.34Z" fill="#E0E0E0"/>
<path d="M67.6852 49.5393C67.6852 54.2086 63.9042 57.9904 59.2341 57.9904C57.6393 57.9904 56.1496 57.5459 54.8779 56.779V45.1831H66.4823C67.2492 46.4548 67.6852 47.9445 67.6852 49.5393Z" fill="#EBEBEB"/>
<path d="M136.093 45.1831V56.779C134.821 57.5459 133.332 57.9904 131.737 57.9904C127.068 57.9904 123.277 54.2094 123.277 49.5393C123.277 47.9445 123.722 46.4548 124.488 45.1831H136.093Z" fill="#EBEBEB"/>
<path d="M67.6852 106.281C67.6852 107.876 67.25 109.366 66.4831 110.637H54.8779V99.0329C56.1496 98.266 57.6393 97.8215 59.2341 97.8215C63.9042 97.8215 67.6852 101.612 67.6852 106.281Z" fill="#EBEBEB"/>
<path d="M136.093 99.0329V110.637H124.488C123.722 109.366 123.278 107.876 123.278 106.281C123.278 101.612 127.067 97.8215 131.737 97.8215C133.331 97.8215 134.82 98.266 136.093 99.0329Z" fill="#EBEBEB"/>
<path d="M102.595 64.5109C103.232 60.586 100.566 56.8879 96.6414 56.2509C92.7165 55.6139 89.0184 58.2793 88.3814 62.2042C87.7444 66.129 90.4098 69.8272 94.3347 70.4642C98.2595 71.1011 101.958 68.4358 102.595 64.5109Z" fill="#E0E0E0"/>
<path d="M201.728 160.431H41.0239V166.212H201.728V160.431Z" fill="#EBEBEB"/>
<path d="M200.335 166.213H148.125V253.388H200.335V166.213Z" fill="#F5F5F5"/>
<path d="M95.2199 166.213H43.0098V253.388H95.2199V166.213Z" fill="#F5F5F5"/>
<path d="M44.7924 166.213H43.0098V253.388H44.7924V166.213Z" fill="#EBEBEB"/>
<path d="M149.907 166.213H148.125V253.388H149.907V166.213Z" fill="#EBEBEB"/>
<path d="M70.4316 146.493H60.8325L61.6025 160.431H69.6616L70.4316 146.493Z" fill="#F0F0F0"/>
<path d="M153.793 154.385H103.63V160.431H153.793V154.385Z" fill="#F0F0F0"/>
<path d="M153.794 155.094H130.667V159.723H153.794V155.094Z" fill="#FAFAFA"/>
<path d="M193.735 288.3C276.516 288.3 343.623 284.381 343.623 279.547C343.623 274.713 276.516 270.794 193.735 270.794C110.954 270.794 43.8472 274.713 43.8472 279.547C43.8472 284.381 110.954 288.3 193.735 288.3Z" fill="#F5F5F5"/>
<path d="M263.856 225.419C277.38 225.419 288.344 214.455 288.344 200.931C288.344 187.406 277.38 176.443 263.856 176.443C250.331 176.443 239.368 187.406 239.368 200.931C239.368 214.455 250.331 225.419 263.856 225.419Z" fill="white"/>
<path d="M263.856 225.721C250.186 225.721 239.066 214.599 239.066 200.931C239.066 187.262 250.186 176.142 263.856 176.142C277.525 176.142 288.645 187.262 288.645 200.931C288.645 214.6 277.525 225.721 263.856 225.721ZM263.856 176.744C250.519 176.744 239.668 187.594 239.668 200.931C239.668 214.268 250.519 225.118 263.856 225.118C277.192 225.118 288.043 214.268 288.043 200.931C288.043 187.594 277.192 176.744 263.856 176.744Z" fill="#00DDEE"/>
<path d="M267.796 187.047H259.914V214.815H267.796V187.047Z" fill="#00DDEE"/>
<path d="M277.739 204.872V196.989H249.972V204.872H277.739Z" fill="#00DDEE"/>
<path d="M97.9629 15.8037L97.4326 15.2401C101.049 11.8379 105.543 9.67252 110.428 8.97754L110.537 9.74287C105.81 10.4154 101.463 12.5112 97.9629 15.8037Z" fill="#00DDEE"/>
<path d="M92.2439 24.2548L91.5234 23.9742C92.2895 22.0137 93.3162 20.1576 94.5747 18.4561L95.1962 18.9168C93.9787 20.5626 92.9853 22.3585 92.2439 24.2548Z" fill="#00DDEE"/>
<path d="M113.809 53.8661C125.523 53.8661 135.02 44.3699 135.02 32.6556C135.02 20.9414 125.523 11.4452 113.809 11.4452C102.095 11.4452 92.5986 20.9414 92.5986 32.6556C92.5986 44.3699 102.095 53.8661 113.809 53.8661Z" fill="#00DDEE"/>
<path d="M126.453 23.1005C123.005 19.5228 117.308 19.4834 113.809 22.9822C110.311 19.4841 104.614 19.5228 101.166 23.1005C97.7804 26.6118 98.041 32.2682 101.49 35.7176L111.516 45.7442C112.782 47.0113 114.836 47.0113 116.104 45.7442L126.13 35.7176C129.578 32.269 129.838 26.6125 126.453 23.1005Z" fill="white"/>
<path d="M113.809 41.927C113.8 41.927 113.79 41.927 113.781 41.9262C113.461 41.9146 113.181 41.7074 113.078 41.4036L108.6 28.3165L106.728 33.7905C106.62 34.1036 106.327 34.3139 105.997 34.3139H98.504C98.0773 34.3139 97.731 33.9683 97.731 33.5408C97.731 33.1133 98.0773 32.7678 98.504 32.7678H105.444L107.869 25.678C107.976 25.3649 108.269 25.1547 108.6 25.1547C108.931 25.1547 109.225 25.3642 109.331 25.678L113.886 38.9924L118.306 28.5809C118.421 28.3087 118.681 28.1271 118.975 28.1116C119.272 28.0915 119.548 28.2484 119.692 28.5059L122.075 32.7685H129.113C129.54 32.7685 129.886 33.1141 129.886 33.5416C129.886 33.9691 129.54 34.3146 129.113 34.3146H121.621C121.341 34.3146 121.083 34.1631 120.946 33.9188L119.112 30.638L114.52 41.4562C114.399 41.7422 114.118 41.927 113.809 41.927Z" fill="#00DDEE"/>
<path d="M231.511 252.461H150.825C145.189 252.461 140.889 247.85 141.271 242.215L154.321 49.0238C154.702 43.3882 159.624 38.7769 165.259 38.7769H245.945C251.581 38.7769 255.881 43.3882 255.499 49.0238L242.449 242.215C242.068 247.85 237.145 252.461 231.511 252.461Z" fill="#263238"/>
<path d="M249.359 117.454H247.324C245.751 117.454 244.55 116.167 244.656 114.593L247.151 77.6525C247.258 76.0793 248.632 74.7914 250.206 74.7914H252.241C253.814 74.7914 255.015 76.0785 254.909 77.6525L252.414 114.593C252.307 116.166 250.932 117.454 249.359 117.454Z" fill="#263238"/>
<path d="M153.136 92.8115H151.105C149.818 92.8115 148.837 91.7585 148.923 90.4714L149.825 77.1307C149.911 75.8436 151.035 74.7906 152.322 74.7906H154.354C155.641 74.7906 156.623 75.8436 156.536 77.1307L155.634 90.4714C155.548 91.7585 154.424 92.8115 153.136 92.8115Z" fill="#00DDEE"/>
<path d="M151.528 116.636H149.496C148.209 116.636 147.227 115.583 147.314 114.296L148.216 100.956C148.302 99.6692 149.426 98.6163 150.714 98.6163H152.745C154.032 98.6163 155.014 99.6692 154.927 100.956L154.025 114.296C153.938 115.583 152.814 116.636 151.528 116.636Z" fill="#00DDEE"/>
<path d="M229.802 252.461H149.116C143.481 252.461 139.181 247.85 139.562 242.215L152.612 49.0238C152.992 43.3882 157.915 38.7769 163.551 38.7769H244.237C249.872 38.7769 254.172 43.3882 253.791 49.0238L240.741 242.215C240.36 247.85 235.438 252.461 229.802 252.461Z" fill="#00DDEE"/>
<path opacity="0.3" d="M140.408 240.089L153.147 51.499H252.922L240.182 240.089H140.408Z" fill="white"/>
<path opacity="0.1" d="M179.799 240.089L215.403 51.499H237.753L202.149 240.089H179.799Z" fill="white"/>
<path opacity="0.1" d="M162.917 240.089L198.522 51.499H209.843L174.238 240.089H162.917Z" fill="white"/>
<path d="M193.845 43.5149H213.301C213.996 43.5149 214.527 44.0839 214.48 44.7781C214.432 45.4731 213.826 46.0413 213.131 46.0413H193.674C192.979 46.0413 192.449 45.4731 192.496 44.7781C192.543 44.0839 193.15 43.5149 193.845 43.5149Z" fill="white"/>
<path d="M189.794 271.05L182.972 271.705L180.513 255.968L187.335 255.313L189.794 271.05Z" fill="#FFB573"/>
<path d="M182.196 268.371L189.333 266.149C189.601 266.065 189.865 266.187 189.97 266.442L192.301 272.116C192.543 272.704 192.187 273.443 191.569 273.624C188.986 274.38 186.533 274.581 183.418 275.917C179.775 277.479 178.248 279.533 174.334 279.533C171.524 279.533 170.894 276.961 172.079 276.602C177.472 274.964 176.782 273.619 180.712 269.394C181.14 268.935 181.631 268.547 182.196 268.371Z" fill="#263238"/>
<path opacity="0.2" d="M180.514 255.973L181.78 264.084L188.606 263.429L187.34 255.317L180.514 255.973Z" fill="black"/>
<path d="M185.448 57.1826C176.503 56.1305 167.605 56.8386 158.677 58.5703C155.649 59.1571 153.295 61.6517 152.948 64.7269C151.979 73.2762 150.876 92.4404 155.188 121.025C155.189 121.028 191.737 117.948 191.737 117.948C191.813 112.759 188.122 89.1294 191.172 64.5978C191.631 60.9042 189.093 57.6109 185.448 57.1826Z" fill="white"/>
<path d="M164.163 64.5105L165.473 67.1304C165.604 67.3925 165.866 67.5641 166.159 67.5788L167.572 67.6515C167.825 67.6646 168.074 67.5888 168.278 67.4373L170.716 65.6229L167.704 63.4329L164.163 64.5105Z" fill="#263238"/>
<path d="M167.624 66.907C166.57 66.5143 165.974 66.7732 165.974 66.7732C164.821 70.8302 163.559 82.481 163.433 87.6319C166.925 97.8069 168.066 98.839 168.066 98.839L169.841 86.5883C169.841 86.5883 167.855 74.0671 167.624 66.907Z" fill="#263238"/>
<path d="M177.71 39.556C176.876 44.5964 176.167 53.8105 179.778 57.0651C177.131 59.845 173.659 63.0679 167.707 63.432C161.754 63.7961 162.674 59.6734 164.183 57.4709C169.739 55.9905 169.47 51.8446 168.379 47.9739L177.71 39.556Z" fill="#FFB573"/>
<path d="M181.3 56.6206C180.832 56.4096 180.327 56.2719 179.987 56.1939C179.762 56.1398 179.527 56.2317 179.413 56.432C178.836 57.4091 177.087 61.7591 167.705 63.4328C169.247 64.3427 171.3 67.1767 172.186 68.5311C174.999 67.0716 182.32 62.7023 181.62 57.052C181.59 56.8664 181.476 56.6979 181.3 56.6206Z" fill="#F5F5F5"/>
<path d="M164.234 57.7006C164.311 57.3148 163.981 56.9785 163.6 57.0512C163.211 57.1247 162.825 57.2491 162.641 57.311C162.566 57.3357 162.509 57.3759 162.443 57.4254C161.725 58.0902 157.806 63.7451 161.473 68.324C162.289 67.0824 164.913 64.2561 167.703 63.4328C165.065 62.2384 163.763 60.0244 164.234 57.7006Z" fill="#F5F5F5"/>
<path opacity="0.2" d="M173.907 42.9907L168.384 47.9692C168.645 48.8853 168.855 49.8161 168.947 50.7229C171.076 50.3588 173.943 47.9375 174.103 45.6949C174.183 44.5763 174.104 43.5056 173.907 42.9907Z" fill="black"/>
<path d="M166.53 24.3221C161.771 26.1821 161.457 30.0968 161.928 34.3788C162.398 38.6608 167.01 35.8229 168.044 33.1543C169.077 30.4865 173.125 21.7439 166.53 24.3221Z" fill="#263238"/>
<path d="M181.719 32.8482C180.397 39.5815 179.962 43.5814 176.106 46.6813C170.306 51.3452 162.438 47.3137 161.746 40.3677C161.122 34.116 163.389 24.1551 170.319 22.1923C177.147 20.2589 183.041 26.1156 181.719 32.8482Z" fill="#FFB573"/>
<path d="M181.443 38.4258C175.774 38.7266 176.976 35.5052 178.006 33.6584C179.037 31.8115 176.933 28.7626 178.307 27.1732C175.859 28.1465 173.288 27.3448 170.018 25.0689C167.48 23.3025 164.306 30.376 161.214 26.8299C158.293 23.4803 161.007 18.433 168.022 17.6174C175.036 16.8026 176.317 21.7749 180.927 21.3319C185.538 20.8898 183.934 24.6816 183.031 25.4547C186.897 25.7136 189.002 29.4073 181.443 38.4258Z" fill="#263238"/>
<path d="M182.172 25.9278C182.172 25.9278 185.071 24.5325 185.114 20.9888C186.617 23.6736 186.45 26.7187 182.172 25.9278Z" fill="#263238"/>
<path d="M167.452 40.0416C169.543 40.3763 170.929 39.2593 170.992 39.2059C171.062 39.148 171.073 39.0459 171.018 38.9771C170.962 38.9083 170.859 38.8998 170.789 38.957C170.772 38.9701 169.157 40.265 166.854 39.5677C166.768 39.5422 166.677 39.5901 166.648 39.6767C166.62 39.7625 166.667 39.853 166.752 39.8793C166.994 39.9527 167.227 40.0053 167.452 40.0416Z" fill="#263238"/>
<path d="M183.094 40.4729C181.961 41.9456 180.268 42.7727 178.77 42.9652C176.516 43.2536 175.771 41.1578 176.717 39.2012C177.568 37.4402 179.767 35.1674 181.875 35.7804C183.952 36.3842 184.391 38.7892 183.094 40.4729Z" fill="#FFB573"/>
<path d="M180.858 186.88C181.127 166.694 183.706 118.625 183.706 118.625L155.211 121.026C155.211 121.026 160.879 170.571 164.3 191.162C167.856 212.573 178.765 262.716 178.765 262.716L190.332 261.731C190.332 261.731 186.124 202.487 180.858 186.88Z" fill="#263238"/>
<path d="M178.064 263.035L191.815 261.871L191.275 257.431L176.948 258.391L178.064 263.035Z" fill="#00DDEE"/>
<path d="M171.566 33.251C171.492 33.803 171.142 34.2181 170.785 34.1779C170.428 34.1377 170.199 33.6584 170.273 33.1065C170.347 32.5545 170.696 32.1394 171.054 32.1796C171.411 32.219 171.64 32.6991 171.566 33.251Z" fill="#263238"/>
<path d="M165.257 32.7284C165.183 33.2804 164.833 33.6955 164.476 33.6553C164.119 33.6151 163.889 33.1358 163.964 32.5839C164.038 32.0319 164.387 31.6168 164.744 31.657C165.102 31.6964 165.331 32.1765 165.257 32.7284Z" fill="#263238"/>
<path d="M167.037 33.408C167.037 33.408 165.307 36.0735 163.708 37.3019C164.527 38.1638 166.226 37.9257 166.226 37.9257L167.037 33.408Z" fill="#ED893E"/>
<path opacity="0.4" d="M161.25 32.897C161.137 33.7767 162.04 34.5134 163.255 34.6696C164.47 34.8258 165.616 34.1462 165.73 33.2665" fill="#00DDEE"/>
<path opacity="0.4" d="M168.571 33.7164C168.405 34.5884 169.263 35.3777 170.467 35.6066C171.671 35.8354 172.855 35.2262 173.021 34.3542" fill="#00DDEE"/>
<path d="M170.945 35.8199C170.809 35.8199 170.669 35.8106 170.53 35.7936C169.903 35.7132 169.335 35.4581 168.93 35.077C168.509 34.6804 168.311 34.1942 168.373 33.7079C168.322 33.6669 167.885 33.4945 167.133 33.3971C166.376 33.2997 165.907 33.3554 165.828 33.425C165.72 34.3635 164.546 35.0175 163.233 34.8551C162.606 34.7747 162.038 34.5196 161.632 34.1385C161.211 33.7419 161.013 33.2557 161.076 32.7694L161.445 32.8166C161.398 33.1822 161.556 33.5548 161.888 33.8672C162.237 34.1949 162.732 34.4145 163.281 34.4848C164.388 34.6309 165.378 34.113 165.478 33.3361C165.532 32.907 166.432 32.9325 167.176 33.0276C167.921 33.1235 168.799 33.3276 168.743 33.7558C168.696 34.1215 168.854 34.4941 169.185 34.8064C169.534 35.1342 170.029 35.3537 170.577 35.4241C171.126 35.496 171.661 35.4071 172.081 35.179C172.482 34.961 172.728 34.6402 172.775 34.2753L172.798 34.0906L182.343 35.3174L182.296 35.6877L173.108 34.5065C172.998 34.9147 172.703 35.2656 172.259 35.5068C171.879 35.7117 171.423 35.8199 170.945 35.8199Z" fill="#263238"/>
<path d="M173.989 30.8259C174.044 30.8243 174.098 30.8097 174.149 30.7803C174.305 30.6883 174.36 30.4881 174.272 30.3334C173.393 28.7835 171.901 28.7054 171.839 28.7031C171.66 28.6953 171.506 28.836 171.495 29.0162C171.483 29.1955 171.618 29.347 171.796 29.3548C171.844 29.3571 173.006 29.4305 173.707 30.6674C173.767 30.7718 173.877 30.8282 173.989 30.8259Z" fill="#263238"/>
<path d="M163.219 29.9524C163.323 29.9617 163.43 29.9199 163.503 29.8318C164.425 28.7085 165.584 28.7982 165.633 28.8021C165.81 28.8175 165.971 28.6861 165.991 28.5075C166.012 28.329 165.887 28.1705 165.71 28.1527C165.646 28.1481 164.162 28.0159 163.007 29.4236C162.892 29.5643 162.909 29.7692 163.046 29.882C163.097 29.9238 163.157 29.9462 163.219 29.9524Z" fill="#263238"/>
<path d="M204.593 183.625C198.679 153.231 197.354 129.458 191.737 117.948L164.134 121.025C164.134 121.025 180.58 166.321 188.606 185.651C196.949 205.751 213.416 240.089 213.416 240.089H227.204C227.204 240.089 214.334 197.47 204.593 183.625Z" fill="#263238"/>
<path d="M117.096 68.5559L114.133 66.6688C113.128 66.0287 111.799 66.1834 110.993 67.0329L108.969 69.1674C108.047 70.1399 108.138 71.6643 109.172 72.5456L110.62 73.7802C111.874 74.8509 113.341 75.6448 114.923 76.1118L119.29 77.3997L122.156 74.3237C123.004 71.0807 117.096 68.5559 117.096 68.5559Z" fill="#FFB573"/>
<path d="M161.261 67.1141C160.179 69.7579 159.119 72.214 157.965 74.7295C156.813 77.2242 155.639 79.7165 154.352 82.1856C153.07 84.6587 151.685 87.1039 150.125 89.5591C149.336 90.7844 148.492 92.0074 147.524 93.2327C146.543 94.4564 145.476 95.6902 143.966 96.9202C143.201 97.5301 142.311 98.1524 141.11 98.6804C140.791 98.8095 140.486 98.934 140.129 99.0391L139.59 99.1883C139.391 99.2394 139.038 99.3012 138.766 99.336C137.625 99.4666 136.698 99.3167 135.948 99.1288C134.457 98.726 133.552 98.1679 132.713 97.6584C131.892 97.1374 131.219 96.6133 130.588 96.0884C128.12 93.988 126.268 91.8574 124.445 89.6897C122.642 87.5283 120.943 85.3544 119.314 83.1404C117.67 80.9194 116.108 78.7432 114.504 76.4117L123.052 70.8943C125.73 75.1972 128.792 79.5201 131.987 83.3793C133.594 85.2779 135.303 87.1402 136.913 88.473C137.308 88.7969 137.694 89.0829 138.001 89.2708C138.29 89.4617 138.575 89.5421 138.378 89.4687C138.272 89.4393 138.017 89.3728 137.538 89.4238C137.43 89.4285 137.243 89.4741 137.206 89.4818C137.185 89.4826 137.165 89.4864 137.147 89.4934C137.11 89.5081 137.11 89.4965 137.101 89.5058C137.117 89.4895 137.34 89.3597 137.605 89.1293C138.153 88.6647 138.852 87.8808 139.508 87.0088C140.171 86.129 140.823 85.1449 141.451 84.1168C142.716 82.0566 143.855 79.8046 144.947 77.5117C146.029 75.2103 147.07 72.8571 148.021 70.4591C148.965 68.0796 149.91 65.6004 150.687 63.2534L161.261 67.1141Z" fill="#00DDEE"/>
<g opacity="0.6">
<path d="M161.261 67.1141C160.179 69.7579 159.119 72.214 157.965 74.7295C156.813 77.2242 155.639 79.7165 154.352 82.1856C153.07 84.6587 151.685 87.1039 150.125 89.5591C149.336 90.7844 148.492 92.0074 147.524 93.2327C146.543 94.4564 145.476 95.6902 143.966 96.9202C143.201 97.5301 142.311 98.1524 141.11 98.6804C140.791 98.8095 140.486 98.934 140.129 99.0391L139.59 99.1883C139.391 99.2394 139.038 99.3012 138.766 99.336C137.625 99.4666 136.698 99.3167 135.948 99.1288C134.457 98.726 133.552 98.1679 132.713 97.6584C131.892 97.1374 131.219 96.6133 130.588 96.0884C128.12 93.988 126.268 91.8574 124.445 89.6897C122.642 87.5283 120.943 85.3544 119.314 83.1404C117.67 80.9194 116.108 78.7432 114.504 76.4117L123.052 70.8943C125.73 75.1972 128.792 79.5201 131.987 83.3793C133.594 85.2779 135.303 87.1402 136.913 88.473C137.308 88.7969 137.694 89.0829 138.001 89.2708C138.29 89.4617 138.575 89.5421 138.378 89.4687C138.272 89.4393 138.017 89.3728 137.538 89.4238C137.43 89.4285 137.243 89.4741 137.206 89.4818C137.185 89.4826 137.165 89.4864 137.147 89.4934C137.11 89.5081 137.11 89.4965 137.101 89.5058C137.117 89.4895 137.34 89.3597 137.605 89.1293C138.153 88.6647 138.852 87.8808 139.508 87.0088C140.171 86.129 140.823 85.1449 141.451 84.1168C142.716 82.0566 143.855 79.8046 144.947 77.5117C146.029 75.2103 147.07 72.8571 148.021 70.4591C148.965 68.0796 149.91 65.6004 150.687 63.2534L161.261 67.1141Z" fill="white"/>
</g>
<path d="M181.506 55.2484C178.606 60.625 168.286 81.2773 167.037 94.0003C162.466 82.4354 163.466 56.7551 163.466 56.7551C161.219 56.8146 157.098 57.8126 153.977 59.0364C151.956 59.8288 150.567 61.7545 150.404 63.9113C149.93 70.1831 149.273 85.1156 151.658 103.704C154.863 128.673 157.867 167.498 157.867 167.498C157.867 167.498 183.416 166.435 203.125 162.276C200.72 143.192 192.494 111.202 192.419 102.634C192.324 91.61 192.58 70.0556 192.93 61.0595C193.033 58.3971 191.237 56.1219 188.662 55.5939C185.126 54.868 181.506 55.2484 181.506 55.2484Z" fill="#00DDEE"/>
<path opacity="0.7" d="M181.506 55.2485C178.606 60.6251 168.286 81.2774 167.037 94.0005C162.466 82.4355 163.466 56.7552 163.466 56.7552C161.219 56.8147 157.098 57.8127 153.977 59.0365C151.956 59.8289 150.567 61.7546 150.404 63.9114C149.93 70.1833 149.273 85.1157 151.658 103.704C154.863 128.673 157.867 167.498 157.867 167.498C157.867 167.498 183.416 166.435 203.125 162.276C200.72 143.193 192.494 111.203 192.419 102.634C192.324 91.6078 192.58 70.0464 192.93 61.0542C193.029 58.4861 191.38 56.1901 188.904 55.6459C185.293 54.8512 181.506 55.2485 181.506 55.2485Z" fill="white"/>
<path d="M175.483 163.358C171.047 138.878 167.526 102.955 167.239 98.6302L167.64 98.6031C167.927 102.925 171.446 138.822 175.878 163.287L175.483 163.358Z" fill="white"/>
<path d="M173.269 119.807H149.711C148.787 119.807 147.868 119.051 147.669 118.126L139.787 81.5069C139.588 80.5824 140.181 79.8263 141.106 79.8263H164.663C165.588 79.8263 166.507 80.5824 166.706 81.5069L174.588 118.126C174.786 119.051 174.193 119.807 173.269 119.807Z" fill="white"/>
<path d="M172.538 120.142H148.585C147.645 120.142 146.711 119.373 146.509 118.433L138.495 81.1992C138.292 80.2592 138.896 79.49 139.836 79.49H163.788C164.728 79.49 165.663 80.2592 165.865 81.1992L173.879 118.433C174.082 119.373 173.478 120.142 172.538 120.142Z" fill="#00DDEE"/>
<path d="M175.284 99.1025L169.322 98.8798C168.605 98.8528 167.89 98.9773 167.224 99.2455L164.146 100.482C162.886 100.988 162.314 102.403 162.878 103.619L164.117 106.287C164.61 107.349 165.82 107.918 166.976 107.632L170.388 106.787C170.388 106.787 176.792 106.276 177.021 102.932L175.284 99.1025Z" fill="#FFB573"/>
<path d="M191.74 58.5594C193.22 60.8446 194.566 62.9991 195.902 65.2696C197.233 67.5192 198.538 69.7951 199.769 72.1468C200.992 74.5069 202.168 76.9204 203.225 79.5187C203.745 80.8298 204.232 82.1896 204.636 83.687C205.02 85.2014 205.395 86.8055 205.317 88.9995L205.309 89.2012L205.304 89.3017C205.304 89.3257 205.301 89.3713 205.292 89.454C205.262 89.7331 205.218 90.0137 205.164 90.2881C205.106 90.534 205.037 90.779 204.962 91.0202C204.885 91.2591 204.803 91.4477 204.715 91.6611C204.366 92.4496 203.958 93.0658 203.588 93.5327C202.821 94.5083 202.118 95.1035 201.443 95.6694C200.095 96.7532 198.838 97.5163 197.59 98.2267C195.102 99.6198 192.667 100.705 190.226 101.735C187.794 102.772 185.363 103.715 182.921 104.605C180.47 105.515 178.073 106.351 175.534 107.203L172.59 97.4629C174.879 96.8267 177.271 96.0505 179.58 95.2628C181.895 94.4503 184.187 93.5922 186.414 92.673C188.625 91.7369 190.796 90.7234 192.71 89.6303C193.654 89.0899 194.546 88.507 195.162 87.9976C195.457 87.7587 195.697 87.499 195.697 87.468C195.721 87.4425 195.64 87.5113 195.548 87.7239C195.516 87.7896 195.505 87.836 195.472 87.9234C195.438 88.0123 195.414 88.1058 195.397 88.1993C195.366 88.3176 195.346 88.4413 195.338 88.5642C195.336 88.6083 195.335 88.6137 195.334 88.5982L195.332 88.5812L195.328 88.5465C195.332 88.2102 195.192 87.3065 194.909 86.3927C194.631 85.4581 194.245 84.4423 193.806 83.4156C192.917 81.3508 191.81 79.2489 190.607 77.1771C189.4 75.1029 188.121 73.0342 186.766 71.0049C185.415 68.9965 183.982 66.9294 182.565 65.0756L191.74 58.5594Z" fill="#00DDEE"/>
<g opacity="0.7">
<path d="M191.74 58.5594C193.22 60.8446 194.566 62.9991 195.902 65.2696C197.233 67.5192 198.538 69.7951 199.769 72.1468C200.992 74.5069 202.168 76.9204 203.225 79.5187C203.745 80.8298 204.232 82.1896 204.636 83.687C205.02 85.2014 205.395 86.8055 205.317 88.9995L205.309 89.2012L205.304 89.3017C205.304 89.3257 205.301 89.3713 205.292 89.454C205.262 89.7331 205.218 90.0137 205.164 90.2881C205.106 90.534 205.037 90.779 204.962 91.0202C204.885 91.2591 204.803 91.4477 204.715 91.6611C204.366 92.4496 203.958 93.0658 203.588 93.5327C202.821 94.5083 202.118 95.1035 201.443 95.6694C200.095 96.7532 198.838 97.5163 197.59 98.2267C195.102 99.6198 192.667 100.705 190.226 101.735C187.794 102.772 185.363 103.715 182.921 104.605C180.47 105.515 178.073 106.351 175.534 107.203L172.59 97.4629C174.879 96.8267 177.271 96.0505 179.58 95.2628C181.895 94.4503 184.187 93.5922 186.414 92.673C188.625 91.7369 190.796 90.7234 192.71 89.6303C193.654 89.0899 194.546 88.507 195.162 87.9976C195.457 87.7587 195.697 87.499 195.697 87.468C195.721 87.4425 195.64 87.5113 195.548 87.7239C195.516 87.7896 195.505 87.836 195.472 87.9234C195.438 88.0123 195.414 88.1058 195.397 88.1993C195.366 88.3176 195.346 88.4413 195.338 88.5642C195.336 88.6083 195.335 88.6137 195.334 88.5982L195.332 88.5812L195.328 88.5465C195.332 88.2102 195.192 87.3065 194.909 86.3927C194.631 85.4581 194.245 84.4423 193.806 83.4156C192.917 81.3508 191.81 79.2489 190.607 77.1771C189.4 75.1029 188.121 73.0342 186.766 71.0049C185.415 68.9965 183.982 66.9294 182.565 65.0756L191.74 58.5594Z" fill="white"/>
</g>
<path d="M183.918 85.383C183.817 85.383 183.717 85.3336 183.659 85.2408C183.568 85.0978 183.611 84.9076 183.754 84.8171L184.962 84.0495C187.276 82.5791 188.427 79.8897 187.897 77.201L185.471 64.9054C185.002 62.5321 183.073 61.6161 181.562 61.5527C180.048 61.4901 178.051 62.2415 177.387 64.5668L173.943 76.6181C173.19 79.2534 174.114 82.0287 176.297 83.6877L177.437 84.5535C177.571 84.6563 177.598 84.8488 177.496 84.9841C177.394 85.1194 177.202 85.1449 177.066 85.0429L175.926 84.1771C173.541 82.3635 172.53 79.3307 173.354 76.4495L176.798 64.3983C177.425 62.202 179.312 60.86 181.588 60.9396C183.87 61.0355 185.631 62.5453 186.073 64.7856L188.499 77.0811C189.079 80.0211 187.82 82.9595 185.291 84.5675L184.083 85.3351C184.031 85.3683 183.975 85.383 183.918 85.383Z" fill="#263238"/>
<path d="M185.771 65.152C185.767 65.152 185.763 65.152 185.758 65.152L177.078 64.7887C176.909 64.7817 176.777 64.6387 176.784 64.4694C176.791 64.3001 176.94 64.1896 177.104 64.1757L185.784 64.539C185.953 64.546 186.084 64.689 186.077 64.8583C186.07 65.0229 185.935 65.152 185.771 65.152Z" fill="#263238"/>
<path d="M181.552 61.5519C181.386 61.5519 181.249 61.4197 181.246 61.2528C181.21 59.7414 180.762 57.0249 179.316 56.432C179.159 56.3678 179.084 56.1885 179.148 56.0315C179.212 55.8746 179.391 55.7996 179.548 55.8638C181.691 56.7427 181.849 60.7797 181.86 61.2373C181.864 61.4074 181.73 61.5473 181.561 61.5512C181.558 61.5519 181.554 61.5519 181.552 61.5519Z" fill="#263238"/>
<path d="M154.997 72.0578C154.977 72.0578 154.957 72.0563 154.936 72.0516C154.77 72.0184 154.662 71.8568 154.695 71.6906C155.713 66.6116 159.935 58.5888 163.653 56.2441C163.797 56.1552 163.986 56.1969 164.076 56.34C164.166 56.4838 164.124 56.6732 163.98 56.7636C160.386 59.031 156.29 66.8497 155.297 71.812C155.268 71.9573 155.14 72.0578 154.997 72.0578Z" fill="#263238"/>
<path d="M157.535 72.8571C157.053 74.0871 156.004 74.8261 155.192 74.5076C154.381 74.1891 154.115 72.9337 154.598 71.7037C155.08 70.4738 156.129 69.7348 156.941 70.0533C157.753 70.3725 158.019 71.628 157.535 72.8571Z" fill="white"/>
<path d="M177.94 84.8273C177.916 85.4047 177.587 85.8601 177.206 85.8446C176.825 85.8291 176.536 85.3475 176.56 84.77C176.584 84.1926 176.912 83.7372 177.294 83.7527C177.675 83.7682 177.965 84.2498 177.94 84.8273Z" fill="white"/>
<path d="M184.608 85.1056C184.584 85.6831 184.255 86.1384 183.874 86.1229C183.493 86.1067 183.204 85.6258 183.228 85.0484C183.252 84.4709 183.58 84.0156 183.962 84.031C184.343 84.0465 184.632 84.5281 184.608 85.1056Z" fill="white"/>
<path d="M315.698 74.3893L314.927 74.3382C315.157 70.9267 314.029 67.7069 311.752 65.271C309.48 62.8397 306.355 61.5016 302.953 61.5016V60.7285C306.571 60.7285 309.896 62.154 312.316 64.7422C314.741 67.3359 315.942 70.7621 315.698 74.3893Z" fill="#00DDEE"/>
<path d="M314.689 77.8839L314.264 84.2684L315.035 84.3198L315.46 77.9352L314.689 77.8839Z" fill="#00DDEE"/>
<path d="M302.952 63.4327H249.642C243.716 63.4327 238.541 68.2806 238.14 74.2061L237.655 81.3886C237.254 87.3141 241.775 92.162 247.7 92.162H301.011L311.353 98.5467L312.998 74.2061C313.398 68.2814 308.877 63.4327 302.952 63.4327Z" fill="#00DDEE"/>
<path d="M300.246 73.719H250.837V75.514H300.246V73.719Z" fill="white"/>
<path d="M299.816 80.0822H263.133V81.8772H299.816V80.0822Z" fill="white"/>
<path d="M222.71 101.851H277.227C283.287 101.851 287.91 106.81 287.501 112.869L287.005 120.214C286.595 126.274 281.302 131.232 275.243 131.232H220.725L209.266 137.761L210.948 112.869C211.356 106.81 216.65 101.851 222.71 101.851Z" fill="white"/>
<path opacity="0.15" d="M222.71 101.851H277.227C283.287 101.851 287.91 106.81 287.501 112.869L287.005 120.214C286.595 126.274 281.302 131.232 275.243 131.232H220.725L209.266 137.761L210.948 112.869C211.356 106.81 216.65 101.851 222.71 101.851Z" fill="#00DDEE"/>
<path opacity="0.5" d="M274.46 112.371H223.933V114.207H274.46V112.371Z" fill="#00DDEE"/>
<path opacity="0.5" d="M243.459 118.877H223.493V120.713H243.459V118.877Z" fill="#00DDEE"/>
<path opacity="0.5" d="M261.108 118.877H248.355V120.713H261.108V118.877Z" fill="#00DDEE"/>
</svg>
