<svg width="387" height="269" viewBox="0 0 387 269" fill="none" xmlns="http://www.w3.org/2000/svg">
<path d="M386.654 268.33H45.4388C45.2478 268.33 45.0933 268.175 45.0933 267.984C45.0933 267.794 45.2478 267.639 45.4388 267.639H386.654C386.845 267.639 387 267.794 387 267.984C387 268.175 386.845 268.33 386.654 268.33Z" fill="#404040"/>
<path d="M27.3736 268.298H0.815239C0.624286 268.298 0.469727 268.144 0.469727 267.953C0.469727 267.762 0.624286 267.607 0.815239 267.607H27.3736C27.5646 267.607 27.7191 267.762 27.7191 267.953C27.7191 268.144 27.5646 268.298 27.3736 268.298Z" fill="#404040"/>
<path d="M343.074 99.4108C340.802 99.4108 338.954 97.5625 338.954 95.2905C338.954 93.0184 340.802 91.1701 343.074 91.1701C345.346 91.1701 347.195 93.0184 347.195 95.2905C347.195 97.5623 345.346 99.4108 343.074 99.4108ZM343.074 91.8611C341.183 91.8611 339.645 93.3996 339.645 95.2905C339.645 97.1813 341.183 98.7198 343.074 98.7198C344.965 98.7198 346.504 97.1813 346.504 95.2905C346.504 93.3996 344.965 91.8611 343.074 91.8611Z" fill="#404040"/>
<path d="M37.8059 205.896C35.534 205.896 33.6855 204.048 33.6855 201.776C33.6855 199.504 35.5338 197.655 37.8059 197.655C40.078 197.655 41.9263 199.504 41.9263 201.776C41.9263 204.048 40.078 205.896 37.8059 205.896ZM37.8059 198.347C35.915 198.347 34.3766 199.885 34.3766 201.776C34.3766 203.667 35.915 205.206 37.8059 205.206C39.6968 205.206 41.2352 203.667 41.2352 201.776C41.2352 199.885 39.697 198.347 37.8059 198.347Z" fill="#404040"/>
<path d="M299.865 14.5245H139.339V252.051H299.865V14.5245Z" fill="#F3F3F3"/>
<path d="M283.616 22.6151H120.262V252.093H283.616V22.6151Z" fill="white"/>
<path d="M283.616 252.439H120.262C120.071 252.439 119.917 252.284 119.917 252.093V22.6151C119.917 22.4242 120.071 22.2696 120.262 22.2696H283.616C283.806 22.2696 283.961 22.4242 283.961 22.6151V252.093C283.961 252.284 283.806 252.439 283.616 252.439ZM120.608 251.747H283.27V22.9606H120.608V251.747Z" fill="#404040"/>
<path d="M190.561 55.6578H146.903C143.589 55.6578 140.903 58.3441 140.903 61.6578V108.976C140.903 112.29 143.589 114.976 146.903 114.976H190.561C193.875 114.976 196.561 112.29 196.561 108.976V61.6578C196.561 58.3441 193.875 55.6578 190.561 55.6578Z" fill="#A7F3D0"/>
<path d="M184.935 101.524C193.885 92.5734 193.885 78.0623 184.935 69.1122C175.985 60.162 161.474 60.162 152.524 69.1122C143.573 78.0623 143.573 92.5734 152.524 101.524C161.474 110.474 175.985 110.474 184.935 101.524Z" fill="#34D399"/>
<path d="M168.154 97.945C167.137 97.945 166.312 97.1201 166.312 96.1022V73.9926C166.312 72.9748 167.137 72.1499 168.154 72.1499C169.172 72.1499 169.997 72.9748 169.997 73.9926V96.1022C169.997 97.1199 169.172 97.945 168.154 97.945Z" fill="white"/>
<path d="M179.209 86.8901H157.099C156.081 86.8901 155.256 86.065 155.256 85.0474C155.256 84.0295 156.081 83.2047 157.099 83.2047H179.209C180.226 83.2047 181.051 84.0295 181.051 85.0474C181.051 86.065 180.227 86.8901 179.209 86.8901Z" fill="white"/>
<path d="M256.815 55.6578H213.157C209.843 55.6578 207.157 58.3441 207.157 61.6578V108.976C207.157 112.29 209.843 114.976 213.157 114.976H256.815C260.129 114.976 262.815 112.29 262.815 108.976V61.6578C262.815 58.3441 260.129 55.6578 256.815 55.6578Z" fill="#A7F3D0"/>
<path d="M251.188 101.524C260.139 92.5738 260.139 78.0627 251.188 69.1125C242.238 60.1624 227.727 60.1624 218.777 69.1125C209.827 78.0627 209.827 92.5738 218.777 101.524C227.727 110.474 242.238 110.474 251.188 101.524Z" fill="#34D399"/>
<path d="M235.771 96.5016C235.342 96.9243 234.636 96.9268 234.204 96.5064C230.839 93.231 227.508 90.0956 224.946 86.2553C223.783 84.5109 222.915 82.6514 222.573 80.5576C221.928 76.6167 224.864 73.2505 228.85 73.3205C231.192 73.3617 232.923 74.3589 234.121 76.34C234.124 76.3444 234.127 76.349 234.129 76.3534C234.509 76.9808 235.414 76.996 235.813 76.3808C235.861 76.3082 235.908 76.2359 235.956 76.1643C236.817 74.8799 237.909 73.8993 239.458 73.5107C242.924 72.6403 246.413 74.5383 247.278 77.8048C247.719 79.4704 247.412 81.0883 246.854 82.6802C246.044 84.9919 244.632 86.9381 243.13 88.8259C240.917 91.608 238.308 94.0132 235.779 96.494L235.771 96.5016Z" fill="white"/>
<path d="M235.719 88.6099C235.711 88.6099 235.704 88.6096 235.696 88.6092C235.557 88.5997 235.438 88.5083 235.392 88.377L232.999 81.4354L231.187 85.966C231.134 86.0971 231.007 86.1832 230.866 86.1832H227.63C227.439 86.1832 227.285 86.0287 227.285 85.8377C227.285 85.6467 227.439 85.4922 227.63 85.4922H230.632L232.702 80.3169C232.755 80.183 232.889 80.0946 233.031 80.0999C233.175 80.1034 233.302 80.1962 233.349 80.3328L235.779 87.3794L237.387 84.199C237.446 84.0827 237.565 84.0095 237.695 84.0095H241.381C241.572 84.0095 241.727 84.164 241.727 84.355C241.727 84.5459 241.572 84.7005 241.381 84.7005H237.908L236.027 88.4205C235.969 88.5371 235.849 88.6099 235.719 88.6099Z" fill="#404040"/>
<path d="M299.209 268.1H121.851C114.308 268.1 108.17 261.962 108.17 254.419V13.9817C108.17 6.43776 114.308 0.300537 121.851 0.300537H299.209C306.753 0.300537 312.89 6.43776 312.89 13.9817V254.419C312.89 261.962 306.753 268.1 299.209 268.1ZM121.851 0.991562C114.689 0.991562 108.861 6.81874 108.861 13.9817V254.419C108.861 261.581 114.689 267.409 121.851 267.409H299.209C306.372 267.409 312.199 261.581 312.199 254.419V13.9817C312.199 6.81897 306.372 0.991562 299.209 0.991562H121.851Z" fill="#404040"/>
<path d="M240.33 29.3616H162.677V21.0272C162.677 16.1379 166.641 12.1744 171.53 12.1744H231.477C236.367 12.1744 240.33 16.1379 240.33 21.0272V29.3616Z" fill="#404040"/>
<path d="M225.539 23.2677H177.469V12.8963C177.469 8.29317 181.201 4.5614 185.804 4.5614H217.205C221.808 4.5614 225.539 8.29317 225.539 12.8963V23.2677Z" fill="#404040"/>
<path d="M253.626 129.08H140.788C137.474 129.08 134.788 131.766 134.788 135.08V230.392C134.788 233.706 137.474 236.392 140.788 236.392H253.626C256.94 236.392 259.626 233.706 259.626 230.392V135.08C259.626 131.766 256.94 129.08 253.626 129.08Z" fill="#A7F3D0"/>
<path d="M131.016 47.7196H97.8456C95.8368 47.7196 94.2085 46.0911 94.2085 44.0825V11.1821C94.2085 9.17333 95.837 7.54504 97.8456 7.54504H131.016C133.025 7.54504 134.653 9.17356 134.653 11.1821V44.0825C134.653 46.0911 133.025 47.7196 131.016 47.7196Z" fill="#34D399"/>
<path d="M131.016 48.0651H97.8459C95.6498 48.0651 93.8633 46.2785 93.8633 44.0825V11.1821C93.8633 8.98599 95.6498 7.19946 97.8459 7.19946H131.016C133.212 7.19946 134.999 8.98599 134.999 11.1821V44.0825C134.999 46.2783 133.212 48.0651 131.016 48.0651ZM97.8459 7.89049C96.031 7.89049 94.5543 9.36721 94.5543 11.1821V44.0825C94.5543 45.8973 96.031 47.374 97.8459 47.374H131.016C132.831 47.374 134.308 45.8973 134.308 44.0825V11.1821C134.308 9.36721 132.831 7.89049 131.016 7.89049H97.8459Z" fill="#404040"/>
<path d="M104.725 38.2237C104.636 38.2237 104.548 38.1899 104.48 38.1224C104.345 37.9876 104.345 37.7686 104.48 37.6338L110.682 31.4324C110.817 31.2974 111.035 31.2974 111.17 31.4324C111.305 31.5671 111.305 31.7862 111.17 31.9209L104.969 38.1224C104.901 38.1899 104.813 38.2237 104.725 38.2237Z" fill="white"/>
<path d="M117.396 31.2133C113.489 31.2133 110.31 28.0344 110.31 24.1271C110.31 20.2198 113.489 17.0408 117.396 17.0408C121.304 17.0408 124.483 20.2198 124.483 24.1271C124.483 28.0344 121.304 31.2133 117.396 31.2133ZM117.396 17.7319C113.87 17.7319 111.001 20.6008 111.001 24.1271C111.001 27.6534 113.87 30.5223 117.396 30.5223C120.923 30.5223 123.791 27.6534 123.791 24.1271C123.791 20.6008 120.923 17.7319 117.396 17.7319Z" fill="white"/>
<path d="M303.681 216.727H168.392C165.3 216.727 162.794 214.222 162.794 211.13V132.79C162.794 129.699 165.3 127.193 168.392 127.193H303.681C306.772 127.193 309.278 129.699 309.278 132.79V211.13C309.278 214.222 306.772 216.727 303.681 216.727Z" fill="#34D399"/>
<path d="M303.681 217.073H168.392C165.115 217.073 162.449 214.407 162.449 211.13V132.79C162.449 129.513 165.115 126.847 168.392 126.847H303.681C306.958 126.847 309.624 129.513 309.624 132.79V211.13C309.624 214.407 306.958 217.073 303.681 217.073ZM168.392 127.538C165.496 127.538 163.14 129.894 163.14 132.79V211.13C163.14 214.026 165.496 216.382 168.392 216.382H303.681C306.577 216.382 308.933 214.026 308.933 211.13V132.79C308.933 129.894 306.577 127.538 303.681 127.538H168.392Z" fill="#404040"/>
<path d="M186.447 164.144C193.679 164.144 199.542 158.281 199.542 151.048C199.542 143.816 193.679 137.953 186.447 137.953C179.214 137.953 173.352 143.816 173.352 151.048C173.352 158.281 179.214 164.144 186.447 164.144Z" fill="white"/>
<path d="M291.615 176.325H259.74C257.889 176.325 256.39 174.825 256.39 172.975V155.718C256.39 153.868 257.889 152.368 259.74 152.368H291.615C293.465 152.368 294.965 153.868 294.965 155.718V172.975C294.965 174.825 293.465 176.325 291.615 176.325Z" fill="#34D399"/>
<path d="M291.615 176.671H259.74C257.702 176.671 256.044 175.013 256.044 172.975V155.718C256.044 153.68 257.702 152.023 259.74 152.023H291.615C293.653 152.023 295.31 153.68 295.31 155.718V172.975C295.31 175.013 293.652 176.671 291.615 176.671ZM259.74 152.714C258.083 152.714 256.735 154.061 256.735 155.718V172.975C256.735 174.632 258.083 175.98 259.74 175.98H291.615C293.271 175.98 294.619 174.632 294.619 172.975V155.718C294.619 154.061 293.271 152.714 291.615 152.714H259.74Z" fill="white"/>
<path d="M291.615 144.653H259.74C257.889 144.653 256.39 143.153 256.39 141.303C256.39 139.453 257.889 137.953 259.74 137.953H291.615C293.465 137.953 294.965 139.453 294.965 141.303C294.965 143.153 293.465 144.653 291.615 144.653Z" fill="white"/>
<path d="M215.378 207.997H175.584V202.719H210.099C213.015 202.719 215.378 205.082 215.378 207.997Z" fill="#F3F3F3"/>
<path d="M294.965 207.997H255.171C255.171 205.082 257.535 202.719 260.45 202.719H294.965V207.997Z" fill="#F3F3F3"/>
<path d="M195.177 193.785H178.528C176.903 193.785 175.584 192.467 175.584 190.841C175.584 189.216 176.902 187.898 178.528 187.898H195.177C196.802 187.898 198.121 189.216 198.121 190.841C198.121 192.467 196.803 193.785 195.177 193.785Z" fill="#F3F3F3"/>
<path d="M227.458 193.785H210.81C209.184 193.785 207.866 192.467 207.866 190.841C207.866 189.216 209.184 187.898 210.81 187.898H227.458C229.084 187.898 230.402 189.216 230.402 190.841C230.402 192.467 229.084 193.785 227.458 193.785Z" fill="#F3F3F3"/>
<path d="M259.74 193.785H243.091C241.466 193.785 240.147 192.467 240.147 190.841C240.147 189.216 241.465 187.898 243.091 187.898H259.74C261.365 187.898 262.684 189.216 262.684 190.841C262.683 192.467 261.365 193.785 259.74 193.785Z" fill="#F3F3F3"/>
<path d="M292.021 193.785H275.373C273.747 193.785 272.429 192.467 272.429 190.841C272.429 189.216 273.747 187.898 275.373 187.898H292.021C293.647 187.898 294.965 189.216 294.965 190.841C294.965 192.467 293.647 193.785 292.021 193.785Z" fill="#F3F3F3"/>
<path d="M303.429 148.812C301.013 148.998 298.598 149.183 296.183 149.369C292.041 148.11 289.904 147.645 289.773 147.976C289.663 148.253 290.964 149.089 293.674 150.484C288.587 151.74 286.079 152.762 286.15 153.55C286.253 154.687 291.733 155.338 302.592 155.5C302.871 153.271 303.15 151.041 303.429 148.812Z" fill="white"/>
<path d="M302.593 155.846C302.591 155.846 302.589 155.846 302.588 155.846C297.172 155.764 293.037 155.558 290.298 155.233C286.431 154.775 285.857 154.14 285.806 153.58C285.74 152.847 286.555 151.949 292.709 150.37C289.449 148.649 289.295 148.245 289.452 147.848C289.608 147.455 290.118 147.428 291.548 147.739C292.609 147.969 294.182 148.4 296.222 149.02L303.403 148.467C303.509 148.458 303.608 148.498 303.679 148.573C303.751 148.648 303.785 148.752 303.772 148.855L302.936 155.543C302.914 155.716 302.767 155.846 302.593 155.846ZM290.431 148.235C290.85 148.542 291.779 149.119 293.833 150.176C293.961 150.242 294.035 150.381 294.018 150.524C294.001 150.667 293.898 150.785 293.758 150.819C286.62 152.581 286.486 153.427 286.495 153.518C286.495 153.524 286.59 154.098 290.379 154.547C293.042 154.863 297.048 155.066 302.289 155.15L303.034 149.189L296.21 149.714C296.167 149.716 296.124 149.712 296.083 149.7C292.596 148.64 291.085 148.314 290.431 148.235Z" fill="#404040"/>
<path d="M317.394 132.609C315.753 134.08 314.113 135.55 312.472 137.02C317.639 140.727 322.806 144.435 327.973 148.142C329.382 144.054 330.791 139.965 332.2 135.876C327.265 134.787 322.329 133.698 317.394 132.609Z" fill="white"/>
<path d="M327.973 148.488C327.902 148.488 327.831 148.466 327.772 148.423L312.271 137.301C312.186 137.24 312.133 137.143 312.127 137.038C312.122 136.934 312.164 136.832 312.242 136.763L317.164 132.352C317.247 132.278 317.36 132.249 317.469 132.272L332.274 135.539C332.371 135.56 332.453 135.621 332.501 135.707C332.55 135.793 332.559 135.896 332.526 135.989L328.299 148.255C328.264 148.358 328.182 148.439 328.078 148.472C328.044 148.483 328.009 148.488 327.973 148.488ZM313.024 136.99L327.798 147.591L331.747 136.13L317.493 132.985L313.024 136.99Z" fill="#404040"/>
<path d="M316.516 133.378C315.531 132.304 313.972 130.76 311.799 129.215C310.081 127.993 308.444 126.828 307.755 127.327C306.978 127.89 307.71 130.347 308.564 131.911C309.933 134.419 312.18 135.667 313.417 136.225C314.45 135.276 315.483 134.327 316.516 133.378Z" fill="white"/>
<path d="M313.417 136.571C313.369 136.571 313.32 136.561 313.275 136.54C311.037 135.531 309.303 133.988 308.26 132.077C307.553 130.781 306.449 127.846 307.552 127.048C308.442 126.403 310.091 127.576 311.999 128.933C313.735 130.168 315.34 131.584 316.771 133.145C316.9 133.285 316.891 133.503 316.75 133.632L313.651 136.48C313.586 136.54 313.502 136.571 313.417 136.571ZM308.176 127.548C308.088 127.548 308.014 127.567 307.957 127.607C307.479 127.954 307.937 130.043 308.867 131.746C309.805 133.465 311.353 134.868 313.353 135.815L316.027 133.359C314.688 131.934 313.2 130.636 311.599 129.497C310.421 128.659 308.859 127.548 308.176 127.548Z" fill="#404040"/>
<path d="M325.692 255.927V257.804C325.692 259.669 324.658 261.379 323.008 262.247L314.622 266.653C314.082 266.936 314.284 267.754 314.894 267.754H333.726V255.034L325.692 255.927Z" fill="#404040"/>
<path d="M358.537 253.039L359.144 254.815C359.746 256.58 359.321 258.533 358.039 259.887L351.526 266.766C351.107 267.209 351.562 267.918 352.139 267.721L369.962 261.637L365.852 249.599L358.537 253.039Z" fill="#404040"/>
<path d="M320.224 175.923C319.664 197.364 319.633 219.393 320.224 241.979C320.348 246.693 320.497 251.379 320.671 256.038C327.014 256.038 333.356 256.038 339.699 256.038C338.894 243.209 338.45 229.569 338.524 215.2C338.584 203.449 338.985 192.201 339.639 181.502C333.168 179.642 326.696 177.783 320.224 175.923Z" fill="#34D399"/>
<path d="M370.993 249.678L353.141 255.48L336.627 192.995C335.511 187.565 334.395 182.135 333.279 176.704C339.453 176.258 345.627 175.812 351.802 175.365C353.813 187.348 356.489 200.285 360.059 213.972C363.423 226.87 367.152 238.791 370.993 249.678Z" fill="#34D399"/>
<path d="M338.581 227.498C338.576 227.498 338.571 227.498 338.566 227.498C338.376 227.49 338.227 227.329 338.235 227.138C338.442 222.144 338.573 217.075 338.624 212.072C338.679 206.63 338.642 201.115 338.512 195.681C338.509 195.544 338.587 195.418 338.712 195.36L342.059 193.798C342.232 193.717 342.438 193.792 342.518 193.965C342.599 194.138 342.524 194.344 342.351 194.424L339.208 195.891C339.333 201.259 339.369 206.705 339.315 212.079C339.264 217.09 339.133 222.166 338.925 227.167C338.918 227.353 338.765 227.498 338.581 227.498Z" fill="#404040"/>
<path d="M339.362 127.051H333.391V136.87H339.362V127.051Z" fill="white"/>
<path d="M339.363 137.215H333.391C333.2 137.215 333.045 137.061 333.045 136.87V127.051C333.045 126.86 333.2 126.705 333.391 126.705H339.363C339.553 126.705 339.708 126.86 339.708 127.051V136.87C339.708 137.061 339.553 137.215 339.363 137.215ZM333.736 136.524H339.017V127.396H333.736V136.524Z" fill="#404040"/>
<path d="M336.441 130.009C338.125 127.901 338.003 125.005 336.169 123.54C334.335 122.076 331.484 122.598 329.8 124.706C328.116 126.814 328.238 129.711 330.072 131.175C331.906 132.64 334.758 132.118 336.441 130.009Z" fill="white"/>
<path d="M332.503 132.329C331.548 132.329 330.621 132.036 329.856 131.426C328.89 130.654 328.327 129.5 328.271 128.177C328.216 126.872 328.663 125.556 329.529 124.471C330.396 123.386 331.58 122.659 332.865 122.423C334.169 122.184 335.418 122.478 336.384 123.25C338.364 124.831 338.51 127.951 336.711 130.205C335.606 131.588 334.021 132.329 332.503 132.329ZM333.738 123.034C333.493 123.034 333.243 123.057 332.99 123.103C331.869 123.308 330.832 123.947 330.069 124.902C329.307 125.856 328.914 127.009 328.962 128.148C329.009 129.268 329.479 130.24 330.287 130.885C331.97 132.229 334.609 131.729 336.171 129.773C337.733 127.817 337.635 125.133 335.953 123.79C335.33 123.293 334.562 123.034 333.738 123.034Z" fill="#404040"/>
<path d="M321.117 157.401L317.77 176.816C320.992 178.508 326.904 181.074 334.73 181.502C343.635 181.99 350.504 179.463 353.922 177.932C352.508 168.856 351.095 159.781 349.682 150.706C347.599 145.35 345.516 139.994 343.433 134.638H336.498C333.073 134.638 329.751 135.805 327.081 137.951C326.435 138.47 325.786 139.003 325.134 139.548C322.005 142.164 319.169 144.785 316.606 147.345C315.049 148.9 312.865 149.652 310.68 149.387C306.943 148.934 303.207 148.481 299.47 148.028L298.354 156.285L311.249 158.93C314.181 159.531 317.228 159.184 319.948 157.937L321.117 157.401Z" fill="white"/>
<path d="M320.845 157.67C319.82 164.052 318.795 170.434 317.769 176.816C320.991 178.507 326.904 181.073 334.729 181.502C343.634 181.99 350.503 179.463 353.921 177.932C352.508 168.856 351.094 159.781 349.681 150.706C347.598 145.35 345.515 139.994 343.433 134.638H336.497C333.072 134.638 329.75 135.805 327.081 137.951C326.435 138.47 325.785 139.002 325.133 139.548C322.004 142.164 319.168 144.785 316.606 147.344C315.049 148.9 312.864 149.651 310.68 149.386C306.943 148.934 303.207 148.48 299.47 148.028L298.354 156.285L311.249 158.93C312.715 159.231 314.209 159.294 315.677 159.126C317.539 158.914 318.875 158.376 319.947 157.936C323.017 156.677 325.967 155.414 328.807 154.152L320.845 157.67Z" fill="white"/>
<path d="M336.967 181.909C336.228 181.909 335.476 181.889 334.711 181.847C328.793 181.523 322.879 179.889 317.609 177.122C317.477 177.053 317.405 176.907 317.428 176.761L320.424 158.115C320.309 158.162 320.194 158.209 320.079 158.256C319.059 158.674 317.662 159.248 315.717 159.47C314.201 159.643 312.674 159.575 311.18 159.269L298.285 156.624C298.107 156.587 297.988 156.419 298.012 156.239L299.128 147.982C299.153 147.795 299.323 147.663 299.512 147.685L310.722 149.044C312.815 149.298 314.871 148.589 316.362 147.1C319.084 144.38 321.961 141.75 324.912 139.283C325.553 138.747 326.21 138.209 326.865 137.682C329.583 135.497 333.004 134.293 336.498 134.293H343.433C343.575 134.293 343.703 134.381 343.755 134.513L350.003 150.581C350.012 150.604 350.019 150.628 350.023 150.653L354.263 177.879C354.287 178.033 354.205 178.183 354.063 178.247C350.224 179.967 344.271 181.909 336.967 181.909ZM318.15 176.625C323.278 179.277 329.011 180.843 334.749 181.157C342.788 181.599 349.367 179.56 353.539 177.723L349.346 150.796L343.197 134.984H336.498C333.162 134.984 329.894 136.133 327.298 138.22C326.646 138.744 325.993 139.28 325.356 139.813C322.421 142.267 319.559 144.883 316.85 147.589C315.208 149.229 312.945 150.009 310.639 149.73L299.767 148.412L298.74 156.011L311.319 158.591C312.741 158.883 314.194 158.948 315.639 158.783C317.488 158.572 318.834 158.02 319.817 157.617C322.784 156.4 325.762 155.127 328.668 153.836C328.842 153.758 329.046 153.837 329.124 154.011C329.201 154.186 329.123 154.39 328.948 154.468C326.393 155.603 323.783 156.723 321.174 157.804L318.15 176.625Z" fill="#404040"/>
<path d="M328.816 122.922C329.412 120.266 334.348 118.255 337.407 119.463C339.689 120.365 340.344 123.059 341.069 125.148C342.207 128.432 343.307 131.528 345.731 134.109C347.314 135.795 349.105 137.289 350.551 139.094C352.053 140.969 353.16 143.173 353.676 145.52C354.467 149.127 353.811 152.881 352.446 156.265C351.365 158.946 349.475 163.181 345.851 162.481C344.762 162.27 343.826 161.587 343.001 160.846C340.401 158.513 338.548 155.389 337.648 152.021C336.63 148.21 337.128 144.451 338.001 140.663C338.66 137.806 339.218 134.947 337.519 132.295C336.97 131.438 336.355 130.851 335.957 130.51C336.134 130.35 337.657 128.941 337.296 127.386C337.112 126.595 336.524 126.118 336.291 125.935C333.881 124.035 330.227 126.243 329.039 124.708C328.555 124.083 328.755 123.194 328.816 122.922Z" fill="#404040"/>
<path d="M338.069 125.426C338.497 126.056 338.181 127.018 337.361 127.576C336.542 128.133 335.531 128.074 335.102 127.444C334.674 126.814 334.99 125.851 335.809 125.294C336.628 124.737 337.64 124.796 338.069 125.426Z" fill="white"/>
<path d="M77.2314 258.069L87.0562 259.392L88.9399 245.396L79.1151 244.074L77.2314 258.069Z" fill="white"/>
<path d="M87.0505 259.754C87.035 259.754 87.0196 259.753 87.0039 259.75L77.1794 258.429C77.0887 258.416 77.0064 258.368 76.9507 258.296C76.8952 258.223 76.8708 258.131 76.883 258.04L78.7662 244.045C78.7918 243.856 78.9673 243.722 79.1548 243.749L88.9794 245.071C89.0701 245.083 89.1523 245.131 89.2081 245.204C89.2636 245.277 89.288 245.369 89.2758 245.459L87.3925 259.454C87.369 259.628 87.2207 259.754 87.0505 259.754ZM77.6138 257.79L86.7536 259.02L88.5447 245.71L79.405 244.48L77.6138 257.79Z" fill="#404040"/>
<path d="M99.7251 267.754H77.062C77.0457 264.482 77.0295 261.209 77.0132 257.937C80.6438 257.953 84.2745 257.969 87.9051 257.986C89.518 258.361 93.8795 259.535 96.9048 262.649C97.7771 263.546 98.5382 264.603 99.09 265.849C99.342 266.418 99.5618 267.051 99.7251 267.754Z" fill="white"/>
<path d="M99.7251 268.1H77.0618C76.8716 268.1 76.7172 267.946 76.7163 267.756L76.6675 257.939C76.667 257.846 76.7034 257.758 76.7686 257.693C76.8333 257.628 76.9213 257.591 77.013 257.591C77.0135 257.591 77.0139 257.591 77.0146 257.591L87.9065 257.64C87.9323 257.641 87.9581 257.644 87.9832 257.649C90.1768 258.16 94.2847 259.457 97.1525 262.409C98.1169 263.4 98.8752 264.511 99.4059 265.71C99.6835 266.335 99.9041 266.997 100.062 267.676C100.085 267.779 100.061 267.887 99.9956 267.969C99.9299 268.052 99.8304 268.1 99.7251 268.1ZM77.4057 267.409H99.2808C99.1458 266.921 98.9761 266.445 98.7743 265.99C98.2765 264.865 97.5645 263.823 96.6572 262.89C93.9284 260.081 89.9932 258.83 87.8646 258.331L77.3606 258.284L77.4057 267.409Z" fill="#404040"/>
<path d="M98.5374 265.12H77.0477C76.8567 265.12 76.7021 264.966 76.7021 264.775C76.7021 264.584 76.8567 264.429 77.0477 264.429H98.5374C98.7283 264.429 98.8829 264.584 98.8829 264.775C98.8829 264.966 98.7283 265.12 98.5374 265.12Z" fill="#404040"/>
<path d="M86.0934 261.017H77.0272C76.8362 261.017 76.6816 260.863 76.6816 260.672C76.6816 260.481 76.8362 260.326 77.0272 260.326H86.0934C86.2844 260.326 86.4389 260.481 86.4389 260.672C86.4389 260.863 86.2844 261.017 86.0934 261.017Z" fill="#404040"/>
<path d="M96.9055 262.649C96.0001 262.717 95.0778 262.744 94.2064 262.723C90.889 262.644 86.3368 261.807 86.0007 260.086C85.947 259.812 85.9411 259.214 86.2937 258.718C86.6141 258.269 87.1063 258.078 87.4795 257.997C87.6212 257.993 87.7637 257.99 87.9054 257.986C89.5185 258.361 93.8802 259.535 96.9055 262.649Z" fill="white"/>
<path d="M94.7903 263.076C94.5905 263.076 94.3931 263.073 94.198 263.069C91.4293 263.003 86.0824 262.308 85.6616 260.152C85.5805 259.74 85.6238 259.064 86.0124 258.518C86.3996 257.975 86.984 257.752 87.4064 257.66C87.4274 257.655 87.449 257.653 87.4705 257.652L87.8964 257.64C87.9256 257.639 87.9551 257.642 87.9839 257.649C90.1774 258.16 94.2854 259.456 97.1531 262.408C97.2466 262.505 97.2759 262.646 97.2284 262.772C97.181 262.897 97.0649 262.984 96.931 262.994C96.1993 263.048 95.4817 263.076 94.7903 263.076ZM87.5225 258.342C87.2224 258.412 86.8253 258.568 86.5749 258.919C86.2953 259.312 86.2985 259.811 86.3397 260.019C86.6028 261.367 90.6321 262.292 94.2144 262.378C94.8213 262.392 95.4532 262.383 96.1007 262.352C93.4183 259.921 89.8593 258.799 87.8703 258.332L87.5225 258.342Z" fill="#404040"/>
<path d="M135.568 136.391C135.865 136.303 136.163 136.213 136.462 136.121C137.45 135.818 138.42 135.504 139.375 135.181C140.849 134.682 142.236 133.954 143.482 133.021C144.126 132.539 144.771 132.056 145.415 131.574C145.826 131.339 146.023 130.854 145.895 130.412C145.776 130.001 145.398 129.707 144.959 129.688C145.289 129.409 145.394 128.941 145.214 128.55C145.036 128.163 144.619 127.938 144.196 128.002C144.416 127.695 144.422 127.285 144.214 126.982C143.99 126.654 143.561 126.517 143.176 126.657C146.984 123.511 147.732 122.547 147.577 122.319C147.213 121.786 141.673 124.926 139.015 126.521C136.127 128.253 133.849 129.838 132.336 130.938C133.414 132.756 134.491 134.574 135.568 136.391Z" fill="white"/>
<path d="M135.568 136.737C135.449 136.737 135.334 136.675 135.271 136.568L132.04 131.114C131.949 130.96 131.989 130.763 132.134 130.658C133.299 129.811 134.507 128.976 135.725 128.177C135.884 128.073 136.099 128.117 136.203 128.277C136.308 128.437 136.263 128.651 136.104 128.755C134.984 129.49 133.872 130.255 132.794 131.033L135.728 135.983C135.938 135.92 136.149 135.856 136.361 135.791C137.328 135.494 138.305 135.179 139.264 134.854C140.708 134.366 142.057 133.656 143.275 132.744L145.208 131.297C145.219 131.289 145.231 131.281 145.243 131.274C145.513 131.12 145.647 130.798 145.563 130.509C145.484 130.237 145.236 130.046 144.944 130.033C144.802 130.027 144.678 129.934 144.632 129.799C144.586 129.664 144.627 129.515 144.736 129.423C144.948 129.245 145.016 128.945 144.9 128.694C144.786 128.447 144.518 128.302 144.247 128.343C144.112 128.364 143.974 128.3 143.901 128.182C143.829 128.063 143.834 127.913 143.916 127.8C144.051 127.612 144.056 127.362 143.93 127.177C143.792 126.976 143.53 126.896 143.294 126.981C143.136 127.038 142.961 126.974 142.877 126.829C142.793 126.684 142.826 126.499 142.954 126.392C146.577 123.349 147.902 122.028 148.374 121.455C147.557 121.77 145.394 122.878 139.691 126.46C139.529 126.561 139.316 126.513 139.214 126.351C139.113 126.189 139.161 125.976 139.323 125.875C148.637 120.026 148.935 120.442 149.224 120.842C149.477 121.193 149.738 121.555 144.035 126.384C144.218 126.474 144.379 126.61 144.5 126.786C144.684 127.055 144.748 127.383 144.692 127.694C145.053 127.796 145.365 128.051 145.528 128.405C145.689 128.754 145.683 129.149 145.533 129.486C145.864 129.651 146.121 129.947 146.227 130.316C146.4 130.91 146.145 131.542 145.607 131.862L143.69 133.297C142.413 134.252 140.999 134.996 139.486 135.508C138.521 135.835 137.538 136.152 136.564 136.451C136.264 136.543 135.965 136.634 135.667 136.722C135.634 136.732 135.601 136.737 135.568 136.737Z" fill="#404040"/>
<path d="M140.961 130.621C140.853 130.621 140.746 130.57 140.678 130.474C140.568 130.318 140.606 130.103 140.762 129.993L143.944 127.757C144.05 127.575 144.046 127.348 143.929 127.177C143.799 126.986 143.556 126.905 143.329 126.97L140.966 128.556C140.807 128.662 140.593 128.62 140.487 128.462C140.381 128.303 140.423 128.089 140.581 127.982L142.984 126.37C143.007 126.354 143.032 126.341 143.059 126.332C143.591 126.139 144.184 126.326 144.5 126.787C144.79 127.21 144.781 127.78 144.477 128.203C144.454 128.235 144.427 128.262 144.395 128.284L141.16 130.559C141.099 130.601 141.03 130.621 140.961 130.621Z" fill="#404040"/>
<path d="M142.455 131.701C142.344 131.701 142.234 131.647 142.167 131.547C142.062 131.388 142.105 131.174 142.263 131.068L144.749 129.412C144.951 129.232 145.013 128.94 144.9 128.694C144.786 128.447 144.518 128.302 144.248 128.343C144.06 128.372 143.883 128.242 143.855 128.053C143.826 127.864 143.956 127.688 144.145 127.66C144.718 127.574 145.286 127.88 145.528 128.405C145.773 128.937 145.631 129.573 145.182 129.952C145.172 129.96 145.162 129.968 145.151 129.975L142.646 131.643C142.587 131.682 142.521 131.701 142.455 131.701Z" fill="#404040"/>
<path d="M135.877 128.482C138.632 123.874 140.202 121.664 140.585 121.853C140.867 121.993 140.508 123.431 139.507 126.168L135.877 128.482Z" fill="white"/>
<path d="M135.877 128.827C135.817 128.827 135.756 128.811 135.7 128.778C135.536 128.68 135.483 128.468 135.581 128.304C139.877 121.118 140.334 121.344 140.738 121.544C141.149 121.747 141.324 122.206 139.831 126.286C139.765 126.466 139.567 126.558 139.388 126.492C139.209 126.426 139.116 126.228 139.182 126.049C139.984 123.858 140.239 122.858 140.311 122.404C139.844 122.89 138.746 124.357 136.174 128.659C136.109 128.767 135.994 128.827 135.877 128.827Z" fill="#404040"/>
<path d="M117.385 155.788L138.153 134.917L134.86 129.159L118.187 136.058L109.825 122.527L117.385 155.788Z" fill="white"/>
<path d="M117.385 155.788C124.643 149.827 131.901 143.867 139.16 137.906C137.726 134.991 136.293 132.075 134.86 129.159C128.342 131.89 121.823 134.621 115.305 137.351C113.478 132.41 111.651 127.468 109.825 122.527L117.385 155.788Z" fill="white"/>
<path d="M117.385 156.133C117.285 156.133 117.186 156.09 117.118 156.007C116.997 155.859 117.018 155.642 117.166 155.521L138.729 137.813L134.694 129.604L115.438 137.67C115.351 137.707 115.253 137.706 115.167 137.668C115.08 137.631 115.013 137.56 114.98 137.472L109.501 122.647C109.434 122.468 109.526 122.269 109.705 122.203C109.883 122.137 110.083 122.228 110.149 122.407L115.504 136.894L134.727 128.841C134.895 128.77 135.09 128.843 135.17 129.007L139.47 137.754C139.541 137.898 139.503 138.072 139.379 138.174L117.604 156.055C117.54 156.108 117.462 156.133 117.385 156.133Z" fill="#404040"/>
<path d="M105.585 258.533H115.498V247.618H105.585V258.533Z" fill="white"/>
<path d="M115.498 258.878H105.584C105.393 258.878 105.239 258.724 105.239 258.533V247.618C105.239 247.428 105.393 247.273 105.584 247.273H115.498C115.688 247.273 115.843 247.428 115.843 247.618V258.533C115.843 258.724 115.688 258.878 115.498 258.878ZM105.93 258.187H115.152V247.964H105.93V258.187Z" fill="#404040"/>
<path d="M114.325 175.912C115.442 184.839 116.369 194.204 117.034 203.979C118.119 219.909 118.373 234.918 118.067 248.858C112.761 248.858 107.455 248.858 102.149 248.858L96.8428 211.045L95.8374 175.577C96.0102 175.037 97.5848 170.362 101.879 169.015C106.319 167.622 111.938 170.327 114.325 175.912Z" fill="#34D399"/>
<path d="M92.1662 160.503C87.7054 165.005 83.2446 169.507 78.7835 174.009C77.1608 198.959 75.5378 223.908 73.915 248.858H91.732C94.9715 228.425 98.211 207.991 101.451 187.558L92.1662 160.503Z" fill="#34D399"/>
<path d="M91.7318 249.203H73.9149C73.8193 249.203 73.7281 249.164 73.6627 249.094C73.5975 249.024 73.5638 248.931 73.5701 248.835L78.4386 173.986C78.4441 173.904 78.4793 173.825 78.5381 173.766L91.9207 160.26C92.055 160.125 92.2736 160.123 92.4093 160.258C92.5447 160.392 92.5459 160.611 92.4116 160.746L79.1199 174.16L74.2837 248.512H91.437L101.109 187.503C101.139 187.315 101.317 187.187 101.505 187.216C101.693 187.246 101.822 187.423 101.792 187.612L92.0734 248.912C92.0465 249.08 91.9018 249.203 91.7318 249.203Z" fill="#404040"/>
<path d="M104.382 171.118C106.284 173.387 108.187 175.657 110.09 177.926C111.904 177.221 113.718 176.516 115.532 175.811C114.998 172.908 114.464 170.004 113.93 167.1C102.503 166.336 91.0763 165.573 79.6495 164.809C78.5932 167.909 77.5368 171.009 76.4805 174.109C79.1158 174.783 81.9573 175.4 84.9918 175.912C90.259 176.8 95.1299 177.205 99.4759 177.326C101.111 175.256 102.747 173.187 104.382 171.118Z" fill="#A7F3D0"/>
<path d="M90.7532 169.297L114.83 169.406L108.925 122.363L100.882 117.848L87.8232 118.896L90.7532 169.297Z" fill="white"/>
<path d="M92.7464 110.385V111.283C92.7464 112.476 92.3239 113.631 91.5539 114.543L91.333 114.805C91.8384 117.638 94.1287 119.671 96.6505 119.749C99.5511 119.839 101.302 117.297 101.408 117.137L100.947 116.441C100.478 115.733 100.332 114.86 100.546 114.038C101.211 111.483 101.876 108.928 102.541 106.373C99.2766 107.71 96.0115 109.048 92.7464 110.385Z" fill="white"/>
<path d="M96.8001 120.097C96.7471 120.097 96.6939 120.096 96.64 120.094C93.8932 120.009 91.5184 117.81 90.9932 114.865C90.975 114.764 91.0031 114.66 91.0695 114.581L91.2901 114.32C92.0065 113.472 92.4011 112.393 92.4011 111.282V110.385C92.4011 110.244 92.4858 110.118 92.6157 110.065L102.411 106.053C102.532 106.004 102.671 106.027 102.769 106.113C102.868 106.199 102.909 106.334 102.876 106.46L100.88 114.125C100.691 114.85 100.821 115.625 101.235 116.25L101.697 116.946C101.773 117.061 101.773 117.212 101.696 117.328C101.62 117.443 99.8194 120.097 96.8001 120.097ZM91.7036 114.901C92.2262 117.447 94.2883 119.33 96.6612 119.403C98.9916 119.474 100.54 117.714 100.988 117.128L100.659 116.632C100.136 115.844 99.9729 114.866 100.211 113.951L102.033 106.955L93.0919 110.617V111.283C93.0919 112.556 92.6395 113.793 91.8178 114.766L91.7036 114.901Z" fill="#404040"/>
<path d="M100.582 99.7496C105.545 100.435 107.776 110.581 105.433 112.437C103.049 114.326 93.5304 109.52 94.0519 104.694C94.3451 101.981 97.7993 99.3654 100.582 99.7496Z" fill="white"/>
<path d="M103.907 113.204C102.439 113.204 100.561 112.543 98.973 111.667C96.2257 110.151 93.4001 107.513 93.7087 104.657C93.8548 103.305 94.7204 101.92 96.0836 100.855C97.4979 99.7508 99.1978 99.2097 100.63 99.4073C103.527 99.8074 105.418 103.1 106.222 106.049C106.915 108.588 107.006 111.632 105.648 112.708C105.21 113.055 104.605 113.204 103.907 113.204ZM100.025 100.058C98.8889 100.058 97.6105 100.539 96.509 101.4C95.3098 102.336 94.52 103.581 94.3958 104.731C94.1234 107.253 96.8711 109.717 99.307 111.061C101.802 112.438 104.288 112.903 105.219 112.166C106.151 111.428 106.293 108.931 105.556 106.23C104.81 103.495 103.099 100.446 100.535 100.092C100.369 100.069 100.199 100.058 100.025 100.058Z" fill="#404040"/>
<path d="M95.2652 105.254C95.3576 104.922 96.0631 102.545 98.4838 101.475C100.374 100.64 102.602 100.914 104.314 102.175C105.691 102.069 106.874 101.441 107.113 100.589C107.432 99.4543 106.169 97.5814 103.661 97.1376C103.273 95.3501 102.443 94.8498 102.169 94.712C100.493 93.8692 97.3841 95.395 95.0788 99.0966C94.4042 99.1484 91.8336 99.4258 90.1346 101.522C90.0581 101.617 89.4219 102.413 89.1084 103.388C88.2877 105.938 89.8123 109.281 92.7466 111.97C93.589 111.732 94.1183 111.331 94.4258 111.038C95.7692 109.756 96.067 107.491 95.2652 105.254Z" fill="#404040"/>
<path d="M93.668 109.125C94.7158 109.729 95.9198 109.605 96.3577 108.847C96.7953 108.089 96.3008 106.984 95.2532 106.379C94.2056 105.774 93.0014 105.898 92.5637 106.656C92.1261 107.414 92.6204 108.52 93.668 109.125Z" fill="white"/>
<path d="M95.0213 109.854C94.5146 109.854 93.9818 109.705 93.4953 109.424C92.2844 108.725 91.732 107.406 92.2641 106.484C92.7964 105.562 94.2142 105.381 95.4258 106.08C96.6367 106.779 97.1891 108.098 96.6567 109.02C96.3882 109.485 95.8982 109.776 95.277 109.84C95.1927 109.849 95.1072 109.854 95.0213 109.854ZM93.8975 106.344C93.4386 106.344 93.0475 106.509 92.8623 106.829C92.5265 107.411 92.9743 108.325 93.8406 108.825V108.826C94.2847 109.082 94.7698 109.198 95.2058 109.153C95.6006 109.113 95.9033 108.943 96.0581 108.674C96.3941 108.093 95.9461 107.179 95.0801 106.678C94.6912 106.454 94.2718 106.344 93.8975 106.344Z" fill="#404040"/>
<path d="M106.273 107.959C105.567 108.135 104.851 108.321 104.127 108.519C102.566 108.945 101.062 109.398 99.6176 109.869C99.3594 109.953 99.0779 109.858 98.9224 109.635C98.3921 108.874 97.8269 108.097 97.2241 107.306C96.4391 106.276 95.658 105.313 94.8919 104.414C94.5809 104.787 94.2699 105.16 93.959 105.533C94.3496 106.708 96.7853 113.717 102.355 114.955C103.089 115.119 105.813 115.724 107.113 114.209C108.246 112.889 108.002 110.302 106.273 107.959Z" fill="#404040"/>
<path d="M128.295 267.754H105.632C105.616 264.482 105.6 261.209 105.583 257.937C109.214 257.953 112.845 257.969 116.475 257.986C118.088 258.361 122.45 259.535 125.475 262.649C126.347 263.546 127.108 264.603 127.66 265.849C127.912 266.418 128.132 267.051 128.295 267.754Z" fill="white"/>
<path d="M128.295 268.1H105.632C105.442 268.1 105.288 267.946 105.287 267.756L105.238 257.939C105.237 257.846 105.274 257.758 105.339 257.693C105.404 257.628 105.492 257.591 105.583 257.591C105.584 257.591 105.584 257.591 105.585 257.591L116.477 257.64C116.503 257.641 116.528 257.644 116.554 257.649C118.747 258.16 122.855 259.457 125.723 262.409C126.687 263.4 127.445 264.51 127.976 265.71C128.254 266.336 128.474 266.998 128.632 267.676C128.655 267.779 128.631 267.887 128.566 267.969C128.5 268.052 128.4 268.1 128.295 268.1ZM105.976 267.409H127.851C127.716 266.921 127.547 266.445 127.344 265.989C126.847 264.865 126.134 263.822 125.227 262.89C122.498 260.081 118.563 258.83 116.435 258.331L105.93 258.284L105.976 267.409Z" fill="#404040"/>
<path d="M127.108 265.12H105.618C105.427 265.12 105.272 264.966 105.272 264.775C105.272 264.584 105.427 264.429 105.618 264.429H127.108C127.299 264.429 127.453 264.584 127.453 264.775C127.453 264.966 127.299 265.12 127.108 265.12Z" fill="#404040"/>
<path d="M114.664 261.017H105.597C105.407 261.017 105.252 260.863 105.252 260.672C105.252 260.481 105.407 260.326 105.597 260.326H114.664C114.855 260.326 115.009 260.481 115.009 260.672C115.009 260.863 114.855 261.017 114.664 261.017Z" fill="#404040"/>
<path d="M125.476 262.649C124.57 262.717 123.648 262.744 122.777 262.723C119.459 262.644 114.907 261.807 114.571 260.086C114.517 259.812 114.511 259.214 114.864 258.718C115.184 258.269 115.677 258.078 116.05 257.997C116.192 257.993 116.334 257.99 116.476 257.986C118.089 258.361 122.45 259.535 125.476 262.649Z" fill="white"/>
<path d="M123.361 263.076C123.161 263.076 122.963 263.073 122.769 263.069C120 263.003 114.653 262.308 114.232 260.152C114.151 259.74 114.194 259.064 114.583 258.518C114.969 257.975 115.554 257.752 115.977 257.66C115.998 257.655 116.019 257.653 116.041 257.652L116.466 257.64C116.496 257.639 116.525 257.642 116.554 257.649C118.747 258.159 122.855 259.456 125.723 262.408C125.817 262.505 125.846 262.646 125.799 262.772C125.751 262.897 125.635 262.984 125.501 262.994C124.77 263.048 124.052 263.076 123.361 263.076ZM116.093 258.342C115.793 258.412 115.396 258.568 115.145 258.919C114.866 259.312 114.869 259.811 114.91 260.019C115.173 261.367 119.203 262.292 122.785 262.378C123.382 262.392 124.023 262.383 124.671 262.352C121.989 259.921 118.43 258.799 116.441 258.332L116.093 258.342Z" fill="#404040"/>
<path d="M89.2309 117.37C92.2662 141.253 93.3308 161.368 93.6692 176.453C94.2489 202.309 92.7381 215.658 84.5156 220.002C81.1704 221.769 77.5247 221.602 74.8072 221.112C75.2916 213.242 75.6666 205.195 75.9167 196.979C76.5027 177.726 76.3482 159.298 75.6394 141.78C72.6807 142.057 69.7219 142.335 66.7632 142.612C67.2787 140.112 71.1968 122.315 84.2383 118.202C85.6701 117.751 87.3302 117.427 89.2309 117.37Z" fill="white"/>
<path d="M78.2976 221.786C77.1675 221.786 75.9826 221.675 74.7457 221.452C74.5732 221.42 74.4515 221.265 74.4624 221.091C74.9546 213.091 75.3278 204.976 75.5712 196.969C76.1245 178.791 76.0361 160.351 75.3086 142.158L66.7952 142.956C66.6846 142.966 66.5787 142.924 66.5057 142.843C66.4327 142.761 66.4025 142.65 66.4246 142.542C67.1274 139.134 71.2843 121.925 84.1342 117.873C85.7521 117.362 87.4635 117.077 89.2208 117.025C89.397 117.016 89.5516 117.15 89.5739 117.327C92.084 137.077 93.578 156.967 94.0147 176.445C94.3386 190.891 93.9553 199.837 92.7328 206.358C91.3572 213.698 88.7975 218.131 84.6769 220.307C82.8132 221.292 80.677 221.786 78.2976 221.786ZM75.1709 220.824C78.7287 221.416 81.8169 221.037 84.3542 219.697C92.6115 215.335 93.8769 201.136 93.3239 176.461C92.8899 157.11 91.4111 137.35 88.9283 117.728C87.3447 117.801 85.8032 118.071 84.3422 118.532C72.3534 122.313 68.1252 138.027 67.1992 142.224L75.6072 141.436C75.7025 141.427 75.7956 141.458 75.867 141.52C75.9384 141.582 75.981 141.671 75.9847 141.766C76.7264 160.094 76.8197 178.674 76.2623 196.99C76.0211 204.9 75.6541 212.918 75.1709 220.824Z" fill="#404040"/>
<path d="M102.545 116.815C108.893 136.078 110.421 151.961 110.589 163.139C110.946 186.87 105.473 209.424 117.801 218.892C119.335 220.07 120.786 220.77 121.723 221.165C121.298 197.223 120.873 173.281 120.448 149.339C120.303 146.085 118.994 122.692 105.874 117.647C104.866 117.26 103.76 116.97 102.545 116.815Z" fill="white"/>
<path d="M119.955 143.724C118.91 135.536 115.714 121.431 105.874 117.648C104.866 117.26 103.76 116.97 102.545 116.815C108.893 136.078 110.421 151.961 110.589 163.139C110.946 186.87 105.473 209.424 117.801 218.892C119.335 220.07 120.786 220.77 121.723 221.165C121.298 197.223 120.873 173.281 120.448 149.339C120.412 148.526 120.303 146.454 119.955 143.724Z" fill="white"/>
<path d="M110.585 162.876C110.586 162.964 110.588 163.051 110.589 163.139C110.946 186.87 105.473 209.424 117.801 218.892C119.335 220.07 120.785 220.77 121.723 221.165C121.298 197.223 120.873 173.281 120.448 149.339C120.412 148.526 120.303 146.453 119.955 143.724L110.585 162.876Z" fill="white"/>
<path d="M121.723 221.51C121.677 221.51 121.632 221.501 121.589 221.483C120.149 220.878 118.803 220.098 117.59 219.166C108.266 212.005 108.963 197.577 109.77 180.871C110.047 175.129 110.334 169.192 110.243 163.144L110.239 162.882C110.236 162.691 110.388 162.534 110.579 162.531C110.768 162.532 110.927 162.68 110.93 162.871L110.934 163.134C111.025 169.204 110.738 175.152 110.46 180.904C109.663 197.417 108.974 211.677 118.011 218.618C119.039 219.408 120.166 220.084 121.368 220.632L120.102 149.345C120.024 147.607 119.855 145.675 119.611 143.767C119.587 143.578 119.721 143.405 119.91 143.381C120.099 143.357 120.273 143.491 120.297 143.68C120.543 145.606 120.714 147.557 120.793 149.324L122.068 221.158C122.07 221.275 122.013 221.385 121.916 221.451C121.858 221.49 121.791 221.51 121.723 221.51Z" fill="#404040"/>
<path d="M116.499 129.72C114.344 124.422 111.016 119.625 105.874 117.648C104.866 117.26 103.76 116.97 102.545 116.815C108.893 136.079 116.499 129.72 116.499 129.72Z" fill="white"/>
<path d="M116.499 130.065C116.363 130.065 116.234 129.984 116.179 129.85C113.662 123.66 110.153 119.663 105.75 117.97C104.722 117.575 103.629 117.302 102.502 117.158C102.312 117.134 102.178 116.961 102.203 116.772C102.227 116.583 102.399 116.45 102.589 116.473C103.771 116.623 104.918 116.91 105.998 117.325C110.586 119.09 114.227 123.216 116.819 129.59C116.891 129.767 116.806 129.968 116.629 130.04C116.587 130.057 116.542 130.065 116.499 130.065Z" fill="#404040"/>
<path d="M119.954 143.724C119.911 143.385 119.864 143.035 119.813 142.676L119.954 143.724Z" fill="white"/>
<path d="M119.954 144.069C119.782 144.069 119.634 143.942 119.612 143.767C119.568 143.43 119.522 143.082 119.471 142.725C119.444 142.536 119.575 142.361 119.764 142.334C119.953 142.306 120.128 142.439 120.155 142.628C120.206 142.988 120.253 143.339 120.297 143.68C120.321 143.869 120.187 144.042 119.998 144.067C119.983 144.069 119.968 144.069 119.954 144.069Z" fill="#404040"/>
<path d="M61.4927 139.006H79.5224L89.1454 165.913H70.3689L61.4927 139.006Z" fill="#404040"/>
<path d="M65.9984 152.929C68.3981 154.031 70.8298 155.123 73.2938 156.203C73.9099 156.473 74.5254 156.741 75.14 157.008C79.9403 156.442 82.3881 156.382 82.4842 156.829C82.5655 157.207 80.9579 157.948 77.662 159.053C81.4891 163.251 83.2544 165.508 82.958 165.822C82.6949 166.102 80.8068 164.851 77.2937 162.069C81.8443 166.78 83.5286 168.812 83.3086 169.05C82.8988 169.495 75.9038 163.697 75.6997 163.943C75.5348 164.142 80.4427 168.039 80.0527 168.612C79.7201 169.1 75.6822 166.961 72.6067 164.906C69.0184 162.509 66.8919 161.045 65.9986 158.298C65.3039 156.163 65.6517 154.165 65.9984 152.929Z" fill="white"/>
<path d="M65.9979 152.929C68.3976 154.031 70.8293 155.123 73.2933 156.203C73.9095 156.473 74.5249 156.741 75.1395 157.008C79.9398 156.442 82.3876 156.382 82.4837 156.829C82.565 157.207 80.9574 157.948 77.6615 159.053C81.4886 163.251 83.254 165.508 82.9575 165.822C82.6945 166.102 80.8063 164.851 77.2932 162.069C81.8438 166.78 83.5281 168.812 83.3081 169.05C82.8983 169.495 75.9033 163.697 75.6992 163.943C75.5343 164.142 80.4422 168.039 80.0522 168.612C79.7196 169.1 75.6817 166.961 72.6062 164.906C69.0179 162.509 66.8914 161.045 65.9981 158.298C65.3034 156.163 65.6512 154.165 65.9979 152.929Z" fill="white"/>
<path d="M83.2584 169.428C82.8222 169.428 81.8957 168.84 79.1579 166.801C80.3034 167.929 80.5931 168.431 80.3375 168.806C80.1299 169.11 79.7172 169.301 77.2007 168.02C75.7408 167.277 73.9513 166.221 72.4137 165.193C68.9236 162.862 66.6176 161.321 65.6693 158.405C65.111 156.689 65.1096 154.815 65.6652 152.836C65.6926 152.738 65.7612 152.658 65.8527 152.616C65.9446 152.573 66.0503 152.573 66.142 152.615C68.5504 153.721 71.0031 154.821 73.4318 155.886C74.0192 156.144 74.6056 156.399 75.1914 156.653C77.5457 156.377 79.3539 156.223 80.5671 156.193C82.1332 156.154 82.7236 156.302 82.8212 156.756C82.9198 157.214 82.6358 157.72 78.272 159.211C83.8587 165.369 83.5139 165.735 83.2089 166.059C82.9122 166.374 82.3935 166.203 81.1531 165.381C80.9453 165.243 80.7171 165.087 80.4692 164.911C84.0416 168.764 83.8161 169.009 83.5618 169.285C83.4816 169.372 83.3934 169.428 83.2584 169.428ZM75.7023 163.586C75.9488 163.586 76.2874 163.826 76.8084 164.196C77.3334 164.569 78.038 165.098 78.7838 165.658C79.9157 166.507 81.6237 167.789 82.5891 168.394C81.9932 167.609 80.5372 165.925 77.0447 162.309C76.9183 162.179 76.9151 161.972 77.0371 161.837C77.1594 161.702 77.3649 161.685 77.5077 161.798C80.6406 164.279 81.9522 165.113 82.4974 165.386C82.142 164.768 80.9836 163.21 77.4061 159.286C77.3274 159.199 77.2977 159.079 77.3271 158.966C77.3566 158.853 77.4409 158.763 77.5517 158.725C80.5881 157.708 81.629 157.181 81.9846 156.935C81.4763 156.843 79.9217 156.792 75.1799 157.35C75.1195 157.357 75.058 157.348 75.0023 157.324C74.3873 157.058 73.7716 156.79 73.1547 156.519C70.8479 155.508 68.5196 154.464 66.2281 153.415C65.8151 155.115 65.8481 156.72 66.3267 158.191C67.1624 160.76 69.1203 162.162 72.7979 164.619C75.6139 166.5 78.594 168.051 79.5972 168.303C79.1531 167.686 77.7282 166.389 76.9086 165.643C75.3255 164.203 75.1599 164.052 75.433 163.722C75.5109 163.629 75.5984 163.586 75.7023 163.586Z" fill="#404040"/>
<path d="M100.318 115.213C99.3645 116.076 98.4112 116.938 97.4578 117.801C95.4365 116.775 93.4153 115.749 91.394 114.723C90.2108 115.698 89.0275 116.673 87.8442 117.648C89.5596 122.016 93.9957 124.396 97.9569 123.48C100.947 122.789 103.348 120.292 104.21 117.093C102.913 116.466 101.615 115.84 100.318 115.213Z" fill="#A7F3D0"/>
<path d="M96.2115 124.024C92.5511 124.025 89.0142 121.573 87.5225 117.774C87.4677 117.635 87.5089 117.476 87.6243 117.381L91.1741 114.456C91.2801 114.369 91.4277 114.352 91.5503 114.415L97.4021 117.386L100.086 114.957C100.19 114.863 100.341 114.841 100.468 114.902L104.36 116.782C104.51 116.854 104.586 117.022 104.543 117.183C103.634 120.557 101.14 123.099 98.0346 123.817C97.4293 123.957 96.8187 124.024 96.2115 124.024ZM88.2601 117.753C89.9386 121.724 94.0306 124.034 97.8789 123.144C100.651 122.502 102.897 120.267 103.798 117.278L100.377 115.625L97.6894 118.057C97.5832 118.153 97.4288 118.174 97.301 118.109L91.4388 115.133L88.2601 117.753Z" fill="#404040"/>
<path d="M95.358 121.458C95.2951 121.458 95.2315 121.441 95.1744 121.405C95.013 121.304 94.9641 121.091 95.0657 120.929L97.1181 117.664C97.1747 117.574 97.2696 117.515 97.3756 117.504C97.4818 117.493 97.5866 117.532 97.66 117.609L99.8057 119.848C99.9377 119.985 99.9331 120.204 99.7953 120.336C99.6573 120.468 99.4387 120.464 99.3068 120.326L97.4675 118.407L95.6508 121.297C95.5851 121.401 95.4727 121.458 95.358 121.458Z" fill="#404040"/>
<path d="M75.4875 78.5615C76.1457 76.4266 74.9485 74.1623 72.8136 73.5041C70.6786 72.846 68.4144 74.0431 67.7562 76.178C67.098 78.313 68.2952 80.5773 70.4301 81.2354C72.565 81.8936 74.8293 80.6965 75.4875 78.5615Z" fill="#F3F3F3"/>
<path d="M86.6341 78.2759C87.1434 76.1006 85.7929 73.9241 83.6175 73.4148C81.4421 72.9054 79.2657 74.2559 78.7563 76.4313C78.2469 78.6067 79.5975 80.7831 81.7729 81.2925C83.9482 81.8019 86.1247 80.4513 86.6341 78.2759Z" fill="#F3F3F3"/>
<path d="M97.7049 78.2752C98.2142 76.0998 96.8637 73.9234 94.6883 73.414C92.5129 72.9046 90.3365 74.2552 89.8271 76.4306C89.3177 78.606 90.6683 80.7824 92.8437 81.2918C95.019 81.8011 97.1955 80.4506 97.7049 78.2752Z" fill="#34D399"/>
<path d="M62.8108 76.9668H40.327C40.136 76.9668 39.9814 76.8122 39.9814 76.6213C39.9814 76.4303 40.136 76.2758 40.327 76.2758H62.8108C63.0018 76.2758 63.1564 76.4303 63.1564 76.6213C63.1564 76.8122 63.0016 76.9668 62.8108 76.9668Z" fill="#404040"/>
<path d="M66.1144 115.142H40.327C40.136 115.142 39.9814 114.987 39.9814 114.796V89.821C39.9814 89.63 40.136 89.4755 40.327 89.4755H62.5759C62.7668 89.4755 62.9214 89.63 62.9214 89.821C62.9214 90.0119 62.7668 90.1665 62.5759 90.1665H40.6725V114.451H66.1144C66.3054 114.451 66.4599 114.606 66.4599 114.796C66.4599 114.987 66.3051 115.142 66.1144 115.142Z" fill="#404040"/>
<path d="M88.5506 90.1665H70.347C70.156 90.1665 70.0015 90.0119 70.0015 89.821C70.0015 89.63 70.156 89.4755 70.347 89.4755H88.5506C88.7416 89.4755 88.8962 89.63 88.8962 89.821C88.8962 90.0119 88.7414 90.1665 88.5506 90.1665Z" fill="#404040"/>
<path d="M129.855 94.5317C129.664 94.5317 129.51 94.3771 129.51 94.1862V77.0734H103.135C102.944 77.0734 102.79 76.9189 102.79 76.7279C102.79 76.5369 102.944 76.3824 103.135 76.3824H129.855C130.046 76.3824 130.2 76.5369 130.2 76.7279V94.1864C130.201 94.3771 130.046 94.5317 129.855 94.5317Z" fill="#404040"/>
<path d="M295.717 46.956H255.237C255.046 46.956 254.891 46.8015 254.891 46.6105C254.891 46.4196 255.046 46.265 255.237 46.265H295.717C295.908 46.265 296.062 46.4196 296.062 46.6105C296.062 46.8013 295.908 46.956 295.717 46.956Z" fill="#404040"/>
<path d="M334.332 47.8375C335.013 46.1918 334.232 44.3051 332.586 43.6235C330.941 42.9418 329.054 43.7234 328.372 45.3691C327.691 47.0148 328.472 48.9015 330.118 49.5831C331.763 50.2647 333.65 49.4832 334.332 47.8375Z" fill="#34D399"/>
<path d="M320.889 48.8932C322.148 47.6337 322.148 45.5916 320.889 44.3321C319.629 43.0726 317.587 43.0726 316.327 44.3321C315.068 45.5916 315.068 47.6337 316.327 48.8932C317.587 50.1528 319.629 50.1528 320.889 48.8932Z" fill="#F3F3F3"/>
<path d="M308.157 48.8932C309.417 47.6337 309.417 45.5916 308.157 44.3321C306.898 43.0725 304.856 43.0725 303.596 44.332C302.336 45.5916 302.336 47.6337 303.596 48.8932C304.856 50.1527 306.898 50.1527 308.157 48.8932Z" fill="#F3F3F3"/>
</svg>
