<svg width="387" height="238" viewBox="0 0 387 238" fill="none" xmlns="http://www.w3.org/2000/svg">
<g clip-path="url(#clip0_148_4760)">
<path d="M215.634 105.673C215.526 105.673 215.418 105.627 215.342 105.539C215.202 105.378 215.22 105.134 215.381 104.994L278.281 50.5994C278.442 50.4587 278.687 50.4772 278.826 50.6384C278.966 50.7997 278.949 51.0439 278.787 51.1834L215.887 105.578C215.814 105.642 215.724 105.673 215.634 105.673Z" fill="#EF4444"/>
<path d="M325.844 151.727C325.828 151.727 325.81 151.726 325.793 151.723L321.961 151.201C321.749 151.173 321.6 150.977 321.63 150.766C321.659 150.554 321.861 150.405 322.064 150.435L325.896 150.957C326.108 150.985 326.256 151.181 326.227 151.392C326.201 151.586 326.035 151.727 325.844 151.727ZM268.362 143.91C268.346 143.91 268.328 143.909 268.311 143.906L237.653 139.737C237.441 139.709 237.293 139.514 237.322 139.303C237.35 139.091 237.535 138.934 237.757 138.971L268.414 143.14C268.626 143.168 268.775 143.364 268.745 143.575C268.719 143.769 268.553 143.91 268.362 143.91Z" fill="#F87171"/>
<path d="M52.3803 170.222C52.2112 170.222 52.0561 170.11 52.0081 169.94C51.9504 169.734 52.0706 169.521 52.2758 169.463L161.386 138.982C161.593 138.922 161.805 139.044 161.862 139.25C161.92 139.456 161.8 139.669 161.595 139.726L52.4849 170.208C52.4498 170.218 52.4146 170.222 52.3803 170.222Z" fill="#FECACA"/>
<path d="M162.959 107.139C162.874 107.139 162.79 107.111 162.718 107.055L89.2669 48.713C89.0998 48.5802 89.0716 48.3368 89.2044 48.1699C89.3382 48.0018 89.5825 47.9755 89.7477 48.1074L163.199 106.449C163.366 106.582 163.395 106.825 163.262 106.992C163.185 107.089 163.072 107.139 162.959 107.139Z" fill="#F87171"/>
<path d="M158.082 214.198C158.031 214.198 157.98 214.188 157.93 214.167C157.734 214.082 157.643 213.854 157.727 213.659L159.178 210.285C159.263 210.088 159.489 209.997 159.686 210.082C159.883 210.167 159.974 210.395 159.889 210.59L158.438 213.964C158.374 214.11 158.232 214.198 158.082 214.198ZM165.649 196.614C165.598 196.614 165.546 196.604 165.497 196.583C165.3 196.498 165.209 196.27 165.293 196.075L177.523 167.655C177.608 167.459 177.835 167.366 178.031 167.452C178.227 167.537 178.318 167.764 178.234 167.96L166.004 196.38C165.941 196.527 165.798 196.614 165.649 196.614Z" fill="#EF4444"/>
<path d="M142.673 127.463C142.648 127.463 142.621 127.461 142.595 127.456L112.298 121.184C112.089 121.14 111.954 120.935 111.997 120.726C112.04 120.517 112.238 120.384 112.454 120.425L142.751 126.698C142.96 126.742 143.095 126.946 143.052 127.155C143.014 127.337 142.853 127.463 142.673 127.463ZM97.2273 118.055C97.2018 118.055 97.1755 118.052 97.1492 118.048L93.3625 117.264C93.1535 117.22 93.0186 117.016 93.0617 116.807C93.1047 116.599 93.3069 116.467 93.519 116.506L97.3057 117.29C97.5149 117.333 97.6497 117.538 97.6066 117.747C97.5682 117.929 97.407 118.055 97.2273 118.055Z" fill="#FCA5A5"/>
<path d="M177.689 86.811C177.514 86.811 177.356 86.6917 177.313 86.5149L170.031 56.4447C169.981 56.2377 170.108 56.0285 170.316 55.9778C170.52 55.9319 170.732 56.056 170.783 56.2631L178.066 86.3333C178.115 86.5404 177.988 86.7495 177.78 86.8002C177.75 86.807 177.72 86.811 177.689 86.811Z" fill="#FCA5A5"/>
<path d="M227.392 127.464C227.219 127.464 227.061 127.346 227.017 127.171C226.965 126.964 227.09 126.754 227.298 126.702L299.492 108.499C299.697 108.445 299.91 108.572 299.962 108.779C300.013 108.986 299.888 109.196 299.681 109.249L227.487 127.452C227.455 127.46 227.424 127.464 227.392 127.464Z" fill="#FCA5A5"/>
<path d="M291.902 211.067C291.824 211.067 291.746 211.043 291.678 210.995L210.724 153.402C210.549 153.278 210.509 153.037 210.632 152.863C210.758 152.687 211.001 152.65 211.171 152.771L292.126 210.364C292.3 210.488 292.34 210.73 292.217 210.904C292.141 211.01 292.022 211.067 291.902 211.067Z" fill="#EF4444"/>
<path d="M363.899 184.245C356.016 184.245 348.684 181.099 343.254 175.389C343.109 175.235 343.099 174.977 343.251 174.83C343.403 174.682 343.632 174.67 343.78 174.818C343.789 174.827 343.826 174.867 343.834 174.877C349.098 180.411 356.229 183.471 363.899 183.471C368.638 183.471 373.315 182.254 377.424 179.951C377.612 179.846 377.847 179.913 377.95 180.098C378.055 180.285 377.989 180.521 377.803 180.625C373.577 182.993 368.77 184.245 363.899 184.245ZM389.78 167.086C389.73 167.086 389.678 167.077 389.629 167.056C389.433 166.973 389.34 166.746 389.423 166.549C390.013 165.151 390.492 163.688 390.846 162.201C390.895 161.994 391.101 161.868 391.312 161.915C391.521 161.965 391.648 162.173 391.599 162.381C391.234 163.908 390.742 165.412 390.136 166.85C390.074 166.998 389.93 167.086 389.78 167.086ZM336.557 149.664C336.528 149.664 336.499 149.66 336.468 149.653C336.26 149.604 336.131 149.396 336.181 149.188C336.542 147.661 337.032 146.157 337.637 144.717C337.721 144.52 337.946 144.428 338.143 144.51C338.34 144.593 338.433 144.819 338.35 145.016C337.762 146.418 337.285 147.881 336.933 149.366C336.891 149.544 336.733 149.664 336.557 149.664ZM384.024 136.727L384.312 136.467L383.974 136.673C378.693 131.116 371.56 128.056 363.89 128.056C359.137 128.056 354.448 129.281 350.33 131.596C350.146 131.703 349.909 131.635 349.803 131.449C349.698 131.262 349.764 131.026 349.95 130.922C354.184 128.541 359.004 127.283 363.89 127.283C371.774 127.283 379.106 130.429 384.535 136.14L384.311 136.467L384.024 136.727Z" fill="#F87171"/>
<path d="M363.896 134.632C352.225 134.632 342.764 144.093 342.764 155.764C342.764 167.435 352.225 176.896 363.896 176.896C375.567 176.896 385.028 167.435 385.028 155.764C385.028 144.093 375.567 134.632 363.896 134.632Z" fill="white"/>
<path d="M363.896 177.283C352.031 177.283 342.377 167.63 342.377 155.764C342.377 143.898 352.031 134.245 363.896 134.245C375.763 134.245 385.416 143.898 385.416 155.764C385.416 167.63 375.762 177.283 363.896 177.283ZM363.896 135.019C352.457 135.019 343.151 144.325 343.151 155.765C343.151 167.204 352.457 176.509 363.896 176.509C375.335 176.509 384.642 167.204 384.642 155.765C384.642 144.325 375.335 135.019 363.896 135.019Z" fill="#FECACA"/>
<path d="M366.139 154.703C367.784 153.88 368.904 152.187 368.904 150.235C368.904 147.47 366.655 145.222 363.891 145.222C361.135 145.222 358.887 147.47 358.887 150.235C358.887 152.187 360.006 153.88 361.642 154.703C357.902 155.689 355.146 159.104 355.146 163.16C355.146 165.896 372.645 165.896 372.645 163.16C372.644 159.104 369.879 155.688 366.139 154.703Z" fill="#FECACA"/>
<path d="M31.2609 202.653C19.8617 202.653 9.59766 195.882 5.11233 185.404C5.02836 185.207 5.11043 184.96 5.30677 184.876C5.50397 184.792 5.72195 184.862 5.80593 185.059L5.4503 185.211L5.81874 185.089C10.1867 195.292 20.1714 201.879 31.2609 201.879C32.6737 201.879 34.0981 201.769 35.4942 201.551C35.713 201.519 35.9026 201.663 35.9358 201.873C35.9691 202.085 35.8245 202.282 35.6134 202.315C34.1773 202.54 32.7137 202.653 31.2609 202.653ZM51.663 193.838C51.5683 193.838 51.4726 193.803 51.3983 193.732C51.242 193.586 51.2352 193.342 51.3817 193.186C52.4233 192.079 53.3795 190.877 54.2246 189.614C54.3429 189.436 54.5832 189.39 54.761 189.507C54.9388 189.625 54.9868 189.866 54.8675 190.043C53.999 191.343 53.0161 192.579 51.9444 193.716C51.8682 193.797 51.7655 193.838 51.663 193.838ZM56.7022 163.41L57.0608 163.265L56.6768 163.349C52.3088 153.144 42.3241 146.557 31.2346 146.557C29.8072 146.557 28.3692 146.67 26.9603 146.892C26.7444 146.923 26.5509 146.78 26.5178 146.57C26.4845 146.359 26.6283 146.161 26.8393 146.128C28.2881 145.9 29.7673 145.784 31.2348 145.784C42.6351 145.784 52.898 152.555 57.3834 163.034L57.061 163.264L56.7022 163.41ZM7.92601 159.031C7.85173 159.031 7.77763 159.009 7.71114 158.965C7.53333 158.847 7.48537 158.607 7.60466 158.429C8.47209 157.127 9.45309 155.89 10.5208 154.752C10.6673 154.596 10.9116 154.591 11.068 154.735C11.2233 154.881 11.231 155.126 11.0854 155.282C10.047 156.389 9.09158 157.592 8.24735 158.858C8.17325 158.97 8.05101 159.031 7.92601 159.031Z" fill="#EF4444"/>
<path d="M31.2485 153.087C19.5774 153.087 10.1162 162.548 10.1162 174.219C10.1162 185.89 19.5772 195.351 31.2485 195.351C42.9194 195.351 52.3807 185.89 52.3807 174.219C52.3807 162.548 42.9194 153.087 31.2485 153.087Z" fill="white"/>
<path d="M31.2482 195.738C19.3828 195.738 9.72949 186.085 9.72949 174.219C9.72949 162.353 19.3828 152.7 31.2482 152.7C43.1144 152.7 52.7677 162.353 52.7677 174.219C52.7679 186.085 43.1144 195.738 31.2482 195.738ZM31.2482 153.474C19.8087 153.474 10.5031 162.779 10.5031 174.219C10.5031 185.658 19.8087 194.965 31.2482 194.965C42.6874 194.965 51.9942 185.658 51.9942 174.219C51.9942 162.779 42.6874 153.474 31.2482 153.474Z" fill="#FECACA"/>
<path d="M33.4911 173.158C35.1366 172.335 36.2561 170.642 36.2561 168.69C36.2561 165.925 34.0077 163.677 31.243 163.677C28.4877 163.677 26.2395 165.925 26.2395 168.69C26.2395 170.642 27.3588 172.335 28.9948 173.158C25.2544 174.143 22.499 177.559 22.499 181.615C22.499 184.351 39.9969 184.351 39.9969 181.615C39.9966 177.559 37.2319 174.143 33.4911 173.158Z" fill="#FECACA"/>
<path d="M73.1374 63.308C68.3356 63.308 63.5935 62.0818 59.4236 59.7635C59.237 59.6599 59.1697 59.4245 59.2732 59.2378C59.3759 59.0503 59.6112 58.9828 59.7988 59.0874C63.8543 61.3421 68.4665 62.5342 73.1374 62.5342C78.7404 62.5342 84.1303 60.8596 88.7251 57.6905C88.901 57.5712 89.1413 57.6133 89.2634 57.7892C89.3846 57.9651 89.3406 58.2064 89.1647 58.3275C84.4399 61.5856 78.8976 63.308 73.1374 63.308ZM98.6735 46.6262C98.6217 46.6262 98.5689 46.6155 98.5182 46.593C98.3228 46.508 98.2339 46.2794 98.3199 46.084C98.8308 44.9184 99.2626 43.7118 99.6027 42.4974C99.6603 42.2922 99.8704 42.1721 100.08 42.2297C100.285 42.2874 100.405 42.5003 100.347 42.7064C99.9983 43.9551 99.5539 45.1966 99.0272 46.3944C98.9635 46.5402 98.8218 46.6262 98.6735 46.6262ZM46.0049 41.848C45.829 41.848 45.6707 41.7278 45.6288 41.55C45.3298 40.2868 45.1179 38.9855 44.9977 37.6831C44.9782 37.4712 45.1345 37.2825 45.3475 37.2631C45.5644 37.2446 45.7481 37.3999 45.7675 37.6128C45.8847 38.879 46.0909 40.1441 46.3811 41.3722C46.4299 41.5803 46.302 41.7884 46.0939 41.8372C46.0636 41.844 46.0343 41.848 46.0049 41.848ZM48.171 23.0247C48.1123 23.0247 48.0538 23.0121 47.9991 22.9837C47.8076 22.8888 47.7295 22.6562 47.8253 22.4658C52.6416 12.7948 62.341 6.78638 73.1374 6.78638C82.9473 6.78638 91.9129 11.7582 97.119 20.0869C97.2324 20.2685 97.1767 20.5069 96.9959 20.6203C96.8153 20.7306 96.575 20.678 96.4625 20.4972C91.3989 12.3962 82.6794 7.56031 73.1374 7.56031C62.6359 7.56031 53.2024 13.4036 48.517 22.8098C48.4494 22.9456 48.3127 23.0247 48.171 23.0247Z" fill="#FECACA"/>
<path d="M73.1381 13.9148C61.4668 13.9148 52.0059 23.3759 52.0059 35.047C52.0059 46.718 61.4668 56.1793 73.1381 56.1793C84.8089 56.1793 94.2703 46.7181 94.2703 35.047C94.2702 23.3759 84.8089 13.9148 73.1381 13.9148Z" fill="white"/>
<path d="M73.1378 56.566C61.2727 56.566 51.6191 46.9127 51.6191 35.0473C51.6191 23.1809 61.2725 13.5276 73.1378 13.5276C85.0041 13.5276 94.6576 23.1809 94.6576 35.0473C94.6576 46.9125 85.0041 56.566 73.1378 56.566ZM73.1378 14.3013C61.6984 14.3013 52.3929 23.6079 52.3929 35.0473C52.3929 46.4866 61.6984 55.7922 73.1378 55.7922C84.5773 55.7922 93.8838 46.4866 93.8838 35.0473C93.8836 23.6079 84.5771 14.3013 73.1378 14.3013Z" fill="#F87171"/>
<path d="M75.3814 33.986C77.0271 33.1633 78.1464 31.4698 78.1464 29.5182C78.1464 26.7533 75.898 24.5051 73.1333 24.5051C70.378 24.5051 68.1298 26.7533 68.1298 29.5182C68.1298 31.4698 69.2492 33.1633 70.8851 33.986C67.1445 34.9713 64.3892 38.3869 64.3892 42.4431C64.3892 45.1793 81.8871 45.1793 81.8871 42.4431C81.8869 38.3869 79.1222 34.9713 75.3814 33.986Z" fill="#F87171"/>
<path d="M294.606 59.6073C294.585 59.6073 294.564 59.6052 294.542 59.6014C285.851 58.1457 278.331 52.9131 273.909 45.2468C273.802 45.0612 273.866 44.8247 274.05 44.7182C274.238 44.6118 274.473 44.6753 274.579 44.8599C278.884 52.3258 286.208 57.4207 294.669 58.8392C294.88 58.8744 295.023 59.0737 294.987 59.2837C294.956 59.4735 294.792 59.6073 294.606 59.6073ZM307.297 58.935C307.128 58.935 306.973 58.8226 306.925 58.6526C306.867 58.4464 306.987 58.2334 307.192 58.1758C308.197 57.8953 309.202 57.5525 310.183 57.1577C310.384 57.0757 310.606 57.1744 310.686 57.3717C310.766 57.57 310.67 57.7957 310.472 57.8749C309.465 58.2804 308.432 58.6322 307.401 58.9203C307.366 58.9301 307.331 58.935 307.297 58.935ZM324.588 45.5398C324.522 45.5398 324.454 45.5232 324.394 45.487C324.209 45.3796 324.146 45.1431 324.254 44.9584C326.789 40.6031 328.13 35.6205 328.131 30.5491C328.131 27.1159 327.531 23.76 326.349 20.5732C326.274 20.3729 326.376 20.1501 326.576 20.076C326.778 20.0007 326.999 20.1033 327.073 20.3036C328.288 23.5773 328.904 27.0242 328.904 30.5491C328.903 35.7573 327.526 40.8747 324.922 45.3473C324.851 45.4705 324.721 45.5398 324.588 45.5398ZM270.649 26.9158C270.631 26.9158 270.614 26.9149 270.595 26.9118C270.384 26.8826 270.237 26.6871 270.266 26.4752C270.415 25.4034 270.625 24.3326 270.887 23.2922C270.941 23.086 271.156 22.9639 271.357 23.0117C271.564 23.0645 271.689 23.2745 271.638 23.4816C271.381 24.4948 271.178 25.5381 271.032 26.5825C271.005 26.7763 270.839 26.9158 270.649 26.9158ZM277.013 12.4411C276.926 12.4411 276.839 12.4118 276.767 12.3521C276.601 12.2163 276.579 11.9731 276.715 11.8079C282.338 4.99647 290.623 1.0896 299.445 1.0896L299.559 1.09064C299.773 1.09064 299.946 1.26343 299.946 1.47743C299.946 1.69143 299.773 1.86422 299.559 1.86422L299.435 1.86318C290.854 1.86318 282.788 5.66755 277.311 12.3001C277.234 12.3933 277.124 12.4411 277.013 12.4411ZM319.788 10.1667C319.691 10.1667 319.593 10.1297 319.518 10.0564C318.765 9.31887 317.966 8.61835 317.144 7.97358C316.976 7.84165 316.946 7.59839 317.077 7.43045C317.21 7.26147 317.453 7.23498 317.62 7.36397C318.465 8.02639 319.286 8.7463 320.059 9.50361C320.211 9.65303 320.214 9.89819 320.065 10.0507C319.989 10.1276 319.889 10.1667 319.788 10.1667Z" fill="#F87171"/>
<path d="M299.446 9.41675C287.774 9.41675 278.313 18.8779 278.313 30.549C278.313 42.2201 287.774 51.6812 299.446 51.6812C311.116 51.6812 320.578 42.2199 320.578 30.549C320.578 18.8781 311.116 9.41675 299.446 9.41675Z" fill="white"/>
<path d="M299.446 52.0677C287.58 52.0677 277.926 42.4144 277.926 30.549C277.926 18.6826 287.58 9.0293 299.446 9.0293C311.311 9.0293 320.965 18.6828 320.965 30.549C320.965 42.4142 311.311 52.0677 299.446 52.0677ZM299.446 9.80305C288.007 9.80305 278.7 19.1096 278.7 30.549C278.7 41.9883 288.007 51.294 299.446 51.294C310.885 51.294 320.191 41.9883 320.191 30.549C320.191 19.1096 310.885 9.80305 299.446 9.80305Z" fill="#EF4444"/>
<path d="M301.689 29.4878C303.334 28.665 304.454 26.9718 304.454 25.0201C304.454 22.2553 302.205 20.0071 299.441 20.0071C296.685 20.0071 294.437 22.2553 294.437 25.0201C294.437 26.9718 295.556 28.6652 297.192 29.4878C293.452 30.4731 290.696 33.8886 290.696 37.9451C290.696 40.6812 308.194 40.6812 308.194 37.9451C308.194 33.8886 305.429 30.4733 301.689 29.4878Z" fill="#EF4444"/>
<path d="M78.8827 99.2483C71.1082 99.2483 64.8062 105.551 64.8062 113.325C64.8062 121.099 71.1082 127.402 78.8827 127.402C86.6569 127.402 92.9593 121.099 92.9593 113.325C92.9593 105.551 86.6569 99.2483 78.8827 99.2483Z" fill="#FCA5A5"/>
<path d="M80.3774 112.618C81.4735 112.07 82.2192 110.942 82.2192 109.642C82.2192 107.8 80.7216 106.303 78.8799 106.303C77.0445 106.303 75.5468 107.8 75.5468 109.642C75.5468 110.942 76.2925 112.07 77.3823 112.618C74.8906 113.275 73.0552 115.55 73.0552 118.252C73.0552 120.074 84.711 120.074 84.711 118.252C84.7109 115.55 82.8692 113.275 80.3774 112.618Z" fill="white"/>
<path d="M166.888 29.4448C160.433 29.4448 155.2 34.6778 155.2 41.1331C155.2 47.5884 160.433 52.8213 166.888 52.8213C173.343 52.8213 178.576 47.5884 178.576 41.1331C178.576 34.6778 173.343 29.4448 166.888 29.4448Z" fill="#EF4444"/>
<path d="M168.129 40.5461C169.039 40.0911 169.658 39.1544 169.658 38.0751C169.658 36.5459 168.414 35.3022 166.885 35.3022C165.361 35.3022 164.118 36.5457 164.118 38.0751C164.118 39.1546 164.737 40.0911 165.642 40.5461C163.573 41.0911 162.049 42.9802 162.049 45.2238C162.049 46.7372 171.727 46.7372 171.727 45.2238C171.727 42.9802 170.198 41.0911 168.129 40.5461Z" fill="white"/>
<path d="M159.328 202.71C152.873 202.71 147.64 207.943 147.64 214.398C147.64 220.853 152.873 226.086 159.328 226.086C165.784 226.086 171.017 220.853 171.017 214.398C171.017 207.943 165.784 202.71 159.328 202.71Z" fill="#F87171"/>
<path d="M160.569 213.811C161.479 213.356 162.099 212.419 162.099 211.34C162.099 209.811 160.855 208.567 159.326 208.567C157.802 208.567 156.558 209.811 156.558 211.34C156.558 212.42 157.177 213.356 158.082 213.811C156.013 214.356 154.489 216.245 154.489 218.489C154.489 220.002 164.167 220.002 164.167 218.489C164.167 216.245 162.638 214.356 160.569 213.811Z" fill="white"/>
<path d="M295.444 199.295C288.989 199.295 283.756 204.528 283.756 210.983C283.756 217.438 288.989 222.671 295.444 222.671C301.899 222.671 307.132 217.438 307.132 210.983C307.132 204.528 301.899 199.295 295.444 199.295Z" fill="#FCA5A5"/>
<path d="M296.685 210.396C297.596 209.941 298.215 209.004 298.215 207.925C298.215 206.396 296.971 205.152 295.442 205.152C293.918 205.152 292.674 206.395 292.674 207.925C292.674 209.004 293.294 209.941 294.198 210.396C292.129 210.941 290.605 212.83 290.605 215.074C290.605 216.587 300.284 216.587 300.284 215.074C300.284 212.83 298.754 210.941 296.685 210.396Z" fill="white"/>
<path d="M299.587 87.2053C289.336 87.2053 281.026 95.5153 281.026 105.766C281.026 116.017 289.336 124.327 299.587 124.327C309.838 124.327 318.148 116.017 318.148 105.766C318.148 95.5153 309.838 87.2053 299.587 87.2053Z" fill="#F87171"/>
<path d="M301.557 104.834C303.003 104.112 303.986 102.624 303.986 100.91C303.986 98.4817 302.011 96.5071 299.583 96.5071C297.163 96.5071 295.188 98.4817 295.188 100.91C295.188 102.624 296.171 104.112 297.608 104.834C294.323 105.7 291.902 108.7 291.902 112.263C291.902 114.666 307.271 114.666 307.271 112.263C307.271 108.7 304.843 105.7 301.557 104.834Z" fill="white"/>
<path d="M215.933 49.7451C215.933 51.8969 214.188 53.6412 212.037 53.6412C209.885 53.6412 208.141 51.8969 208.141 49.7451C208.141 47.5933 209.885 45.8491 212.037 45.8491C214.188 45.8491 215.933 47.5935 215.933 49.7451Z" fill="#FCA5A5"/>
<path d="M125.636 177.628C125.636 178.767 124.712 179.69 123.573 179.69C122.434 179.69 121.511 178.767 121.511 177.628C121.511 176.489 122.434 175.565 123.573 175.565C124.713 175.565 125.636 176.489 125.636 177.628Z" fill="#FCA5A5"/>
<path d="M106.843 95.5814C106.843 96.7207 105.92 97.644 104.781 97.644C103.642 97.644 102.718 96.7205 102.718 95.5814C102.718 94.4423 103.642 93.5188 104.781 93.5188C105.92 93.5188 106.843 94.4423 106.843 95.5814Z" fill="#FCA5A5"/>
<path d="M270.936 167.315C270.936 168.834 269.704 170.065 268.186 170.065C266.667 170.065 265.436 168.834 265.436 167.315C265.436 165.796 266.667 164.564 268.186 164.564C269.705 164.564 270.936 165.796 270.936 167.315Z" fill="#FCA5A5"/>
<path d="M280.562 129.729C280.562 129.982 280.357 130.187 280.104 130.187C279.851 130.187 279.646 129.982 279.646 129.729C279.646 129.476 279.851 129.271 280.104 129.271C280.357 129.271 280.562 129.476 280.562 129.729Z" fill="#FECACA"/>
<path d="M245.727 101.54C245.727 102.932 244.598 104.061 243.205 104.061C241.813 104.061 240.685 102.932 240.685 101.54C240.685 100.148 241.813 99.019 243.205 99.019C244.598 99.019 245.727 100.148 245.727 101.54Z" fill="#FECACA"/>
<path d="M251.227 39.8905C252.239 39.8905 253.06 39.0696 253.06 38.0569C253.06 37.0443 252.239 36.2234 251.227 36.2234C250.214 36.2234 249.393 37.0443 249.393 38.0569C249.393 39.0696 250.214 39.8905 251.227 39.8905Z" fill="#F87171"/>
<path d="M116.01 37.5986C117.782 37.5986 119.219 36.1621 119.219 34.39C119.219 32.6179 117.782 31.1814 116.01 31.1814C114.238 31.1814 112.802 32.6179 112.802 34.39C112.802 36.1621 114.238 37.5986 116.01 37.5986Z" fill="#FECACA"/>
<path d="M68.7994 150.355C68.7994 151.368 67.9786 152.189 66.9659 152.189C65.9534 152.189 65.1323 151.368 65.1323 150.355C65.1323 149.343 65.9534 148.522 66.9659 148.522C67.9786 148.522 68.7994 149.343 68.7994 150.355Z" fill="#FECACA"/>
<path d="M196.224 207.192C196.224 208.204 195.403 209.025 194.39 209.025C193.377 209.025 192.557 208.204 192.557 207.192C192.557 206.179 193.377 205.358 194.39 205.358C195.403 205.359 196.224 206.179 196.224 207.192Z" fill="#F87171"/>
<path d="M250.246 219.316C250.49 218.203 249.786 217.103 248.674 216.859C247.561 216.614 246.461 217.318 246.217 218.431C245.972 219.543 246.676 220.643 247.789 220.888C248.902 221.132 250.002 220.428 250.246 219.316Z" fill="#FCA5A5"/>
<path d="M223.725 5.97176C224.738 5.97176 225.559 5.15086 225.559 4.13823C225.559 3.12559 224.738 2.30469 223.725 2.30469C222.712 2.30469 221.892 3.12559 221.892 4.13823C221.892 5.15086 222.712 5.97176 223.725 5.97176Z" fill="#EF4444"/>
<path d="M289.415 73.1379C290.818 72.5566 291.484 70.9478 290.903 69.5445C290.322 68.1413 288.713 67.4749 287.31 68.0562C285.907 68.6374 285.24 70.2462 285.822 71.6495C286.403 73.0528 288.012 73.7191 289.415 73.1379Z" fill="white"/>
<path d="M288.354 73.7381C286.625 73.7381 285.217 72.3302 285.217 70.601C285.217 68.8719 286.625 67.4641 288.354 67.4641C290.083 67.4641 291.491 68.8719 291.491 70.601C291.491 72.3302 290.083 73.7381 288.354 73.7381ZM288.354 68.2377C287.051 68.2377 285.991 69.2976 285.991 70.601C285.991 71.9044 287.051 72.9644 288.354 72.9644C289.657 72.9644 290.717 71.9044 290.717 70.601C290.717 69.2978 289.657 68.2377 288.354 68.2377Z" fill="#FCA5A5"/>
<path d="M83.9255 181.982C83.9255 183.248 82.8994 184.274 81.6336 184.274C80.3678 184.274 79.3418 183.248 79.3418 181.982C79.3418 180.717 80.368 179.691 81.6336 179.691C82.8993 179.691 83.9255 180.717 83.9255 181.982Z" fill="white"/>
<path d="M81.6339 184.661C80.1567 184.661 78.9551 183.46 78.9551 181.982C78.9551 180.505 80.1567 179.304 81.6339 179.304C83.1111 179.304 84.3127 180.505 84.3127 181.982C84.3127 183.46 83.1111 184.661 81.6339 184.661ZM81.6339 180.077C80.5836 180.077 79.7288 180.932 79.7288 181.982C79.7288 183.033 80.5836 183.887 81.6339 183.887C82.6841 183.887 83.5389 183.033 83.5389 181.982C83.5389 180.932 82.6841 180.077 81.6339 180.077Z" fill="#EF4444"/>
<path d="M139.386 201.921C139.386 204.073 137.642 205.817 135.49 205.817C133.339 205.817 131.594 204.073 131.594 201.921C131.594 199.77 133.339 198.025 135.49 198.025C137.642 198.025 139.386 199.77 139.386 201.921Z" fill="white"/>
<path d="M135.491 206.204C133.129 206.204 131.208 204.283 131.208 201.922C131.208 199.56 133.129 197.638 135.491 197.638C137.852 197.638 139.774 199.56 139.774 201.922C139.774 204.283 137.852 206.204 135.491 206.204ZM135.491 198.412C133.555 198.412 131.981 199.986 131.981 201.922C131.981 203.857 133.555 205.431 135.491 205.431C137.426 205.431 139 203.857 139 201.922C139 199.986 137.426 198.412 135.491 198.412Z" fill="#FECACA"/>
<path d="M82.5505 78.8512C85.082 78.8512 87.1341 76.799 87.1341 74.2675C87.1341 71.736 85.082 69.6838 82.5505 69.6838C80.019 69.6838 77.9668 71.736 77.9668 74.2675C77.9668 76.799 80.019 78.8512 82.5505 78.8512Z" fill="white"/>
<path d="M82.55 79.2385C79.8096 79.2385 77.5801 77.0081 77.5801 74.2677C77.5801 71.5272 79.8096 69.2969 82.55 69.2969C85.2905 69.2969 87.5208 71.5272 87.5208 74.2677C87.521 77.0081 85.2905 79.2385 82.55 79.2385ZM82.55 70.0706C80.2365 70.0706 78.354 71.9532 78.354 74.2677C78.354 76.582 80.2365 78.4647 82.55 78.4647C84.8645 78.4647 86.7471 76.582 86.7471 74.2677C86.7471 71.9533 84.8645 70.0706 82.55 70.0706Z" fill="#FCA5A5"/>
<path d="M142.595 67.6213C142.595 70.7856 140.03 73.3508 136.865 73.3508C133.701 73.3508 131.136 70.7856 131.136 67.6213C131.136 64.4571 133.701 61.8918 136.865 61.8918C140.03 61.8917 142.595 64.4569 142.595 67.6213Z" fill="white"/>
<path d="M136.866 73.738C133.493 73.738 130.749 70.9936 130.749 67.6212C130.749 64.2486 133.493 61.5044 136.866 61.5044C140.238 61.5044 142.982 64.2486 142.982 67.6212C142.982 70.9936 140.238 73.738 136.866 73.738ZM136.866 62.2781C133.919 62.2781 131.523 64.6746 131.523 67.6212C131.523 70.5679 133.919 72.9643 136.866 72.9643C139.811 72.9643 142.208 70.5679 142.208 67.6212C142.208 64.6746 139.811 62.2781 136.866 62.2781Z" fill="#FECACA"/>
<path d="M217.309 78.6216C217.309 81.786 214.743 84.3511 211.579 84.3511C208.415 84.3511 205.85 81.7859 205.85 78.6216C205.85 75.4573 208.415 72.8921 211.579 72.8921C214.743 72.8921 217.309 75.4573 217.309 78.6216Z" fill="white"/>
<path d="M211.579 84.7387C208.207 84.7387 205.462 81.9943 205.462 78.6219C205.462 75.2494 208.207 72.5051 211.579 72.5051C214.952 72.5051 217.695 75.2494 217.695 78.6219C217.695 81.9943 214.952 84.7387 211.579 84.7387ZM211.579 73.2789C208.633 73.2789 206.236 75.6753 206.236 78.6219C206.236 81.5684 208.633 83.965 211.579 83.965C214.525 83.965 216.921 81.5686 216.921 78.6219C216.921 75.6753 214.525 73.2789 211.579 73.2789Z" fill="#FCA5A5"/>
<path d="M331.44 133.396C331.44 136.181 329.183 138.438 326.398 138.438C323.614 138.438 321.356 136.181 321.356 133.396C321.356 130.611 323.614 128.354 326.398 128.354C329.183 128.354 331.44 130.611 331.44 133.396Z" fill="white"/>
<path d="M326.398 138.825C323.405 138.825 320.969 136.389 320.969 133.396C320.969 130.402 323.405 127.967 326.398 127.967C329.392 127.967 331.827 130.402 331.827 133.396C331.827 136.389 329.392 138.825 326.398 138.825ZM326.398 128.74C323.831 128.74 321.743 130.828 321.743 133.395C321.743 135.963 323.831 138.051 326.398 138.051C328.966 138.051 331.054 135.963 331.054 133.395C331.054 130.828 328.966 128.74 326.398 128.74Z" fill="#FCA5A5"/>
<path d="M309.897 180.836C309.897 184.76 306.716 187.941 302.793 187.941C298.869 187.941 295.688 184.76 295.688 180.836C295.688 176.913 298.869 173.732 302.793 173.732C306.716 173.732 309.897 176.913 309.897 180.836Z" fill="white"/>
<path d="M302.793 188.328C298.662 188.328 295.301 184.967 295.301 180.836C295.301 176.706 298.662 173.345 302.793 173.345C306.923 173.345 310.284 176.706 310.284 180.836C310.284 184.967 306.923 188.328 302.793 188.328ZM302.793 174.119C299.088 174.119 296.075 177.132 296.075 180.836C296.075 184.541 299.088 187.554 302.793 187.554C306.497 187.554 309.51 184.541 309.51 180.836C309.51 177.132 306.497 174.119 302.793 174.119Z" fill="#FCA5A5"/>
<path d="M228.308 195.045C228.308 197.957 225.948 200.317 223.037 200.317C220.126 200.317 217.766 197.957 217.766 195.045C217.766 192.134 220.126 189.774 223.037 189.774C225.948 189.774 228.308 192.134 228.308 195.045Z" fill="white"/>
<path d="M223.038 200.704C219.918 200.704 217.38 198.166 217.38 195.045C217.38 191.926 219.918 189.388 223.038 189.388C226.157 189.388 228.695 191.926 228.695 195.045C228.695 198.166 226.157 200.704 223.038 200.704ZM223.038 190.161C220.344 190.161 218.154 192.352 218.154 195.045C218.154 197.739 220.344 199.93 223.038 199.93C225.731 199.93 227.921 197.739 227.921 195.045C227.921 192.352 225.731 190.161 223.038 190.161Z" fill="#F87171"/>
<path d="M139.387 162.044C139.387 163.436 138.258 164.564 136.866 164.564C135.473 164.564 134.345 163.436 134.345 162.044C134.345 160.651 135.473 159.523 136.866 159.523C138.258 159.523 139.387 160.651 139.387 162.044Z" fill="white"/>
<path d="M136.866 164.952C135.263 164.952 133.958 163.647 133.958 162.043C133.958 160.44 135.263 159.136 136.866 159.136C138.469 159.136 139.773 160.44 139.773 162.043C139.774 163.647 138.469 164.952 136.866 164.952ZM136.866 159.91C135.689 159.91 134.731 160.867 134.731 162.043C134.731 163.221 135.689 164.178 136.866 164.178C138.042 164.178 139 163.221 139 162.043C139 160.867 138.042 159.91 136.866 159.91Z" fill="#EF4444"/>
<path d="M134.803 107.957C134.803 109.35 133.674 110.478 132.282 110.478C130.889 110.478 129.761 109.35 129.761 107.957C129.761 106.565 130.889 105.436 132.282 105.436C133.674 105.436 134.803 106.565 134.803 107.957Z" fill="white"/>
<path d="M132.282 110.865C130.679 110.865 129.375 109.561 129.375 107.957C129.375 106.354 130.679 105.049 132.282 105.049C133.885 105.049 135.189 106.354 135.189 107.957C135.189 109.561 133.885 110.865 132.282 110.865ZM132.282 105.823C131.106 105.823 130.148 106.78 130.148 107.957C130.148 109.134 131.106 110.091 132.282 110.091C133.458 110.091 134.415 109.134 134.415 107.957C134.416 106.78 133.458 105.823 132.282 105.823Z" fill="#FCA5A5"/>
<path d="M259.477 105.665C259.477 106.804 258.554 107.728 257.415 107.728C256.276 107.728 255.352 106.804 255.352 105.665C255.352 104.526 256.276 103.603 257.415 103.603C258.554 103.603 259.477 104.526 259.477 105.665Z" fill="white"/>
<path d="M257.415 108.115C256.064 108.115 254.965 107.016 254.965 105.665C254.965 104.314 256.064 103.215 257.415 103.215C258.766 103.215 259.865 104.314 259.865 105.665C259.865 107.015 258.766 108.115 257.415 108.115ZM257.415 103.989C256.49 103.989 255.739 104.741 255.739 105.665C255.739 106.59 256.49 107.341 257.415 107.341C258.339 107.341 259.091 106.59 259.091 105.665C259.091 104.741 258.339 103.989 257.415 103.989Z" fill="#EF4444"/>
<path d="M183.817 169.709C183.797 169.709 183.775 169.707 183.754 169.703C172.618 167.838 162.983 161.134 157.318 151.31C157.212 151.125 157.275 150.888 157.46 150.782C157.648 150.674 157.882 150.739 157.988 150.924C163.538 160.546 172.975 167.113 183.881 168.941C184.092 168.976 184.235 169.175 184.198 169.385C184.167 169.575 184.003 169.709 183.817 169.709ZM200.124 168.845C199.955 168.845 199.8 168.734 199.752 168.563C199.694 168.357 199.814 168.144 200.019 168.086C201.326 167.721 202.622 167.279 203.874 166.773C204.071 166.691 204.297 166.79 204.378 166.987C204.458 167.184 204.362 167.41 204.164 167.49C202.886 168.007 201.561 168.457 200.228 168.83C200.193 168.84 200.158 168.845 200.124 168.845ZM222.344 151.633C222.278 151.633 222.211 151.616 222.15 151.58C221.965 151.473 221.903 151.236 222.01 151.051C225.279 145.436 227.006 139.013 227.005 132.479C227.005 128.056 226.233 123.73 224.708 119.622C224.634 119.422 224.736 119.199 224.936 119.125C225.139 119.051 225.359 119.153 225.433 119.353C226.99 123.547 227.779 127.964 227.779 132.479C227.78 139.15 226.017 145.706 222.678 151.44C222.607 151.563 222.477 151.633 222.344 151.633ZM153.035 127.7C153.017 127.7 153 127.699 152.982 127.696C152.77 127.667 152.623 127.471 152.652 127.26C152.842 125.89 153.109 124.517 153.447 123.181C153.501 122.974 153.716 122.85 153.917 122.9C154.124 122.953 154.249 123.163 154.198 123.37C153.866 124.679 153.604 126.024 153.418 127.366C153.392 127.559 153.226 127.7 153.035 127.7ZM161.212 109.102C161.125 109.102 161.038 109.072 160.966 109.013C160.801 108.877 160.779 108.634 160.914 108.468C168.117 99.7412 178.732 94.7361 190.036 94.7361H190.182C190.396 94.7361 190.569 94.9091 190.569 95.1229C190.569 95.3369 190.396 95.5098 190.182 95.5098H190.036C178.964 95.5098 168.567 100.412 161.51 108.961C161.434 109.054 161.324 109.102 161.212 109.102ZM216.176 106.179C216.078 106.179 215.98 106.142 215.905 106.069C214.939 105.122 213.909 104.219 212.844 103.382C212.677 103.25 212.648 103.007 212.78 102.839C212.911 102.67 213.154 102.643 213.323 102.775C214.409 103.627 215.459 104.551 216.446 105.516C216.599 105.665 216.601 105.91 216.452 106.063C216.376 106.14 216.276 106.179 216.176 106.179Z" fill="#FCA5A5"/>
<path d="M190.035 180.535C189.821 180.535 189.6 180.362 189.6 180.148C189.6 179.935 189.723 179.761 189.937 179.761L190.046 179.762C198.134 179.762 206.125 177.68 213.142 173.742C213.33 173.636 213.565 173.704 213.668 173.889C213.773 174.076 213.706 174.311 213.521 174.416C206.388 178.419 198.267 180.535 190.035 180.535ZM237.077 140.615C237.057 140.615 237.036 140.612 237.015 140.61C236.804 140.575 236.661 140.376 236.695 140.165C236.856 139.178 236.988 138.168 237.088 137.162C237.109 136.95 237.312 136.807 237.511 136.815C237.723 136.837 237.878 137.025 237.858 137.238C237.757 138.26 237.622 139.287 237.459 140.29C237.428 140.48 237.264 140.615 237.077 140.615ZM142.586 128.243C142.574 128.243 142.561 128.242 142.549 128.241C142.336 128.221 142.18 128.031 142.201 127.819C142.3 126.795 142.433 125.767 142.594 124.766C142.629 124.556 142.821 124.415 143.037 124.445C143.248 124.48 143.392 124.678 143.358 124.889C143.199 125.875 143.069 126.886 142.971 127.893C142.951 128.094 142.783 128.243 142.586 128.243ZM166.653 91.3147C166.519 91.3147 166.388 91.2434 166.316 91.1173C166.212 90.9317 166.277 90.6962 166.464 90.5908C173.619 86.556 181.77 84.4231 190.035 84.4231H190.23C190.444 84.4231 190.617 84.5961 190.617 84.8101C190.617 85.0239 190.444 85.1969 190.23 85.1969H190.035C181.903 85.1969 173.884 87.2953 166.843 91.2648C166.783 91.2981 166.718 91.3147 166.653 91.3147Z" fill="#F87171"/>
<path d="M190.036 103.116C173.819 103.116 160.673 116.262 160.673 132.479C160.673 148.696 173.819 161.842 190.036 161.842C206.253 161.842 219.4 148.696 219.4 132.479C219.4 116.262 206.253 103.116 190.036 103.116Z" fill="white"/>
<path d="M190.036 162.23C173.632 162.23 160.285 148.883 160.285 132.479C160.285 116.075 173.632 102.729 190.036 102.729C206.44 102.729 219.787 116.075 219.787 132.479C219.786 148.883 206.44 162.23 190.036 162.23ZM190.036 103.502C174.058 103.502 161.059 116.501 161.059 132.479C161.059 148.458 174.058 161.456 190.036 161.456C206.014 161.456 219.013 148.458 219.013 132.479C219.013 116.501 206.014 103.502 190.036 103.502Z" fill="#FCA5A5"/>
<path d="M193.153 131.005C195.44 129.862 196.995 127.509 196.995 124.797C196.995 120.955 193.871 117.831 190.03 117.831C186.201 117.831 183.077 120.955 183.077 124.797C183.077 127.509 184.632 129.862 186.906 131.005C181.708 132.374 177.879 137.12 177.879 142.756C177.879 146.558 202.193 146.558 202.193 142.756C202.193 137.12 198.351 132.374 193.153 131.005Z" fill="#FCA5A5"/>
</g>
<defs>
<clipPath id="clip0_148_4760">
<rect width="386.53" height="237.92" fill="white" transform="translate(0.469727)"/>
</clipPath>
</defs>
</svg>
