<svg width="502" height="420" viewBox="0 0 502 420" fill="none" xmlns="http://www.w3.org/2000/svg">
<mask id="path-1-inside-1_150_3407" fill="white">
<path d="M0.5 16.0418C0.5 7.33681 7.55678 0.280029 16.2618 0.280029H485.738C494.443 0.280029 501.5 7.33681 501.5 16.0418V403.518C501.5 412.223 494.443 419.28 485.738 419.28H16.2618C7.55678 419.28 0.5 412.223 0.5 403.518V16.0418Z"/>
</mask>
<path d="M0.5 16.0418C0.5 7.33681 7.55678 0.280029 16.2618 0.280029H485.738C494.443 0.280029 501.5 7.33681 501.5 16.0418V403.518C501.5 412.223 494.443 419.28 485.738 419.28H16.2618C7.55678 419.28 0.5 412.223 0.5 403.518V16.0418Z" fill="white"/>
<path d="M0.5 0.280029H501.5H0.5ZM501.5 419.28H0.5H501.5ZM16.2618 419.28C6.83136 419.28 -0.81348 411.635 -0.81348 402.205V17.3553C-0.81348 7.92487 6.83136 0.280029 16.2618 0.280029C8.28219 0.280029 1.81348 7.33681 1.81348 16.0418V403.518C1.81348 412.223 8.28219 419.28 16.2618 419.28ZM501.5 0.280029V419.28V0.280029Z" fill="black" fill-opacity="0.07" mask="url(#path-1-inside-1_150_3407)"/>
<rect x="26" y="102.444" width="451" height="89" rx="12" fill="black" fill-opacity="0.04"/>
<path opacity="0.4" d="M84.1332 164.65C82.1896 162.798 81.1837 159.938 81.1837 156C81.1951 155.284 81.2663 153.553 81.4604 152.361C81.6981 150.61 82.1591 148.359 83.0978 146.452C82.0902 144.103 81.2341 140.646 81.1332 137.615C81.0771 135.938 81.2434 134.193 81.9001 132.805C82.2381 132.09 82.7299 131.421 83.4336 130.932C84.1496 130.434 84.9927 130.188 85.9132 130.188C89.8395 130.188 93.6714 133.079 96.4277 137.367C99.2309 141.728 101.14 147.825 101.14 154.946C101.14 160.071 99.4161 163.205 97.1268 165.011C94.9121 166.757 92.4163 167.062 91.1619 167.062C88.6334 167.062 86.0637 166.49 84.1332 164.65Z" fill="#141B34"/>
<path opacity="0.4" d="M72.8467 164.65C74.7903 162.798 75.7963 159.938 75.7963 156C75.7849 155.284 75.7137 153.553 75.5196 152.361C75.2819 150.61 74.8209 148.359 73.8821 146.452C74.8898 144.103 75.7459 140.646 75.8468 137.615C75.9029 135.938 75.7366 134.193 75.0799 132.805C74.7419 132.09 74.2501 131.421 73.5464 130.932C72.8303 130.434 71.9873 130.188 71.0668 130.188C67.1405 130.188 63.3085 133.079 60.5522 137.367C57.749 141.728 55.8398 147.825 55.8398 154.946C55.8398 160.071 57.564 163.205 59.8533 165.011C62.0679 166.757 64.5638 167.062 65.8181 167.062C68.3465 167.062 70.9163 166.49 72.8467 164.65Z" fill="#141B34"/>
<path fill-rule="evenodd" clip-rule="evenodd" d="M78.4932 125.447C77.3295 125.447 76.3862 126.39 76.3862 127.554V132.045L73.1104 134.229C72.1421 134.874 71.8805 136.182 72.526 137.151C73.1715 138.119 74.4797 138.381 75.4479 137.735L78.4932 135.705L81.5386 137.735C82.5068 138.381 83.815 138.119 84.4606 137.151C85.106 136.182 84.8443 134.874 83.8761 134.229L80.6003 132.045V127.554C80.6003 126.39 79.657 125.447 78.4932 125.447Z" fill="#B8B8B8"/>
<rect x="123.104" y="120.176" width="2.62696" height="53.8527" rx="1.31348" fill="#D9D9D9"/>
<path d="M154.017 142.511C152.876 142.511 151.861 142.316 150.972 141.925C150.09 141.533 149.392 140.989 148.879 140.291C148.366 139.593 148.094 138.787 148.062 137.873H151.044C151.07 138.311 151.216 138.695 151.48 139.022C151.744 139.345 152.096 139.596 152.535 139.776C152.973 139.955 153.465 140.045 154.009 140.045C154.591 140.045 155.106 139.945 155.556 139.744C156.005 139.538 156.357 139.252 156.61 138.888C156.864 138.523 156.988 138.103 156.983 137.627C156.988 137.135 156.861 136.702 156.602 136.326C156.343 135.951 155.968 135.658 155.476 135.446C154.99 135.235 154.403 135.129 153.716 135.129H152.281V132.861H153.716C154.282 132.861 154.776 132.763 155.199 132.568C155.627 132.372 155.963 132.097 156.206 131.743C156.449 131.384 156.568 130.969 156.563 130.498C156.568 130.038 156.465 129.639 156.253 129.301C156.047 128.957 155.754 128.69 155.373 128.5C154.998 128.31 154.557 128.215 154.049 128.215C153.552 128.215 153.092 128.305 152.669 128.484C152.246 128.664 151.905 128.92 151.646 129.253C151.387 129.581 151.25 129.972 151.234 130.427H148.403C148.424 129.518 148.686 128.72 149.188 128.032C149.696 127.34 150.372 126.801 151.218 126.415C152.064 126.024 153.013 125.828 154.065 125.828C155.149 125.828 156.09 126.031 156.888 126.438C157.691 126.84 158.312 127.382 158.751 128.064C159.19 128.746 159.409 129.499 159.409 130.324C159.415 131.238 159.145 132.005 158.601 132.623C158.061 133.242 157.353 133.646 156.475 133.837V133.963C157.617 134.122 158.492 134.545 159.1 135.232C159.713 135.914 160.017 136.763 160.012 137.778C160.012 138.687 159.753 139.501 159.235 140.22C158.722 140.933 158.014 141.494 157.11 141.901C156.211 142.308 155.18 142.511 154.017 142.511ZM167.933 142.511C166.876 142.511 165.929 142.313 165.094 141.917C164.259 141.515 163.595 140.965 163.104 140.267C162.618 139.57 162.359 138.771 162.327 137.873H165.181C165.234 138.539 165.522 139.083 166.046 139.506C166.569 139.924 167.198 140.133 167.933 140.133C168.509 140.133 169.022 140 169.471 139.736C169.92 139.472 170.275 139.104 170.534 138.634C170.793 138.163 170.92 137.627 170.914 137.024C170.92 136.411 170.79 135.867 170.526 135.391C170.261 134.915 169.899 134.542 169.439 134.273C168.98 133.998 168.451 133.86 167.854 133.86C167.367 133.855 166.889 133.945 166.418 134.13C165.948 134.315 165.575 134.558 165.3 134.86L162.644 134.423L163.492 126.05H172.913V128.508H165.927L165.459 132.814H165.554C165.855 132.46 166.281 132.166 166.831 131.934C167.38 131.696 167.983 131.577 168.639 131.577C169.622 131.577 170.499 131.809 171.271 132.275C172.043 132.734 172.651 133.369 173.095 134.178C173.539 134.986 173.761 135.911 173.761 136.953C173.761 138.026 173.513 138.983 173.016 139.823C172.524 140.659 171.839 141.317 170.962 141.798C170.09 142.273 169.08 142.511 167.933 142.511ZM178.827 140.069L178.724 140.941C178.65 141.607 178.518 142.284 178.328 142.971C178.143 143.664 177.947 144.301 177.741 144.882C177.535 145.464 177.368 145.921 177.241 146.254H175.307C175.381 145.932 175.481 145.493 175.608 144.938C175.74 144.383 175.867 143.759 175.989 143.066C176.11 142.374 176.192 141.671 176.234 140.957L176.29 140.069H178.827ZM186.187 142.289V130.11H188.93V132.179H189.073C189.327 131.482 189.747 130.937 190.334 130.546C190.92 130.149 191.621 129.951 192.435 129.951C193.26 129.951 193.955 130.152 194.52 130.554C195.091 130.95 195.493 131.492 195.726 132.179H195.853C196.122 131.503 196.577 130.964 197.216 130.562C197.861 130.155 198.625 129.951 199.508 129.951C200.629 129.951 201.543 130.305 202.252 131.014C202.96 131.722 203.314 132.756 203.314 134.114V142.289H200.436V134.558C200.436 133.802 200.235 133.25 199.833 132.901C199.431 132.547 198.94 132.37 198.358 132.37C197.666 132.37 197.124 132.586 196.733 133.02C196.347 133.448 196.154 134.006 196.154 134.693V142.289H193.339V134.439C193.339 133.81 193.149 133.308 192.768 132.933C192.393 132.557 191.901 132.37 191.293 132.37C190.881 132.37 190.506 132.475 190.167 132.687C189.829 132.893 189.559 133.186 189.358 133.567C189.158 133.942 189.057 134.381 189.057 134.883V142.289H186.187ZM205.748 142.289V140.164L211.386 134.637C211.925 134.093 212.374 133.609 212.734 133.186C213.093 132.763 213.363 132.354 213.542 131.957C213.722 131.561 213.812 131.138 213.812 130.689C213.812 130.176 213.696 129.737 213.463 129.372C213.231 129.002 212.911 128.717 212.504 128.516C212.097 128.315 211.634 128.215 211.116 128.215C210.582 128.215 210.114 128.326 209.713 128.548C209.311 128.764 208.999 129.074 208.777 129.475C208.56 129.877 208.452 130.356 208.452 130.911H205.653C205.653 129.88 205.888 128.984 206.358 128.223C206.829 127.461 207.476 126.872 208.301 126.454C209.131 126.037 210.083 125.828 211.156 125.828C212.245 125.828 213.201 126.031 214.026 126.438C214.851 126.846 215.49 127.403 215.945 128.112C216.405 128.82 216.635 129.629 216.635 130.538C216.635 131.146 216.519 131.743 216.286 132.33C216.053 132.917 215.644 133.567 215.057 134.281C214.475 134.994 213.659 135.859 212.607 136.874L209.808 139.72V139.831H216.881V142.289H205.748Z" fill="#494949"/>
<path d="M148.134 166.916V155.453H152.142C152.94 155.453 153.599 155.591 154.118 155.867C154.636 156.14 155.023 156.507 155.276 156.97C155.53 157.429 155.657 157.938 155.657 158.498C155.657 158.991 155.569 159.397 155.394 159.718C155.222 160.039 154.995 160.293 154.711 160.479C154.431 160.666 154.127 160.804 153.799 160.894V161.006C154.149 161.028 154.502 161.151 154.856 161.375C155.211 161.599 155.508 161.92 155.746 162.338C155.985 162.756 156.105 163.267 156.105 163.871C156.105 164.446 155.974 164.963 155.713 165.422C155.452 165.881 155.039 166.245 154.476 166.513C153.912 166.782 153.179 166.916 152.276 166.916H148.134ZM149.522 165.685H152.276C153.183 165.685 153.827 165.51 154.207 165.159C154.592 164.804 154.784 164.375 154.784 163.871C154.784 163.483 154.685 163.125 154.487 162.797C154.289 162.465 154.008 162.2 153.642 162.002C153.276 161.8 152.843 161.7 152.343 161.7H149.522V165.685ZM149.522 160.491H152.097C152.515 160.491 152.892 160.409 153.228 160.244C153.567 160.08 153.836 159.849 154.034 159.55C154.235 159.252 154.336 158.901 154.336 158.498C154.336 157.994 154.161 157.567 153.81 157.216C153.459 156.862 152.903 156.685 152.142 156.685H149.522V160.491ZM157.891 166.916V158.319H159.167V159.618H159.257C159.414 159.192 159.697 158.847 160.108 158.582C160.518 158.317 160.981 158.185 161.496 158.185C161.593 158.185 161.714 158.187 161.86 158.19C162.005 158.194 162.115 158.2 162.19 158.207V159.55C162.145 159.539 162.042 159.522 161.882 159.5C161.725 159.474 161.559 159.461 161.384 159.461C160.966 159.461 160.593 159.548 160.264 159.724C159.94 159.896 159.682 160.134 159.492 160.44C159.305 160.743 159.212 161.088 159.212 161.476V166.916H157.891ZM166.783 167.095C165.955 167.095 165.24 166.913 164.64 166.547C164.043 166.177 163.582 165.663 163.257 165.002C162.936 164.338 162.776 163.565 162.776 162.685C162.776 161.804 162.936 161.028 163.257 160.356C163.582 159.681 164.033 159.155 164.612 158.778C165.194 158.397 165.873 158.207 166.649 158.207C167.097 158.207 167.539 158.282 167.976 158.431C168.412 158.58 168.81 158.823 169.168 159.159C169.526 159.491 169.811 159.931 170.024 160.479C170.237 161.028 170.343 161.703 170.343 162.506V163.065H163.716V161.924H169C169 161.438 168.903 161.006 168.709 160.625C168.518 160.244 168.246 159.944 167.892 159.724C167.541 159.504 167.127 159.394 166.649 159.394C166.123 159.394 165.668 159.524 165.283 159.785C164.903 160.043 164.61 160.379 164.405 160.793C164.199 161.207 164.097 161.651 164.097 162.125V162.886C164.097 163.536 164.209 164.086 164.433 164.537C164.66 164.985 164.975 165.327 165.378 165.562C165.781 165.793 166.25 165.909 166.783 165.909C167.13 165.909 167.444 165.86 167.724 165.763C168.007 165.663 168.252 165.513 168.457 165.315C168.662 165.114 168.821 164.864 168.933 164.565L170.209 164.924C170.075 165.357 169.849 165.737 169.532 166.066C169.214 166.39 168.823 166.644 168.356 166.827C167.89 167.006 167.365 167.095 166.783 167.095ZM174.567 167.118C174.022 167.118 173.528 167.015 173.084 166.81C172.64 166.601 172.287 166.301 172.026 165.909C171.765 165.513 171.634 165.036 171.634 164.476C171.634 163.983 171.731 163.584 171.925 163.278C172.119 162.968 172.379 162.726 172.703 162.55C173.028 162.375 173.386 162.244 173.778 162.159C174.174 162.069 174.571 161.998 174.97 161.946C175.493 161.879 175.916 161.828 176.241 161.795C176.569 161.758 176.808 161.696 176.957 161.61C177.11 161.524 177.187 161.375 177.187 161.162V161.118C177.187 160.565 177.036 160.136 176.733 159.83C176.435 159.524 175.982 159.371 175.373 159.371C174.743 159.371 174.248 159.509 173.89 159.785C173.532 160.062 173.28 160.356 173.134 160.67L171.881 160.222C172.104 159.7 172.403 159.293 172.776 159.002C173.153 158.707 173.564 158.502 174.008 158.386C174.455 158.267 174.896 158.207 175.328 158.207C175.605 158.207 175.922 158.241 176.28 158.308C176.642 158.371 176.991 158.504 177.327 158.705C177.666 158.907 177.948 159.211 178.172 159.618C178.396 160.024 178.508 160.569 178.508 161.252V166.916H177.187V165.752H177.12C177.03 165.939 176.881 166.138 176.672 166.351C176.463 166.564 176.185 166.745 175.838 166.894C175.491 167.043 175.067 167.118 174.567 167.118ZM174.769 165.931C175.291 165.931 175.731 165.829 176.09 165.623C176.452 165.418 176.724 165.153 176.907 164.829C177.093 164.504 177.187 164.162 177.187 163.804V162.595C177.131 162.662 177.008 162.724 176.817 162.78C176.631 162.832 176.414 162.879 176.168 162.92C175.926 162.957 175.689 162.991 175.457 163.021C175.23 163.047 175.045 163.069 174.903 163.088C174.56 163.133 174.239 163.205 173.94 163.306C173.646 163.403 173.407 163.55 173.224 163.748C173.045 163.942 172.955 164.207 172.955 164.543C172.955 165.002 173.125 165.349 173.465 165.584C173.808 165.816 174.243 165.931 174.769 165.931ZM184.342 158.319V159.438H179.887V158.319H184.342ZM181.186 156.259H182.507V164.454C182.507 164.827 182.561 165.107 182.669 165.293C182.781 165.476 182.923 165.599 183.094 165.663C183.27 165.722 183.454 165.752 183.648 165.752C183.794 165.752 183.913 165.745 184.007 165.73C184.1 165.711 184.174 165.696 184.23 165.685L184.499 166.872C184.41 166.905 184.285 166.939 184.124 166.972C183.964 167.01 183.76 167.028 183.514 167.028C183.141 167.028 182.775 166.948 182.417 166.788C182.062 166.627 181.768 166.383 181.533 166.054C181.301 165.726 181.186 165.312 181.186 164.812V156.259ZM187.52 161.744V166.916H186.199V155.453H187.52V159.662H187.632C187.833 159.218 188.136 158.866 188.539 158.604C188.945 158.339 189.486 158.207 190.162 158.207C190.748 158.207 191.261 158.325 191.701 158.56C192.141 158.791 192.483 159.147 192.725 159.629C192.972 160.106 193.095 160.715 193.095 161.453V166.916H191.774V161.543C191.774 160.86 191.596 160.332 191.242 159.959C190.891 159.582 190.404 159.394 189.781 159.394C189.348 159.394 188.96 159.485 188.617 159.668C188.277 159.851 188.009 160.118 187.811 160.468C187.617 160.819 187.52 161.244 187.52 161.744ZM199.493 166.916V155.453H200.881V165.685H206.21V166.916H199.493ZM211.469 167.095C210.641 167.095 209.926 166.913 209.325 166.547C208.728 166.177 208.268 165.663 207.943 165.002C207.622 164.338 207.462 163.565 207.462 162.685C207.462 161.804 207.622 161.028 207.943 160.356C208.268 159.681 208.719 159.155 209.297 158.778C209.88 158.397 210.559 158.207 211.335 158.207C211.783 158.207 212.225 158.282 212.661 158.431C213.098 158.58 213.495 158.823 213.854 159.159C214.212 159.491 214.497 159.931 214.71 160.479C214.923 161.028 215.029 161.703 215.029 162.506V163.065H208.402V161.924H213.686C213.686 161.438 213.589 161.006 213.395 160.625C213.204 160.244 212.932 159.944 212.577 159.724C212.227 159.504 211.812 159.394 211.335 159.394C210.809 159.394 210.353 159.524 209.969 159.785C209.588 160.043 209.296 160.379 209.09 160.793C208.885 161.207 208.782 161.651 208.782 162.125V162.886C208.782 163.536 208.894 164.086 209.118 164.537C209.346 164.985 209.661 165.327 210.064 165.562C210.467 165.793 210.936 165.909 211.469 165.909C211.816 165.909 212.13 165.86 212.409 165.763C212.693 165.663 212.937 165.513 213.143 165.315C213.348 165.114 213.507 164.864 213.618 164.565L214.895 164.924C214.76 165.357 214.535 165.737 214.217 166.066C213.9 166.39 213.508 166.644 213.042 166.827C212.576 167.006 212.051 167.095 211.469 167.095ZM223.492 158.319L220.312 166.916H218.969L215.79 158.319H217.223L219.596 165.17H219.685L222.059 158.319H223.492ZM228.217 167.095C227.388 167.095 226.674 166.913 226.073 166.547C225.476 166.177 225.015 165.663 224.69 165.002C224.369 164.338 224.209 163.565 224.209 162.685C224.209 161.804 224.369 161.028 224.69 160.356C225.015 159.681 225.467 159.155 226.045 158.778C226.627 158.397 227.306 158.207 228.082 158.207C228.53 158.207 228.972 158.282 229.409 158.431C229.845 158.58 230.243 158.823 230.601 159.159C230.959 159.491 231.245 159.931 231.457 160.479C231.67 161.028 231.776 161.703 231.776 162.506V163.065H225.149V161.924H230.433C230.433 161.438 230.336 161.006 230.142 160.625C229.952 160.244 229.679 159.944 229.325 159.724C228.974 159.504 228.56 159.394 228.082 159.394C227.556 159.394 227.101 159.524 226.717 159.785C226.336 160.043 226.043 160.379 225.838 160.793C225.633 161.207 225.53 161.651 225.53 162.125V162.886C225.53 163.536 225.642 164.086 225.866 164.537C226.093 164.985 226.409 165.327 226.812 165.562C227.215 165.793 227.683 165.909 228.217 165.909C228.564 165.909 228.877 165.86 229.157 165.763C229.441 165.663 229.685 165.513 229.89 165.315C230.095 165.114 230.254 164.864 230.366 164.565L231.642 164.924C231.508 165.357 231.282 165.737 230.965 166.066C230.648 166.39 230.256 166.644 229.789 166.827C229.323 167.006 228.799 167.095 228.217 167.095ZM234.792 155.453V166.916H233.471V155.453H234.792ZM241.013 166.916V158.319H242.334V166.916H241.013ZM241.685 156.886C241.428 156.886 241.206 156.798 241.019 156.623C240.836 156.448 240.745 156.237 240.745 155.991C240.745 155.744 240.836 155.533 241.019 155.358C241.206 155.183 241.428 155.095 241.685 155.095C241.943 155.095 242.163 155.183 242.346 155.358C242.532 155.533 242.625 155.744 242.625 155.991C242.625 156.237 242.532 156.448 242.346 156.623C242.163 156.798 241.943 156.886 241.685 156.886ZM250.528 160.244L249.342 160.58C249.267 160.382 249.157 160.19 249.012 160.004C248.87 159.813 248.676 159.657 248.429 159.534C248.183 159.41 247.868 159.349 247.483 159.349C246.957 159.349 246.519 159.47 246.168 159.713C245.821 159.951 245.648 160.256 245.648 160.625C245.648 160.953 245.767 161.213 246.006 161.403C246.245 161.593 246.618 161.752 247.125 161.879L248.401 162.192C249.17 162.379 249.743 162.664 250.12 163.049C250.497 163.429 250.685 163.92 250.685 164.521C250.685 165.013 250.543 165.454 250.26 165.842C249.98 166.23 249.588 166.536 249.084 166.76C248.581 166.983 247.995 167.095 247.327 167.095C246.45 167.095 245.724 166.905 245.149 166.524C244.575 166.144 244.211 165.588 244.058 164.857L245.312 164.543C245.431 165.006 245.657 165.353 245.989 165.584C246.325 165.816 246.763 165.931 247.304 165.931C247.92 165.931 248.409 165.801 248.771 165.539C249.137 165.274 249.319 164.957 249.319 164.588C249.319 164.289 249.215 164.039 249.006 163.838C248.797 163.633 248.476 163.48 248.043 163.379L246.61 163.043C245.823 162.856 245.245 162.567 244.875 162.175C244.509 161.78 244.327 161.285 244.327 160.692C244.327 160.207 244.463 159.778 244.735 159.405C245.011 159.032 245.386 158.739 245.86 158.526C246.338 158.313 246.879 158.207 247.483 158.207C248.334 158.207 249.002 158.394 249.487 158.767C249.976 159.14 250.323 159.632 250.528 160.244ZM265.745 155.453V166.916H264.402L258.155 157.916H258.043V166.916H256.655V155.453H257.998L264.267 164.476H264.379V155.453H265.745ZM271.521 167.095C270.745 167.095 270.064 166.911 269.478 166.541C268.896 166.172 268.441 165.655 268.112 164.991C267.788 164.327 267.625 163.55 267.625 162.662C267.625 161.767 267.788 160.985 268.112 160.317C268.441 159.649 268.896 159.131 269.478 158.761C270.064 158.392 270.745 158.207 271.521 158.207C272.297 158.207 272.976 158.392 273.558 158.761C274.144 159.131 274.599 159.649 274.924 160.317C275.252 160.985 275.417 161.767 275.417 162.662C275.417 163.55 275.252 164.327 274.924 164.991C274.599 165.655 274.144 166.172 273.558 166.541C272.976 166.911 272.297 167.095 271.521 167.095ZM271.521 165.909C272.111 165.909 272.596 165.758 272.976 165.455C273.357 165.153 273.639 164.756 273.821 164.263C274.004 163.771 274.096 163.237 274.096 162.662C274.096 162.088 274.004 161.552 273.821 161.056C273.639 160.56 273.357 160.159 272.976 159.853C272.596 159.547 272.111 159.394 271.521 159.394C270.931 159.394 270.446 159.547 270.066 159.853C269.685 160.159 269.403 160.56 269.22 161.056C269.038 161.552 268.946 162.088 268.946 162.662C268.946 163.237 269.038 163.771 269.22 164.263C269.403 164.756 269.685 165.153 270.066 165.455C270.446 165.758 270.931 165.909 271.521 165.909ZM277.118 166.916V158.319H278.394V159.618H278.483C278.64 159.192 278.924 158.847 279.334 158.582C279.745 158.317 280.207 158.185 280.722 158.185C280.819 158.185 280.941 158.187 281.086 158.19C281.232 158.194 281.342 158.2 281.416 158.207V159.55C281.372 159.539 281.269 159.522 281.109 159.5C280.952 159.474 280.786 159.461 280.61 159.461C280.192 159.461 279.819 159.548 279.491 159.724C279.166 159.896 278.909 160.134 278.719 160.44C278.532 160.743 278.439 161.088 278.439 161.476V166.916H277.118ZM282.667 166.916V158.319H283.943V159.662H284.055C284.234 159.203 284.523 158.847 284.923 158.593C285.322 158.336 285.801 158.207 286.361 158.207C286.928 158.207 287.4 158.336 287.777 158.593C288.158 158.847 288.455 159.203 288.667 159.662H288.757C288.977 159.218 289.307 158.866 289.747 158.604C290.188 158.339 290.716 158.207 291.331 158.207C292.1 158.207 292.729 158.448 293.218 158.929C293.707 159.407 293.951 160.151 293.951 161.162V166.916H292.63V161.162C292.63 160.528 292.457 160.075 292.11 159.802C291.762 159.53 291.354 159.394 290.884 159.394C290.279 159.394 289.811 159.576 289.479 159.942C289.147 160.304 288.981 160.763 288.981 161.319V166.916H287.637V161.028C287.637 160.539 287.479 160.146 287.162 159.847C286.844 159.545 286.436 159.394 285.936 159.394C285.592 159.394 285.272 159.485 284.973 159.668C284.678 159.851 284.439 160.104 284.257 160.429C284.078 160.75 283.988 161.121 283.988 161.543V166.916H282.667ZM298.581 167.118C298.036 167.118 297.542 167.015 297.098 166.81C296.654 166.601 296.301 166.301 296.04 165.909C295.779 165.513 295.648 165.036 295.648 164.476C295.648 163.983 295.745 163.584 295.939 163.278C296.133 162.968 296.392 162.726 296.717 162.55C297.042 162.375 297.4 162.244 297.792 162.159C298.187 162.069 298.585 161.998 298.984 161.946C299.506 161.879 299.93 161.828 300.254 161.795C300.583 161.758 300.822 161.696 300.971 161.61C301.124 161.524 301.2 161.375 301.2 161.162V161.118C301.2 160.565 301.049 160.136 300.747 159.83C300.448 159.524 299.995 159.371 299.387 159.371C298.756 159.371 298.262 159.509 297.904 159.785C297.545 160.062 297.294 160.356 297.148 160.67L295.894 160.222C296.118 159.7 296.417 159.293 296.79 159.002C297.167 158.707 297.577 158.502 298.021 158.386C298.469 158.267 298.909 158.207 299.342 158.207C299.618 158.207 299.935 158.241 300.294 158.308C300.656 158.371 301.004 158.504 301.34 158.705C301.68 158.907 301.962 159.211 302.185 159.618C302.409 160.024 302.521 160.569 302.521 161.252V166.916H301.2V165.752H301.133C301.044 165.939 300.894 166.138 300.685 166.351C300.476 166.564 300.198 166.745 299.851 166.894C299.504 167.043 299.081 167.118 298.581 167.118ZM298.782 165.931C299.305 165.931 299.745 165.829 300.103 165.623C300.465 165.418 300.738 165.153 300.921 164.829C301.107 164.504 301.2 164.162 301.2 163.804V162.595C301.144 162.662 301.021 162.724 300.831 162.78C300.644 162.832 300.428 162.879 300.182 162.92C299.939 162.957 299.702 162.991 299.471 163.021C299.243 163.047 299.059 163.069 298.917 163.088C298.573 163.133 298.253 163.205 297.954 163.306C297.659 163.403 297.42 163.55 297.238 163.748C297.058 163.942 296.969 164.207 296.969 164.543C296.969 165.002 297.139 165.349 297.478 165.584C297.822 165.816 298.256 165.931 298.782 165.931ZM305.938 155.453V166.916H304.617V155.453H305.938ZM313.481 161.744V166.916H312.16V158.319H313.436V159.662H313.548C313.75 159.226 314.056 158.875 314.466 158.61C314.876 158.341 315.406 158.207 316.056 158.207C316.638 158.207 317.147 158.326 317.584 158.565C318.02 158.8 318.36 159.159 318.602 159.64C318.845 160.118 318.966 160.722 318.966 161.453V166.916H317.645V161.543C317.645 160.868 317.47 160.341 317.119 159.965C316.768 159.584 316.287 159.394 315.675 159.394C315.253 159.394 314.876 159.485 314.544 159.668C314.216 159.851 313.957 160.118 313.766 160.468C313.576 160.819 313.481 161.244 313.481 161.744ZM324.557 167.095C323.781 167.095 323.1 166.911 322.514 166.541C321.932 166.172 321.477 165.655 321.149 164.991C320.824 164.327 320.662 163.55 320.662 162.662C320.662 161.767 320.824 160.985 321.149 160.317C321.477 159.649 321.932 159.131 322.514 158.761C323.1 158.392 323.781 158.207 324.557 158.207C325.334 158.207 326.013 158.392 326.595 158.761C327.181 159.131 327.636 159.649 327.96 160.317C328.289 160.985 328.453 161.767 328.453 162.662C328.453 163.55 328.289 164.327 327.96 164.991C327.636 165.655 327.181 166.172 326.595 166.541C326.013 166.911 325.334 167.095 324.557 167.095ZM324.557 165.909C325.147 165.909 325.632 165.758 326.013 165.455C326.393 165.153 326.675 164.756 326.858 164.263C327.041 163.771 327.132 163.237 327.132 162.662C327.132 162.088 327.041 161.552 326.858 161.056C326.675 160.56 326.393 160.159 326.013 159.853C325.632 159.547 325.147 159.394 324.557 159.394C323.968 159.394 323.483 159.547 323.102 159.853C322.722 160.159 322.44 160.56 322.257 161.056C322.074 161.552 321.983 162.088 321.983 162.662C321.983 163.237 322.074 163.771 322.257 164.263C322.44 164.756 322.722 165.153 323.102 165.455C323.483 165.758 323.968 165.909 324.557 165.909ZM331.81 166.916L329.19 158.319H330.578L332.436 164.901H332.526L334.362 158.319H335.772L337.586 164.879H337.675L339.534 158.319H340.922L338.302 166.916H337.004L335.123 160.312H334.989L333.108 166.916H331.81Z" fill="#797979"/>
<path d="M26.8359 28.4813V26.1603H39.0303V28.4813H34.3063V41.4445H31.5599V28.4813H26.8359ZM42.5803 41.6758C41.8539 41.6758 41.1996 41.5465 40.6175 41.2877C40.0404 41.024 39.5827 40.636 39.2444 40.1235C38.911 39.6111 38.7443 38.9792 38.7443 38.2279C38.7443 37.5811 38.8637 37.0463 39.1026 36.6234C39.3414 36.2005 39.6673 35.8622 40.0802 35.6084C40.4932 35.3547 40.9583 35.1631 41.4758 35.0338C41.9982 34.8994 42.538 34.8024 43.0952 34.7427C43.7669 34.6731 44.3117 34.6109 44.7296 34.5562C45.1475 34.4964 45.451 34.4069 45.6401 34.2875C45.8341 34.1631 45.9312 33.9716 45.9312 33.7128V33.6681C45.9312 33.1059 45.7645 32.6705 45.4311 32.362C45.0978 32.0536 44.6177 31.8993 43.9908 31.8993C43.3291 31.8993 42.8042 32.0436 42.4161 32.3322C42.033 32.6208 41.7743 32.9616 41.64 33.3546L39.1175 32.9964C39.3165 32.2999 39.6449 31.7177 40.1026 31.2501C40.5603 30.7774 41.12 30.4242 41.7818 30.1903C42.4435 29.9515 43.1748 29.8321 43.9759 29.8321C44.5281 29.8321 45.0779 29.8968 45.6252 30.0261C46.1725 30.1555 46.6725 30.3694 47.1252 30.668C47.578 30.9615 47.9412 31.362 48.2148 31.8695C48.4934 32.377 48.6327 33.0113 48.6327 33.7725V41.4445H46.0356V39.8698H45.9461C45.7819 40.1882 45.5505 40.4867 45.252 40.7653C44.9585 41.039 44.5878 41.2604 44.14 41.4295C43.6972 41.5937 43.1773 41.6758 42.5803 41.6758ZM43.2818 39.6907C43.8241 39.6907 44.2943 39.5837 44.6923 39.3698C45.0903 39.1508 45.3963 38.8623 45.6103 38.5041C45.8292 38.1458 45.9386 37.7553 45.9386 37.3324V35.9816C45.854 36.0512 45.7098 36.1159 45.5058 36.1756C45.3068 36.2353 45.0829 36.2876 44.8341 36.3323C44.5853 36.3771 44.3391 36.4169 44.0953 36.4517C43.8515 36.4866 43.64 36.5164 43.4609 36.5413C43.0579 36.596 42.6972 36.6856 42.3788 36.81C42.0604 36.9343 41.8091 37.1085 41.625 37.3324C41.4409 37.5513 41.3489 37.8349 41.3489 38.1831C41.3489 38.6807 41.5305 39.0563 41.8937 39.3101C42.2569 39.5638 42.7196 39.6907 43.2818 39.6907ZM53.3917 37.8473L53.3843 34.586H53.8171L57.9367 29.9814H61.0935L56.0261 35.6234H55.4664L53.3917 37.8473ZM50.9289 41.4445V26.1603H53.6305V41.4445H50.9289ZM58.1232 41.4445L54.3918 36.2279L56.2127 34.3248L61.3547 41.4445H58.1232ZM67.0764 41.6683C65.9271 41.6683 64.9345 41.4295 64.0987 40.9519C63.2678 40.4693 62.6285 39.7877 62.1807 38.9071C61.7329 38.0215 61.509 36.9791 61.509 35.7801C61.509 34.6009 61.7329 33.5661 62.1807 32.6755C62.6334 31.7799 63.2653 31.0834 64.0763 30.5859C64.8873 30.0834 65.84 29.8321 66.9346 29.8321C67.6411 29.8321 68.3078 29.9465 68.9347 30.1754C69.5665 30.3993 70.1238 30.7476 70.6064 31.2202C71.0939 31.6929 71.477 32.2949 71.7557 33.0262C72.0343 33.7526 72.1736 34.6183 72.1736 35.6234V36.4517H62.7777V34.6308H69.5839C69.579 34.1134 69.467 33.6531 69.2481 33.2501C69.0292 32.8422 68.7232 32.5213 68.3302 32.2874C67.9421 32.0536 67.4893 31.9367 66.9719 31.9367C66.4196 31.9367 65.9346 32.071 65.5166 32.3397C65.0987 32.6033 64.7728 32.9516 64.539 33.3845C64.3101 33.8123 64.1932 34.2825 64.1882 34.795V36.3846C64.1882 37.0513 64.3101 37.6234 64.5539 38.1011C64.7977 38.5737 65.1385 38.9369 65.5763 39.1906C66.0142 39.4394 66.5266 39.5638 67.1137 39.5638C67.5068 39.5638 67.8625 39.5091 68.1809 39.3996C68.4993 39.2852 68.7755 39.1185 69.0093 38.8996C69.2431 38.6807 69.4198 38.4095 69.5392 38.0861L72.0616 38.3697C71.9024 39.0364 71.5989 39.6185 71.1512 40.1161C70.7084 40.6086 70.1412 40.9917 69.4496 41.2653C68.758 41.534 67.967 41.6683 67.0764 41.6683ZM82.13 41.6758C81.4036 41.6758 80.7493 41.5465 80.1672 41.2877C79.5901 41.024 79.1324 40.636 78.794 40.1235C78.4607 39.6111 78.294 38.9792 78.294 38.2279C78.294 37.5811 78.4134 37.0463 78.6523 36.6234C78.8911 36.2005 79.2169 35.8622 79.6299 35.6084C80.0428 35.3547 80.508 35.1631 81.0255 35.0338C81.5479 34.8994 82.0877 34.8024 82.6449 34.7427C83.3166 34.6731 83.8614 34.6109 84.2793 34.5562C84.6972 34.4964 85.0007 34.4069 85.1898 34.2875C85.3838 34.1631 85.4809 33.9716 85.4809 33.7128V33.6681C85.4809 33.1059 85.3142 32.6705 84.9808 32.362C84.6475 32.0536 84.1674 31.8993 83.5405 31.8993C82.8788 31.8993 82.3539 32.0436 81.9658 32.3322C81.5827 32.6208 81.324 32.9616 81.1897 33.3546L78.6672 32.9964C78.8662 32.2999 79.1946 31.7177 79.6523 31.2501C80.11 30.7774 80.6697 30.4242 81.3315 30.1903C81.9932 29.9515 82.7245 29.8321 83.5256 29.8321C84.0778 29.8321 84.6276 29.8968 85.1749 30.0261C85.7222 30.1555 86.2222 30.3694 86.6749 30.668C87.1277 30.9615 87.4909 31.362 87.7645 31.8695C88.0431 32.377 88.1824 33.0113 88.1824 33.7725V41.4445H85.5853V39.8698H85.4958C85.3316 40.1882 85.1002 40.4867 84.8017 40.7653C84.5082 41.039 84.1375 41.2604 83.6897 41.4295C83.2469 41.5937 82.727 41.6758 82.13 41.6758ZM82.8315 39.6907C83.3738 39.6907 83.844 39.5837 84.242 39.3698C84.64 39.1508 84.946 38.8623 85.1599 38.5041C85.3789 38.1458 85.4883 37.7553 85.4883 37.3324V35.9816C85.4037 36.0512 85.2595 36.1159 85.0555 36.1756C84.8565 36.2353 84.6326 36.2876 84.3838 36.3323C84.135 36.3771 83.8888 36.4169 83.645 36.4517C83.4012 36.4866 83.1897 36.5164 83.0106 36.5413C82.6076 36.596 82.2469 36.6856 81.9285 36.81C81.6101 36.9343 81.3588 37.1085 81.1747 37.3324C80.9906 37.5513 80.8986 37.8349 80.8986 38.1831C80.8986 38.6807 81.0802 39.0563 81.4434 39.3101C81.8066 39.5638 82.2693 39.6907 82.8315 39.6907ZM95.3906 41.4445V26.1603H101.242C102.346 26.1603 103.264 26.3345 103.995 26.6827C104.732 27.026 105.282 27.4962 105.645 28.0932C106.013 28.6903 106.197 29.3669 106.197 30.1232C106.197 30.7451 106.078 31.2774 105.839 31.7202C105.6 32.1581 105.279 32.5138 104.876 32.7874C104.473 33.0611 104.023 33.2576 103.525 33.377V33.5263C104.068 33.5561 104.587 33.7228 105.085 34.0263C105.587 34.3248 105.998 34.7477 106.316 35.295C106.635 35.8423 106.794 36.504 106.794 37.2801C106.794 38.0712 106.602 38.7827 106.219 39.4145C105.836 40.0414 105.259 40.5365 104.488 40.8997C103.717 41.2629 102.747 41.4445 101.577 41.4445H95.3906ZM98.1594 39.1309H101.137C102.142 39.1309 102.866 38.9394 103.309 38.5563C103.757 38.1682 103.98 37.6707 103.98 37.0637C103.98 36.611 103.869 36.203 103.645 35.8398C103.421 35.4716 103.102 35.183 102.689 34.9741C102.276 34.7601 101.784 34.6532 101.212 34.6532H98.1594V39.1309ZM98.1594 32.6606H100.898C101.376 32.6606 101.806 32.5735 102.189 32.3994C102.572 32.2202 102.873 31.969 103.092 31.6456C103.316 31.3172 103.428 30.9292 103.428 30.4814C103.428 29.8893 103.219 29.4017 102.801 29.0186C102.388 28.6355 101.774 28.444 100.958 28.444H98.1594V32.6606ZM108.663 41.4445V29.9814H111.282V31.8919H111.402C111.611 31.2302 111.969 30.7202 112.477 30.362C112.989 29.9988 113.574 29.8172 114.23 29.8172C114.38 29.8172 114.546 29.8246 114.73 29.8396C114.919 29.8495 115.076 29.8669 115.2 29.8918V32.377C115.086 32.3372 114.904 32.3023 114.656 32.2725C114.412 32.2377 114.176 32.2202 113.947 32.2202C113.454 32.2202 113.011 32.3272 112.618 32.5412C112.23 32.7501 111.924 33.0412 111.7 33.4143C111.476 33.7875 111.365 34.2178 111.365 34.7054V41.4445H108.663ZM121.178 41.6683C120.029 41.6683 119.036 41.4295 118.2 40.9519C117.369 40.4693 116.73 39.7877 116.282 38.9071C115.834 38.0215 115.61 36.9791 115.61 35.7801C115.61 34.6009 115.834 33.5661 116.282 32.6755C116.735 31.7799 117.367 31.0834 118.178 30.5859C118.989 30.0834 119.941 29.8321 121.036 29.8321C121.742 29.8321 122.409 29.9465 123.036 30.1754C123.668 30.3993 124.225 30.7476 124.708 31.2202C125.195 31.6929 125.578 32.2949 125.857 33.0262C126.136 33.7526 126.275 34.6183 126.275 35.6234V36.4517H116.879V34.6308H123.685C123.68 34.1134 123.568 33.6531 123.35 33.2501C123.131 32.8422 122.825 32.5213 122.432 32.2874C122.044 32.0536 121.591 31.9367 121.073 31.9367C120.521 31.9367 120.036 32.071 119.618 32.3397C119.2 32.6033 118.874 32.9516 118.64 33.3845C118.412 33.8123 118.295 34.2825 118.29 34.795V36.3846C118.29 37.0513 118.412 37.6234 118.655 38.1011C118.899 38.5737 119.24 38.9369 119.678 39.1906C120.116 39.4394 120.628 39.5638 121.215 39.5638C121.608 39.5638 121.964 39.5091 122.282 39.3996C122.601 39.2852 122.877 39.1185 123.111 38.8996C123.345 38.6807 123.521 38.4095 123.641 38.0861L126.163 38.3697C126.004 39.0364 125.7 39.6185 125.253 40.1161C124.81 40.6086 124.243 40.9917 123.551 41.2653C122.859 41.534 122.068 41.6683 121.178 41.6683ZM131.439 41.6758C130.712 41.6758 130.058 41.5465 129.476 41.2877C128.899 41.024 128.441 40.636 128.103 40.1235C127.77 39.6111 127.603 38.9792 127.603 38.2279C127.603 37.5811 127.722 37.0463 127.961 36.6234C128.2 36.2005 128.526 35.8622 128.939 35.6084C129.352 35.3547 129.817 35.1631 130.334 35.0338C130.857 34.8994 131.397 34.8024 131.954 34.7427C132.625 34.6731 133.17 34.6109 133.588 34.5562C134.006 34.4964 134.31 34.4069 134.499 34.2875C134.693 34.1631 134.79 33.9716 134.79 33.7128V33.6681C134.79 33.1059 134.623 32.6705 134.29 32.362C133.956 32.0536 133.476 31.8993 132.849 31.8993C132.188 31.8993 131.663 32.0436 131.275 32.3322C130.892 32.6208 130.633 32.9616 130.499 33.3546L127.976 32.9964C128.175 32.2999 128.503 31.7177 128.961 31.2501C129.419 30.7774 129.979 30.4242 130.64 30.1903C131.302 29.9515 132.033 29.8321 132.834 29.8321C133.387 29.8321 133.936 29.8968 134.484 30.0261C135.031 30.1555 135.531 30.3694 135.984 30.668C136.437 30.9615 136.8 31.362 137.073 31.8695C137.352 32.377 137.491 33.0113 137.491 33.7725V41.4445H134.894V39.8698H134.805C134.64 40.1882 134.409 40.4867 134.111 40.7653C133.817 41.039 133.446 41.2604 132.999 41.4295C132.556 41.5937 132.036 41.6758 131.439 41.6758ZM132.14 39.6907C132.683 39.6907 133.153 39.5837 133.551 39.3698C133.949 39.1508 134.255 38.8623 134.469 38.5041C134.688 38.1458 134.797 37.7553 134.797 37.3324V35.9816C134.713 36.0512 134.568 36.1159 134.364 36.1756C134.165 36.2353 133.941 36.2876 133.693 36.3323C133.444 36.3771 133.198 36.4169 132.954 36.4517C132.71 36.4866 132.499 36.5164 132.319 36.5413C131.916 36.596 131.556 36.6856 131.237 36.81C130.919 36.9343 130.668 37.1085 130.484 37.3324C130.299 37.5513 130.207 37.8349 130.207 38.1831C130.207 38.6807 130.389 39.0563 130.752 39.3101C131.115 39.5638 131.578 39.6907 132.14 39.6907ZM145.512 29.9814V32.071H138.922V29.9814H145.512ZM140.549 27.235H143.25V37.9966C143.25 38.3598 143.305 38.6384 143.414 38.8324C143.529 39.0215 143.678 39.1508 143.862 39.2205C144.046 39.2902 144.25 39.325 144.474 39.325C144.643 39.325 144.798 39.3125 144.937 39.2877C145.081 39.2628 145.191 39.2404 145.265 39.2205L145.721 41.3325C145.576 41.3823 145.37 41.437 145.101 41.4967C144.837 41.5564 144.514 41.5912 144.131 41.6012C143.454 41.6211 142.845 41.5191 142.303 41.2952C141.76 41.0663 141.33 40.7131 141.011 40.2355C140.698 39.7578 140.544 39.1608 140.549 38.4444V27.235ZM150.299 34.7278V41.4445H147.597V26.1603H150.239V31.9292H150.373C150.642 31.2824 151.057 30.7724 151.619 30.3993C152.187 30.0212 152.908 29.8321 153.784 29.8321C154.58 29.8321 155.274 29.9988 155.866 30.3321C156.458 30.6655 156.916 31.153 157.239 31.7949C157.567 32.4367 157.732 33.2203 157.732 34.1457V41.4445H155.03V34.5636C155.03 33.7924 154.831 33.1929 154.433 32.765C154.04 32.3322 153.488 32.1158 152.776 32.1158C152.299 32.1158 151.871 32.2202 151.493 32.4292C151.119 32.6332 150.826 32.9292 150.612 33.3173C150.403 33.7054 150.299 34.1755 150.299 34.7278ZM167.559 34.7278V41.4445H164.858V29.9814H167.44V31.9292H167.574C167.838 31.2874 168.258 30.7774 168.835 30.3993C169.418 30.0212 170.137 29.8321 170.992 29.8321C171.783 29.8321 172.472 30.0013 173.059 30.3396C173.652 30.6779 174.109 31.168 174.433 31.8098C174.761 32.4516 174.923 33.2302 174.918 34.1457V41.4445H172.216V34.5636C172.216 33.7974 172.017 33.1979 171.619 32.765C171.226 32.3322 170.681 32.1158 169.985 32.1158C169.512 32.1158 169.092 32.2202 168.724 32.4292C168.36 32.6332 168.074 32.9292 167.865 33.3173C167.661 33.7054 167.559 34.1755 167.559 34.7278ZM182.244 41.6683C181.125 41.6683 180.154 41.4221 179.333 40.9295C178.513 40.437 177.876 39.7479 177.423 38.8623C176.975 37.9767 176.751 36.9418 176.751 35.7577C176.751 34.5736 176.975 33.5362 177.423 32.6456C177.876 31.7551 178.513 31.0635 179.333 30.5709C180.154 30.0784 181.125 29.8321 182.244 29.8321C183.363 29.8321 184.334 30.0784 185.155 30.5709C185.975 31.0635 186.61 31.7551 187.058 32.6456C187.51 33.5362 187.737 34.5736 187.737 35.7577C187.737 36.9418 187.51 37.9767 187.058 38.8623C186.61 39.7479 185.975 40.437 185.155 40.9295C184.334 41.4221 183.363 41.6683 182.244 41.6683ZM182.259 39.5041C182.866 39.5041 183.373 39.3374 183.781 39.0041C184.189 38.6658 184.493 38.213 184.692 37.6458C184.896 37.0786 184.998 36.4468 184.998 35.7502C184.998 35.0487 184.896 34.4144 184.692 33.8472C184.493 33.275 184.189 32.8198 183.781 32.4815C183.373 32.1431 182.866 31.974 182.259 31.974C181.637 31.974 181.12 32.1431 180.707 32.4815C180.299 32.8198 179.993 33.275 179.789 33.8472C179.59 34.4144 179.49 35.0487 179.49 35.7502C179.49 36.4468 179.59 37.0786 179.789 37.6458C179.993 38.213 180.299 38.6658 180.707 39.0041C181.12 39.3374 181.637 39.5041 182.259 39.5041ZM191.647 41.4445L188.408 29.9814H191.162L193.177 38.0414H193.281L195.341 29.9814H198.065L200.125 37.9966H200.237L202.222 29.9814H204.983L201.737 41.4445H198.923L196.774 33.6979H196.617L194.468 41.4445H191.647Z" fill="#2B2B2B"/>
<path d="M29.7595 69.6545L26.3638 57.2361H27.8919L30.4871 67.3503H30.6084L33.2521 57.2361H34.9499L37.5937 67.3503H37.715L40.3102 57.2361H41.8383L38.4426 69.6545H36.8903L34.1495 59.7586H34.0525L31.3118 69.6545H29.7595ZM45.2208 69.8728C44.6306 69.8728 44.095 69.7616 43.6139 69.5393C43.1329 69.3129 42.7509 68.9875 42.4679 68.563C42.1849 68.1345 42.0434 67.6171 42.0434 67.0107C42.0434 66.4771 42.1485 66.0446 42.3588 65.7131C42.569 65.3776 42.8499 65.1148 43.2016 64.9248C43.5533 64.7349 43.9414 64.5934 44.3658 64.5004C44.7943 64.4034 45.2248 64.3266 45.6574 64.27C46.2233 64.1972 46.6821 64.1426 47.0338 64.1063C47.3896 64.0658 47.6483 63.9991 47.81 63.9062C47.9757 63.8132 48.0586 63.6515 48.0586 63.4211V63.3726C48.0586 62.7743 47.8949 62.3094 47.5674 61.9779C47.244 61.6464 46.7529 61.4807 46.094 61.4807C45.4108 61.4807 44.8752 61.6303 44.4871 61.9294C44.099 62.2285 43.8262 62.5479 43.6685 62.8875L42.3102 62.4024C42.5528 61.8364 42.8762 61.3958 43.2804 61.0805C43.6887 60.7611 44.1334 60.5388 44.6144 60.4135C45.0995 60.2841 45.5765 60.2195 46.0455 60.2195C46.3446 60.2195 46.6882 60.2558 47.0763 60.3286C47.4684 60.3973 47.8464 60.5408 48.2102 60.7591C48.578 60.9774 48.8832 61.3069 49.1258 61.7475C49.3683 62.1881 49.4896 62.7783 49.4896 63.5181V69.6545H48.0586V68.3933H47.9858C47.8888 68.5954 47.7271 68.8116 47.5007 69.0421C47.2744 69.2725 46.9732 69.4685 46.5972 69.6302C46.2213 69.7919 45.7625 69.8728 45.2208 69.8728ZM45.4391 68.5873C46.005 68.5873 46.482 68.4761 46.8701 68.2538C47.2622 68.0315 47.5573 67.7444 47.7554 67.3928C47.9575 67.0411 48.0586 66.6712 48.0586 66.2831V64.9734C47.9979 65.0461 47.8645 65.1128 47.6584 65.1735C47.4563 65.2301 47.2218 65.2806 46.955 65.325C46.6922 65.3655 46.4355 65.4019 46.1849 65.4342C45.9383 65.4625 45.7382 65.4867 45.5846 65.507C45.2127 65.5555 44.8651 65.6343 44.5417 65.7434C44.2223 65.8485 43.9636 66.0082 43.7655 66.2225C43.5715 66.4327 43.4745 66.7197 43.4745 67.0835C43.4745 67.5807 43.6584 67.9567 44.0263 68.2113C44.3982 68.462 44.8691 68.5873 45.4391 68.5873ZM51.9308 69.6545V60.3407H53.3618V69.6545H51.9308ZM52.6584 58.7884C52.3795 58.7884 52.139 58.6934 51.9368 58.5034C51.7388 58.3135 51.6397 58.0851 51.6397 57.8183C51.6397 57.5515 51.7388 57.3231 51.9368 57.1331C52.139 56.9431 52.3795 56.8481 52.6584 56.8481C52.9373 56.8481 53.1758 56.9431 53.3739 57.1331C53.576 57.3231 53.6771 57.5515 53.6771 57.8183C53.6771 58.0851 53.576 58.3135 53.3739 58.5034C53.1758 58.6934 52.9373 58.7884 52.6584 58.7884ZM59.8626 60.3407V61.5535H55.0359V60.3407H59.8626ZM56.4427 58.1093H57.8737V66.9865C57.8737 67.3907 57.9323 67.6939 58.0495 67.896C58.1708 68.0941 58.3244 68.2275 58.5104 68.2962C58.7004 68.3609 58.9005 68.3933 59.1107 68.3933C59.2683 68.3933 59.3977 68.3852 59.4988 68.369C59.5998 68.3488 59.6807 68.3326 59.7413 68.3205L60.0324 69.606C59.9353 69.6424 59.7999 69.6787 59.6261 69.7151C59.4523 69.7556 59.232 69.7758 58.9652 69.7758C58.5609 69.7758 58.1647 69.6889 57.7767 69.515C57.3926 69.3412 57.0733 69.0764 56.8186 68.7207C56.568 68.365 56.4427 67.9162 56.4427 67.3746V58.1093ZM66.4518 69.6545V68.563L70.5508 64.0759C71.0319 63.5504 71.428 63.0936 71.7393 62.7056C72.0506 62.3134 72.281 61.9456 72.4306 61.602C72.5842 61.2543 72.661 60.8905 72.661 60.5105C72.661 60.0739 72.5559 59.696 72.3457 59.3766C72.1395 59.0573 71.8565 58.8107 71.4968 58.6368C71.137 58.463 70.7328 58.3761 70.284 58.3761C69.807 58.3761 69.3907 58.4751 69.0349 58.6732C68.6832 58.8673 68.4104 59.1401 68.2163 59.4918C68.0263 59.8435 67.9313 60.2558 67.9313 60.7288H66.5003C66.5003 60.0012 66.6681 59.3625 67.0036 58.8127C67.3391 58.2629 67.7959 57.8344 68.374 57.5272C68.9561 57.22 69.609 57.0664 70.3325 57.0664C71.0602 57.0664 71.705 57.22 72.2669 57.5272C72.8288 57.8344 73.2694 58.2488 73.5887 58.7702C73.9081 59.2917 74.0678 59.8718 74.0678 60.5105C74.0678 60.9673 73.9849 61.414 73.8191 61.8506C73.6575 62.2831 73.3745 62.7662 72.9702 63.2998C72.57 63.8293 72.0142 64.4761 71.3027 65.2402L68.5135 68.2235V68.3205H74.286V69.6545H66.4518ZM87.8727 62.4266L86.5873 62.7904C86.5064 62.5762 86.3872 62.368 86.2295 62.1659C86.0759 61.9597 85.8657 61.7899 85.5989 61.6565C85.3321 61.5231 84.9905 61.4564 84.5741 61.4564C84.0041 61.4564 83.5292 61.5878 83.1492 61.8506C82.7732 62.1093 82.5852 62.4388 82.5852 62.839C82.5852 63.1947 82.7146 63.4756 82.9733 63.6818C83.232 63.888 83.6363 64.0598 84.186 64.1972L85.5686 64.5368C86.4013 64.7389 87.0218 65.0481 87.4301 65.4645C87.8384 65.8768 88.0425 66.4084 88.0425 67.0593C88.0425 67.5929 87.8889 68.0699 87.5817 68.4903C87.2785 68.9107 86.8541 69.2422 86.3083 69.4847C85.7626 69.7273 85.1279 69.8485 84.4043 69.8485C83.4544 69.8485 82.6681 69.6424 82.0456 69.23C81.423 68.8177 81.0289 68.2154 80.8632 67.4231L82.2214 67.0835C82.3508 67.5848 82.5954 67.9607 82.9551 68.2113C83.3189 68.462 83.7939 68.5873 84.3801 68.5873C85.0471 68.5873 85.5766 68.4458 85.9688 68.1628C86.3649 67.8758 86.563 67.5322 86.563 67.132C86.563 66.8086 86.4498 66.5378 86.2234 66.3195C85.9971 66.0972 85.6494 65.9314 85.1805 65.8223L83.6282 65.4585C82.7752 65.2563 82.1487 64.943 81.7485 64.5186C81.3523 64.0901 81.1542 63.5545 81.1542 62.9117C81.1542 62.3862 81.3018 61.9213 81.5969 61.5171C81.896 61.1128 82.3023 60.7955 82.8157 60.5651C83.3331 60.3347 83.9192 60.2195 84.5741 60.2195C85.4958 60.2195 86.2194 60.4216 86.7449 60.8258C87.2745 61.2301 87.6504 61.7637 87.8727 62.4266ZM93.9309 69.8485C93.0335 69.8485 92.2593 69.6505 91.6085 69.2543C90.9617 68.8541 90.4625 68.2962 90.1108 67.5807C89.7631 66.8612 89.5893 66.0244 89.5893 65.0704C89.5893 64.1164 89.7631 63.2755 90.1108 62.5479C90.4625 61.8162 90.9516 61.2462 91.5782 60.8379C92.2088 60.4256 92.9445 60.2195 93.7854 60.2195C94.2704 60.2195 94.7495 60.3003 95.2224 60.462C95.6954 60.6237 96.1259 60.8865 96.514 61.2503C96.9021 61.6101 97.2113 62.0871 97.4417 62.6813C97.6722 63.2755 97.7874 64.0072 97.7874 64.8763V65.4827H90.608V64.2457H96.3321C96.3321 63.7202 96.227 63.2513 96.0168 62.839C95.8106 62.4266 95.5155 62.1012 95.1315 61.8627C94.7515 61.6242 94.3028 61.505 93.7854 61.505C93.2154 61.505 92.7222 61.6464 92.3058 61.9294C91.8935 62.2083 91.5762 62.5722 91.3538 63.0209C91.1315 63.4696 91.0203 63.9506 91.0203 64.464V65.2887C91.0203 65.9921 91.1416 66.5883 91.3841 67.0774C91.6307 67.5625 91.9723 67.9324 92.4089 68.1871C92.8455 68.4377 93.3528 68.563 93.9309 68.563C94.3068 68.563 94.6464 68.5105 94.9496 68.4054C95.2568 68.2962 95.5216 68.1345 95.7439 67.9203C95.9662 67.702 96.138 67.4312 96.2593 67.1078L97.6418 67.4958C97.4963 67.9648 97.2517 68.3771 96.9081 68.7328C96.5645 69.0845 96.1401 69.3594 95.6348 69.5575C95.1295 69.7515 94.5615 69.8485 93.9309 69.8485ZM103.577 69.8485C102.704 69.8485 101.952 69.6424 101.321 69.23C100.691 68.8177 100.206 68.2497 99.8662 67.5262C99.5267 66.8026 99.3569 65.9759 99.3569 65.0461C99.3569 64.1002 99.5307 63.2654 99.8784 62.5418C100.23 61.8142 100.719 61.2462 101.346 60.8379C101.976 60.4256 102.712 60.2195 103.553 60.2195C104.208 60.2195 104.798 60.3407 105.324 60.5833C105.849 60.8258 106.28 61.1654 106.615 61.602C106.951 62.0386 107.159 62.5479 107.24 63.13H105.809C105.699 62.7056 105.457 62.3296 105.081 62.0022C104.709 61.6707 104.208 61.505 103.577 61.505C103.019 61.505 102.53 61.6505 102.11 61.9415C101.693 62.2285 101.368 62.6348 101.134 63.1603C100.903 63.6818 100.788 64.2942 100.788 64.9976C100.788 65.7172 100.901 66.3437 101.127 66.8773C101.358 67.4109 101.681 67.8253 102.098 68.1204C102.518 68.4155 103.011 68.563 103.577 68.563C103.949 68.563 104.287 68.4984 104.59 68.369C104.893 68.2396 105.15 68.0537 105.36 67.8111C105.57 67.5686 105.72 67.2775 105.809 66.938H107.24C107.159 67.4878 106.959 67.9829 106.639 68.4236C106.324 68.8602 105.906 69.2078 105.384 69.4665C104.867 69.7212 104.264 69.8485 103.577 69.8485ZM111.295 67.9567L111.198 68.6115C111.129 69.0724 111.024 69.5656 110.883 70.0911C110.745 70.6166 110.602 71.1118 110.452 71.5767C110.303 72.0416 110.18 72.4114 110.082 72.6863H108.991C109.044 72.4276 109.112 72.086 109.197 71.6616C109.282 71.2371 109.367 70.7621 109.452 70.2366C109.541 69.7151 109.614 69.1815 109.67 68.6358L109.743 67.9567H111.295Z" fill="#4A4A4A"/>
<path d="M121.148 69.8728C120.558 69.8728 120.022 69.7616 119.541 69.5393C119.06 69.3129 118.678 68.9875 118.395 68.563C118.112 68.1345 117.971 67.6171 117.971 67.0107C117.971 66.4771 118.076 66.0446 118.286 65.7131C118.496 65.3776 118.777 65.1148 119.129 64.9248C119.481 64.7349 119.869 64.5934 120.293 64.5004C120.722 64.4034 121.152 64.3266 121.585 64.27C122.151 64.1972 122.61 64.1426 122.961 64.1063C123.317 64.0658 123.576 63.9991 123.737 63.9062C123.903 63.8132 123.986 63.6515 123.986 63.4211V63.3726C123.986 62.7743 123.822 62.3094 123.495 61.9779C123.171 61.6464 122.68 61.4807 122.021 61.4807C121.338 61.4807 120.803 61.6303 120.415 61.9294C120.026 62.2285 119.754 62.5479 119.596 62.8875L118.238 62.4024C118.48 61.8364 118.804 61.3958 119.208 61.0805C119.616 60.7611 120.061 60.5388 120.542 60.4135C121.027 60.2841 121.504 60.2195 121.973 60.2195C122.272 60.2195 122.616 60.2558 123.004 60.3286C123.396 60.3973 123.774 60.5408 124.138 60.7591C124.505 60.9774 124.811 61.3069 125.053 61.7475C125.296 62.1881 125.417 62.7783 125.417 63.5181V69.6545H123.986V68.3933H123.913C123.816 68.5954 123.655 68.8116 123.428 69.0421C123.202 69.2725 122.901 69.4685 122.525 69.6302C122.149 69.7919 121.69 69.8728 121.148 69.8728ZM121.367 68.5873C121.932 68.5873 122.409 68.4761 122.798 68.2538C123.19 68.0315 123.485 67.7444 123.683 67.3928C123.885 67.0411 123.986 66.6712 123.986 66.2831V64.9734C123.925 65.0461 123.792 65.1128 123.586 65.1735C123.384 65.2301 123.149 65.2806 122.882 65.325C122.62 65.3655 122.363 65.4019 122.112 65.4342C121.866 65.4625 121.666 65.4867 121.512 65.507C121.14 65.5555 120.793 65.6343 120.469 65.7434C120.15 65.8485 119.891 66.0082 119.693 66.2225C119.499 66.4327 119.402 66.7197 119.402 67.0835C119.402 67.5807 119.586 67.9567 119.954 68.2113C120.326 68.462 120.797 68.5873 121.367 68.5873ZM129.289 64.0517V69.6545H127.858V60.3407H129.241V61.796H129.362C129.58 61.323 129.912 60.9431 130.356 60.656C130.801 60.365 131.375 60.2195 132.079 60.2195C132.709 60.2195 133.261 60.3488 133.734 60.6075C134.207 60.8622 134.575 61.2503 134.837 61.7718C135.1 62.2892 135.232 62.9441 135.232 63.7364V69.6545H133.801V63.8334C133.801 63.1017 133.611 62.5317 133.231 62.1234C132.851 61.7111 132.329 61.505 131.666 61.505C131.209 61.505 130.801 61.604 130.441 61.8021C130.086 62.0001 129.805 62.2892 129.598 62.6692C129.392 63.0492 129.289 63.51 129.289 64.0517ZM141.193 69.8485C140.417 69.8485 139.731 69.6525 139.137 69.2604C138.543 68.8642 138.078 68.3063 137.742 67.5868C137.407 66.8632 137.239 66.0082 137.239 65.0219C137.239 64.0436 137.407 63.1947 137.742 62.4751C138.078 61.7556 138.545 61.1997 139.143 60.8076C139.741 60.4155 140.433 60.2195 141.217 60.2195C141.823 60.2195 142.302 60.3205 142.654 60.5226C143.01 60.7207 143.281 60.9471 143.467 61.2018C143.657 61.4524 143.804 61.6586 143.909 61.8203H144.031V57.2361H145.462V69.6545H144.079V68.2235H143.909C143.804 68.3933 143.655 68.6075 143.461 68.8662C143.266 69.1209 142.99 69.3493 142.63 69.5514C142.27 69.7495 141.791 69.8485 141.193 69.8485ZM141.387 68.563C141.961 68.563 142.446 68.4135 142.842 68.1143C143.238 67.8111 143.539 67.3928 143.746 66.8592C143.952 66.3215 144.055 65.701 144.055 64.9976C144.055 64.3023 143.954 63.6939 143.752 63.1725C143.549 62.6469 143.25 62.2387 142.854 61.9476C142.458 61.6525 141.969 61.505 141.387 61.505C140.78 61.505 140.275 61.6606 139.871 61.9719C139.471 62.2791 139.169 62.6975 138.967 63.227C138.769 63.7525 138.67 64.3427 138.67 64.9976C138.67 65.6606 138.771 66.2629 138.973 66.8046C139.18 67.3422 139.483 67.7707 139.883 68.0901C140.287 68.4054 140.788 68.563 141.387 68.563ZM156.793 60.3407V61.5535H151.966V60.3407H156.793ZM153.373 58.1093H154.804V66.9865C154.804 67.3907 154.862 67.6939 154.98 67.896C155.101 68.0941 155.254 68.2275 155.44 68.2962C155.63 68.3609 155.83 68.3933 156.041 68.3933C156.198 68.3933 156.328 68.3852 156.429 68.369C156.53 68.3488 156.611 68.3326 156.671 68.3205L156.962 69.606C156.865 69.6424 156.73 69.6787 156.556 69.7151C156.382 69.7556 156.162 69.7758 155.895 69.7758C155.491 69.7758 155.095 69.6889 154.707 69.515C154.323 69.3412 154.003 69.0764 153.749 68.7207C153.498 68.365 153.373 67.9162 153.373 67.3746V58.1093ZM160.406 64.0517V69.6545H158.974V57.2361H160.406V61.796H160.527C160.745 61.315 161.073 60.9329 161.509 60.65C161.95 60.363 162.536 60.2195 163.268 60.2195C163.902 60.2195 164.458 60.3468 164.935 60.6015C165.412 60.8521 165.782 61.2382 166.045 61.7596C166.311 62.2771 166.445 62.936 166.445 63.7364V69.6545H165.014V63.8334C165.014 63.0936 164.822 62.5216 164.438 62.1174C164.058 61.7091 163.53 61.505 162.855 61.505C162.386 61.505 161.966 61.604 161.594 61.8021C161.226 62.0001 160.935 62.2892 160.721 62.6692C160.511 63.0492 160.406 63.51 160.406 64.0517ZM172.797 69.8485C171.9 69.8485 171.126 69.6505 170.475 69.2543C169.828 68.8541 169.329 68.2962 168.977 67.5807C168.629 66.8612 168.456 66.0244 168.456 65.0704C168.456 64.1164 168.629 63.2755 168.977 62.5479C169.329 61.8162 169.818 61.2462 170.444 60.8379C171.075 60.4256 171.811 60.2195 172.652 60.2195C173.137 60.2195 173.616 60.3003 174.089 60.462C174.562 60.6237 174.992 60.8865 175.38 61.2503C175.768 61.6101 176.078 62.0871 176.308 62.6813C176.538 63.2755 176.654 64.0072 176.654 64.8763V65.4827H169.474V64.2457H175.198C175.198 63.7202 175.093 63.2513 174.883 62.839C174.677 62.4266 174.382 62.1012 173.998 61.8627C173.618 61.6242 173.169 61.505 172.652 61.505C172.082 61.505 171.588 61.6464 171.172 61.9294C170.76 62.2083 170.442 62.5722 170.22 63.0209C169.998 63.4696 169.887 63.9506 169.887 64.464V65.2887C169.887 65.9921 170.008 66.5883 170.25 67.0774C170.497 67.5625 170.839 67.9324 171.275 68.1871C171.712 68.4377 172.219 68.563 172.797 68.563C173.173 68.563 173.513 68.5105 173.816 68.4054C174.123 68.2962 174.388 68.1345 174.61 67.9203C174.832 67.702 175.004 67.4312 175.126 67.1078L176.508 67.4958C176.363 67.9648 176.118 68.3771 175.774 68.7328C175.431 69.0845 175.006 69.3594 174.501 69.5575C173.996 69.7515 173.428 69.8485 172.797 69.8485ZM180.091 64.0517V69.6545H178.66V60.3407H180.042V61.796H180.163C180.382 61.323 180.713 60.9431 181.158 60.656C181.603 60.365 182.177 60.2195 182.88 60.2195C183.511 60.2195 184.062 60.3488 184.535 60.6075C185.008 60.8622 185.376 61.2503 185.639 61.7718C185.902 62.2892 186.033 62.9441 186.033 63.7364V69.6545H184.602V63.8334C184.602 63.1017 184.412 62.5317 184.032 62.1234C183.652 61.7111 183.131 61.505 182.468 61.505C182.011 61.505 181.603 61.604 181.243 61.8021C180.887 62.0001 180.606 62.2892 180.4 62.6692C180.194 63.0492 180.091 63.51 180.091 64.0517ZM197.159 60.3407V61.5535H192.333V60.3407H197.159ZM193.74 58.1093H195.171V66.9865C195.171 67.3907 195.229 67.6939 195.346 67.896C195.468 68.0941 195.621 68.2275 195.807 68.2962C195.997 68.3609 196.197 68.3933 196.408 68.3933C196.565 68.3933 196.695 68.3852 196.796 68.369C196.897 68.3488 196.978 68.3326 197.038 68.3205L197.329 69.606C197.232 69.6424 197.097 69.6787 196.923 69.7151C196.749 69.7556 196.529 69.7758 196.262 69.7758C195.858 69.7758 195.462 69.6889 195.074 69.515C194.69 69.3412 194.37 69.0764 194.116 68.7207C193.865 68.365 193.74 67.9162 193.74 67.3746V58.1093ZM201.882 69.8728C201.292 69.8728 200.756 69.7616 200.275 69.5393C199.794 69.3129 199.412 68.9875 199.129 68.563C198.846 68.1345 198.705 67.6171 198.705 67.0107C198.705 66.4771 198.81 66.0446 199.02 65.7131C199.23 65.3776 199.511 65.1148 199.863 64.9248C200.215 64.7349 200.603 64.5934 201.027 64.5004C201.456 64.4034 201.886 64.3266 202.319 64.27C202.885 64.1972 203.343 64.1426 203.695 64.1063C204.051 64.0658 204.31 63.9991 204.471 63.9062C204.637 63.8132 204.72 63.6515 204.72 63.4211V63.3726C204.72 62.7743 204.556 62.3094 204.229 61.9779C203.905 61.6464 203.414 61.4807 202.755 61.4807C202.072 61.4807 201.536 61.6303 201.148 61.9294C200.76 62.2285 200.487 62.5479 200.33 62.8875L198.972 62.4024C199.214 61.8364 199.537 61.3958 199.942 61.0805C200.35 60.7611 200.795 60.5388 201.276 60.4135C201.761 60.2841 202.238 60.2195 202.707 60.2195C203.006 60.2195 203.349 60.2558 203.738 60.3286C204.13 60.3973 204.508 60.5408 204.871 60.7591C205.239 60.9774 205.545 61.3069 205.787 61.7475C206.03 62.1881 206.151 62.7783 206.151 63.5181V69.6545H204.72V68.3933H204.647C204.55 68.5954 204.388 68.8116 204.162 69.0421C203.936 69.2725 203.634 69.4685 203.259 69.6302C202.883 69.7919 202.424 69.8728 201.882 69.8728ZM202.1 68.5873C202.666 68.5873 203.143 68.4761 203.531 68.2538C203.924 68.0315 204.219 67.7444 204.417 67.3928C204.619 67.0411 204.72 66.6712 204.72 66.2831V64.9734C204.659 65.0461 204.526 65.1128 204.32 65.1735C204.118 65.2301 203.883 65.2806 203.616 65.325C203.354 65.3655 203.097 65.4019 202.846 65.4342C202.6 65.4625 202.4 65.4867 202.246 65.507C201.874 65.5555 201.526 65.6343 201.203 65.7434C200.884 65.8485 200.625 66.0082 200.427 66.2225C200.233 66.4327 200.136 66.7197 200.136 67.0835C200.136 67.5807 200.32 67.9567 200.688 68.2113C201.059 68.462 201.53 68.5873 202.1 68.5873ZM209.926 66.2589L209.902 64.4883H210.193L214.268 60.3407H216.038L211.697 64.7308H211.575L209.926 66.2589ZM208.592 69.6545V57.2361H210.023V69.6545H208.592ZM214.51 69.6545L210.872 65.0461L211.891 64.0517L216.329 69.6545H214.51ZM221.231 69.8485C220.333 69.8485 219.559 69.6505 218.908 69.2543C218.262 68.8541 217.762 68.2962 217.411 67.5807C217.063 66.8612 216.889 66.0244 216.889 65.0704C216.889 64.1164 217.063 63.2755 217.411 62.5479C217.762 61.8162 218.251 61.2462 218.878 60.8379C219.509 60.4256 220.244 60.2195 221.085 60.2195C221.57 60.2195 222.049 60.3003 222.522 60.462C222.995 60.6237 223.426 60.8865 223.814 61.2503C224.202 61.6101 224.511 62.0871 224.742 62.6813C224.972 63.2755 225.087 64.0072 225.087 64.8763V65.4827H217.908V64.2457H223.632C223.632 63.7202 223.527 63.2513 223.317 62.839C223.11 62.4266 222.815 62.1012 222.431 61.8627C222.051 61.6242 221.603 61.505 221.085 61.505C220.515 61.505 220.022 61.6464 219.606 61.9294C219.193 62.2083 218.876 62.5722 218.654 63.0209C218.431 63.4696 218.32 63.9506 218.32 64.464V65.2887C218.32 65.9921 218.441 66.5883 218.684 67.0774C218.931 67.5625 219.272 67.9324 219.709 68.1871C220.145 68.4377 220.653 68.563 221.231 68.563C221.607 68.563 221.946 68.5105 222.249 68.4054C222.557 68.2962 222.821 68.1345 223.044 67.9203C223.266 67.702 223.438 67.4312 223.559 67.1078L224.942 67.4958C224.796 67.9648 224.552 68.3771 224.208 68.7328C223.864 69.0845 223.44 69.3594 222.935 69.5575C222.429 69.7515 221.861 69.8485 221.231 69.8485ZM234.466 69.8728C233.876 69.8728 233.34 69.7616 232.859 69.5393C232.378 69.3129 231.996 68.9875 231.713 68.563C231.43 68.1345 231.288 67.6171 231.288 67.0107C231.288 66.4771 231.394 66.0446 231.604 65.7131C231.814 65.3776 232.095 65.1148 232.447 64.9248C232.798 64.7349 233.186 64.5934 233.611 64.5004C234.039 64.4034 234.47 64.3266 234.902 64.27C235.468 64.1972 235.927 64.1426 236.279 64.1063C236.635 64.0658 236.893 63.9991 237.055 63.9062C237.221 63.8132 237.304 63.6515 237.304 63.4211V63.3726C237.304 62.7743 237.14 62.3094 236.812 61.9779C236.489 61.6464 235.998 61.4807 235.339 61.4807C234.656 61.4807 234.12 61.6303 233.732 61.9294C233.344 62.2285 233.071 62.5479 232.913 62.8875L231.555 62.4024C231.798 61.8364 232.121 61.3958 232.525 61.0805C232.934 60.7611 233.378 60.5388 233.859 60.4135C234.344 60.2841 234.822 60.2195 235.29 60.2195C235.59 60.2195 235.933 60.2558 236.321 60.3286C236.713 60.3973 237.091 60.5408 237.455 60.7591C237.823 60.9774 238.128 61.3069 238.371 61.7475C238.613 62.1881 238.735 62.7783 238.735 63.5181V69.6545H237.304V68.3933H237.231C237.134 68.5954 236.972 68.8116 236.746 69.0421C236.519 69.2725 236.218 69.4685 235.842 69.6302C235.466 69.7919 235.007 69.8728 234.466 69.8728ZM234.684 68.5873C235.25 68.5873 235.727 68.4761 236.115 68.2538C236.507 68.0315 236.802 67.7444 237 67.3928C237.202 67.0411 237.304 66.6712 237.304 66.2831V64.9734C237.243 65.0461 237.11 65.1128 236.903 65.1735C236.701 65.2301 236.467 65.2806 236.2 65.325C235.937 65.3655 235.681 65.4019 235.43 65.4342C235.183 65.4625 234.983 65.4867 234.83 65.507C234.458 65.5555 234.11 65.6343 233.787 65.7434C233.467 65.8485 233.209 66.0082 233.01 66.2225C232.816 66.4327 232.719 66.7197 232.719 67.0835C232.719 67.5807 232.903 67.9567 233.271 68.2113C233.643 68.462 234.114 68.5873 234.684 68.5873ZM249.324 69.8485C248.548 69.8485 247.863 69.6525 247.269 69.2604C246.675 68.8642 246.21 68.3063 245.874 67.5868C245.539 66.8632 245.371 66.0082 245.371 65.0219C245.371 64.0436 245.539 63.1947 245.874 62.4751C246.21 61.7556 246.677 61.1997 247.275 60.8076C247.873 60.4155 248.564 60.2195 249.349 60.2195C249.955 60.2195 250.434 60.3205 250.786 60.5226C251.141 60.7207 251.412 60.9471 251.598 61.2018C251.788 61.4524 251.936 61.6586 252.041 61.8203H252.162V57.2361H253.593V69.6545H252.211V68.2235H252.041C251.936 68.3933 251.786 68.6075 251.592 68.8662C251.398 69.1209 251.121 69.3493 250.761 69.5514C250.402 69.7495 249.923 69.8485 249.324 69.8485ZM249.518 68.563C250.092 68.563 250.577 68.4135 250.974 68.1143C251.37 67.8111 251.671 67.3928 251.877 66.8592C252.083 66.3215 252.186 65.701 252.186 64.9976C252.186 64.3023 252.085 63.6939 251.883 63.1725C251.681 62.6469 251.382 62.2387 250.986 61.9476C250.59 61.6525 250.1 61.505 249.518 61.505C248.912 61.505 248.407 61.6606 248.002 61.9719C247.602 62.2791 247.301 62.6975 247.099 63.227C246.901 63.7525 246.802 64.3427 246.802 64.9976C246.802 65.6606 246.903 66.2629 247.105 66.8046C247.311 67.3422 247.614 67.7707 248.015 68.0901C248.419 68.4054 248.92 68.563 249.518 68.563ZM260.147 69.8485C259.25 69.8485 258.475 69.6505 257.825 69.2543C257.178 68.8541 256.679 68.2962 256.327 67.5807C255.979 66.8612 255.805 66.0244 255.805 65.0704C255.805 64.1164 255.979 63.2755 256.327 62.5479C256.679 61.8162 257.168 61.2462 257.794 60.8379C258.425 60.4256 259.161 60.2195 260.001 60.2195C260.487 60.2195 260.966 60.3003 261.439 60.462C261.911 60.6237 262.342 60.8865 262.73 61.2503C263.118 61.6101 263.427 62.0871 263.658 62.6813C263.888 63.2755 264.003 64.0072 264.003 64.8763V65.4827H256.824V64.2457H262.548C262.548 63.7202 262.443 63.2513 262.233 62.839C262.027 62.4266 261.732 62.1012 261.348 61.8627C260.968 61.6242 260.519 61.505 260.001 61.505C259.431 61.505 258.938 61.6464 258.522 61.9294C258.11 62.2083 257.792 62.5722 257.57 63.0209C257.348 63.4696 257.236 63.9506 257.236 64.464V65.2887C257.236 65.9921 257.358 66.5883 257.6 67.0774C257.847 67.5625 258.188 67.9324 258.625 68.1871C259.062 68.4377 259.569 68.563 260.147 68.563C260.523 68.563 260.862 68.5105 261.166 68.4054C261.473 68.2962 261.738 68.1345 261.96 67.9203C262.182 67.702 262.354 67.4312 262.475 67.1078L263.858 67.4958C263.712 67.9648 263.468 68.3771 263.124 68.7328C262.781 69.0845 262.356 69.3594 261.851 69.5575C261.346 69.7515 260.778 69.8485 260.147 69.8485ZM269.915 69.8485C269.017 69.8485 268.243 69.6505 267.592 69.2543C266.945 68.8541 266.446 68.2962 266.094 67.5807C265.747 66.8612 265.573 66.0244 265.573 65.0704C265.573 64.1164 265.747 63.2755 266.094 62.5479C266.446 61.8162 266.935 61.2462 267.562 60.8379C268.192 60.4256 268.928 60.2195 269.769 60.2195C270.254 60.2195 270.733 60.3003 271.206 60.462C271.679 60.6237 272.11 60.8865 272.498 61.2503C272.886 61.6101 273.195 62.0871 273.425 62.6813C273.656 63.2755 273.771 64.0072 273.771 64.8763V65.4827H266.592V64.2457H272.316C272.316 63.7202 272.211 63.2513 272 62.839C271.794 62.4266 271.499 62.1012 271.115 61.8627C270.735 61.6242 270.286 61.505 269.769 61.505C269.199 61.505 268.706 61.6464 268.289 61.9294C267.877 62.2083 267.56 62.5722 267.337 63.0209C267.115 63.4696 267.004 63.9506 267.004 64.464V65.2887C267.004 65.9921 267.125 66.5883 267.368 67.0774C267.614 67.5625 267.956 67.9324 268.393 68.1871C268.829 68.4377 269.336 68.563 269.915 68.563C270.29 68.563 270.63 68.5105 270.933 68.4054C271.24 68.2962 271.505 68.1345 271.728 67.9203C271.95 67.702 272.122 67.4312 272.243 67.1078L273.625 67.4958C273.48 67.9648 273.235 68.3771 272.892 68.7328C272.548 69.0845 272.124 69.3594 271.618 69.5575C271.113 69.7515 270.545 69.8485 269.915 69.8485ZM275.777 73.1472V60.3407H277.16V61.8203H277.329C277.435 61.6586 277.58 61.4524 277.766 61.2018C277.956 60.9471 278.227 60.7207 278.579 60.5226C278.934 60.3205 279.415 60.2195 280.022 60.2195C280.806 60.2195 281.497 60.4155 282.095 60.8076C282.694 61.1997 283.161 61.7556 283.496 62.4751C283.832 63.1947 283.999 64.0436 283.999 65.0219C283.999 66.0082 283.832 66.8632 283.496 67.5868C283.161 68.3063 282.696 68.8642 282.101 69.2604C281.507 69.6525 280.822 69.8485 280.046 69.8485C279.448 69.8485 278.969 69.7495 278.609 69.5514C278.249 69.3493 277.972 69.1209 277.778 68.8662C277.584 68.6075 277.435 68.3933 277.329 68.2235H277.208V73.1472H275.777ZM277.184 64.9976C277.184 65.701 277.287 66.3215 277.493 66.8592C277.699 67.3928 278 67.8111 278.397 68.1143C278.793 68.4135 279.278 68.563 279.852 68.563C280.45 68.563 280.949 68.4054 281.35 68.0901C281.754 67.7707 282.057 67.3422 282.259 66.8046C282.465 66.2629 282.568 65.6606 282.568 64.9976C282.568 64.3427 282.467 63.7525 282.265 63.227C282.067 62.6975 281.766 62.2791 281.362 61.9719C280.962 61.6606 280.458 61.505 279.852 61.505C279.27 61.505 278.781 61.6525 278.384 61.9476C277.988 62.2387 277.689 62.6469 277.487 63.1725C277.285 63.6939 277.184 64.3023 277.184 64.9976ZM290.837 69.6545V57.2361H292.268V61.8203H292.39C292.495 61.6586 292.64 61.4524 292.826 61.2018C293.016 60.9471 293.287 60.7207 293.639 60.5226C293.994 60.3205 294.475 60.2195 295.082 60.2195C295.866 60.2195 296.557 60.4155 297.156 60.8076C297.754 61.1997 298.221 61.7556 298.556 62.4751C298.892 63.1947 299.06 64.0436 299.06 65.0219C299.06 66.0082 298.892 66.8632 298.556 67.5868C298.221 68.3063 297.756 68.8642 297.162 69.2604C296.567 69.6525 295.882 69.8485 295.106 69.8485C294.508 69.8485 294.029 69.7495 293.669 69.5514C293.309 69.3493 293.032 69.1209 292.838 68.8662C292.644 68.6075 292.495 68.3933 292.39 68.2235H292.22V69.6545H290.837ZM292.244 64.9976C292.244 65.701 292.347 66.3215 292.553 66.8592C292.759 67.3928 293.061 67.8111 293.457 68.1143C293.853 68.4135 294.338 68.563 294.912 68.563C295.51 68.563 296.01 68.4054 296.41 68.0901C296.814 67.7707 297.117 67.3422 297.319 66.8046C297.525 66.2629 297.629 65.6606 297.629 64.9976C297.629 64.3427 297.528 63.7525 297.325 63.227C297.127 62.6975 296.826 62.2791 296.422 61.9719C296.022 61.6606 295.518 61.505 294.912 61.505C294.33 61.505 293.841 61.6525 293.445 61.9476C293.048 62.2387 292.749 62.6469 292.547 63.1725C292.345 63.6939 292.244 64.3023 292.244 64.9976ZM301.078 69.6545V60.3407H302.46V61.7475H302.557C302.727 61.2867 303.034 60.9127 303.479 60.6257C303.924 60.3387 304.425 60.1952 304.983 60.1952C305.088 60.1952 305.219 60.1972 305.377 60.2013C305.535 60.2053 305.654 60.2114 305.735 60.2195V61.6747C305.686 61.6626 305.575 61.6444 305.401 61.6202C305.231 61.5919 305.052 61.5777 304.862 61.5777C304.409 61.5777 304.005 61.6727 303.649 61.8627C303.297 62.0487 303.018 62.3074 302.812 62.6389C302.61 62.9663 302.509 63.3402 302.509 63.7606V69.6545H301.078ZM310.882 69.8485C309.984 69.8485 309.21 69.6505 308.559 69.2543C307.913 68.8541 307.413 68.2962 307.062 67.5807C306.714 66.8612 306.54 66.0244 306.54 65.0704C306.54 64.1164 306.714 63.2755 307.062 62.5479C307.413 61.8162 307.902 61.2462 308.529 60.8379C309.16 60.4256 309.895 60.2195 310.736 60.2195C311.221 60.2195 311.7 60.3003 312.173 60.462C312.646 60.6237 313.077 60.8865 313.465 61.2503C313.853 61.6101 314.162 62.0871 314.393 62.6813C314.623 63.2755 314.738 64.0072 314.738 64.8763V65.4827H307.559V64.2457H313.283C313.283 63.7202 313.178 63.2513 312.968 62.839C312.761 62.4266 312.466 62.1012 312.082 61.8627C311.702 61.6242 311.254 61.505 310.736 61.505C310.166 61.505 309.673 61.6464 309.257 61.9294C308.844 62.2083 308.527 62.5722 308.305 63.0209C308.082 63.4696 307.971 63.9506 307.971 64.464V65.2887C307.971 65.9921 308.092 66.5883 308.335 67.0774C308.582 67.5625 308.923 67.9324 309.36 68.1871C309.796 68.4377 310.304 68.563 310.882 68.563C311.258 68.563 311.597 68.5105 311.9 68.4054C312.208 68.2962 312.472 68.1345 312.695 67.9203C312.917 67.702 313.089 67.4312 313.21 67.1078L314.593 67.4958C314.447 67.9648 314.203 68.3771 313.859 68.7328C313.515 69.0845 313.091 69.3594 312.586 69.5575C312.08 69.7515 311.512 69.8485 310.882 69.8485ZM319.485 69.8728C318.895 69.8728 318.359 69.7616 317.878 69.5393C317.397 69.3129 317.015 68.9875 316.732 68.563C316.449 68.1345 316.308 67.6171 316.308 67.0107C316.308 66.4771 316.413 66.0446 316.623 65.7131C316.833 65.3776 317.114 65.1148 317.466 64.9248C317.818 64.7349 318.206 64.5934 318.63 64.5004C319.059 64.4034 319.489 64.3266 319.922 64.27C320.488 64.1972 320.946 64.1426 321.298 64.1063C321.654 64.0658 321.913 63.9991 322.074 63.9062C322.24 63.8132 322.323 63.6515 322.323 63.4211V63.3726C322.323 62.7743 322.159 62.3094 321.832 61.9779C321.508 61.6464 321.017 61.4807 320.358 61.4807C319.675 61.4807 319.139 61.6303 318.751 61.9294C318.363 62.2285 318.09 62.5479 317.933 62.8875L316.575 62.4024C316.817 61.8364 317.14 61.3958 317.545 61.0805C317.953 60.7611 318.398 60.5388 318.879 60.4135C319.364 60.2841 319.841 60.2195 320.31 60.2195C320.609 60.2195 320.952 60.2558 321.341 60.3286C321.733 60.3973 322.111 60.5408 322.474 60.7591C322.842 60.9774 323.148 61.3069 323.39 61.7475C323.633 62.1881 323.754 62.7783 323.754 63.5181V69.6545H322.323V68.3933H322.25C322.153 68.5954 321.991 68.8116 321.765 69.0421C321.539 69.2725 321.237 69.4685 320.862 69.6302C320.486 69.7919 320.027 69.8728 319.485 69.8728ZM319.703 68.5873C320.269 68.5873 320.746 68.4761 321.134 68.2538C321.527 68.0315 321.822 67.7444 322.02 67.3928C322.222 67.0411 322.323 66.6712 322.323 66.2831V64.9734C322.262 65.0461 322.129 65.1128 321.923 65.1735C321.721 65.2301 321.486 65.2806 321.219 65.325C320.957 65.3655 320.7 65.4019 320.449 65.4342C320.203 65.4625 320.003 65.4867 319.849 65.507C319.477 65.5555 319.129 65.6343 318.806 65.7434C318.487 65.8485 318.228 66.0082 318.03 66.2225C317.836 66.4327 317.739 66.7197 317.739 67.0835C317.739 67.5807 317.923 67.9567 318.291 68.2113C318.662 68.462 319.133 68.5873 319.703 68.5873ZM330.246 60.3407V61.5535H325.419V60.3407H330.246ZM326.826 58.1093H328.257V66.9865C328.257 67.3907 328.315 67.6939 328.433 67.896C328.554 68.0941 328.707 68.2275 328.893 68.2962C329.083 68.3609 329.283 68.3933 329.494 68.3933C329.651 68.3933 329.781 68.3852 329.882 68.369C329.983 68.3488 330.064 68.3326 330.124 68.3205L330.415 69.606C330.318 69.6424 330.183 69.6787 330.009 69.7151C329.835 69.7556 329.615 69.7758 329.348 69.7758C328.944 69.7758 328.548 69.6889 328.16 69.515C327.776 69.3412 327.456 69.0764 327.202 68.7207C326.951 68.365 326.826 67.9162 326.826 67.3746V58.1093ZM333.859 64.0517V69.6545H332.428V57.2361H333.859V61.796H333.98C334.198 61.315 334.526 60.9329 334.962 60.65C335.403 60.363 335.989 60.2195 336.721 60.2195C337.355 60.2195 337.911 60.3468 338.388 60.6015C338.865 60.8521 339.235 61.2382 339.498 61.7596C339.765 62.2771 339.898 62.936 339.898 63.7364V69.6545H338.467V63.8334C338.467 63.0936 338.275 62.5216 337.891 62.1174C337.511 61.7091 336.983 61.505 336.308 61.505C335.839 61.505 335.419 61.604 335.047 61.8021C334.679 62.0001 334.388 62.2892 334.174 62.6692C333.964 63.0492 333.859 63.51 333.859 64.0517Z" fill="#969696"/>
<rect x="26" y="220.78" width="148.777" height="177.32" rx="13.1348" fill="#2A7BC5"/>
<rect x="40.4482" y="237.855" width="72.9305" height="24.4736" rx="12.2368" fill="white"/>
<path d="M60.1504 244.884L49.6426 255.392" stroke="#0B69F5" stroke-width="1.97022" stroke-linecap="round" stroke-linejoin="round"/>
<path d="M52.2695 244.884H60.1504V254.079" stroke="#0B69F5" stroke-width="1.97022" stroke-linecap="round" stroke-linejoin="round"/>
<path d="M72.599 256.328C71.6006 256.328 70.7436 256.076 70.0281 255.57C69.3166 255.061 68.7688 254.327 68.3848 253.369C68.0048 252.407 67.8148 251.249 67.8148 249.895C67.8189 248.541 68.0109 247.389 68.3909 246.439C68.7749 245.485 69.3226 244.757 70.0341 244.256C70.7496 243.754 71.6046 243.504 72.599 243.504C73.5935 243.504 74.4485 243.754 75.164 244.256C75.8795 244.757 76.4272 245.485 76.8072 246.439C77.1912 247.393 77.3833 248.545 77.3833 249.895C77.3833 251.253 77.1912 252.413 76.8072 253.375C76.4272 254.333 75.8795 255.065 75.164 255.57C74.4525 256.076 73.5975 256.328 72.599 256.328ZM72.599 254.43C73.3752 254.43 73.9876 254.048 74.4363 253.284C74.8891 252.516 75.1155 251.386 75.1155 249.895C75.1155 248.908 75.0124 248.08 74.8062 247.409C74.6 246.738 74.309 246.232 73.933 245.893C73.5571 245.549 73.1124 245.377 72.599 245.377C71.8269 245.377 71.2165 245.761 70.7678 246.529C70.3191 247.294 70.0927 248.415 70.0887 249.895C70.0846 250.885 70.1837 251.718 70.3858 252.393C70.592 253.068 70.883 253.577 71.259 253.921C71.6349 254.261 72.0816 254.43 72.599 254.43ZM79.9493 256.225C79.5814 256.225 79.2661 256.096 79.0033 255.837C78.7406 255.578 78.6112 255.263 78.6153 254.891C78.6112 254.527 78.7406 254.216 79.0033 253.957C79.2661 253.699 79.5814 253.569 79.9493 253.569C80.305 253.569 80.6143 253.699 80.877 253.957C81.1438 254.216 81.2792 254.527 81.2833 254.891C81.2792 255.138 81.2146 255.362 81.0892 255.564C80.968 255.766 80.8063 255.928 80.6041 256.049C80.4061 256.167 80.1878 256.225 79.9493 256.225ZM87.248 256.262C86.6537 256.258 86.0736 256.155 85.5077 255.952C84.9418 255.746 84.4324 255.413 83.9797 254.952C83.5269 254.487 83.1671 253.871 82.9003 253.102C82.6335 252.33 82.5022 251.374 82.5062 250.234C82.5062 249.171 82.6194 248.223 82.8458 247.391C83.0721 246.558 83.3976 245.854 83.822 245.28C84.2465 244.702 84.7578 244.262 85.3561 243.958C85.9584 243.655 86.6315 243.504 87.3753 243.504C88.1555 243.504 88.8467 243.657 89.4491 243.965C90.0554 244.272 90.5446 244.692 90.9165 245.226C91.2884 245.755 91.5188 246.354 91.6077 247.021H89.3945C89.2813 246.544 89.0489 246.164 88.6972 245.881C88.3495 245.594 87.9089 245.45 87.3753 245.45C86.5143 245.45 85.8513 245.824 85.3864 246.572C84.9256 247.32 84.6931 248.347 84.6891 249.652H84.774C84.9721 249.297 85.2288 248.991 85.5441 248.737C85.8594 248.482 86.2151 248.286 86.6113 248.148C87.0115 248.007 87.4339 247.936 87.8786 247.936C88.6062 247.936 89.2591 248.11 89.8371 248.458C90.4193 248.805 90.8801 249.284 91.2197 249.895C91.5592 250.501 91.727 251.196 91.7229 251.981C91.727 252.797 91.541 253.531 91.1651 254.182C90.7891 254.829 90.2656 255.338 89.5946 255.71C88.9236 256.082 88.1413 256.266 87.248 256.262ZM87.2358 254.443C87.6765 254.443 88.0706 254.335 88.4183 254.121C88.7659 253.907 89.0408 253.618 89.2429 253.254C89.445 252.89 89.5441 252.482 89.54 252.029C89.5441 251.585 89.4471 251.182 89.249 250.823C89.0549 250.463 88.7861 250.178 88.4425 249.968C88.0989 249.757 87.7068 249.652 87.2662 249.652C86.9387 249.652 86.6335 249.715 86.3505 249.84C86.0676 249.966 85.821 250.139 85.6108 250.362C85.4006 250.58 85.2348 250.835 85.1136 251.126C84.9963 251.413 84.9357 251.72 84.9317 252.047C84.9357 252.48 85.0368 252.878 85.2348 253.242C85.4329 253.606 85.7058 253.897 86.0534 254.115C86.4011 254.333 86.7952 254.443 87.2358 254.443ZM100.071 253.763V253.109C100.071 252.627 100.172 252.185 100.374 251.781C100.58 251.376 100.879 251.051 101.271 250.804C101.663 250.558 102.138 250.434 102.696 250.434C103.27 250.434 103.751 250.558 104.139 250.804C104.527 251.047 104.821 251.37 105.019 251.775C105.221 252.179 105.322 252.623 105.322 253.109V253.763C105.322 254.244 105.221 254.687 105.019 255.091C104.816 255.496 104.519 255.821 104.127 256.068C103.739 256.314 103.262 256.437 102.696 256.437C102.13 256.437 101.651 256.314 101.259 256.068C100.867 255.821 100.57 255.496 100.368 255.091C100.17 254.687 100.071 254.244 100.071 253.763ZM101.653 253.109V253.763C101.653 254.083 101.73 254.376 101.884 254.643C102.037 254.909 102.308 255.043 102.696 255.043C103.088 255.043 103.357 254.911 103.503 254.649C103.652 254.382 103.727 254.087 103.727 253.763V253.109C103.727 252.785 103.656 252.49 103.515 252.223C103.373 251.952 103.1 251.817 102.696 251.817C102.316 251.817 102.047 251.952 101.89 252.223C101.732 252.49 101.653 252.785 101.653 253.109ZM93.7584 246.657V246.002C93.7584 245.517 93.8615 245.072 94.0676 244.668C94.2738 244.264 94.5729 243.94 94.9651 243.698C95.3572 243.451 95.8322 243.328 96.39 243.328C96.96 243.328 97.439 243.451 97.8271 243.698C98.2192 243.94 98.5143 244.264 98.7124 244.668C98.9105 245.072 99.0095 245.517 99.0095 246.002V246.657C99.0095 247.142 98.9084 247.587 98.7063 247.991C98.5082 248.391 98.2131 248.712 97.821 248.955C97.4289 249.197 96.9519 249.319 96.39 249.319C95.82 249.319 95.339 249.197 94.9469 248.955C94.5588 248.712 94.2637 248.389 94.0616 247.985C93.8594 247.581 93.7584 247.138 93.7584 246.657ZM95.3531 246.002V246.657C95.3531 246.98 95.4279 247.275 95.5775 247.542C95.7311 247.805 96.0019 247.936 96.39 247.936C96.7781 247.936 97.0449 247.805 97.1904 247.542C97.34 247.275 97.4148 246.98 97.4148 246.657V246.002C97.4148 245.679 97.344 245.383 97.2025 245.117C97.0611 244.846 96.7902 244.71 96.39 244.71C96.006 244.71 95.7372 244.846 95.5835 245.117C95.4299 245.387 95.3531 245.683 95.3531 246.002ZM94.4496 256.092L102.987 243.674H104.503L95.9656 256.092H94.4496Z" fill="#0B69F5"/>
<circle opacity="0.5" cx="45.3034" cy="282.946" r="4.85518" fill="white"/>
<circle opacity="0.5" cx="67.9607" cy="282.945" r="4.85518" fill="white"/>
<g opacity="0.5" filter="url(#filter0_dd_150_3407)">
<circle cx="90.6189" cy="282.945" r="4.85518" fill="white"/>
</g>
<circle opacity="0.5" cx="113.276" cy="282.945" r="4.85518" fill="white"/>
<path d="M44.8477 342.345C44.1424 342.345 43.5174 342.166 42.9726 341.808C42.4278 341.446 42.0005 340.933 41.6908 340.269C41.3811 339.604 41.2263 338.813 41.2263 337.895C41.2263 336.977 41.3811 336.188 41.6908 335.528C42.0005 334.864 42.4297 334.354 42.9782 334C43.5267 333.642 44.1555 333.462 44.8644 333.462C45.413 333.462 45.8496 333.554 46.1742 333.737C46.4988 333.916 46.7507 334.123 46.9298 334.358C47.1089 334.593 47.247 334.791 47.344 334.951H47.4504V330.709H48.9448V342.172H47.4895V340.84H47.344C47.2433 341.011 47.1015 341.216 46.9186 341.455C46.7358 341.69 46.4783 341.897 46.1462 342.077C45.8178 342.256 45.385 342.345 44.8477 342.345ZM45.1219 341.041C45.6294 341.041 46.0567 340.909 46.4037 340.644C46.7544 340.375 47.0212 340.004 47.2041 339.53C47.3869 339.052 47.4783 338.5 47.4783 337.873C47.4783 337.254 47.3888 336.711 47.2097 336.244C47.0306 335.778 46.7656 335.416 46.4149 335.158C46.0641 334.897 45.6331 334.767 45.1219 334.767C44.592 334.767 44.1499 334.905 43.7954 335.181C43.4409 335.453 43.1741 335.824 42.995 336.295C42.8196 336.761 42.7319 337.287 42.7319 337.873C42.7319 338.466 42.8215 339.004 43.0006 339.485C43.1834 339.963 43.4502 340.341 43.801 340.621C44.1555 340.901 44.5958 341.041 45.1219 341.041ZM51.2743 342.172V330.709H52.7743V334.951H52.8807C52.9777 334.791 53.1157 334.593 53.2949 334.358C53.474 334.123 53.7258 333.916 54.0505 333.737C54.3751 333.554 54.8117 333.462 55.3602 333.462C56.0655 333.462 56.6924 333.642 57.2409 334C57.7894 334.354 58.2185 334.864 58.5283 335.528C58.8417 336.188 58.9984 336.977 58.9984 337.895C58.9984 338.813 58.8436 339.604 58.5339 340.269C58.2241 340.933 57.7969 341.446 57.2521 341.808C56.7073 342.166 56.0823 342.345 55.377 342.345C54.8397 342.345 54.405 342.256 54.0729 342.077C53.7445 341.897 53.487 341.69 53.3005 341.455C53.1176 341.216 52.9777 341.011 52.8807 340.84H52.7295V342.172H51.2743ZM52.7463 337.873C52.7463 338.5 52.8378 339.052 53.0206 339.53C53.2034 340.004 53.4684 340.375 53.8154 340.644C54.1662 340.909 54.5953 341.041 55.1028 341.041C55.6252 341.041 56.0636 340.901 56.4181 340.621C56.7726 340.341 57.0394 339.963 57.2185 339.485C57.4013 339.004 57.4928 338.466 57.4928 337.873C57.4928 337.287 57.4032 336.761 57.2241 336.295C57.0487 335.824 56.7838 335.453 56.4293 335.181C56.0748 334.905 55.6326 334.767 55.1028 334.767C54.5878 334.767 54.155 334.897 53.8042 335.158C53.4572 335.416 53.1941 335.778 53.015 336.244C52.8359 336.711 52.7463 337.254 52.7463 337.873Z" fill="white"/>
<path d="M52.7372 355.245V378.172H48.584V359.287H48.4497L43.0876 362.712V358.906L48.7855 355.245H52.7372ZM66.402 378.608C64.5586 378.608 62.9765 378.142 61.6555 377.209C60.3421 376.269 59.3308 374.914 58.6219 373.145C57.9203 371.369 57.5696 369.231 57.5696 366.731C57.577 364.231 57.9315 362.104 58.6331 360.35C59.342 358.589 60.3533 357.246 61.6667 356.32C62.9877 355.395 64.5661 354.932 66.402 354.932C68.2379 354.932 69.8163 355.395 71.1372 356.32C72.4582 357.246 73.4694 358.589 74.1709 360.35C74.8799 362.111 75.2344 364.238 75.2344 366.731C75.2344 369.239 74.8799 371.38 74.1709 373.157C73.4694 374.925 72.4582 376.276 71.1372 377.209C69.8237 378.142 68.2453 378.608 66.402 378.608ZM66.402 375.104C67.8349 375.104 68.9655 374.399 69.7939 372.989C70.6297 371.571 71.0477 369.485 71.0477 366.731C71.0477 364.91 70.8574 363.38 70.4768 362.141C70.0961 360.902 69.5588 359.97 68.8648 359.343C68.1707 358.708 67.3498 358.391 66.402 358.391C64.9766 358.391 63.8497 359.1 63.0213 360.518C62.1929 361.929 61.775 364 61.7675 366.731C61.76 368.559 61.9429 370.097 62.316 371.343C62.6966 372.589 63.234 373.53 63.928 374.164C64.6221 374.791 65.4467 375.104 66.402 375.104ZM79.9716 378.418C79.2925 378.418 78.7104 378.179 78.2253 377.701C77.7402 377.224 77.5014 376.642 77.5089 375.955C77.5014 375.283 77.7402 374.709 78.2253 374.231C78.7104 373.754 79.2925 373.515 79.9716 373.515C80.6284 373.515 81.1993 373.754 81.6844 374.231C82.177 374.709 82.427 375.283 82.4344 375.955C82.427 376.41 82.3076 376.825 82.0762 377.198C81.8523 377.571 81.5538 377.869 81.1806 378.093C80.815 378.31 80.412 378.418 79.9716 378.418ZM93.6365 378.485C92.1439 378.485 90.808 378.205 89.6289 377.646C88.4497 377.078 87.5131 376.302 86.8191 375.317C86.1325 374.332 85.7668 373.205 85.722 371.936H89.752C89.8266 372.877 90.2334 373.645 90.9722 374.242C91.711 374.832 92.5991 375.127 93.6365 375.127C94.4499 375.127 95.1738 374.94 95.8082 374.567C96.4425 374.194 96.9426 373.675 97.3082 373.011C97.6739 372.347 97.853 371.589 97.8456 370.739C97.853 369.873 97.6702 369.104 97.297 368.433C96.9239 367.761 96.4127 367.235 95.7634 366.854C95.1141 366.466 94.3678 366.272 93.5245 366.272C92.8379 366.265 92.1625 366.391 91.4983 366.653C90.8341 366.914 90.308 367.257 89.9199 367.682L86.1698 367.067L87.3676 355.245H100.667V358.716H90.8043L90.1438 364.794H90.2781C90.7035 364.294 91.3043 363.88 92.0804 363.552C92.8566 363.216 93.7074 363.048 94.6328 363.048C96.0209 363.048 97.2597 363.376 98.3493 364.033C99.4389 364.682 100.297 365.578 100.924 366.72C101.551 367.862 101.864 369.168 101.864 370.638C101.864 372.153 101.514 373.504 100.812 374.69C100.118 375.869 99.1516 376.798 97.9127 377.478C96.6813 378.149 95.2559 378.485 93.6365 378.485ZM105.824 378.172L115.574 358.872V358.716H104.256V355.245H119.873V358.794L110.133 378.172H105.824Z" fill="white"/>
<rect x="239.509" y="367.89" width="19.7022" height="20.627" rx="3.94044" fill="#DADADF"/>
<path d="M252.003 375.047C251.938 374.473 251.671 374.028 251.202 373.713C250.734 373.394 250.143 373.234 249.432 373.234C248.923 373.234 248.482 373.315 248.11 373.476C247.738 373.634 247.449 373.852 247.243 374.131C247.041 374.406 246.94 374.72 246.94 375.071C246.94 375.366 247.008 375.621 247.146 375.835C247.287 376.049 247.471 376.229 247.698 376.375C247.928 376.516 248.175 376.636 248.437 376.733C248.7 376.826 248.953 376.902 249.195 376.963L250.408 377.278C250.804 377.375 251.211 377.507 251.627 377.673C252.043 377.838 252.429 378.057 252.785 378.327C253.141 378.598 253.428 378.934 253.646 379.334C253.868 379.734 253.98 380.213 253.98 380.771C253.98 381.474 253.798 382.099 253.434 382.645C253.074 383.19 252.551 383.621 251.863 383.936C251.18 384.252 250.354 384.409 249.383 384.409C248.454 384.409 247.649 384.262 246.97 383.967C246.291 383.671 245.759 383.253 245.375 382.711C244.991 382.166 244.779 381.519 244.739 380.771H246.618C246.655 381.22 246.8 381.594 247.055 381.893C247.314 382.188 247.643 382.408 248.043 382.554C248.448 382.695 248.89 382.766 249.371 382.766C249.901 382.766 250.372 382.683 250.784 382.517C251.2 382.348 251.528 382.113 251.766 381.814C252.005 381.511 252.124 381.157 252.124 380.753C252.124 380.385 252.019 380.084 251.809 379.849C251.603 379.615 251.322 379.421 250.966 379.267C250.614 379.114 250.216 378.978 249.771 378.861L248.304 378.461C247.31 378.19 246.521 377.792 245.939 377.266C245.361 376.741 245.072 376.045 245.072 375.18C245.072 374.465 245.266 373.84 245.654 373.307C246.042 372.773 246.568 372.359 247.231 372.064C247.894 371.764 248.642 371.615 249.474 371.615C250.315 371.615 251.057 371.762 251.7 372.058C252.346 372.353 252.856 372.759 253.228 373.276C253.6 373.79 253.794 374.38 253.81 375.047H252.003Z" fill="#2B2B2B"/>
<g filter="url(#filter1_d_150_3407)">
<circle cx="250.017" cy="281.857" r="3.2837" fill="#0B69F5"/>
</g>
<path fill-rule="evenodd" clip-rule="evenodd" d="M246.076 285.323V358.695C246.076 359.421 246.664 360.009 247.39 360.009H251.33C252.056 360.009 252.644 359.421 252.644 358.695V287.185C251.852 288.007 250.96 288.47 250.016 288.47C248.503 288.47 247.122 287.28 246.076 285.323Z" fill="#DADADF"/>
<rect x="272.346" y="367.89" width="19.7022" height="20.627" rx="3.94044" fill="#DADADF"/>
<path d="M275.899 371.785H278.173L282.126 381.438H282.272L286.225 371.785H288.499V384.203H286.716V375.217H286.601L282.939 384.185H281.459L277.797 375.211H277.682V384.203H275.899V371.785Z" fill="#2B2B2B"/>
<g filter="url(#filter2_d_150_3407)">
<circle cx="282.854" cy="271.349" r="3.2837" fill="#0B69F5"/>
</g>
<path fill-rule="evenodd" clip-rule="evenodd" d="M279.491 275.946H278.913V358.695C278.913 359.421 279.501 360.009 280.227 360.009H284.167C284.892 360.009 285.48 359.421 285.48 358.695V276.746C284.689 277.472 283.797 277.88 282.853 277.88C281.604 277.88 280.445 277.165 279.491 275.946Z" fill="#DADADF"/>
<rect x="305.183" y="367.89" width="19.7022" height="20.627" rx="3.94044" fill="#DADADF"/>
<path d="M310.224 373.398V371.785H319.835V373.398H315.961V384.203H314.093V373.398H310.224Z" fill="#2B2B2B"/>
<g filter="url(#filter3_d_150_3407)">
<circle cx="315.691" cy="258.214" r="3.2837" fill="#0B69F5"/>
</g>
<path fill-rule="evenodd" clip-rule="evenodd" d="M312.215 262.811H310.437V357.382C310.437 358.107 311.025 358.695 311.75 358.695H315.69C316.416 358.695 317.004 358.107 317.004 357.382V264.439C316.581 264.598 316.142 264.682 315.69 264.682C314.391 264.682 313.19 263.988 312.215 262.811Z" fill="#DADADF"/>
<rect x="338.02" y="367.89" width="19.7022" height="20.627" rx="3.94044" fill="#DADADF"/>
<path d="M343.321 384.203L339.876 371.785H341.847L344.267 381.402H344.382L346.898 371.785H348.851L351.367 381.408H351.482L353.896 371.785H355.872L352.422 384.203H350.536L347.923 374.901H347.826L345.212 384.203H343.321Z" fill="#2B2B2B"/>
<g filter="url(#filter4_d_150_3407)">
<circle cx="348.528" cy="245.079" r="3.2837" fill="#0B69F5"/>
</g>
<path fill-rule="evenodd" clip-rule="evenodd" d="M344.969 249.676H344.587V357.382C344.587 358.107 345.175 358.695 345.9 358.695H349.841C350.566 358.695 351.154 358.107 351.154 357.382V250.562C350.363 251.167 349.471 251.507 348.527 251.507C347.191 251.507 345.959 250.826 344.969 249.676Z" fill="#DADADF"/>
<rect x="370.856" y="367.89" width="19.7022" height="20.627" rx="3.94044" fill="#DADADF"/>
<path d="M375.898 373.398V371.785H385.509V373.398H381.635V384.203H379.767V373.398H375.898Z" fill="#2B2B2B"/>
<g filter="url(#filter5_d_150_3407)">
<circle cx="381.365" cy="258.214" r="3.2837" fill="#0B69F5"/>
</g>
<path fill-rule="evenodd" clip-rule="evenodd" d="M377.889 262.811H377.424V357.382C377.424 358.107 378.012 358.695 378.737 358.695H382.678C383.403 358.695 383.991 358.107 383.991 357.382V263.663C383.2 264.315 382.308 264.682 381.364 264.682C380.065 264.682 378.864 263.988 377.889 262.811Z" fill="#DADADF"/>
<rect x="403.693" y="367.89" width="19.7022" height="20.627" rx="3.94044" fill="#DADADF"/>
<path d="M407.247 371.785H409.52L413.474 381.438H413.619L417.573 371.785H419.847V384.203H418.064V375.217H417.949L414.286 384.185H412.807L409.145 375.211H409.029V384.203H407.247V371.785Z" fill="#2B2B2B"/>
<g filter="url(#filter6_d_150_3407)">
<circle cx="414.202" cy="271.349" r="3.2837" fill="#0B69F5"/>
</g>
<path fill-rule="evenodd" clip-rule="evenodd" d="M410.839 275.946H410.261V358.695C410.261 359.421 410.849 360.009 411.574 360.009H415.515C416.24 360.009 416.828 359.421 416.828 358.695V276.746C416.037 277.472 415.145 277.88 414.201 277.88C412.952 277.88 411.793 277.165 410.839 275.946Z" fill="#DADADF"/>
<rect x="436.53" y="367.89" width="19.7022" height="20.627" rx="3.94044" fill="#DADADF"/>
<path d="M449.024 375.047C448.96 374.473 448.693 374.028 448.224 373.713C447.755 373.394 447.165 373.234 446.453 373.234C445.944 373.234 445.503 373.315 445.131 373.476C444.76 373.634 444.471 373.852 444.264 374.131C444.062 374.406 443.961 374.72 443.961 375.071C443.961 375.366 444.03 375.621 444.167 375.835C444.309 376.05 444.493 376.229 444.719 376.375C444.95 376.516 445.196 376.636 445.459 376.733C445.722 376.826 445.974 376.902 446.217 376.963L447.43 377.278C447.826 377.375 448.232 377.507 448.648 377.673C449.065 377.838 449.451 378.057 449.807 378.327C450.162 378.598 450.449 378.934 450.668 379.334C450.89 379.734 451.001 380.213 451.001 380.771C451.001 381.474 450.819 382.099 450.455 382.645C450.096 383.19 449.572 383.621 448.885 383.936C448.202 384.252 447.375 384.409 446.405 384.409C445.475 384.409 444.671 384.262 443.992 383.967C443.312 383.672 442.781 383.253 442.397 382.711C442.013 382.166 441.801 381.519 441.76 380.771H443.64C443.676 381.22 443.822 381.594 444.076 381.893C444.335 382.188 444.665 382.408 445.065 382.554C445.469 382.695 445.912 382.766 446.393 382.766C446.922 382.766 447.393 382.683 447.806 382.517C448.222 382.348 448.549 382.113 448.788 381.814C449.026 381.511 449.146 381.157 449.146 380.753C449.146 380.385 449.041 380.084 448.83 379.849C448.624 379.615 448.343 379.421 447.987 379.267C447.636 379.114 447.238 378.978 446.793 378.861L445.326 378.461C444.331 378.19 443.543 377.792 442.961 377.266C442.383 376.741 442.094 376.045 442.094 375.18C442.094 374.465 442.288 373.84 442.676 373.307C443.064 372.773 443.589 372.359 444.252 372.064C444.915 371.765 445.663 371.615 446.496 371.615C447.337 371.615 448.078 371.763 448.721 372.058C449.368 372.353 449.877 372.759 450.249 373.276C450.621 373.79 450.815 374.38 450.831 375.047H449.024Z" fill="#2B2B2B"/>
<g filter="url(#filter7_d_150_3407)">
<circle cx="447.039" cy="281.857" r="3.2837" fill="#0B69F5"/>
</g>
<path fill-rule="evenodd" clip-rule="evenodd" d="M443.099 285.323V358.695C443.099 359.421 443.687 360.009 444.412 360.009H448.353C449.078 360.009 449.666 359.421 449.666 358.695V287.185C448.875 288.007 447.982 288.47 447.039 288.47C445.525 288.47 444.144 287.28 443.099 285.323Z" fill="#DADADF"/>
<defs>
<filter id="filter0_dd_150_3407" x="82.5269" y="274.853" width="16.1835" height="16.1839" filterUnits="userSpaceOnUse" color-interpolation-filters="sRGB">
<feFlood flood-opacity="0" result="BackgroundImageFix"/>
<feColorMatrix in="SourceAlpha" type="matrix" values="0 0 0 0 0 0 0 0 0 0 0 0 0 0 0 0 0 0 127 0" result="hardAlpha"/>
<feMorphology radius="3.23679" operator="dilate" in="SourceAlpha" result="effect1_dropShadow_150_3407"/>
<feOffset/>
<feComposite in2="hardAlpha" operator="out"/>
<feColorMatrix type="matrix" values="0 0 0 0 0.209635 0 0 0 0 0.209635 0 0 0 0 0.209635 0 0 0 1 0"/>
<feBlend mode="normal" in2="BackgroundImageFix" result="effect1_dropShadow_150_3407"/>
<feColorMatrix in="SourceAlpha" type="matrix" values="0 0 0 0 0 0 0 0 0 0 0 0 0 0 0 0 0 0 127 0" result="hardAlpha"/>
<feMorphology radius="1.61839" operator="dilate" in="SourceAlpha" result="effect2_dropShadow_150_3407"/>
<feOffset/>
<feComposite in2="hardAlpha" operator="out"/>
<feColorMatrix type="matrix" values="0 0 0 0 0.328971 0 0 0 0 0.328971 0 0 0 0 0.328971 0 0 0 1 0"/>
<feBlend mode="normal" in2="effect1_dropShadow_150_3407" result="effect2_dropShadow_150_3407"/>
<feBlend mode="normal" in="SourceGraphic" in2="effect2_dropShadow_150_3407" result="shape"/>
</filter>
<filter id="filter1_d_150_3407" x="242.793" y="274.632" width="14.4483" height="14.4483" filterUnits="userSpaceOnUse" color-interpolation-filters="sRGB">
<feFlood flood-opacity="0" result="BackgroundImageFix"/>
<feColorMatrix in="SourceAlpha" type="matrix" values="0 0 0 0 0 0 0 0 0 0 0 0 0 0 0 0 0 0 127 0" result="hardAlpha"/>
<feMorphology radius="2.62696" operator="dilate" in="SourceAlpha" result="effect1_dropShadow_150_3407"/>
<feOffset/>
<feGaussianBlur stdDeviation="0.65674"/>
<feComposite in2="hardAlpha" operator="out"/>
<feColorMatrix type="matrix" values="0 0 0 0 0.71676 0 0 0 0 0.806105 0 0 0 0 0.939171 0 0 0 1 0"/>
<feBlend mode="normal" in2="BackgroundImageFix" result="effect1_dropShadow_150_3407"/>
<feBlend mode="normal" in="SourceGraphic" in2="effect1_dropShadow_150_3407" result="shape"/>
</filter>
<filter id="filter2_d_150_3407" x="275.63" y="264.125" width="14.4483" height="14.4483" filterUnits="userSpaceOnUse" color-interpolation-filters="sRGB">
<feFlood flood-opacity="0" result="BackgroundImageFix"/>
<feColorMatrix in="SourceAlpha" type="matrix" values="0 0 0 0 0 0 0 0 0 0 0 0 0 0 0 0 0 0 127 0" result="hardAlpha"/>
<feMorphology radius="2.62696" operator="dilate" in="SourceAlpha" result="effect1_dropShadow_150_3407"/>
<feOffset/>
<feGaussianBlur stdDeviation="0.65674"/>
<feComposite in2="hardAlpha" operator="out"/>
<feColorMatrix type="matrix" values="0 0 0 0 0.71676 0 0 0 0 0.806105 0 0 0 0 0.939171 0 0 0 1 0"/>
<feBlend mode="normal" in2="BackgroundImageFix" result="effect1_dropShadow_150_3407"/>
<feBlend mode="normal" in="SourceGraphic" in2="effect1_dropShadow_150_3407" result="shape"/>
</filter>
<filter id="filter3_d_150_3407" x="308.467" y="250.99" width="14.4483" height="14.4483" filterUnits="userSpaceOnUse" color-interpolation-filters="sRGB">
<feFlood flood-opacity="0" result="BackgroundImageFix"/>
<feColorMatrix in="SourceAlpha" type="matrix" values="0 0 0 0 0 0 0 0 0 0 0 0 0 0 0 0 0 0 127 0" result="hardAlpha"/>
<feMorphology radius="2.62696" operator="dilate" in="SourceAlpha" result="effect1_dropShadow_150_3407"/>
<feOffset/>
<feGaussianBlur stdDeviation="0.65674"/>
<feComposite in2="hardAlpha" operator="out"/>
<feColorMatrix type="matrix" values="0 0 0 0 0.71676 0 0 0 0 0.806105 0 0 0 0 0.939171 0 0 0 1 0"/>
<feBlend mode="normal" in2="BackgroundImageFix" result="effect1_dropShadow_150_3407"/>
<feBlend mode="normal" in="SourceGraphic" in2="effect1_dropShadow_150_3407" result="shape"/>
</filter>
<filter id="filter4_d_150_3407" x="341.304" y="237.855" width="14.4483" height="14.4483" filterUnits="userSpaceOnUse" color-interpolation-filters="sRGB">
<feFlood flood-opacity="0" result="BackgroundImageFix"/>
<feColorMatrix in="SourceAlpha" type="matrix" values="0 0 0 0 0 0 0 0 0 0 0 0 0 0 0 0 0 0 127 0" result="hardAlpha"/>
<feMorphology radius="2.62696" operator="dilate" in="SourceAlpha" result="effect1_dropShadow_150_3407"/>
<feOffset/>
<feGaussianBlur stdDeviation="0.65674"/>
<feComposite in2="hardAlpha" operator="out"/>
<feColorMatrix type="matrix" values="0 0 0 0 0.71676 0 0 0 0 0.806105 0 0 0 0 0.939171 0 0 0 1 0"/>
<feBlend mode="normal" in2="BackgroundImageFix" result="effect1_dropShadow_150_3407"/>
<feBlend mode="normal" in="SourceGraphic" in2="effect1_dropShadow_150_3407" result="shape"/>
</filter>
<filter id="filter5_d_150_3407" x="374.141" y="250.99" width="14.4483" height="14.4483" filterUnits="userSpaceOnUse" color-interpolation-filters="sRGB">
<feFlood flood-opacity="0" result="BackgroundImageFix"/>
<feColorMatrix in="SourceAlpha" type="matrix" values="0 0 0 0 0 0 0 0 0 0 0 0 0 0 0 0 0 0 127 0" result="hardAlpha"/>
<feMorphology radius="2.62696" operator="dilate" in="SourceAlpha" result="effect1_dropShadow_150_3407"/>
<feOffset/>
<feGaussianBlur stdDeviation="0.65674"/>
<feComposite in2="hardAlpha" operator="out"/>
<feColorMatrix type="matrix" values="0 0 0 0 0.71676 0 0 0 0 0.806105 0 0 0 0 0.939171 0 0 0 1 0"/>
<feBlend mode="normal" in2="BackgroundImageFix" result="effect1_dropShadow_150_3407"/>
<feBlend mode="normal" in="SourceGraphic" in2="effect1_dropShadow_150_3407" result="shape"/>
</filter>
<filter id="filter6_d_150_3407" x="406.978" y="264.125" width="14.4483" height="14.4483" filterUnits="userSpaceOnUse" color-interpolation-filters="sRGB">
<feFlood flood-opacity="0" result="BackgroundImageFix"/>
<feColorMatrix in="SourceAlpha" type="matrix" values="0 0 0 0 0 0 0 0 0 0 0 0 0 0 0 0 0 0 127 0" result="hardAlpha"/>
<feMorphology radius="2.62696" operator="dilate" in="SourceAlpha" result="effect1_dropShadow_150_3407"/>
<feOffset/>
<feGaussianBlur stdDeviation="0.65674"/>
<feComposite in2="hardAlpha" operator="out"/>
<feColorMatrix type="matrix" values="0 0 0 0 0.71676 0 0 0 0 0.806105 0 0 0 0 0.939171 0 0 0 1 0"/>
<feBlend mode="normal" in2="BackgroundImageFix" result="effect1_dropShadow_150_3407"/>
<feBlend mode="normal" in="SourceGraphic" in2="effect1_dropShadow_150_3407" result="shape"/>
</filter>
<filter id="filter7_d_150_3407" x="439.814" y="274.633" width="14.4483" height="14.4483" filterUnits="userSpaceOnUse" color-interpolation-filters="sRGB">
<feFlood flood-opacity="0" result="BackgroundImageFix"/>
<feColorMatrix in="SourceAlpha" type="matrix" values="0 0 0 0 0 0 0 0 0 0 0 0 0 0 0 0 0 0 127 0" result="hardAlpha"/>
<feMorphology radius="2.62696" operator="dilate" in="SourceAlpha" result="effect1_dropShadow_150_3407"/>
<feOffset/>
<feGaussianBlur stdDeviation="0.65674"/>
<feComposite in2="hardAlpha" operator="out"/>
<feColorMatrix type="matrix" values="0 0 0 0 0.71676 0 0 0 0 0.806105 0 0 0 0 0.939171 0 0 0 1 0"/>
<feBlend mode="normal" in2="BackgroundImageFix" result="effect1_dropShadow_150_3407"/>
<feBlend mode="normal" in="SourceGraphic" in2="effect1_dropShadow_150_3407" result="shape"/>
</filter>
</defs>
</svg>
