<svg width="498" height="463" viewBox="0 0 498 463" fill="none" xmlns="http://www.w3.org/2000/svg">
<rect y="0.00964355" width="498" height="462.27" rx="14.0752" fill="white"/>
<path d="M26.0068 41.53H23.0378L28.4435 26.1752H31.8773L37.2905 41.53H34.3215L30.2204 29.3242H30.1004L26.0068 41.53ZM26.1043 35.5096H34.2016V37.7438H26.1043V35.5096ZM47.614 30.0139L43.5129 41.53H40.5139L36.4128 30.0139H39.3068L41.9534 38.5685H42.0734L44.7275 30.0139H47.614ZM53.7764 41.755C52.6218 41.755 51.6246 41.515 50.7849 41.0352C49.9502 40.5504 49.3079 39.8656 48.858 38.9809C48.4082 38.0912 48.1833 37.044 48.1833 35.8395C48.1833 34.6549 48.4082 33.6152 48.858 32.7205C49.3129 31.8208 49.9477 31.1211 50.7624 30.6212C51.5771 30.1164 52.5343 29.864 53.6339 29.864C54.3437 29.864 55.0135 29.9789 55.6432 30.2089C56.278 30.4338 56.8378 30.7837 57.3227 31.2585C57.8125 31.7333 58.1974 32.3381 58.4773 33.0729C58.7572 33.8026 58.8971 34.6724 58.8971 35.682V36.5142H49.4578V34.6848H56.2955C56.2905 34.165 56.1781 33.7027 55.9581 33.2978C55.7382 32.888 55.4308 32.5656 55.0359 32.3306C54.6461 32.0957 54.1912 31.9783 53.6714 31.9783C53.1166 31.9783 52.6293 32.1132 52.2094 32.3831C51.7895 32.648 51.4622 32.9979 51.2272 33.4328C50.9973 33.8626 50.8799 34.335 50.8749 34.8498V36.4468C50.8749 37.1165 50.9973 37.6913 51.2422 38.1712C51.4872 38.646 51.8295 39.0109 52.2694 39.2658C52.7092 39.5157 53.2241 39.6407 53.8139 39.6407C54.2087 39.6407 54.5661 39.5857 54.886 39.4757C55.2059 39.3608 55.4833 39.1933 55.7182 38.9734C55.9531 38.7535 56.1306 38.4811 56.2505 38.1562L58.7847 38.4411C58.6247 39.1108 58.3198 39.6957 57.87 40.1955C57.4251 40.6903 56.8553 41.0752 56.1606 41.3501C55.4658 41.62 54.6711 41.755 53.7764 41.755ZM60.771 41.53V30.0139H63.4026V31.9333H63.5225C63.7325 31.2685 64.0924 30.7562 64.6022 30.3963C65.117 30.0314 65.7043 29.849 66.3641 29.849C66.514 29.849 66.6815 29.8565 66.8664 29.8715C67.0564 29.8815 67.2138 29.899 67.3388 29.924V32.4206C67.2238 32.3806 67.0414 32.3456 66.7914 32.3156C66.5465 32.2807 66.3091 32.2632 66.0792 32.2632C65.5844 32.2632 65.1395 32.3706 64.7446 32.5856C64.3548 32.7955 64.0474 33.0879 63.8224 33.4628C63.5975 33.8376 63.4851 34.27 63.4851 34.7598V41.53H60.771ZM71.8273 41.7625C71.0976 41.7625 70.4403 41.6325 69.8555 41.3726C69.2757 41.1077 68.8159 40.7178 68.476 40.203C68.1411 39.6882 67.9736 39.0534 67.9736 38.2986C67.9736 37.6488 68.0936 37.1115 68.3335 36.6867C68.5734 36.2618 68.9008 35.9219 69.3157 35.667C69.7306 35.4121 70.1979 35.2197 70.7177 35.0897C71.2425 34.9548 71.7849 34.8573 72.3447 34.7973C73.0194 34.7273 73.5668 34.6649 73.9866 34.6099C74.4065 34.5499 74.7114 34.4599 74.9013 34.34C75.0962 34.215 75.1937 34.0226 75.1937 33.7627V33.7177C75.1937 33.1529 75.0263 32.7155 74.6914 32.4056C74.3565 32.0957 73.8741 31.9408 73.2444 31.9408C72.5796 31.9408 72.0523 32.0857 71.6624 32.3756C71.2775 32.6655 71.0176 33.0079 70.8827 33.4028L68.3485 33.0429C68.5485 32.3431 68.8783 31.7583 69.3382 31.2885C69.798 30.8137 70.3603 30.4588 71.0251 30.2239C71.6899 29.9839 72.4246 29.864 73.2294 29.864C73.7842 29.864 74.3365 29.929 74.8863 30.0589C75.4361 30.1889 75.9384 30.4038 76.3933 30.7037C76.8481 30.9986 77.213 31.401 77.4879 31.9108C77.7678 32.4206 77.9078 33.0579 77.9078 33.8226V41.53H75.2987V39.9481H75.2087C75.0438 40.268 74.8113 40.5679 74.5114 40.8478C74.2165 41.1227 73.8442 41.3451 73.3943 41.515C72.9495 41.68 72.4271 41.7625 71.8273 41.7625ZM72.5321 39.7681C73.0769 39.7681 73.5493 39.6607 73.9491 39.4457C74.349 39.2258 74.6564 38.9359 74.8713 38.576C75.0912 38.2162 75.2012 37.8238 75.2012 37.3989V36.0419C75.1162 36.1119 74.9713 36.1768 74.7663 36.2368C74.5664 36.2968 74.3415 36.3493 74.0916 36.3943C73.8417 36.4393 73.5942 36.4792 73.3493 36.5142C73.1044 36.5492 72.892 36.5792 72.712 36.6042C72.3072 36.6592 71.9448 36.7491 71.6249 36.8741C71.305 36.9991 71.0526 37.174 70.8677 37.3989C70.6827 37.6189 70.5903 37.9038 70.5903 38.2536C70.5903 38.7535 70.7727 39.1308 71.1376 39.3858C71.5025 39.6407 71.9673 39.7681 72.5321 39.7681ZM85.2229 46.0885C84.2482 46.0885 83.411 45.956 82.7113 45.6911C82.0115 45.4312 81.4492 45.0813 81.0243 44.6415C80.5995 44.2016 80.3046 43.7143 80.1396 43.1795L82.5838 42.5872C82.6938 42.8121 82.8537 43.0345 83.0636 43.2544C83.2736 43.4794 83.556 43.6643 83.9108 43.8093C84.2707 43.9592 84.7231 44.0342 85.2679 44.0342C86.0376 44.0342 86.6749 43.8467 87.1797 43.4719C87.6846 43.102 87.937 42.4922 87.937 41.6425V39.4607H87.802C87.6621 39.7406 87.4571 40.028 87.1872 40.3229C86.9223 40.6178 86.5699 40.8653 86.1301 41.0652C85.6952 41.2651 85.1479 41.3651 84.4882 41.3651C83.6035 41.3651 82.8012 41.1577 82.0815 40.7428C81.3667 40.3229 80.7969 39.6981 80.372 38.8684C79.9522 38.0337 79.7423 36.9891 79.7423 35.7345C79.7423 34.4699 79.9522 33.4028 80.372 32.5331C80.7969 31.6584 81.3692 30.9961 82.089 30.5462C82.8087 30.0914 83.611 29.864 84.4957 29.864C85.1704 29.864 85.7252 29.9789 86.1601 30.2089C86.5999 30.4338 86.9498 30.7062 87.2097 31.0261C87.4696 31.341 87.6671 31.6384 87.802 31.9183H87.952V30.0139H90.6286V41.7175C90.6286 42.7021 90.3937 43.5169 89.9238 44.1616C89.454 44.8064 88.8117 45.2888 87.997 45.6086C87.1822 45.9285 86.2576 46.0885 85.2229 46.0885ZM85.2454 39.2358C85.8202 39.2358 86.31 39.0959 86.7149 38.8159C87.1198 38.536 87.4272 38.1337 87.6371 37.6089C87.847 37.084 87.952 36.4542 87.952 35.7195C87.952 34.9947 87.847 34.36 87.6371 33.8151C87.4322 33.2703 87.1273 32.848 86.7224 32.5481C86.3225 32.2432 85.8302 32.0907 85.2454 32.0907C84.6406 32.0907 84.1358 32.2482 83.7309 32.5631C83.326 32.878 83.0212 33.3103 82.8162 33.8601C82.6113 34.4049 82.5088 35.0247 82.5088 35.7195C82.5088 36.4243 82.6113 37.0415 82.8162 37.5714C83.0261 38.0962 83.3335 38.5061 83.7384 38.801C84.1483 39.0909 84.6506 39.2358 85.2454 39.2358ZM98.0861 41.755C96.9315 41.755 95.9344 41.515 95.0947 41.0352C94.2599 40.5504 93.6177 39.8656 93.1678 38.9809C92.718 38.0912 92.493 37.044 92.493 35.8395C92.493 34.6549 92.718 33.6152 93.1678 32.7205C93.6227 31.8208 94.2574 31.1211 95.0722 30.6212C95.8869 30.1164 96.8441 29.864 97.9437 29.864C98.6535 29.864 99.3232 29.9789 99.953 30.2089C100.588 30.4338 101.148 30.7837 101.632 31.2585C102.122 31.7333 102.507 32.3381 102.787 33.0729C103.067 33.8026 103.207 34.6724 103.207 35.682V36.5142H93.7676V34.6848H100.605C100.6 34.165 100.488 33.7027 100.268 33.2978C100.048 32.888 99.7406 32.5656 99.3457 32.3306C98.9559 32.0957 98.501 31.9783 97.9812 31.9783C97.4264 31.9783 96.939 32.1132 96.5192 32.3831C96.0993 32.648 95.7719 32.9979 95.537 33.4328C95.3071 33.8626 95.1896 34.335 95.1846 34.8498V36.4468C95.1846 37.1165 95.3071 37.6913 95.552 38.1712C95.7969 38.646 96.1393 39.0109 96.5792 39.2658C97.019 39.5157 97.5338 39.6407 98.1236 39.6407C98.5185 39.6407 98.8759 39.5857 99.1958 39.4757C99.5157 39.3608 99.7931 39.1933 100.028 38.9734C100.263 38.7535 100.44 38.4811 100.56 38.1562L103.094 38.4411C102.935 39.1108 102.63 39.6957 102.18 40.1955C101.735 40.6903 101.165 41.0752 100.47 41.3501C99.7756 41.62 98.9808 41.755 98.0861 41.755Z" fill="#323232"/>
<path d="M376.386 40.53V27.2225H380.882C381.922 27.2225 382.775 27.4001 383.442 27.7554C384.11 28.1062 384.603 28.5892 384.924 29.2044C385.245 29.8195 385.405 30.5191 385.405 31.3032C385.405 32.0872 385.245 32.7825 384.924 33.3889C384.603 33.9954 384.112 34.4719 383.449 34.8185C382.786 35.1607 381.939 35.3318 380.908 35.3318H377.27V33.8763H380.856C381.567 33.8763 382.139 33.7723 382.572 33.5644C383.009 33.3565 383.326 33.0619 383.52 32.6807C383.72 32.2952 383.819 31.836 383.819 31.3032C383.819 30.7703 383.72 30.3047 383.52 29.9061C383.321 29.5076 383.003 29.2 382.565 28.9834C382.128 28.7625 381.549 28.652 380.83 28.652H377.997V40.53H376.386ZM382.65 34.5521L385.925 40.53H384.053L380.83 34.5521H382.65ZM391.411 40.738C390.449 40.738 389.619 40.5257 388.922 40.1012C388.229 39.6723 387.694 39.0745 387.317 38.3078C386.944 37.5367 386.758 36.64 386.758 35.6177C386.758 34.5954 386.944 33.6943 387.317 32.9146C387.694 32.1305 388.218 31.5197 388.889 31.0822C389.565 30.6404 390.354 30.4195 391.255 30.4195C391.774 30.4195 392.288 30.5061 392.795 30.6794C393.301 30.8526 393.763 31.1342 394.179 31.5241C394.594 31.9096 394.926 32.4208 395.173 33.0576C395.42 33.6943 395.543 34.4784 395.543 35.4098V36.0595H387.85V34.734H393.984C393.984 34.1708 393.871 33.6684 393.646 33.2265C393.425 32.7847 393.109 32.4359 392.697 32.1804C392.29 31.9248 391.809 31.797 391.255 31.797C390.644 31.797 390.115 31.9486 389.669 32.2518C389.227 32.5507 388.887 32.9406 388.649 33.4214C388.411 33.9023 388.292 34.4178 388.292 34.9679V35.8516C388.292 36.6054 388.422 37.2443 388.681 37.7685C388.946 38.2883 389.312 38.6847 389.78 38.9576C390.247 39.2261 390.791 39.3604 391.411 39.3604C391.813 39.3604 392.177 39.3041 392.502 39.1915C392.831 39.0745 393.115 38.9012 393.353 38.6717C393.592 38.4377 393.776 38.1475 393.906 37.801L395.387 38.2168C395.231 38.7193 394.969 39.1612 394.601 39.5424C394.233 39.9192 393.778 40.2138 393.236 40.4261C392.695 40.634 392.086 40.738 391.411 40.738ZM400.264 40.764C399.631 40.764 399.057 40.6448 398.542 40.4066C398.027 40.164 397.617 39.8153 397.314 39.3604C397.011 38.9012 396.859 38.3468 396.859 37.697C396.859 37.1252 396.972 36.6617 397.197 36.3065C397.422 35.9469 397.723 35.6653 398.1 35.4617C398.477 35.2581 398.893 35.1065 399.348 35.0069C399.807 34.9029 400.268 34.8206 400.732 34.76C401.338 34.682 401.83 34.6235 402.207 34.5845C402.588 34.5412 402.865 34.4697 403.038 34.3701C403.216 34.2705 403.305 34.0972 403.305 33.8503V33.7983C403.305 33.1572 403.129 32.659 402.779 32.3038C402.432 31.9486 401.906 31.771 401.2 31.771C400.468 31.771 399.894 31.9313 399.478 32.2518C399.062 32.5724 398.769 32.9146 398.6 33.2785L397.145 32.7587C397.405 32.1522 397.751 31.68 398.185 31.3421C398.622 30.9999 399.099 30.7617 399.614 30.6274C400.134 30.4888 400.645 30.4195 401.148 30.4195C401.468 30.4195 401.836 30.4584 402.252 30.5364C402.672 30.6101 403.077 30.7638 403.467 30.9978C403.862 31.2317 404.189 31.5847 404.449 32.0569C404.708 32.5291 404.838 33.1615 404.838 33.9543V40.53H403.305V39.1785H403.227C403.123 39.3951 402.95 39.6268 402.707 39.8738C402.465 40.1207 402.142 40.3308 401.739 40.504C401.336 40.6773 400.844 40.764 400.264 40.764ZM400.498 39.3864C401.104 39.3864 401.615 39.2673 402.031 39.029C402.452 38.7908 402.768 38.4832 402.98 38.1063C403.197 37.7295 403.305 37.3331 403.305 36.9173V35.5137C403.24 35.5917 403.097 35.6632 402.876 35.7282C402.659 35.7888 402.408 35.8429 402.122 35.8906C401.841 35.9339 401.566 35.9729 401.297 36.0076C401.033 36.0379 400.818 36.0639 400.654 36.0855C400.255 36.1375 399.883 36.222 399.536 36.3389C399.194 36.4516 398.917 36.6227 398.704 36.8523C398.497 37.0775 398.393 37.3851 398.393 37.775C398.393 38.3078 398.59 38.7106 398.984 38.9836C399.382 39.2521 399.887 39.3864 400.498 39.3864ZM408.622 27.2225V40.53H407.088V27.2225H408.622ZM414.959 28.652V27.2225H424.94V28.652H420.755V40.53H419.144V28.652H414.959ZM426.67 40.53V30.5494H428.203V40.53H426.67ZM427.45 28.886C427.151 28.886 426.893 28.7842 426.676 28.5806C426.464 28.377 426.358 28.1322 426.358 27.8463C426.358 27.5604 426.464 27.3157 426.676 27.1121C426.893 26.9085 427.151 26.8067 427.45 26.8067C427.749 26.8067 428.004 26.9085 428.216 27.1121C428.433 27.3157 428.541 27.5604 428.541 27.8463C428.541 28.1322 428.433 28.377 428.216 28.5806C428.004 28.7842 427.749 28.886 427.45 28.886ZM430.463 40.53V30.5494H431.945V32.1089H432.075C432.282 31.5761 432.618 31.1624 433.082 30.8678C433.545 30.5689 434.102 30.4195 434.752 30.4195C435.41 30.4195 435.958 30.5689 436.396 30.8678C436.837 31.1624 437.182 31.5761 437.429 32.1089H437.533C437.788 31.5934 438.172 31.184 438.683 30.8808C439.194 30.5732 439.807 30.4195 440.522 30.4195C441.414 30.4195 442.144 30.6989 442.711 31.2577C443.279 31.8121 443.563 32.6764 443.563 33.8503V40.53H442.029V33.8503C442.029 33.1139 441.828 32.5876 441.425 32.2713C441.022 31.9551 440.548 31.797 440.002 31.797C439.3 31.797 438.756 32.0092 438.371 32.4338C437.985 32.854 437.793 33.3868 437.793 34.0322V40.53H436.233V33.6943C436.233 33.1269 436.049 32.6699 435.681 32.3233C435.313 31.9724 434.838 31.797 434.258 31.797C433.859 31.797 433.487 31.9031 433.14 32.1154C432.798 32.3276 432.521 32.6222 432.308 32.9991C432.101 33.3716 431.997 33.8026 431.997 34.2921V40.53H430.463ZM450.002 40.738C449.04 40.738 448.211 40.5257 447.513 40.1012C446.82 39.6723 446.285 39.0745 445.908 38.3078C445.536 37.5367 445.35 36.64 445.35 35.6177C445.35 34.5954 445.536 33.6943 445.908 32.9146C446.285 32.1305 446.81 31.5197 447.481 31.0822C448.157 30.6404 448.945 30.4195 449.846 30.4195C450.366 30.4195 450.879 30.5061 451.386 30.6794C451.893 30.8526 452.354 31.1342 452.77 31.5241C453.186 31.9096 453.517 32.4208 453.764 33.0576C454.011 33.6943 454.135 34.4784 454.135 35.4098V36.0595H446.441V34.734H452.575C452.575 34.1708 452.463 33.6684 452.237 33.2265C452.016 32.7847 451.7 32.4359 451.289 32.1804C450.881 31.9248 450.401 31.797 449.846 31.797C449.235 31.797 448.707 31.9486 448.261 32.2518C447.819 32.5507 447.479 32.9406 447.241 33.4214C447.002 33.9023 446.883 34.4178 446.883 34.9679V35.8516C446.883 36.6054 447.013 37.2443 447.273 37.7685C447.537 38.2883 447.903 38.6847 448.371 38.9576C448.839 39.2261 449.383 39.3604 450.002 39.3604C450.405 39.3604 450.769 39.3041 451.094 39.1915C451.423 39.0745 451.707 38.9012 451.945 38.6717C452.183 38.4377 452.367 38.1475 452.497 37.801L453.979 38.2168C453.823 38.7193 453.561 39.1612 453.193 39.5424C452.824 39.9192 452.369 40.2138 451.828 40.4261C451.287 40.634 450.678 40.738 450.002 40.738Z" fill="black" fill-opacity="0.32"/>
<g clip-path="url(#clip0_150_3308)">
<path d="M460.7 33.2142L465.627 38.1405L470.553 33.2142" stroke="#BFBFBF" stroke-width="1.64211" stroke-linecap="round" stroke-linejoin="round"/>
</g>
<path d="M29.3515 89.6568V101.941H27.4922V91.5162H27.4202L24.4812 93.4356V91.6602L27.5461 89.6568H29.3515ZM32.3366 101.941V100.597L36.4932 96.2906C36.937 95.8227 37.3029 95.4129 37.5908 95.061C37.8827 94.7051 38.1007 94.3672 38.2446 94.0473C38.3886 93.7275 38.4605 93.3876 38.4605 93.0277C38.4605 92.6198 38.3646 92.2679 38.1726 91.972C37.9807 91.6722 37.7188 91.4422 37.3869 91.2823C37.055 91.1183 36.6811 91.0364 36.2653 91.0364C35.8254 91.0364 35.4416 91.1263 35.1137 91.3063C34.7858 91.4862 34.5339 91.7401 34.3579 92.068C34.182 92.3959 34.094 92.7798 34.094 93.2196H32.3246C32.3246 92.4719 32.4965 91.8181 32.8404 91.2583C33.1843 90.6985 33.6562 90.2646 34.256 89.9567C34.8558 89.6448 35.5375 89.4889 36.3013 89.4889C37.073 89.4889 37.7528 89.6428 38.3406 89.9507C38.9324 90.2546 39.3942 90.6705 39.7261 91.1983C40.058 91.7221 40.2239 92.3139 40.2239 92.9737C40.2239 93.4296 40.138 93.8754 39.966 94.3113C39.7981 94.7471 39.5042 95.2329 39.0843 95.7688C38.6645 96.3006 38.0807 96.9464 37.3329 97.7061L34.8917 100.261V100.351H40.4219V101.941H32.3366ZM46.6338 102.145C45.6862 102.141 44.8764 101.891 44.2047 101.395C43.5329 100.899 43.0191 100.177 42.6632 99.2296C42.3073 98.2819 42.1294 97.1403 42.1294 95.8048C42.1294 94.4732 42.3073 93.3356 42.6632 92.3919C43.0231 91.4482 43.5389 90.7285 44.2107 90.2326C44.8864 89.7368 45.6942 89.4889 46.6338 89.4889C47.5735 89.4889 48.3793 89.7388 49.051 90.2386C49.7228 90.7345 50.2366 91.4542 50.5925 92.3979C50.9524 93.3376 51.1323 94.4732 51.1323 95.8048C51.1323 97.1443 50.9544 98.2879 50.5985 99.2356C50.2426 100.179 49.7288 100.901 49.057 101.401C48.3853 101.897 47.5775 102.145 46.6338 102.145ZM46.6338 100.543C47.4656 100.543 48.1153 100.137 48.5832 99.3256C49.055 98.5138 49.2909 97.3402 49.2909 95.8048C49.2909 94.7851 49.183 93.9234 48.9671 93.2196C48.7551 92.5119 48.4492 91.976 48.0494 91.6122C47.6535 91.2443 47.1817 91.0604 46.6338 91.0604C45.8061 91.0604 45.1563 91.4682 44.6845 92.2839C44.2127 93.0997 43.9747 94.2733 43.9707 95.8048C43.9707 96.8284 44.0767 97.6941 44.2886 98.4019C44.5046 99.1056 44.8105 99.6395 45.2063 100.003C45.6022 100.363 46.078 100.543 46.6338 100.543Z" fill="#868686"/>
<path d="M28.8072 135.177V147.461H26.9478V137.037H26.8759L23.9369 138.956V137.181L27.0018 135.177H28.8072ZM36.0688 147.665C35.1212 147.661 34.3114 147.411 33.6397 146.915C32.9679 146.419 32.4541 145.698 32.0982 144.75C31.7423 143.802 31.5644 142.661 31.5644 141.325C31.5644 139.994 31.7423 138.856 32.0982 137.912C32.4581 136.969 32.9739 136.249 33.6457 135.753C34.3214 135.257 35.1292 135.009 36.0688 135.009C37.0085 135.009 37.8142 135.259 38.486 135.759C39.1578 136.255 39.6716 136.975 40.0275 137.918C40.3874 138.858 40.5673 139.994 40.5673 141.325C40.5673 142.665 40.3894 143.808 40.0335 144.756C39.6776 145.7 39.1638 146.421 38.492 146.921C37.8202 147.417 37.0125 147.665 36.0688 147.665ZM36.0688 146.064C36.9006 146.064 37.5503 145.658 38.0182 144.846C38.49 144.034 38.7259 142.861 38.7259 141.325C38.7259 140.305 38.618 139.444 38.4021 138.74C38.1901 138.032 37.8842 137.496 37.4844 137.133C37.0885 136.765 36.6167 136.581 36.0688 136.581C35.2411 136.581 34.5913 136.989 34.1195 137.804C33.6477 138.62 33.4097 139.794 33.4057 141.325C33.4057 142.349 33.5117 143.214 33.7236 143.922C33.9396 144.626 34.2455 145.16 34.6413 145.524C35.0372 145.884 35.513 146.064 36.0688 146.064ZM46.6338 147.665C45.6862 147.661 44.8764 147.411 44.2047 146.915C43.5329 146.419 43.0191 145.698 42.6632 144.75C42.3073 143.802 42.1294 142.661 42.1294 141.325C42.1294 139.994 42.3073 138.856 42.6632 137.912C43.0231 136.969 43.5389 136.249 44.2107 135.753C44.8864 135.257 45.6942 135.009 46.6338 135.009C47.5735 135.009 48.3793 135.259 49.051 135.759C49.7228 136.255 50.2366 136.975 50.5925 137.918C50.9524 138.858 51.1323 139.994 51.1323 141.325C51.1323 142.665 50.9544 143.808 50.5985 144.756C50.2426 145.7 49.7288 146.421 49.057 146.921C48.3853 147.417 47.5775 147.665 46.6338 147.665ZM46.6338 146.064C47.4656 146.064 48.1153 145.658 48.5832 144.846C49.055 144.034 49.2909 142.861 49.2909 141.325C49.2909 140.305 49.183 139.444 48.9671 138.74C48.7551 138.032 48.4492 137.496 48.0494 137.133C47.6535 136.765 47.1817 136.581 46.6338 136.581C45.8061 136.581 45.1563 136.989 44.6845 137.804C44.2127 138.62 43.9747 139.794 43.9707 141.325C43.9707 142.349 44.0767 143.214 44.2886 143.922C44.5046 144.626 44.8105 145.16 45.2063 145.524C45.6022 145.884 46.078 146.064 46.6338 146.064Z" fill="#868686"/>
<path d="M33.5917 192.981L38.9539 182.377V182.287H32.752V180.698H40.8732V182.341L35.529 192.981H33.5917ZM46.6338 193.185C45.6862 193.181 44.8764 192.931 44.2047 192.436C43.5329 191.94 43.0191 191.218 42.6632 190.27C42.3073 189.323 42.1294 188.181 42.1294 186.846C42.1294 185.514 42.3073 184.376 42.6632 183.433C43.0231 182.489 43.5389 181.769 44.2107 181.273C44.8864 180.778 45.6942 180.53 46.6338 180.53C47.5735 180.53 48.3793 180.78 49.051 181.279C49.7228 181.775 50.2366 182.495 50.5925 183.439C50.9524 184.378 51.1323 185.514 51.1323 186.846C51.1323 188.185 50.9544 189.329 50.5985 190.276C50.2426 191.22 49.7288 191.942 49.057 192.442C48.3853 192.937 47.5775 193.185 46.6338 193.185ZM46.6338 191.584C47.4656 191.584 48.1153 191.178 48.5832 190.366C49.055 189.555 49.2909 188.381 49.2909 186.846C49.2909 185.826 49.183 184.964 48.9671 184.26C48.7551 183.553 48.4492 183.017 48.0494 182.653C47.6535 182.285 47.1817 182.101 46.6338 182.101C45.8061 182.101 45.1563 182.509 44.6845 183.325C44.2127 184.14 43.9747 185.314 43.9707 186.846C43.9707 187.869 44.0767 188.735 44.2886 189.443C44.5046 190.146 44.8105 190.68 45.2063 191.044C45.6022 191.404 46.078 191.584 46.6338 191.584Z" fill="#868686"/>
<path d="M36.2458 238.67C35.698 238.662 35.1581 238.562 34.6263 238.37C34.0985 238.178 33.6187 237.858 33.1868 237.41C32.755 236.962 32.4091 236.361 32.1492 235.605C31.8933 234.849 31.7653 233.905 31.7653 232.774C31.7653 231.702 31.8713 230.75 32.0832 229.919C32.2991 229.087 32.609 228.385 33.0129 227.813C33.4167 227.238 33.9046 226.8 34.4764 226.5C35.0482 226.2 35.69 226.05 36.4017 226.05C37.1335 226.05 37.7833 226.194 38.3511 226.482C38.9189 226.77 39.3787 227.168 39.7306 227.675C40.0865 228.183 40.3124 228.761 40.4084 229.409H38.579C38.455 228.897 38.2091 228.479 37.8412 228.155C37.4734 227.831 36.9935 227.669 36.4017 227.669C35.502 227.669 34.8003 228.061 34.2964 228.845C33.7966 229.629 33.5447 230.718 33.5407 232.114H33.6307C33.8426 231.766 34.1025 231.47 34.4104 231.226C34.7223 230.978 35.0702 230.788 35.454 230.656C35.8419 230.521 36.2498 230.453 36.6776 230.453C37.3894 230.453 38.0332 230.626 38.609 230.974C39.1888 231.318 39.6506 231.794 39.9945 232.402C40.3384 233.01 40.5103 233.705 40.5103 234.489C40.5103 235.273 40.3324 235.983 39.9765 236.618C39.6246 237.254 39.1288 237.758 38.489 238.13C37.8492 238.498 37.1015 238.678 36.2458 238.67ZM36.2398 237.11C36.7116 237.11 37.1335 236.994 37.5054 236.762C37.8772 236.53 38.1711 236.219 38.3871 235.827C38.603 235.435 38.7109 234.997 38.7109 234.513C38.7109 234.041 38.605 233.611 38.3931 233.224C38.1851 232.836 37.8972 232.528 37.5293 232.3C37.1655 232.072 36.7496 231.958 36.2818 231.958C35.9259 231.958 35.596 232.026 35.2921 232.162C34.9922 232.298 34.7283 232.486 34.5004 232.726C34.2724 232.966 34.0925 233.242 33.9606 233.553C33.8326 233.861 33.7686 234.187 33.7686 234.531C33.7686 234.991 33.8746 235.417 34.0865 235.809C34.3024 236.201 34.5963 236.516 34.9682 236.756C35.3441 236.992 35.7679 237.11 36.2398 237.11ZM46.6338 238.706C45.6862 238.702 44.8764 238.452 44.2047 237.956C43.5329 237.46 43.0191 236.738 42.6632 235.791C42.3073 234.843 42.1294 233.701 42.1294 232.366C42.1294 231.034 42.3073 229.897 42.6632 228.953C43.0231 228.009 43.5389 227.29 44.2107 226.794C44.8864 226.298 45.6942 226.05 46.6338 226.05C47.5735 226.05 48.3793 226.3 49.051 226.8C49.7228 227.296 50.2366 228.015 50.5925 228.959C50.9524 229.899 51.1323 231.034 51.1323 232.366C51.1323 233.705 50.9544 234.849 50.5985 235.797C50.2426 236.74 49.7288 237.462 49.057 237.962C48.3853 238.458 47.5775 238.706 46.6338 238.706ZM46.6338 237.104C47.4656 237.104 48.1153 236.698 48.5832 235.887C49.055 235.075 49.2909 233.901 49.2909 232.366C49.2909 231.346 49.183 230.485 48.9671 229.781C48.7551 229.073 48.4492 228.537 48.0494 228.173C47.6535 227.805 47.1817 227.621 46.6338 227.621C45.8061 227.621 45.1563 228.029 44.6845 228.845C44.2127 229.661 43.9747 230.834 43.9707 232.366C43.9707 233.39 44.0767 234.255 44.2886 234.963C44.5046 235.667 44.8105 236.201 45.2063 236.564C45.6022 236.924 46.078 237.104 46.6338 237.104Z" fill="#868686"/>
<path d="M31.3859 281.623V280.124L36.6941 271.738H37.8757V273.946H37.126L33.3293 279.956V280.052H40.6048V281.623H31.3859ZM37.21 284.022V281.167L37.222 280.483V271.738H38.9794V284.022H37.21ZM46.6338 284.226C45.6862 284.222 44.8764 283.972 44.2047 283.476C43.5329 282.981 43.0191 282.259 42.6632 281.311C42.3073 280.363 42.1294 279.222 42.1294 277.886C42.1294 276.555 42.3073 275.417 42.6632 274.473C43.0231 273.53 43.5389 272.81 44.2107 272.314C44.8864 271.818 45.6942 271.57 46.6338 271.57C47.5735 271.57 48.3793 271.82 49.051 272.32C49.7228 272.816 50.2366 273.536 50.5925 274.479C50.9524 275.419 51.1323 276.555 51.1323 277.886C51.1323 279.226 50.9544 280.369 50.5985 281.317C50.2426 282.261 49.7288 282.983 49.057 283.482C48.3852 283.978 47.5775 284.226 46.6338 284.226ZM46.6338 282.625C47.4656 282.625 48.1153 282.219 48.5832 281.407C49.055 280.595 49.2909 279.422 49.2909 277.886C49.2909 276.867 49.183 276.005 48.9671 275.301C48.7551 274.593 48.4492 274.058 48.0494 273.694C47.6535 273.326 47.1817 273.142 46.6338 273.142C45.8061 273.142 45.1563 273.55 44.6845 274.365C44.2127 275.181 43.9747 276.355 43.9707 277.886C43.9707 278.91 44.0767 279.776 44.2886 280.483C44.5046 281.187 44.8105 281.721 45.2063 282.085C45.6022 282.445 46.078 282.625 46.6338 282.625Z" fill="#868686"/>
<rect x="72.8789" y="101.079" width="6.72445" height="32.2774" rx="3.36223" fill="#ED5D5E"/>
<rect x="72.8789" y="138.736" width="6.72445" height="32.2774" rx="3.36223" fill="#ED5D5E"/>
<rect x="72.8789" y="176.393" width="6.72445" height="32.2774" rx="3.36223" fill="#ED5D5E"/>
<rect x="164.332" y="142.771" width="6.72445" height="32.2774" rx="3.36223" fill="#ED5D5E"/>
<rect x="164.332" y="180.428" width="6.72445" height="32.2774" rx="3.36223" fill="#ED5D5E"/>
<rect x="164.332" y="218.085" width="6.72445" height="32.2774" rx="3.36223" fill="#ED5D5E"/>
<rect x="255.783" y="142.771" width="6.72445" height="32.2774" rx="3.36223" fill="#ED5D5E"/>
<rect x="255.783" y="180.428" width="6.72445" height="32.2774" rx="3.36223" fill="#ED5D5E"/>
<rect x="255.783" y="218.085" width="6.72445" height="32.2774" rx="3.36223" fill="#ED5D5E"/>
<rect x="370.1" y="173.703" width="6.72445" height="32.2774" rx="3.36223" fill="#ED5D5E"/>
<rect x="370.1" y="211.36" width="6.72445" height="32.2774" rx="3.36223" fill="#ED5D5E"/>
<rect x="370.1" y="249.017" width="6.72445" height="32.2774" rx="3.36223" fill="#ED5D5E"/>
<rect x="415.825" y="134.702" width="6.72445" height="32.2774" rx="3.36223" fill="#ED5D5E"/>
<rect x="415.825" y="172.358" width="6.72445" height="32.2774" rx="3.36223" fill="#ED5D5E"/>
<rect x="415.825" y="210.015" width="6.72445" height="32.2774" rx="3.36223" fill="#ED5D5E"/>
<rect x="141.468" y="180.428" width="6.72445" height="32.2774" rx="3.36223" fill="#D5D5D5"/>
<rect x="141.468" y="218.085" width="6.72445" height="32.2774" rx="3.36223" fill="#D5D5D5"/>
<rect x="141.468" y="255.742" width="6.72445" height="32.2774" rx="3.36223" fill="#D5D5D5"/>
<rect x="210.058" y="149.495" width="6.72445" height="32.2774" rx="3.36223" fill="#D5D5D5"/>
<rect x="210.058" y="187.152" width="6.72445" height="32.2774" rx="3.36223" fill="#D5D5D5"/>
<rect x="210.058" y="224.809" width="6.72445" height="32.2774" rx="3.36223" fill="#D5D5D5"/>
<rect x="392.963" y="161.599" width="6.72445" height="32.2774" rx="3.36223" fill="#D5D5D5"/>
<rect x="392.963" y="199.256" width="6.72445" height="32.2774" rx="3.36223" fill="#D5D5D5"/>
<rect x="392.963" y="236.913" width="6.72445" height="32.2774" rx="3.36223" fill="#D5D5D5"/>
<rect x="95.7422" y="164.289" width="6.72445" height="32.2774" rx="3.36223" fill="#D5D5D5"/>
<rect x="95.7422" y="201.946" width="6.72445" height="32.2774" rx="3.36223" fill="#D5D5D5"/>
<rect x="232.921" y="188.497" width="6.72445" height="32.2774" rx="3.36223" fill="#D5D5D5"/>
<rect x="232.921" y="226.154" width="6.72445" height="32.2774" rx="3.36223" fill="#D5D5D5"/>
<rect x="187.194" y="162.944" width="6.72445" height="32.2774" rx="3.36223" fill="#D5D5D5"/>
<rect x="187.194" y="200.601" width="6.72445" height="32.2774" rx="3.36223" fill="#D5D5D5"/>
<rect x="278.646" y="150.84" width="6.72445" height="32.2774" rx="3.36223" fill="#D5D5D5"/>
<rect x="278.646" y="188.497" width="6.72445" height="32.2774" rx="3.36223" fill="#D5D5D5"/>
<rect x="301.511" y="161.599" width="6.72445" height="32.2774" rx="3.36223" fill="#D5D5D5"/>
<rect x="301.511" y="199.256" width="6.72445" height="32.2774" rx="3.36223" fill="#D5D5D5"/>
<rect x="438.689" y="172.358" width="6.72445" height="32.2774" rx="3.36223" fill="#D5D5D5"/>
<rect x="438.689" y="210.015" width="6.72445" height="32.2774" rx="3.36223" fill="#D5D5D5"/>
<rect x="347.236" y="183.118" width="6.72445" height="32.2774" rx="3.36223" fill="#D5D5D5"/>
<rect x="347.236" y="220.775" width="6.72445" height="32.2774" rx="3.36223" fill="#D5D5D5"/>
<rect x="118.604" y="173.703" width="6.72445" height="32.2774" rx="3.36223" fill="#ED5D5E"/>
<rect x="118.604" y="211.36" width="6.72445" height="32.2774" rx="3.36223" fill="#ED5D5E"/>
<rect x="461.553" y="184.463" width="6.72445" height="32.2774" rx="3.36223" fill="#ED5D5E"/>
<rect x="461.553" y="222.119" width="6.72445" height="32.2774" rx="3.36223" fill="#ED5D5E"/>
<rect x="324.373" y="172.358" width="6.72445" height="32.2774" rx="3.36223" fill="#ED5D5E"/>
<rect x="324.373" y="210.015" width="6.72445" height="32.2774" rx="3.36223" fill="#ED5D5E"/>
<path d="M49.2849 325.559C49.8784 325.563 50.4632 325.671 51.0393 325.884C51.6155 326.096 52.1353 326.442 52.5988 326.923C53.0666 327.404 53.4392 328.054 53.7164 328.873C53.998 329.687 54.1409 330.701 54.1453 331.914C54.1453 333.079 54.0283 334.116 53.7944 335.026C53.5605 335.931 53.2247 336.696 52.7872 337.32C52.354 337.943 51.8277 338.418 51.2083 338.743C50.5888 339.068 49.8914 339.23 49.116 339.23C48.3232 339.23 47.6193 339.074 47.0042 338.762C46.3891 338.45 45.8887 338.019 45.5032 337.469C45.1177 336.915 44.8772 336.278 44.7819 335.559H46.7638C46.8937 336.131 47.158 336.594 47.5565 336.949C47.9594 337.3 48.4792 337.476 49.116 337.476C50.0906 337.476 50.8509 337.051 51.3967 336.202C51.9425 335.349 52.2176 334.157 52.2219 332.628H52.1179C51.8927 333.001 51.6111 333.321 51.2732 333.59C50.9397 333.859 50.565 334.066 50.1491 334.214C49.7333 334.361 49.2892 334.435 48.8171 334.435C48.0503 334.435 47.3529 334.246 46.7248 333.869C46.0967 333.492 45.5963 332.975 45.2238 332.316C44.8512 331.658 44.665 330.906 44.665 330.062C44.665 329.221 44.8556 328.459 45.2368 327.774C45.6223 327.09 46.1595 326.548 46.8482 326.15C47.5413 325.747 48.3536 325.55 49.2849 325.559ZM49.2914 327.248C48.7846 327.248 48.3276 327.374 47.9204 327.625C47.5175 327.872 47.1991 328.208 46.9652 328.632C46.7313 329.052 46.6143 329.52 46.6143 330.036C46.6143 330.551 46.7269 331.019 46.9522 331.439C47.1818 331.855 47.4937 332.186 47.8879 332.433C48.2864 332.676 48.7413 332.797 49.2524 332.797C49.6336 332.797 49.9888 332.724 50.3181 332.576C50.6473 332.429 50.9354 332.225 51.1823 331.965C51.4292 331.701 51.622 331.402 51.7606 331.069C51.8992 330.735 51.9685 330.384 51.9685 330.016C51.9685 329.527 51.8515 329.072 51.6176 328.652C51.388 328.231 51.0718 327.894 50.6689 327.638C50.2661 327.378 49.8069 327.248 49.2914 327.248ZM57.4327 337.398C57.0775 337.398 56.7721 337.272 56.5165 337.021C56.2609 336.765 56.1331 336.458 56.1331 336.098C56.1331 335.743 56.2609 335.44 56.5165 335.188C56.7721 334.933 57.0775 334.805 57.4327 334.805C57.7879 334.805 58.0933 334.933 58.3489 335.188C58.6045 335.44 58.7323 335.743 58.7323 336.098C58.7323 336.336 58.6716 336.555 58.5503 336.754C58.4334 336.949 58.2774 337.105 58.0825 337.222C57.8875 337.339 57.6709 337.398 57.4327 337.398ZM57.4327 330.731C57.0775 330.731 56.7721 330.605 56.5165 330.354C56.2609 330.098 56.1331 329.791 56.1331 329.431C56.1331 329.076 56.2609 328.773 56.5165 328.522C56.7721 328.266 57.0775 328.138 57.4327 328.138C57.7879 328.138 58.0933 328.266 58.3489 328.522C58.6045 328.773 58.7323 329.076 58.7323 329.431C58.7323 329.67 58.6716 329.888 58.5503 330.088C58.4334 330.283 58.2774 330.439 58.0825 330.555C57.8875 330.672 57.6709 330.731 57.4327 330.731ZM65.9915 325.741V339.048H63.9771V327.755H63.8992L60.7153 329.834V327.911L64.0356 325.741H65.9915ZM73.8582 339.269C72.8316 339.265 71.9544 338.994 71.2266 338.457C70.4989 337.92 69.9422 337.138 69.5567 336.111C69.1711 335.084 68.9784 333.848 68.9784 332.401C68.9784 330.958 69.1711 329.726 69.5567 328.704C69.9465 327.681 70.5054 326.902 71.2331 326.364C71.9652 325.827 72.8402 325.559 73.8582 325.559C74.8762 325.559 75.7491 325.829 76.4768 326.371C77.2046 326.908 77.7612 327.688 78.1468 328.71C78.5366 329.728 78.7316 330.958 78.7316 332.401C78.7316 333.852 78.5388 335.091 78.1533 336.118C77.7677 337.14 77.2111 337.922 76.4833 338.463C75.7556 339 74.8805 339.269 73.8582 339.269ZM73.8582 337.534C74.7593 337.534 75.4632 337.094 75.97 336.215C76.4812 335.336 76.7368 334.064 76.7368 332.401C76.7368 331.296 76.6198 330.363 76.3859 329.6C76.1563 328.834 75.8249 328.253 75.3917 327.859C74.9629 327.46 74.4517 327.261 73.8582 327.261C72.9615 327.261 72.2576 327.703 71.7464 328.587C71.2353 329.47 70.9775 330.742 70.9732 332.401C70.9732 333.51 71.088 334.448 71.3176 335.214C71.5515 335.977 71.8829 336.555 72.3117 336.949C72.7406 337.339 73.2561 337.534 73.8582 337.534Z" fill="#676767"/>
<path d="M107.167 325.559C107.761 325.563 108.345 325.671 108.921 325.884C109.498 326.096 110.017 326.442 110.481 326.923C110.949 327.404 111.321 328.054 111.599 328.873C111.88 329.687 112.023 330.701 112.027 331.914C112.027 333.079 111.91 334.116 111.677 335.026C111.443 335.931 111.107 336.696 110.669 337.32C110.236 337.943 109.71 338.418 109.09 338.743C108.471 339.068 107.774 339.23 106.998 339.23C106.205 339.23 105.501 339.074 104.886 338.762C104.271 338.45 103.771 338.019 103.385 337.469C103 336.915 102.759 336.278 102.664 335.559H104.646C104.776 336.131 105.04 336.594 105.439 336.949C105.842 337.3 106.361 337.476 106.998 337.476C107.973 337.476 108.733 337.051 109.279 336.202C109.825 335.349 110.1 334.157 110.104 332.628H110C109.775 333.001 109.493 333.321 109.155 333.59C108.822 333.859 108.447 334.066 108.031 334.214C107.615 334.361 107.171 334.435 106.699 334.435C105.933 334.435 105.235 334.246 104.607 333.869C103.979 333.492 103.479 332.975 103.106 332.316C102.733 331.658 102.547 330.906 102.547 330.062C102.547 329.221 102.738 328.459 103.119 327.774C103.504 327.09 104.042 326.548 104.73 326.15C105.424 325.747 106.236 325.55 107.167 325.559ZM107.174 327.248C106.667 327.248 106.21 327.374 105.803 327.625C105.4 327.872 105.081 328.208 104.847 328.632C104.613 329.052 104.496 329.52 104.496 330.036C104.496 330.551 104.609 331.019 104.834 331.439C105.064 331.855 105.376 332.186 105.77 332.433C106.169 332.676 106.623 332.797 107.135 332.797C107.516 332.797 107.871 332.724 108.2 332.576C108.529 332.429 108.818 332.225 109.064 331.965C109.311 331.701 109.504 331.402 109.643 331.069C109.781 330.735 109.851 330.384 109.851 330.016C109.851 329.527 109.734 329.072 109.5 328.652C109.27 328.231 108.954 327.894 108.551 327.638C108.148 327.378 107.689 327.248 107.174 327.248ZM115.315 337.398C114.96 337.398 114.654 337.272 114.399 337.021C114.143 336.765 114.015 336.458 114.015 336.098C114.015 335.743 114.143 335.44 114.399 335.188C114.654 334.933 114.96 334.805 115.315 334.805C115.67 334.805 115.975 334.933 116.231 335.188C116.487 335.44 116.614 335.743 116.614 336.098C116.614 336.336 116.554 336.555 116.432 336.754C116.316 336.949 116.16 337.105 115.965 337.222C115.77 337.339 115.553 337.398 115.315 337.398ZM115.315 330.731C114.96 330.731 114.654 330.605 114.399 330.354C114.143 330.098 114.015 329.791 114.015 329.431C114.015 329.076 114.143 328.773 114.399 328.522C114.654 328.266 114.96 328.138 115.315 328.138C115.67 328.138 115.975 328.266 116.231 328.522C116.487 328.773 116.614 329.076 116.614 329.431C116.614 329.67 116.554 329.888 116.432 330.088C116.316 330.283 116.16 330.439 115.965 330.555C115.77 330.672 115.553 330.731 115.315 330.731ZM123.874 325.741V339.048H121.859V327.755H121.781L118.597 329.834V327.911L121.918 325.741H123.874ZM132.156 325.741V339.048H130.142V327.755H130.064L126.88 329.834V327.911L130.2 325.741H132.156Z" fill="#676767"/>
<path d="M162.181 325.559C162.775 325.563 163.36 325.671 163.936 325.884C164.512 326.096 165.032 326.442 165.495 326.923C165.963 327.404 166.336 328.054 166.613 328.873C166.894 329.687 167.037 330.701 167.042 331.914C167.042 333.079 166.925 334.116 166.691 335.026C166.457 335.931 166.121 336.696 165.684 337.32C165.25 337.943 164.724 338.418 164.105 338.743C163.485 339.068 162.788 339.23 162.012 339.23C161.22 339.23 160.516 339.074 159.901 338.762C159.285 338.45 158.785 338.019 158.4 337.469C158.014 336.915 157.774 336.278 157.678 335.559H159.66C159.79 336.131 160.054 336.594 160.453 336.949C160.856 337.3 161.376 337.476 162.012 337.476C162.987 337.476 163.747 337.051 164.293 336.202C164.839 335.349 165.114 334.157 165.118 332.628H165.014C164.789 333.001 164.508 333.321 164.17 333.59C163.836 333.859 163.461 334.066 163.046 334.214C162.63 334.361 162.186 334.435 161.713 334.435C160.947 334.435 160.249 334.246 159.621 333.869C158.993 333.492 158.493 332.975 158.12 332.316C157.748 331.658 157.561 330.906 157.561 330.062C157.561 329.221 157.752 328.459 158.133 327.774C158.519 327.09 159.056 326.548 159.745 326.15C160.438 325.747 161.25 325.55 162.181 325.559ZM162.188 327.248C161.681 327.248 161.224 327.374 160.817 327.625C160.414 327.872 160.096 328.208 159.862 328.632C159.628 329.052 159.511 329.52 159.511 330.036C159.511 330.551 159.623 331.019 159.849 331.439C160.078 331.855 160.39 332.186 160.784 332.433C161.183 332.676 161.638 332.797 162.149 332.797C162.53 332.797 162.885 332.724 163.214 332.576C163.544 332.429 163.832 332.225 164.079 331.965C164.326 331.701 164.518 331.402 164.657 331.069C164.796 330.735 164.865 330.384 164.865 330.016C164.865 329.527 164.748 329.072 164.514 328.652C164.284 328.231 163.968 327.894 163.565 327.638C163.162 327.378 162.703 327.248 162.188 327.248ZM170.329 337.398C169.974 337.398 169.668 337.272 169.413 337.021C169.157 336.765 169.03 336.458 169.03 336.098C169.03 335.743 169.157 335.44 169.413 335.188C169.668 334.933 169.974 334.805 170.329 334.805C170.684 334.805 170.99 334.933 171.245 335.188C171.501 335.44 171.629 335.743 171.629 336.098C171.629 336.336 171.568 336.555 171.447 336.754C171.33 336.949 171.174 337.105 170.979 337.222C170.784 337.339 170.567 337.398 170.329 337.398ZM170.329 330.731C169.974 330.731 169.668 330.605 169.413 330.354C169.157 330.098 169.03 329.791 169.03 329.431C169.03 329.076 169.157 328.773 169.413 328.522C169.668 328.266 169.974 328.138 170.329 328.138C170.684 328.138 170.99 328.266 171.245 328.522C171.501 328.773 171.629 329.076 171.629 329.431C171.629 329.67 171.568 329.888 171.447 330.088C171.33 330.283 171.174 330.439 170.979 330.555C170.784 330.672 170.567 330.731 170.329 330.731ZM178.888 325.741V339.048H176.874V327.755H176.796L173.612 329.834V327.911L176.932 325.741H178.888ZM182.122 339.048V337.593L186.625 332.927C187.106 332.42 187.502 331.976 187.814 331.595C188.13 331.21 188.366 330.844 188.522 330.497C188.678 330.15 188.756 329.782 188.756 329.392C188.756 328.951 188.652 328.569 188.444 328.249C188.236 327.924 187.952 327.675 187.593 327.502C187.233 327.324 186.828 327.235 186.378 327.235C185.901 327.235 185.485 327.333 185.13 327.527C184.775 327.722 184.502 327.998 184.311 328.353C184.121 328.708 184.026 329.124 184.026 329.6H182.109C182.109 328.79 182.295 328.082 182.668 327.476C183.04 326.869 183.551 326.399 184.201 326.065C184.851 325.728 185.589 325.559 186.417 325.559C187.253 325.559 187.989 325.725 188.626 326.059C189.267 326.388 189.767 326.839 190.127 327.411C190.487 327.978 190.666 328.619 190.666 329.334C190.666 329.828 190.573 330.311 190.387 330.783C190.205 331.255 189.887 331.781 189.432 332.362C188.977 332.938 188.344 333.638 187.534 334.461L184.89 337.229V337.326H190.881V339.048H182.122Z" fill="#676767"/>
<path d="M218.196 325.559C218.79 325.563 219.374 325.671 219.951 325.884C220.527 326.096 221.047 326.442 221.51 326.923C221.978 327.404 222.35 328.054 222.628 328.873C222.909 329.687 223.052 330.701 223.057 331.914C223.057 333.079 222.94 334.116 222.706 335.026C222.472 335.931 222.136 336.696 221.699 337.32C221.265 337.943 220.739 338.418 220.12 338.743C219.5 339.068 218.803 339.23 218.027 339.23C217.235 339.23 216.531 339.074 215.915 338.762C215.3 338.45 214.8 338.019 214.414 337.469C214.029 336.915 213.789 336.278 213.693 335.559H215.675C215.805 336.131 216.069 336.594 216.468 336.949C216.871 337.3 217.39 337.476 218.027 337.476C219.002 337.476 219.762 337.051 220.308 336.202C220.854 335.349 221.129 334.157 221.133 332.628H221.029C220.804 333.001 220.522 333.321 220.185 333.59C219.851 333.859 219.476 334.066 219.06 334.214C218.645 334.361 218.201 334.435 217.728 334.435C216.962 334.435 216.264 334.246 215.636 333.869C215.008 333.492 214.508 332.975 214.135 332.316C213.763 331.658 213.576 330.906 213.576 330.062C213.576 329.221 213.767 328.459 214.148 327.774C214.534 327.09 215.071 326.548 215.76 326.15C216.453 325.747 217.265 325.55 218.196 325.559ZM218.203 327.248C217.696 327.248 217.239 327.374 216.832 327.625C216.429 327.872 216.11 328.208 215.876 328.632C215.643 329.052 215.526 329.52 215.526 330.036C215.526 330.551 215.638 331.019 215.863 331.439C216.093 331.855 216.405 332.186 216.799 332.433C217.198 332.676 217.653 332.797 218.164 332.797C218.545 332.797 218.9 332.724 219.229 332.576C219.559 332.429 219.847 332.225 220.094 331.965C220.34 331.701 220.533 331.402 220.672 331.069C220.81 330.735 220.88 330.384 220.88 330.016C220.88 329.527 220.763 329.072 220.529 328.652C220.299 328.231 219.983 327.894 219.58 327.638C219.177 327.378 218.718 327.248 218.203 327.248ZM226.344 337.398C225.989 337.398 225.683 337.272 225.428 337.021C225.172 336.765 225.044 336.458 225.044 336.098C225.044 335.743 225.172 335.44 225.428 335.188C225.683 334.933 225.989 334.805 226.344 334.805C226.699 334.805 227.005 334.933 227.26 335.188C227.516 335.44 227.644 335.743 227.644 336.098C227.644 336.336 227.583 336.555 227.462 336.754C227.345 336.949 227.189 337.105 226.994 337.222C226.799 337.339 226.582 337.398 226.344 337.398ZM226.344 330.731C225.989 330.731 225.683 330.605 225.428 330.354C225.172 330.098 225.044 329.791 225.044 329.431C225.044 329.076 225.172 328.773 225.428 328.522C225.683 328.266 225.989 328.138 226.344 328.138C226.699 328.138 227.005 328.266 227.26 328.522C227.516 328.773 227.644 329.076 227.644 329.431C227.644 329.67 227.583 329.888 227.462 330.088C227.345 330.283 227.189 330.439 226.994 330.555C226.799 330.672 226.582 330.731 226.344 330.731ZM234.903 325.741V339.048H232.888V327.755H232.81L229.627 329.834V327.911L232.947 325.741H234.903ZM242.77 339.23C241.877 339.23 241.08 339.076 240.378 338.769C239.681 338.461 239.129 338.034 238.721 337.489C238.319 336.938 238.102 336.302 238.072 335.578H240.112C240.138 335.972 240.27 336.315 240.508 336.605C240.751 336.891 241.067 337.112 241.457 337.268C241.847 337.424 242.28 337.502 242.757 337.502C243.281 337.502 243.744 337.411 244.147 337.229C244.554 337.047 244.873 336.793 245.102 336.468C245.332 336.139 245.447 335.76 245.447 335.331C245.447 334.885 245.332 334.493 245.102 334.155C244.877 333.813 244.546 333.544 244.108 333.35C243.675 333.155 243.151 333.057 242.536 333.057H241.411V331.42H242.536C243.029 331.42 243.463 331.331 243.835 331.153C244.212 330.976 244.507 330.729 244.719 330.413C244.931 330.092 245.037 329.717 245.037 329.288C245.037 328.877 244.944 328.519 244.758 328.216C244.576 327.909 244.316 327.668 243.978 327.495C243.645 327.322 243.25 327.235 242.795 327.235C242.362 327.235 241.957 327.315 241.58 327.476C241.208 327.631 240.905 327.857 240.671 328.151C240.437 328.442 240.311 328.79 240.294 329.197H238.351C238.373 328.478 238.585 327.846 238.988 327.3C239.395 326.754 239.932 326.328 240.599 326.02C241.266 325.712 242.007 325.559 242.821 325.559C243.675 325.559 244.411 325.725 245.031 326.059C245.655 326.388 246.135 326.828 246.473 327.378C246.815 327.928 246.984 328.53 246.98 329.184C246.984 329.93 246.776 330.562 246.356 331.082C245.94 331.602 245.386 331.95 244.693 332.128V332.232C245.577 332.366 246.261 332.717 246.746 333.285C247.236 333.852 247.478 334.556 247.474 335.396C247.478 336.128 247.275 336.785 246.863 337.365C246.456 337.946 245.899 338.403 245.193 338.736C244.487 339.065 243.679 339.23 242.77 339.23Z" fill="#676767"/>
<path d="M274.409 325.559C275.002 325.563 275.587 325.671 276.163 325.884C276.739 326.096 277.259 326.442 277.722 326.923C278.19 327.404 278.563 328.054 278.84 328.873C279.122 329.687 279.265 330.701 279.269 331.914C279.269 333.079 279.152 334.116 278.918 335.026C278.684 335.931 278.348 336.696 277.911 337.32C277.478 337.943 276.951 338.418 276.332 338.743C275.712 339.068 275.015 339.23 274.24 339.23C273.447 339.23 272.743 339.074 272.128 338.762C271.513 338.45 271.012 338.019 270.627 337.469C270.241 336.915 270.001 336.278 269.906 335.559H271.887C272.017 336.131 272.282 336.594 272.68 336.949C273.083 337.3 273.603 337.476 274.24 337.476C275.214 337.476 275.975 337.051 276.52 336.202C277.066 335.349 277.341 334.157 277.346 332.628H277.242C277.016 333.001 276.735 333.321 276.397 333.59C276.063 333.859 275.689 334.066 275.273 334.214C274.857 334.361 274.413 334.435 273.941 334.435C273.174 334.435 272.477 334.246 271.848 333.869C271.22 333.492 270.72 332.975 270.347 332.316C269.975 331.658 269.789 330.906 269.789 330.062C269.789 329.221 269.979 328.459 270.36 327.774C270.746 327.09 271.283 326.548 271.972 326.15C272.665 325.747 273.477 325.55 274.409 325.559ZM274.415 327.248C273.908 327.248 273.451 327.374 273.044 327.625C272.641 327.872 272.323 328.208 272.089 328.632C271.855 329.052 271.738 329.52 271.738 330.036C271.738 330.551 271.851 331.019 272.076 331.439C272.305 331.855 272.617 332.186 273.012 332.433C273.41 332.676 273.865 332.797 274.376 332.797C274.757 332.797 275.113 332.724 275.442 332.576C275.771 332.429 276.059 332.225 276.306 331.965C276.553 331.701 276.746 331.402 276.884 331.069C277.023 330.735 277.092 330.384 277.092 330.016C277.092 329.527 276.975 329.072 276.741 328.652C276.512 328.231 276.195 327.894 275.793 327.638C275.39 327.378 274.931 327.248 274.415 327.248ZM282.556 337.398C282.201 337.398 281.896 337.272 281.64 337.021C281.385 336.765 281.257 336.458 281.257 336.098C281.257 335.743 281.385 335.44 281.64 335.188C281.896 334.933 282.201 334.805 282.556 334.805C282.912 334.805 283.217 334.933 283.473 335.188C283.728 335.44 283.856 335.743 283.856 336.098C283.856 336.336 283.795 336.555 283.674 336.754C283.557 336.949 283.401 337.105 283.206 337.222C283.011 337.339 282.795 337.398 282.556 337.398ZM282.556 330.731C282.201 330.731 281.896 330.605 281.64 330.354C281.385 330.098 281.257 329.791 281.257 329.431C281.257 329.076 281.385 328.773 281.64 328.522C281.896 328.266 282.201 328.138 282.556 328.138C282.912 328.138 283.217 328.266 283.473 328.522C283.728 328.773 283.856 329.076 283.856 329.431C283.856 329.67 283.795 329.888 283.674 330.088C283.557 330.283 283.401 330.439 283.206 330.555C283.011 330.672 282.795 330.731 282.556 330.731ZM291.115 325.741V339.048H289.101V327.755H289.023L285.839 329.834V327.911L289.159 325.741H291.115ZM294.07 336.449V334.825L299.82 325.741H301.1V328.132H300.288L296.175 334.643V334.747H304.057V336.449H294.07ZM300.379 339.048V335.955L300.392 335.214V325.741H302.296V339.048H300.379Z" fill="#676767"/>
<path d="M331.022 325.559C331.616 325.563 332.2 325.671 332.776 325.884C333.353 326.096 333.872 326.442 334.336 326.923C334.804 327.404 335.176 328.054 335.454 328.873C335.735 329.687 335.878 330.701 335.882 331.914C335.882 333.079 335.765 334.116 335.532 335.026C335.298 335.931 334.962 336.696 334.524 337.32C334.091 337.943 333.565 338.418 332.945 338.743C332.326 339.068 331.629 339.23 330.853 339.23C330.06 339.23 329.356 339.074 328.741 338.762C328.126 338.45 327.626 338.019 327.24 337.469C326.855 336.915 326.614 336.278 326.519 335.559H328.501C328.631 336.131 328.895 336.594 329.294 336.949C329.697 337.3 330.216 337.476 330.853 337.476C331.828 337.476 332.588 337.051 333.134 336.202C333.68 335.349 333.955 334.157 333.959 332.628H333.855C333.63 333.001 333.348 333.321 333.01 333.59C332.677 333.859 332.302 334.066 331.886 334.214C331.47 334.361 331.026 334.435 330.554 334.435C329.788 334.435 329.09 334.246 328.462 333.869C327.834 333.492 327.334 332.975 326.961 332.316C326.588 331.658 326.402 330.906 326.402 330.062C326.402 329.221 326.593 328.459 326.974 327.774C327.359 327.09 327.897 326.548 328.585 326.15C329.279 325.747 330.091 325.55 331.022 325.559ZM331.029 327.248C330.522 327.248 330.065 327.374 329.658 327.625C329.255 327.872 328.936 328.208 328.702 328.632C328.468 329.052 328.351 329.52 328.351 330.036C328.351 330.551 328.464 331.019 328.689 331.439C328.919 331.855 329.231 332.186 329.625 332.433C330.024 332.676 330.478 332.797 330.99 332.797C331.371 332.797 331.726 332.724 332.055 332.576C332.384 332.429 332.673 332.225 332.919 331.965C333.166 331.701 333.359 331.402 333.498 331.069C333.636 330.735 333.706 330.384 333.706 330.016C333.706 329.527 333.589 329.072 333.355 328.652C333.125 328.231 332.809 327.894 332.406 327.638C332.003 327.378 331.544 327.248 331.029 327.248ZM339.17 337.398C338.815 337.398 338.509 337.272 338.254 337.021C337.998 336.765 337.87 336.458 337.87 336.098C337.87 335.743 337.998 335.44 338.254 335.188C338.509 334.933 338.815 334.805 339.17 334.805C339.525 334.805 339.83 334.933 340.086 335.188C340.342 335.44 340.469 335.743 340.469 336.098C340.469 336.336 340.409 336.555 340.287 336.754C340.171 336.949 340.015 337.105 339.82 337.222C339.625 337.339 339.408 337.398 339.17 337.398ZM339.17 330.731C338.815 330.731 338.509 330.605 338.254 330.354C337.998 330.098 337.87 329.791 337.87 329.431C337.87 329.076 337.998 328.773 338.254 328.522C338.509 328.266 338.815 328.138 339.17 328.138C339.525 328.138 339.83 328.266 340.086 328.522C340.342 328.773 340.469 329.076 340.469 329.431C340.469 329.67 340.409 329.888 340.287 330.088C340.171 330.283 340.015 330.439 339.82 330.555C339.625 330.672 339.408 330.731 339.17 330.731ZM347.729 325.741V339.048H345.714V327.755H345.636L342.452 329.834V327.911L345.773 325.741H347.729ZM355.355 339.23C354.541 339.23 353.809 339.074 353.159 338.762C352.513 338.446 351.998 338.013 351.612 337.463C351.227 336.912 351.021 336.284 350.995 335.578H352.944C352.992 336.15 353.245 336.62 353.705 336.988C354.164 337.357 354.714 337.541 355.355 337.541C355.866 337.541 356.319 337.424 356.713 337.19C357.112 336.951 357.423 336.624 357.649 336.209C357.878 335.793 357.993 335.318 357.993 334.786C357.993 334.244 357.876 333.761 357.642 333.337C357.408 332.912 357.086 332.578 356.674 332.336C356.267 332.093 355.799 331.97 355.271 331.965C354.868 331.965 354.463 332.035 354.055 332.173C353.648 332.312 353.319 332.494 353.068 332.719L351.229 332.446L351.976 325.741H359.293V327.463H353.646L353.224 331.186H353.302C353.562 330.935 353.906 330.724 354.335 330.555C354.768 330.387 355.232 330.302 355.725 330.302C356.535 330.302 357.257 330.495 357.889 330.88C358.526 331.266 359.026 331.792 359.39 332.459C359.758 333.122 359.94 333.885 359.936 334.747C359.94 335.609 359.745 336.377 359.351 337.053C358.961 337.729 358.42 338.262 357.727 338.652C357.038 339.037 356.247 339.23 355.355 339.23Z" fill="#676767"/>
<path d="M387.18 325.559C387.773 325.563 388.358 325.671 388.934 325.884C389.51 326.096 390.03 326.442 390.494 326.923C390.962 327.404 391.334 328.054 391.611 328.873C391.893 329.687 392.036 330.701 392.04 331.914C392.04 333.079 391.923 334.116 391.689 335.026C391.455 335.931 391.12 336.696 390.682 337.32C390.249 337.943 389.723 338.418 389.103 338.743C388.484 339.068 387.786 339.23 387.011 339.23C386.218 339.23 385.514 339.074 384.899 338.762C384.284 338.45 383.784 338.019 383.398 337.469C383.013 336.915 382.772 336.278 382.677 335.559H384.659C384.789 336.131 385.053 336.594 385.452 336.949C385.854 337.3 386.374 337.476 387.011 337.476C387.986 337.476 388.746 337.051 389.292 336.202C389.838 335.349 390.113 334.157 390.117 332.628H390.013C389.788 333.001 389.506 333.321 389.168 333.59C388.835 333.859 388.46 334.066 388.044 334.214C387.628 334.361 387.184 334.435 386.712 334.435C385.945 334.435 385.248 334.246 384.62 333.869C383.992 333.492 383.491 332.975 383.119 332.316C382.746 331.658 382.56 330.906 382.56 330.062C382.56 329.221 382.751 328.459 383.132 327.774C383.517 327.09 384.054 326.548 384.743 326.15C385.436 325.747 386.249 325.55 387.18 325.559ZM387.186 327.248C386.68 327.248 386.223 327.374 385.815 327.625C385.413 327.872 385.094 328.208 384.86 328.632C384.626 329.052 384.509 329.52 384.509 330.036C384.509 330.551 384.622 331.019 384.847 331.439C385.077 331.855 385.389 332.186 385.783 332.433C386.181 332.676 386.636 332.797 387.147 332.797C387.529 332.797 387.884 332.724 388.213 332.576C388.542 332.429 388.83 332.225 389.077 331.965C389.324 331.701 389.517 331.402 389.656 331.069C389.794 330.735 389.864 330.384 389.864 330.016C389.864 329.527 389.747 329.072 389.513 328.652C389.283 328.231 388.967 327.894 388.564 327.638C388.161 327.378 387.702 327.248 387.186 327.248ZM395.328 337.398C394.972 337.398 394.667 337.272 394.412 337.021C394.156 336.765 394.028 336.458 394.028 336.098C394.028 335.743 394.156 335.44 394.412 335.188C394.667 334.933 394.972 334.805 395.328 334.805C395.683 334.805 395.988 334.933 396.244 335.188C396.499 335.44 396.627 335.743 396.627 336.098C396.627 336.336 396.567 336.555 396.445 336.754C396.328 336.949 396.172 337.105 395.977 337.222C395.783 337.339 395.566 337.398 395.328 337.398ZM395.328 330.731C394.972 330.731 394.667 330.605 394.412 330.354C394.156 330.098 394.028 329.791 394.028 329.431C394.028 329.076 394.156 328.773 394.412 328.522C394.667 328.266 394.972 328.138 395.328 328.138C395.683 328.138 395.988 328.266 396.244 328.522C396.499 328.773 396.627 329.076 396.627 329.431C396.627 329.67 396.567 329.888 396.445 330.088C396.328 330.283 396.172 330.439 395.977 330.555C395.783 330.672 395.566 330.731 395.328 330.731ZM403.886 325.741V339.048H401.872V327.755H401.794L398.61 329.834V327.911L401.931 325.741H403.886ZM411.766 339.23C411.173 339.221 410.588 339.113 410.012 338.905C409.44 338.697 408.92 338.351 408.452 337.865C407.985 337.38 407.61 336.728 407.328 335.91C407.051 335.091 406.912 334.069 406.912 332.843C406.912 331.682 407.027 330.651 407.257 329.75C407.491 328.849 407.826 328.088 408.264 327.469C408.701 326.845 409.23 326.371 409.849 326.046C410.469 325.721 411.164 325.559 411.935 325.559C412.728 325.559 413.432 325.715 414.047 326.027C414.662 326.338 415.16 326.769 415.541 327.32C415.927 327.87 416.172 328.496 416.276 329.197H414.294C414.16 328.643 413.893 328.19 413.495 327.839C413.096 327.489 412.576 327.313 411.935 327.313C410.961 327.313 410.2 327.738 409.654 328.587C409.113 329.436 408.84 330.616 408.836 332.128H408.933C409.163 331.751 409.444 331.431 409.778 331.166C410.116 330.898 410.493 330.692 410.909 330.549C411.329 330.402 411.771 330.328 412.234 330.328C413.005 330.328 413.703 330.516 414.326 330.893C414.954 331.266 415.455 331.781 415.827 332.44C416.2 333.098 416.386 333.852 416.386 334.701C416.386 335.55 416.193 336.319 415.808 337.008C415.427 337.697 414.89 338.242 414.196 338.645C413.503 339.044 412.693 339.239 411.766 339.23ZM411.76 337.541C412.271 337.541 412.728 337.415 413.131 337.164C413.534 336.912 413.852 336.575 414.086 336.15C414.32 335.726 414.437 335.251 414.437 334.727C414.437 334.216 414.322 333.75 414.092 333.33C413.867 332.91 413.555 332.576 413.157 332.329C412.763 332.082 412.312 331.959 411.805 331.959C411.42 331.959 411.062 332.033 410.733 332.18C410.408 332.327 410.122 332.531 409.875 332.791C409.628 333.051 409.434 333.35 409.291 333.687C409.152 334.021 409.083 334.374 409.083 334.747C409.083 335.245 409.197 335.706 409.427 336.131C409.661 336.555 409.979 336.897 410.382 337.157C410.789 337.413 411.249 337.541 411.76 337.541Z" fill="#676767"/>
<path d="M443.999 325.559C444.592 325.563 445.177 325.671 445.753 325.884C446.329 326.096 446.849 326.442 447.313 326.923C447.781 327.404 448.153 328.054 448.43 328.873C448.712 329.687 448.855 330.701 448.859 331.914C448.859 333.079 448.742 334.116 448.508 335.026C448.274 335.931 447.939 336.696 447.501 337.32C447.068 337.943 446.542 338.418 445.922 338.743C445.303 339.068 444.605 339.23 443.83 339.23C443.037 339.23 442.333 339.074 441.718 338.762C441.103 338.45 440.603 338.019 440.217 337.469C439.832 336.915 439.591 336.278 439.496 335.559H441.478C441.608 336.131 441.872 336.594 442.27 336.949C442.673 337.3 443.193 337.476 443.83 337.476C444.805 337.476 445.565 337.051 446.111 336.202C446.656 335.349 446.932 334.157 446.936 332.628H446.832C446.607 333.001 446.325 333.321 445.987 333.59C445.654 333.859 445.279 334.066 444.863 334.214C444.447 334.361 444.003 334.435 443.531 334.435C442.764 334.435 442.067 334.246 441.439 333.869C440.811 333.492 440.31 332.975 439.938 332.316C439.565 331.658 439.379 330.906 439.379 330.062C439.379 329.221 439.57 328.459 439.951 327.774C440.336 327.09 440.873 326.548 441.562 326.15C442.255 325.747 443.068 325.55 443.999 325.559ZM444.005 327.248C443.499 327.248 443.042 327.374 442.634 327.625C442.231 327.872 441.913 328.208 441.679 328.632C441.445 329.052 441.328 329.52 441.328 330.036C441.328 330.551 441.441 331.019 441.666 331.439C441.896 331.855 442.208 332.186 442.602 332.433C443 332.676 443.455 332.797 443.966 332.797C444.348 332.797 444.703 332.724 445.032 332.576C445.361 332.429 445.649 332.225 445.896 331.965C446.143 331.701 446.336 331.402 446.475 331.069C446.613 330.735 446.682 330.384 446.682 330.016C446.682 329.527 446.566 329.072 446.332 328.652C446.102 328.231 445.786 327.894 445.383 327.638C444.98 327.378 444.521 327.248 444.005 327.248ZM452.147 337.398C451.791 337.398 451.486 337.272 451.23 337.021C450.975 336.765 450.847 336.458 450.847 336.098C450.847 335.743 450.975 335.44 451.23 335.188C451.486 334.933 451.791 334.805 452.147 334.805C452.502 334.805 452.807 334.933 453.063 335.188C453.318 335.44 453.446 335.743 453.446 336.098C453.446 336.336 453.386 336.555 453.264 336.754C453.147 336.949 452.991 337.105 452.796 337.222C452.602 337.339 452.385 337.398 452.147 337.398ZM452.147 330.731C451.791 330.731 451.486 330.605 451.23 330.354C450.975 330.098 450.847 329.791 450.847 329.431C450.847 329.076 450.975 328.773 451.23 328.522C451.486 328.266 451.791 328.138 452.147 328.138C452.502 328.138 452.807 328.266 453.063 328.522C453.318 328.773 453.446 329.076 453.446 329.431C453.446 329.67 453.386 329.888 453.264 330.088C453.147 330.283 452.991 330.439 452.796 330.555C452.602 330.672 452.385 330.731 452.147 330.731ZM460.705 325.741V339.048H458.691V327.755H458.613L455.429 329.834V327.911L458.75 325.741H460.705ZM464.388 339.048L470.197 327.56V327.463H463.478V325.741H472.276V327.521L466.486 339.048H464.388Z" fill="#676767"/>
<mask id="path-62-inside-1_150_3308" fill="white">
<path d="M28.1504 366.568H489.818V439.76H28.1504V366.568Z"/>
</mask>
<path d="M28.1504 367.976H489.818V365.161H28.1504V367.976Z" fill="black" fill-opacity="0.04" mask="url(#path-62-inside-1_150_3308)"/>
<path d="M29.7249 409.664V395.333H38.7098V397.194H31.8871V401.561H38.241V403.415H31.8871V407.803H38.7938V409.664H29.7249ZM43.0816 398.916L45.4538 403.1L47.847 398.916H50.1352L46.7833 404.29L50.1632 409.664H47.875L45.4538 405.647L43.0396 409.664H40.7444L44.0892 404.29L40.7864 398.916H43.0816ZM52.2835 413.695V398.916H54.3268V400.658H54.5017C54.623 400.434 54.798 400.175 55.0265 399.881C55.2551 399.587 55.5724 399.331 55.9782 399.112C56.3841 398.888 56.9206 398.776 57.5877 398.776C58.4554 398.776 59.2298 398.995 59.9109 399.433C60.592 399.872 61.1261 400.504 61.5133 401.33C61.9052 402.156 62.1011 403.149 62.1011 404.311C62.1011 405.472 61.9075 406.468 61.5203 407.299C61.1331 408.125 60.6013 408.761 59.9249 409.209C59.2484 409.652 58.4764 409.874 57.6087 409.874C56.9556 409.874 56.4214 409.764 56.0062 409.545C55.5957 409.326 55.2738 409.069 55.0405 408.775C54.8073 408.481 54.6277 408.22 54.5017 407.992H54.3758V413.695H52.2835ZM54.3338 404.29C54.3338 405.046 54.4434 405.708 54.6627 406.277C54.8819 406.846 55.1992 407.292 55.6143 407.614C56.0295 407.931 56.538 408.09 57.1398 408.09C57.7649 408.09 58.2874 407.924 58.7073 407.593C59.1272 407.257 59.4444 406.802 59.659 406.228C59.8782 405.654 59.9879 405.008 59.9879 404.29C59.9879 403.581 59.8806 402.944 59.666 402.379C59.456 401.815 59.1388 401.37 58.7143 401.043C58.2944 400.716 57.7696 400.553 57.1398 400.553C56.5334 400.553 56.0202 400.709 55.6003 401.022C55.1852 401.335 54.8703 401.771 54.6557 402.331C54.4411 402.89 54.3338 403.543 54.3338 404.29ZM66.5376 395.333V409.664H64.4454V395.333H66.5376ZM73.8799 409.881C72.8723 409.881 71.9929 409.65 71.2418 409.188C70.4907 408.726 69.9076 408.08 69.4924 407.25C69.0772 406.419 68.8696 405.449 68.8696 404.339C68.8696 403.224 69.0772 402.249 69.4924 401.414C69.9076 400.579 70.4907 399.93 71.2418 399.468C71.9929 399.007 72.8723 398.776 73.8799 398.776C74.8876 398.776 75.7669 399.007 76.518 399.468C77.2691 399.93 77.8522 400.579 78.2674 401.414C78.6826 402.249 78.8902 403.224 78.8902 404.339C78.8902 405.449 78.6826 406.419 78.2674 407.25C77.8522 408.08 77.2691 408.726 76.518 409.188C75.7669 409.65 74.8876 409.881 73.8799 409.881ZM73.8869 408.125C74.54 408.125 75.0812 407.952 75.5104 407.607C75.9395 407.262 76.2568 406.802 76.462 406.228C76.672 405.654 76.7769 405.022 76.7769 404.332C76.7769 403.646 76.672 403.016 76.462 402.442C76.2568 401.864 75.9395 401.4 75.5104 401.05C75.0812 400.7 74.54 400.525 73.8869 400.525C73.2291 400.525 72.6833 400.7 72.2495 401.05C71.8203 401.4 71.5007 401.864 71.2908 402.442C71.0855 403.016 70.9829 403.646 70.9829 404.332C70.9829 405.022 71.0855 405.654 71.2908 406.228C71.5007 406.802 71.8203 407.262 72.2495 407.607C72.6833 407.952 73.2291 408.125 73.8869 408.125ZM81.2257 409.664V398.916H83.248V400.623H83.36C83.5559 400.045 83.9011 399.59 84.3956 399.259C84.8948 398.923 85.4592 398.755 86.089 398.755C86.2196 398.755 86.3736 398.759 86.5509 398.769C86.7328 398.778 86.8751 398.79 86.9777 398.804V400.805C86.8938 400.782 86.7445 400.756 86.5299 400.728C86.3153 400.695 86.1007 400.679 85.8861 400.679C85.3916 400.679 84.9507 400.784 84.5635 400.994C84.181 401.199 83.8778 401.486 83.6539 401.855C83.4299 402.219 83.318 402.634 83.318 403.1V409.664H81.2257ZM93.0359 409.881C91.977 409.881 91.0649 409.655 90.2999 409.202C89.5394 408.745 88.9516 408.104 88.5365 407.278C88.1259 406.447 87.9207 405.475 87.9207 404.36C87.9207 403.259 88.1259 402.289 88.5365 401.449C88.9516 400.609 89.5301 399.954 90.2719 399.482C91.0183 399.011 91.8906 398.776 92.889 398.776C93.4954 398.776 94.0832 398.876 94.6524 399.077C95.2215 399.277 95.7323 399.592 96.1849 400.021C96.6374 400.45 96.9943 401.008 97.2555 401.694C97.5167 402.375 97.6474 403.203 97.6474 404.178V404.92H89.1033V403.352H95.5971C95.5971 402.802 95.4851 402.314 95.2612 401.89C95.0372 401.46 94.7224 401.122 94.3165 400.875C93.9153 400.628 93.4441 400.504 92.903 400.504C92.3152 400.504 91.802 400.649 91.3635 400.938C90.9296 401.223 90.5938 401.596 90.3558 402.058C90.1226 402.515 90.006 403.012 90.006 403.548V404.773C90.006 405.491 90.1319 406.102 90.3838 406.606C90.6404 407.11 90.9973 407.495 91.4545 407.761C91.9116 408.022 92.4458 408.153 93.0569 408.153C93.4535 408.153 93.815 408.097 94.1416 407.985C94.4681 407.868 94.7503 407.695 94.9883 407.467C95.2262 407.238 95.4081 406.956 95.5341 406.62L97.5144 406.977C97.3558 407.56 97.0712 408.071 96.6607 408.509C96.2548 408.943 95.744 409.281 95.1282 409.524C94.5171 409.762 93.8197 409.881 93.0359 409.881ZM105.184 409.664V398.916H107.192V400.665H107.325C107.549 400.073 107.915 399.611 108.424 399.28C108.932 398.944 109.541 398.776 110.25 398.776C110.969 398.776 111.57 398.944 112.055 399.28C112.545 399.615 112.907 400.077 113.14 400.665H113.252C113.509 400.091 113.917 399.634 114.477 399.294C115.036 398.948 115.704 398.776 116.478 398.776C117.453 398.776 118.248 399.081 118.864 399.692C119.485 400.304 119.795 401.225 119.795 402.456V409.664H117.703V402.652C117.703 401.925 117.504 401.397 117.108 401.071C116.711 400.744 116.238 400.581 115.687 400.581C115.006 400.581 114.477 400.791 114.099 401.211C113.721 401.626 113.532 402.16 113.532 402.813V409.664H111.447V402.519C111.447 401.936 111.265 401.467 110.901 401.113C110.537 400.758 110.063 400.581 109.48 400.581C109.084 400.581 108.718 400.686 108.382 400.896C108.051 401.101 107.782 401.388 107.577 401.757C107.376 402.125 107.276 402.552 107.276 403.037V409.664H105.184ZM127.127 409.881C126.119 409.881 125.24 409.65 124.489 409.188C123.737 408.726 123.154 408.08 122.739 407.25C122.324 406.419 122.116 405.449 122.116 404.339C122.116 403.224 122.324 402.249 122.739 401.414C123.154 400.579 123.737 399.93 124.489 399.468C125.24 399.007 126.119 398.776 127.127 398.776C128.134 398.776 129.014 399.007 129.765 399.468C130.516 399.93 131.099 400.579 131.514 401.414C131.929 402.249 132.137 403.224 132.137 404.339C132.137 405.449 131.929 406.419 131.514 407.25C131.099 408.08 130.516 408.726 129.765 409.188C129.014 409.65 128.134 409.881 127.127 409.881ZM127.134 408.125C127.787 408.125 128.328 407.952 128.757 407.607C129.186 407.262 129.504 406.802 129.709 406.228C129.919 405.654 130.024 405.022 130.024 404.332C130.024 403.646 129.919 403.016 129.709 402.442C129.504 401.864 129.186 401.4 128.757 401.05C128.328 400.7 127.787 400.525 127.134 400.525C126.476 400.525 125.93 400.7 125.496 401.05C125.067 401.4 124.747 401.864 124.538 402.442C124.332 403.016 124.23 403.646 124.23 404.332C124.23 405.022 124.332 405.654 124.538 406.228C124.747 406.802 125.067 407.262 125.496 407.607C125.93 407.952 126.476 408.125 127.134 408.125ZM134.472 409.664V398.916H136.495V400.623H136.607C136.803 400.045 137.148 399.59 137.642 399.259C138.141 398.923 138.706 398.755 139.336 398.755C139.466 398.755 139.62 398.759 139.798 398.769C139.98 398.778 140.122 398.79 140.224 398.804V400.805C140.14 400.782 139.991 400.756 139.777 400.728C139.562 400.695 139.347 400.679 139.133 400.679C138.638 400.679 138.197 400.784 137.81 400.994C137.428 401.199 137.125 401.486 136.901 401.855C136.677 402.219 136.565 402.634 136.565 403.1V409.664H134.472ZM146.283 409.881C145.224 409.881 144.312 409.655 143.547 409.202C142.786 408.745 142.198 408.104 141.783 407.278C141.373 406.447 141.167 405.475 141.167 404.36C141.167 403.259 141.373 402.289 141.783 401.449C142.198 400.609 142.777 399.954 143.519 399.482C144.265 399.011 145.137 398.776 146.136 398.776C146.742 398.776 147.33 398.876 147.899 399.077C148.468 399.277 148.979 399.592 149.432 400.021C149.884 400.45 150.241 401.008 150.502 401.694C150.763 402.375 150.894 403.203 150.894 404.178V404.92H142.35V403.352H148.844C148.844 402.802 148.732 402.314 148.508 401.89C148.284 401.46 147.969 401.122 147.563 400.875C147.162 400.628 146.691 400.504 146.15 400.504C145.562 400.504 145.049 400.649 144.61 400.938C144.176 401.223 143.84 401.596 143.603 402.058C143.369 402.515 143.253 403.012 143.253 403.548V404.773C143.253 405.491 143.379 406.102 143.631 406.606C143.887 407.11 144.244 407.495 144.701 407.761C145.158 408.022 145.693 408.153 146.304 408.153C146.7 408.153 147.062 408.097 147.388 407.985C147.715 407.868 147.997 407.695 148.235 407.467C148.473 407.238 148.655 406.956 148.781 406.62L150.761 406.977C150.603 407.56 150.318 408.071 149.907 408.509C149.502 408.943 148.991 409.281 148.375 409.524C147.764 409.762 147.066 409.881 146.283 409.881Z" fill="#434343"/>
<g clip-path="url(#clip1_150_3308)">
<path d="M165.521 396.126L172.559 403.164L165.521 410.202" stroke="#434343" stroke-width="2.34587" stroke-linecap="round" stroke-linejoin="round"/>
</g>
<defs>
<clipPath id="clip0_150_3308">
<rect width="19.7053" height="19.7053" fill="white" transform="translate(455.774 25.8247)"/>
</clipPath>
<clipPath id="clip1_150_3308">
<rect width="28.1505" height="28.1505" fill="white" transform="translate(154.966 389.089)"/>
</clipPath>
</defs>
</svg>
