<svg width="101" height="101" viewBox="0 0 101 101" fill="none" xmlns="http://www.w3.org/2000/svg">
<path d="M0.568848 50.4444C0.568848 9.18882 9.41111 0.346558 50.6666 0.346558C91.9222 0.346558 100.764 9.18882 100.764 50.4444C100.764 91.6999 91.9222 100.542 50.6666 100.542C9.41111 100.542 0.568848 91.6999 0.568848 50.4444Z" fill="white"/>
<g clip-path="url(#clip0_141_496)">
<path opacity="0.4" d="M41.0416 33.7222C41.0416 31.4448 42.8893 29.5972 45.1666 29.5972H57.2065C57.3182 29.5972 57.4299 29.6058 57.5416 29.6144V39.9097C57.5416 41.8089 59.0799 43.3472 60.9791 43.3472H71.2744C71.2916 43.4589 71.2916 43.5706 71.2916 43.6823V66.7222C71.2916 68.9995 69.444 70.8472 67.1666 70.8472C60.7471 70.8472 54.3362 70.8472 47.9166 70.8472V63.9722C48.0283 63.9292 48.1315 63.8862 48.2432 63.8433C48.8276 63.5854 49.4721 63.173 50.0135 62.5112C50.5635 61.8323 50.8815 61.0331 50.9932 60.1823C51.0362 59.8729 51.0619 59.6925 51.0877 59.5722C51.1823 59.4948 51.3283 59.3745 51.569 59.1854C53.2791 57.862 53.8979 55.5589 53.0729 53.5565C52.9526 53.2729 52.8924 53.0925 52.8494 52.9808C52.8924 52.8604 52.9526 52.6886 53.0729 52.405C53.8893 50.4026 53.2791 48.0995 51.569 46.7761C51.3283 46.587 51.1823 46.4667 51.0877 46.3894C51.0619 46.269 51.0362 46.08 50.9932 45.7792C50.701 43.6394 49.0166 41.9464 46.8768 41.6628C46.5674 41.6198 46.3869 41.594 46.2666 41.5683C46.1893 41.4737 46.069 41.3276 45.8799 41.087C44.7283 39.6003 42.8377 38.9386 41.0502 39.3339L41.0416 33.7222Z" fill="#1E4E79"/>
<path d="M41.0417 39.3167V33.7222C41.0417 31.4448 42.8893 29.5972 45.1667 29.5972H57.2065C57.3182 29.5972 57.4299 29.6058 57.5417 29.6144V39.9097C57.5417 41.8089 59.0799 43.3472 60.9792 43.3472H71.2745C71.2917 43.4589 71.2917 43.5706 71.2917 43.6823V66.7222C71.2917 68.9995 69.444 70.8472 67.1667 70.8472H47.9167C47.9167 71.3198 47.8307 71.7839 47.6846 72.2222H67.1667C70.2003 72.2222 72.6667 69.7558 72.6667 66.7222V43.6823C72.6667 42.5909 72.2284 41.5425 71.4549 40.769L60.1284 29.4339C59.3549 28.6604 58.3065 28.2222 57.2151 28.2222H45.1667C42.1331 28.2222 39.6667 30.6886 39.6667 33.7222V39.8323L39.6753 39.8237C39.8042 39.7636 40.019 39.6519 40.2424 39.5659C40.5003 39.4628 40.7753 39.3769 41.0417 39.3167ZM70.4838 41.7401C70.5612 41.8175 70.6299 41.8948 70.6901 41.9722H60.9792C59.8362 41.9722 58.9167 41.0526 58.9167 39.9097V30.1901C59.0026 30.2589 59.0799 30.3276 59.1487 30.3964L70.4838 41.7401ZM38.0424 42.1097C37.1831 41.7573 36.1948 42.0237 35.6276 42.7542L34.7338 43.9144C34.6221 44.0604 34.4588 44.1464 34.287 44.1722L32.8346 44.3698C31.9151 44.4987 31.1932 45.2206 31.0729 46.1315L30.8753 47.5839C30.8495 47.7644 30.7549 47.9276 30.6174 48.0308L29.4487 48.9417C28.7182 49.5089 28.4518 50.4972 28.8042 51.3565L29.3542 52.7144C29.4229 52.8776 29.4229 53.0667 29.3542 53.2386L28.8042 54.5878C28.4518 55.4472 28.7182 56.4354 29.4487 57.0026L30.6088 57.905C30.7549 58.0167 30.8409 58.18 30.8667 58.3519L31.0643 59.8042C31.1932 60.7237 31.9151 61.4456 32.826 61.5659L34.1667 61.755V71.5347C34.1667 71.7839 34.2956 72.0073 34.5104 72.1276C34.7253 72.2479 34.9831 72.2479 35.1979 72.1276L39.6667 69.5753L44.1354 72.1276C44.3503 72.2479 44.6081 72.2479 44.8229 72.1276C45.0378 72.0073 45.1667 71.7753 45.1667 71.5347V61.755L46.4987 61.5745C47.4182 61.4456 48.1401 60.7237 48.2604 59.8128L48.4581 58.3605C48.4838 58.18 48.5784 58.0167 48.7159 57.9136L49.876 57.0112C50.6065 56.444 50.8729 55.4558 50.5206 54.5964L49.9792 53.23C49.9104 53.0667 49.9104 52.8776 49.9792 52.7058L50.5378 51.3479C50.8901 50.4886 50.6237 49.5003 49.8932 48.9331L48.7331 48.0308C48.587 47.919 48.501 47.7558 48.4753 47.5839L48.2776 46.1315C48.1487 45.212 47.4268 44.4901 46.5159 44.3698L45.0635 44.1722C44.8831 44.1464 44.7198 44.0519 44.6167 43.9144L43.7143 42.7542C43.1471 42.0237 42.1588 41.7573 41.2995 42.1097L39.9245 42.6597C39.7612 42.7284 39.5721 42.7284 39.4003 42.6597L38.0424 42.1011V42.1097ZM44.3417 60.5519C44.2042 60.5776 44.0838 60.6464 43.9893 60.7409C43.8088 60.8612 43.6456 61.0159 43.5081 61.1878L42.6057 62.3479C42.4167 62.5886 42.0901 62.6831 41.7979 62.5628L40.4401 62.0042C39.9417 61.798 39.3745 61.798 38.876 62.0042L37.5182 62.5628C37.2346 62.6831 36.8995 62.5886 36.7104 62.3479L35.8253 61.1878C35.6878 61.0073 35.5245 60.8612 35.344 60.7409C35.2495 60.6464 35.1292 60.5776 34.9917 60.5519C34.8284 60.4831 34.6565 60.4401 34.476 60.4144L33.0237 60.2167C32.7143 60.1737 32.4737 59.9331 32.4393 59.6237L32.2417 58.1714C32.1729 57.6386 31.8893 57.1487 31.4596 56.8222L30.2909 55.9112C30.0503 55.7222 29.9557 55.3956 30.076 55.1034L30.6346 53.7456C30.8409 53.2472 30.8409 52.68 30.6346 52.1815L30.076 50.8237C29.9557 50.5401 30.0503 50.205 30.2909 50.0159L31.451 49.1136C31.8807 48.7784 32.1557 48.2972 32.2331 47.7644L32.4307 46.312C32.4737 46.0026 32.7143 45.762 33.0151 45.7276L34.4674 45.53C35.0003 45.4612 35.4901 45.1776 35.8167 44.7479L36.719 43.5878C36.9081 43.3472 37.2346 43.2526 37.5268 43.3729L38.8846 43.9315C39.3831 44.1378 39.9503 44.1378 40.4487 43.9315L41.8065 43.3729C42.0901 43.2526 42.4253 43.3472 42.6143 43.5878L43.5167 44.7479C43.8518 45.1776 44.3331 45.4526 44.8659 45.53L46.3182 45.7276C46.6276 45.7706 46.8682 46.0112 46.9026 46.312L47.1003 47.7644C47.169 48.2972 47.4526 48.787 47.8823 49.1136L49.0424 50.0159C49.2831 50.205 49.3776 50.5315 49.2573 50.8237L48.6987 52.1815C48.4924 52.68 48.4924 53.2472 48.6987 53.7456L49.2573 55.1034C49.3776 55.387 49.2831 55.7222 49.0424 55.9112L47.8823 56.8136C47.4526 57.1487 47.1776 57.63 47.1003 58.1628L46.9026 59.6151C46.8596 59.9245 46.619 60.1651 46.3182 60.2081L44.8659 60.4058C44.6854 60.4315 44.5135 60.4745 44.3503 60.5433L44.3417 60.5519ZM35.5417 63.0698L35.6362 63.1901C36.2034 63.9206 37.1917 64.187 38.051 63.8347L39.4088 63.2847C39.5721 63.2159 39.7612 63.2159 39.9331 63.2847L41.2909 63.8433C42.1503 64.1956 43.1385 63.9292 43.7057 63.1987L43.8003 63.0784V70.3573L40.019 68.1917C39.8042 68.0714 39.5463 68.0714 39.3401 68.1917L35.5417 70.3487V63.0698ZM35.5417 52.9722C35.5417 51.8781 35.9763 50.8289 36.7498 50.0554C37.5234 49.2818 38.5726 48.8472 39.6667 48.8472C40.7607 48.8472 41.8099 49.2818 42.5835 50.0554C43.3571 50.8289 43.7917 51.8781 43.7917 52.9722C43.7917 54.0662 43.3571 55.1154 42.5835 55.889C41.8099 56.6626 40.7607 57.0972 39.6667 57.0972C38.5726 57.0972 37.5234 56.6626 36.7498 55.889C35.9763 55.1154 35.5417 54.0662 35.5417 52.9722ZM45.1667 52.9722C45.1667 51.5135 44.5872 50.1145 43.5557 49.0831C42.5243 48.0516 41.1253 47.4722 39.6667 47.4722C38.208 47.4722 36.809 48.0516 35.7776 49.0831C34.7461 50.1145 34.1667 51.5135 34.1667 52.9722C34.1667 54.4309 34.7461 55.8298 35.7776 56.8613C36.809 57.8927 38.208 58.4722 39.6667 58.4722C41.1253 58.4722 42.5243 57.8927 43.5557 56.8613C44.5872 55.8298 45.1667 54.4309 45.1667 52.9722Z" fill="#1E4E79"/>
</g>
<defs>
<clipPath id="clip0_141_496">
<rect width="44" height="44" fill="white" transform="translate(28.6666 28.2222)"/>
</clipPath>
</defs>
</svg>
