<svg width="640" height="512" viewBox="0 0 640 512" fill="none" xmlns="http://www.w3.org/2000/svg">
<g clip-path="url(#clip0_1140_5762)">
<path d="M48.4 14.8L29.4 0.0999985L0 38L19 52.7L591.5 497.2L610.5 511.9L639.9 474L620.9 459.3L524 384.1C565.9 340.1 594.2 290.2 608 256C578 181.3 478.4 32 320 32C253.1 32 196.8 58.6 151.7 95L48.4 14.8ZM190.8 125.4C227.6 98 270.8 80 320 80C383 80 436.2 109.5 478.9 150.6C514.5 184.9 540.4 225.1 555.5 256C541.4 284.9 517.9 321.8 485.9 354.5L434 314.2C442.9 296.7 448 277 448 256C448 185.3 390.7 128 320 128C311.4 128 303 128.8 294.9 130.5C272.4 135 252 145.4 235.4 160L190.8 125.4ZM395 283.9L312.8 220.1L304.3 177.5C309.4 176.5 314.6 176 320 176C364.2 176 400 211.8 400 256C400 265.8 398.2 275.2 395 283.9ZM444.9 446.6L403.3 413.9C377.9 425.3 350.1 432 320 432C256.9 432 203.8 402.5 161.1 361.4C125.6 327.2 99.7 286.9 84.5 256C93.6 237.3 106.7 215.3 123.4 193.2L85.7 163.5C60.2 197.1 42.1 230.8 32 256C62 330.7 161.6 480 320 480C366.9 480 408.6 466.9 444.9 446.6ZM358.2 378.3L302 334C278.5 328.6 258.9 312.8 248.3 291.7L192.2 247.5C192 250.3 191.9 253.1 191.9 256C191.9 326.7 249.2 384 319.9 384C333.2 384 346 382 358.1 378.2L358.2 378.3Z" fill="black"/>
</g>
<defs>
<clipPath id="clip0_1140_5762">
<rect width="640" height="512" fill="white"/>
</clipPath>
</defs>
</svg>
