<svg width="576" height="512" viewBox="0 0 576 512" fill="none" xmlns="http://www.w3.org/2000/svg">
<path d="M288 32C129.6 32 30 181.3 0 256C30 330.7 129.6 480 288 480C446.4 480 546 330.7 576 256C546 181.3 446.4 32 288 32ZM144 256C144 217.809 159.171 181.182 186.177 154.177C213.182 127.171 249.809 112 288 112C326.191 112 362.818 127.171 389.823 154.177C416.829 181.182 432 217.809 432 256C432 294.191 416.829 330.818 389.823 357.823C362.818 384.829 326.191 400 288 400C249.809 400 213.182 384.829 186.177 357.823C159.171 330.818 144 294.191 144 256ZM192 256C192 309 235 352 288 352C341 352 384 309 384 256C384 203 341 160 288 160C281.6 160 275.3 160.6 269.2 161.8L288 256L193.8 237.2C192.6 243.3 192 249.6 192 256Z" fill="#212529"/>
</svg>
