<svg width="804" height="121" viewBox="0 0 804 121" fill="none" xmlns="http://www.w3.org/2000/svg">
<path fill-rule="evenodd" clip-rule="evenodd" d="M559.885 10.5059C559.885 5.0905 555.254 0.444336 549.454 0.444336C544.054 0.444336 539.608 4.8905 539.608 10.5059V30.7982H526.654C521.239 30.7982 516.608 35.429 516.608 40.8444C516.608 46.2598 521.239 51.0905 526.654 51.0905H539.608V109.46C539.608 114.875 544.054 119.521 549.454 119.521C555.254 119.521 559.885 114.875 559.885 109.46V51.0905H572.639C578.254 51.0905 582.885 46.2598 582.885 40.8444C582.885 35.429 578.239 30.7982 572.639 30.7982H559.885V10.5059ZM44.4383 30.7981C20.0844 30.7827 0.376713 50.5058 0.376713 75.0443L0.361328 75.0904C0.361328 99.8135 20.069 119.537 44.4229 119.537C56.7768 119.537 67.6076 114.506 75.9153 106.583C79.7768 102.521 79.7768 95.952 75.9153 92.2751C73.9922 90.152 71.4845 89.1827 68.9614 89.1827C66.2537 89.1827 63.546 90.152 61.6229 92.2751C57.1768 96.5212 51.3768 99.2289 44.4229 99.2289C31.2691 99.2289 20.4537 88.2289 20.4537 75.075C20.4537 61.9212 31.2844 50.9058 44.4229 50.9058C51.0075 50.9058 57.1768 53.4135 61.6229 57.8596C63.3614 59.9827 66.0691 60.9519 68.7768 60.9519C71.2999 60.9519 73.8076 59.9673 75.9306 58.0442C79.7922 53.9827 79.7922 47.6135 75.9306 43.7365C67.6229 35.8135 56.8076 30.7981 44.4383 30.7981ZM258.377 70.7981C258.377 48.9673 240.208 30.7981 218.377 30.7981H218.362C196.331 30.7981 178.162 48.9673 178.162 70.7981V109.444C178.162 114.86 182.793 119.506 188.208 119.506C194.008 119.506 198.454 114.86 198.454 109.444V70.7981C198.454 59.7827 207.731 50.8904 218.362 50.8904C228.993 50.8904 238.085 59.7827 238.085 70.7981V109.444C238.085 114.86 242.916 119.506 248.331 119.506C253.747 119.506 258.377 114.86 258.377 109.444V70.7981ZM305.146 30.7981C326.977 30.7981 345.146 48.9673 345.146 70.7981V109.444C345.146 114.86 340.515 119.506 335.1 119.506C329.685 119.506 324.854 114.86 324.854 109.444V70.7981C324.854 59.7827 315.761 50.8904 305.131 50.8904C294.5 50.8904 285.223 59.7827 285.223 70.7981V109.444C285.223 114.86 280.777 119.506 274.977 119.506C269.561 119.506 264.931 114.86 264.931 109.444V70.7981C264.931 48.9673 283.1 30.7981 305.131 30.7981H305.146ZM437.055 67.5058C433.778 46.6442 415.608 30.7981 393.962 30.7981L393.931 30.8134C369.208 30.8134 349.485 50.3519 349.485 75.075C349.485 99.7981 369.193 119.521 393.931 119.521C405.931 119.521 417.131 114.49 425.055 106.567C428.916 102.506 428.916 95.9366 425.055 92.2597C423.131 90.1366 420.608 89.1674 418.101 89.1674C415.593 89.1674 412.885 90.1366 410.762 92.2597C406.316 96.5058 400.316 99.2135 393.947 99.2135C383.131 99.2135 374.054 92.0597 371.147 82.3981H425.454C436.27 82.3981 439.178 76.2135 437.055 67.5058ZM371.162 68.0904C374.054 58.2442 383.147 50.8904 393.962 50.8904C404.593 50.8904 413.685 58.2289 416.378 68.0904H371.162ZM438.824 75.0443C438.824 50.5058 458.532 30.7827 482.886 30.7981C495.255 30.7981 506.07 35.8135 514.378 43.7365C518.24 47.6135 518.24 53.9827 514.378 58.0442C512.255 59.9673 509.747 60.9519 507.224 60.9519C504.516 60.9519 501.809 59.9827 500.07 57.8596C495.624 53.4135 489.455 50.9058 482.87 50.9058C469.732 50.9058 458.901 61.9212 458.901 75.075C458.901 88.2289 469.716 99.2289 482.87 99.2289C489.824 99.2289 495.624 96.5212 500.07 92.2751C501.993 90.152 504.701 89.1827 507.409 89.1827C509.932 89.1827 512.439 90.152 514.378 92.2751C518.24 95.952 518.24 102.521 514.378 106.583C506.07 114.506 495.239 119.537 482.886 119.537C458.532 119.537 438.824 99.8135 438.824 75.0904V75.0443Z" fill="#1E4E79"/>
<path fill-rule="evenodd" clip-rule="evenodd" d="M759.392 30.7828C735.039 30.7828 715.331 50.5059 715.331 75.0444H715.316C715.316 99.7675 734.823 119.491 759.377 119.491C783.931 119.491 803.639 99.7829 803.639 75.0444V10.5059C803.639 4.8905 799.193 0.444336 793.593 0.444336C787.993 0.444336 783.546 4.8905 783.546 10.5059V39.6752C777.162 34.2598 768.869 30.7828 759.392 30.7828ZM759.392 99.1983C746.254 99.1983 735.423 88.3829 735.423 75.0444C735.423 61.8906 746.054 50.8752 759.392 50.8752C772.731 50.8752 783.546 61.706 783.546 75.0444C783.546 88.3829 772.531 99.1983 759.392 99.1983ZM650.577 42.1981C644.963 35.2306 635.89 30.8003 626.031 30.7981C626.034 30.7981 626.036 30.7981 626.039 30.7981H626.023C626.026 30.7981 626.029 30.7981 626.031 30.7981C606.712 30.8023 591.054 46.4622 591.054 65.9673V109.46C591.054 114.875 595.5 119.521 601.1 119.521C606.7 119.521 611.147 114.875 611.147 109.46V65.9673C611.147 57.6596 617.716 50.8904 626.023 50.8904C633.947 50.8904 640.716 57.6596 640.716 65.9673V109.46C640.716 114.875 645.162 119.521 650.577 119.521C656.377 119.521 660.824 114.875 660.824 109.46V65.9673C660.824 57.6596 667.777 50.8904 675.7 50.8904C683.624 50.8904 690.193 57.6596 690.193 65.9673V109.46C690.193 114.875 694.824 119.521 700.624 119.521C706.039 119.521 710.485 114.875 710.485 109.46V65.9673C710.485 46.4596 694.839 30.7981 675.7 30.7981C665.654 30.7981 656.947 35.2442 650.577 42.1981Z" fill="#9BCFE5"/>
<path d="M142.454 94.9212C138.7 97.5827 134.116 99.1519 129.162 99.1519C116.439 99.1519 106.1 88.8135 106.1 76.0904L102.547 69.9365L98.9927 76.0904L95.4389 69.9365L91.885 76.0904L88.3312 69.9365L84.7773 76.0904C84.7773 100.583 104.639 120.444 129.131 120.444C139.962 120.444 149.9 116.552 157.608 110.09L142.424 94.9058L142.454 94.9212Z" fill="#9BCFE5"/>
<path d="M88.362 57.6443L91.9004 63.7981H84.8081L88.362 57.6443Z" fill="#9BCFE5"/>
<path d="M99.0084 51.4905L102.547 57.6443H95.4546L99.0084 51.4905Z" fill="#9BCFE5"/>
<path d="M91.8846 51.5059L94.2385 55.5828H89.5461L91.8846 51.5059Z" fill="#9BCFE5"/>
<path d="M103.762 59.7214L106.101 63.7984H101.408L103.762 59.7214Z" fill="#9BCFE5"/>
<path d="M104.332 66.8596L106.101 69.9365H102.547L104.332 66.8596Z" fill="#9BCFE5"/>
<path d="M95.4543 45.3828L97.2235 48.4597H93.6851L95.4543 45.3828Z" fill="#9BCFE5"/>
<path d="M86.5773 66.8596L88.3466 69.9365H84.8081L86.5773 66.8596Z" fill="#9BCFE5"/>
<path d="M103.762 48.998L105.208 51.5057H102.316L103.762 48.998Z" fill="#9BCFE5"/>
<path d="M88.3619 48.998L89.8081 51.5057H86.9158L88.3619 48.998Z" fill="#9BCFE5"/>
<path d="M95.4549 57.6443L102.547 69.9366H88.3472L95.4549 57.6443Z" fill="#9BCFE5"/>
<path d="M173.528 76.0959C173.521 76.0924 173.516 76.0853 173.516 76.0775C173.51 51.591 153.651 31.7363 129.163 31.7363C118.572 31.7363 108.834 35.4581 101.201 41.6646C100.922 41.8913 100.904 42.3088 101.158 42.5629L115.505 56.9094C115.716 57.1204 116.048 57.1478 116.295 56.9806C119.968 54.498 124.394 53.044 129.163 53.044C141.831 53.044 152.135 63.2933 152.223 75.9407C152.224 76.0482 152.252 76.1546 152.306 76.2477L155.248 81.3414C155.483 81.7495 156.072 81.7495 156.308 81.3414L158.802 77.0237C159.037 76.6156 159.626 76.6156 159.862 77.0237L162.355 81.3414C162.591 81.7495 163.18 81.7495 163.416 81.3414L165.909 77.0237C166.145 76.6156 166.734 76.6156 166.97 77.0237L169.463 81.3414C169.699 81.7495 170.288 81.7495 170.524 81.3414L173.536 76.1244C173.542 76.1142 173.538 76.1012 173.528 76.0959Z" fill="#9BCFE5"/>
<path d="M170.492 93.6184C170.256 94.0264 169.667 94.0264 169.432 93.6184L166.938 89.301C166.703 88.8928 166.997 88.3826 167.469 88.3826H172.455C172.926 88.3826 173.221 88.8928 172.985 89.301L170.492 93.6184Z" fill="#9BCFE5"/>
<path d="M159.846 99.7722C159.611 100.18 159.022 100.18 158.786 99.7722L156.293 95.4548C156.057 95.0466 156.351 94.5364 156.823 94.5364H161.809C162.281 94.5364 162.575 95.0466 162.34 95.4548L159.846 99.7722Z" fill="#9BCFE5"/>
<path d="M166.953 99.7567C166.718 100.165 166.129 100.165 165.893 99.7567L164.6 97.5165C164.364 97.1084 164.658 96.5981 165.13 96.5981H167.717C168.188 96.5981 168.482 97.1084 168.247 97.5165L166.953 99.7567Z" fill="#9BCFE5"/>
<path d="M155.092 91.5366C154.857 91.9461 154.266 91.947 154.03 91.5381L152.739 89.3009C152.503 88.8928 152.798 88.3826 153.269 88.3826H155.844C156.314 88.3826 156.609 88.8913 156.375 89.2994L155.092 91.5366Z" fill="#9BCFE5"/>
<path d="M154.521 84.3924C154.286 84.7993 153.699 84.8004 153.462 84.3943L152.745 83.1647C152.507 82.7566 152.802 82.2441 153.274 82.2441H154.701C155.173 82.2441 155.467 82.7546 155.232 83.1627L154.521 84.3924Z" fill="#9BCFE5"/>
<path d="M163.399 105.88C163.164 106.288 162.575 106.289 162.338 105.882L161.619 104.641C161.382 104.233 161.676 103.722 162.148 103.722H163.581C164.052 103.722 164.346 104.231 164.112 104.639L163.399 105.88Z" fill="#9BCFE5"/>
<path d="M172.263 84.3943C172.026 84.8005 171.439 84.7993 171.204 84.3924L170.493 83.1627C170.257 82.7546 170.552 82.2441 171.023 82.2441H172.451C172.923 82.2441 173.218 82.7566 172.98 83.1647L172.263 84.3943Z" fill="#9BCFE5"/>
<path d="M155.092 102.263C154.856 102.671 154.267 102.671 154.031 102.263L153.645 101.593C153.409 101.185 153.704 100.675 154.175 100.675H154.948C155.419 100.675 155.713 101.185 155.478 101.593L155.092 102.263Z" fill="#9BCFE5"/>
<path d="M170.492 102.263C170.256 102.671 169.667 102.671 169.431 102.263L169.045 101.593C168.809 101.185 169.104 100.675 169.575 100.675H170.348C170.819 100.675 171.113 101.185 170.878 101.593L170.492 102.263Z" fill="#9BCFE5"/>
<path d="M163.4 93.6183C163.164 94.0265 162.575 94.0268 162.339 93.6188L156.293 83.1629C156.057 82.7547 156.352 82.2441 156.823 82.2441H168.902C169.373 82.2441 169.668 82.7542 169.432 83.1624L163.4 93.6183Z" fill="#9BCFE5"/>
</svg>
