<svg width="560" height="560" viewBox="0 0 560 560" fill="none" xmlns="http://www.w3.org/2000/svg">
<path d="M363.852 398.599C340.171 415.389 311.25 425.288 279.998 425.288C199.735 425.288 134.516 360.068 134.516 279.805L112.096 240.984L89.6771 279.805L67.2579 240.984L44.8386 279.805L22.4193 240.984L0 279.805C0 434.314 125.296 559.61 279.804 559.61C348.13 559.61 410.826 535.055 459.45 494.293L363.658 398.501L363.852 398.599Z" fill="white" fill-opacity="0.1"/>
<path d="M22.6134 163.439L44.9356 202.26H0.194092L22.6134 163.439Z" fill="white" fill-opacity="0.1"/>
<path d="M89.7761 124.618L112.098 163.439H67.3568L89.7761 124.618Z" fill="white" fill-opacity="0.1"/>
<path d="M44.8358 124.715L59.6849 150.434H30.0837L44.8358 124.715Z" fill="white" fill-opacity="0.1"/>
<path d="M119.766 176.543L134.518 202.262H104.917L119.766 176.543Z" fill="white" fill-opacity="0.1"/>
<path d="M123.359 221.574L134.521 240.984H112.101L123.359 221.574Z" fill="white" fill-opacity="0.1"/>
<path d="M67.3551 86.0881L78.5162 105.499H56.194L67.3551 86.0881Z" fill="white" fill-opacity="0.1"/>
<path d="M11.3552 221.574L22.5163 240.984H0.194092L11.3552 221.574Z" fill="white" fill-opacity="0.1"/>
<path d="M119.764 108.895L128.887 124.714H110.641L119.764 108.895Z" fill="white" fill-opacity="0.1"/>
<path d="M22.6148 108.895L31.7378 124.714H13.4918L22.6148 108.895Z" fill="white" fill-opacity="0.1"/>
<path d="M67.3586 163.439L112.1 240.985H22.52L67.3586 163.439Z" fill="white" fill-opacity="0.1"/>
<path d="M559.877 279.84C559.834 279.818 559.806 279.773 559.806 279.724C559.763 125.252 434.484 0 280.002 0C213.19 0 151.76 23.4787 103.608 62.6321C101.849 64.0621 101.735 66.6958 103.338 68.2986L193.842 158.803C195.174 160.134 197.268 160.307 198.828 159.252C221.997 143.591 249.92 134.419 280.002 134.419C359.918 134.419 424.92 199.076 425.481 278.861C425.485 279.539 425.663 280.211 426.002 280.798L444.559 312.931C446.046 315.505 449.762 315.505 451.248 312.931L466.978 285.693C468.465 283.119 472.181 283.119 473.668 285.693L489.398 312.931C490.884 315.505 494.6 315.505 496.087 312.931L511.817 285.693C513.304 283.119 517.019 283.119 518.506 285.693L534.236 312.931C535.723 315.505 539.439 315.505 540.925 312.931L559.931 280.02C559.969 279.956 559.944 279.873 559.877 279.84V279.84Z" fill="white" fill-opacity="0.1"/>
<path d="M540.727 390.38C539.24 392.954 535.524 392.954 534.038 390.38L518.309 363.144C516.822 360.569 518.68 357.35 521.653 357.35H553.111C556.084 357.35 557.943 360.569 556.456 363.144L540.727 390.38Z" fill="white" fill-opacity="0.1"/>
<path d="M473.569 429.201C472.082 431.775 468.366 431.775 466.879 429.201L451.151 401.965C449.664 399.39 451.522 396.171 454.495 396.171H485.953C488.926 396.171 490.784 399.39 489.297 401.965L473.569 429.201Z" fill="white" fill-opacity="0.1"/>
<path d="M518.404 429.103C516.917 431.678 513.201 431.678 511.714 429.103L503.555 414.971C502.068 412.396 503.927 409.178 506.9 409.178H523.218C526.192 409.178 528.05 412.396 526.563 414.971L518.404 429.103Z" fill="white" fill-opacity="0.1"/>
<path d="M443.575 377.247C442.093 379.831 438.369 379.836 436.88 377.257L428.731 363.144C427.245 360.569 429.103 357.35 432.076 357.35H448.319C451.288 357.35 453.147 360.559 451.67 363.134L443.575 377.247Z" fill="white" fill-opacity="0.1"/>
<path d="M439.974 332.178C438.49 334.746 434.786 334.753 433.293 332.191L428.771 324.434C427.271 321.859 429.128 318.626 432.108 318.626H441.113C444.087 318.626 445.945 321.846 444.457 324.421L439.974 332.178Z" fill="white" fill-opacity="0.1"/>
<path d="M495.978 467.729C494.496 470.306 490.78 470.313 489.289 467.742L484.75 459.917C483.257 457.342 485.115 454.116 488.091 454.116H497.129C500.099 454.116 501.958 457.329 500.478 459.904L495.978 467.729Z" fill="white" fill-opacity="0.1"/>
<path d="M551.898 332.191C550.405 334.753 546.701 334.746 545.217 332.178L540.735 324.421C539.247 321.846 541.105 318.626 544.079 318.626H553.083C556.064 318.626 557.921 321.859 556.42 324.434L551.898 332.191Z" fill="white" fill-opacity="0.1"/>
<path d="M443.575 444.913C442.089 447.49 438.37 447.49 436.884 444.913L434.446 440.687C432.962 438.112 434.82 434.895 437.792 434.895H442.666C445.639 434.895 447.497 438.112 446.012 440.687L443.575 444.913Z" fill="white" fill-opacity="0.1"/>
<path d="M540.725 444.913C539.239 447.49 535.519 447.49 534.033 444.913L531.596 440.687C530.111 438.112 531.97 434.895 534.942 434.895H539.816C542.788 434.895 544.647 438.112 543.162 440.687L540.725 444.913Z" fill="white" fill-opacity="0.1"/>
<path d="M495.985 390.38C494.5 392.955 490.784 392.956 489.296 390.383L451.156 324.422C449.667 321.847 451.525 318.626 454.499 318.626H530.697C533.67 318.626 535.528 321.844 534.043 324.419L495.985 390.38Z" fill="white" fill-opacity="0.1"/>
</svg>
