<svg width="101" height="101" viewBox="0 0 101 101" fill="none" xmlns="http://www.w3.org/2000/svg">
<path d="M0.235352 50.4444C0.235352 9.18882 9.07761 0.346558 50.3331 0.346558C91.5887 0.346558 100.431 9.18882 100.431 50.4444C100.431 91.6999 91.5887 100.542 50.3331 100.542C9.07761 100.542 0.235352 91.6999 0.235352 50.4444Z" fill="white"/>
<g clip-path="url(#clip0_141_509)">
<path opacity="0.4" d="M29.7083 35.0972C29.7083 33.5761 30.9372 32.3472 32.4583 32.3472H45.306C46.3974 32.3472 47.4458 32.7854 48.2192 33.5589L62.6567 47.9964C64.2638 49.6034 64.2638 52.2159 62.6567 53.8315L51.1841 65.2956C49.5771 66.9026 46.9646 66.9026 45.3489 65.2956L30.9114 50.8581C30.138 50.0847 29.6997 49.0362 29.6997 47.9448L29.7083 35.0972ZM34.5208 40.5972C34.5208 41.5089 34.883 42.3832 35.5276 43.0278C36.1723 43.6725 37.0466 44.0347 37.9583 44.0347C38.87 44.0347 39.7443 43.6725 40.389 43.0278C41.0336 42.3832 41.3958 41.5089 41.3958 40.5972C41.3958 39.6855 41.0336 38.8111 40.389 38.1665C39.7443 37.5218 38.87 37.1597 37.9583 37.1597C37.0466 37.1597 36.1723 37.5218 35.5276 38.1665C34.883 38.8111 34.5208 39.6855 34.5208 40.5972Z" fill="#1E4E79"/>
<path d="M56.0309 31.1698C55.7645 31.4362 55.7559 31.8745 56.0223 32.1409L68.3801 44.619C71.8262 48.0995 71.8262 53.7112 68.3801 57.1917L57.3887 68.3034C57.1223 68.5698 57.1223 69.0081 57.3973 69.2745C57.6723 69.5409 58.102 69.5409 58.3684 69.2659L69.3512 58.1628C73.3301 54.1409 73.3301 47.6698 69.3512 43.6565L57.002 31.1784C56.7356 30.912 56.2973 30.9034 56.0309 31.1698ZM29.7083 35.0972C29.7083 33.5761 30.9372 32.3472 32.4583 32.3472H45.3059C46.3973 32.3472 47.4458 32.7854 48.2192 33.5589L62.6567 47.9964C64.2637 49.6034 64.2637 52.2159 62.6567 53.8315L51.184 65.2956C49.577 66.9026 46.9645 66.9026 45.3489 65.2956L30.9114 50.8581C30.1379 50.0847 29.6997 49.0362 29.6997 47.9448L29.7083 35.0972ZM28.3333 35.0972V47.9448C28.3333 49.4058 28.909 50.8065 29.9403 51.8378L44.3778 66.2753C46.5262 68.4237 50.0067 68.4237 52.1551 66.2753L63.6278 54.8026C65.7762 52.6542 65.7762 49.1737 63.6278 47.0253L49.1903 32.5878C48.159 31.5565 46.7583 30.9808 45.2973 30.9808L32.4583 30.9722C30.1809 30.9722 28.3333 32.8198 28.3333 35.0972ZM37.9583 38.5347C38.5053 38.5347 39.0299 38.752 39.4167 39.1388C39.8035 39.5256 40.0208 40.0502 40.0208 40.5972C40.0208 41.1442 39.8035 41.6688 39.4167 42.0556C39.0299 42.4424 38.5053 42.6597 37.9583 42.6597C37.4112 42.6597 36.8866 42.4424 36.4998 42.0556C36.113 41.6688 35.8958 41.1442 35.8958 40.5972C35.8958 40.0502 36.113 39.5256 36.4998 39.1388C36.8866 38.752 37.4112 38.5347 37.9583 38.5347ZM37.9583 44.0347C38.8699 44.0347 39.7443 43.6725 40.3889 43.0278C41.0336 42.3832 41.3958 41.5089 41.3958 40.5972C41.3958 39.6855 41.0336 38.8111 40.3889 38.1665C39.7443 37.5218 38.8699 37.1597 37.9583 37.1597C37.0466 37.1597 36.1722 37.5218 35.5276 38.1665C34.8829 38.8111 34.5208 39.6855 34.5208 40.5972C34.5208 41.5089 34.8829 42.3832 35.5276 43.0278C36.1722 43.6725 37.0466 44.0347 37.9583 44.0347Z" fill="#1E4E79"/>
</g>
<defs>
<clipPath id="clip0_141_509">
<rect width="44" height="44" fill="white" transform="translate(28.3333 28.2222)"/>
</clipPath>
</defs>
</svg>
