<svg width="578" height="500" viewBox="0 0 578 500" fill="none" xmlns="http://www.w3.org/2000/svg">
<g opacity="0.2">
<path fill-rule="evenodd" clip-rule="evenodd" d="M172.669 180.845C172.629 171.777 156.632 161.58 149.799 156.322C136.289 145.924 122.237 136.322 108.315 126.567C94.3936 116.811 80.4344 107.082 67.1592 96.3717C58.5397 89.4193 48.4117 81.5889 42.5659 71.6615C30.1126 50.5055 69.3767 53.6472 79.5473 53.1845C105.421 52.0024 135.098 52.5418 159.351 41.5249C173.829 34.948 179.602 23.9178 176.493 7.84191C175.49 2.61375 172.523 -3.40249 175.037 -8.49578C177.72 -13.9355 183.894 -17.0745 189.018 -19.1795C207.708 -26.8486 229.197 -27.7371 248.972 -28.6997C270.296 -29.7575 291.819 -29.4481 312.993 -29.5301C321.97 -29.5645 331.347 -32.9679 339.896 -35.7341C351.104 -39.3597 362.179 -43.4322 373.294 -47.3698C397.748 -56.0121 422.945 -65.1144 448.816 -67.3093C465.018 -68.6845 482.726 -66.8254 495.312 -54.8643C501.631 -48.8587 504.938 -39.9309 508.592 -32C513.014 -22.419 517.261 -12.7455 521.97 -3.31521C537.137 27.0568 558.791 56.736 593.938 58.2275C599.255 58.4523 604.477 57.7198 609.769 57.5822C613.139 57.4976 616.138 58.3571 617.391 62.0779C620.541 71.4103 610.641 86.1428 606.582 93.5474C597.694 109.755 587.671 125.236 578.283 141.119C572.071 151.623 561.319 165.977 561.206 178.74C561.106 190.111 575.439 198.33 583.241 203.931C590.553 209.175 603.8 216.514 604.602 227.182C604.991 232.354 601.758 236.641 598.383 239.968C592.467 245.786 585.652 249.89 580.33 256.528C571.602 267.418 564.311 282.401 565.496 297.076C566.318 307.244 571.815 313.903 578.809 320.268C581.748 322.944 584.133 324.838 584.289 329.182C584.539 336.082 581.978 343.383 579.869 349.78C572.321 372.674 561.602 394.811 549.678 415.48C543.719 425.81 537.282 436.107 529.381 444.919C524.207 450.705 517.229 457.591 509.336 457.583C500.198 457.583 490.528 454.103 481.646 451.501C465.055 446.638 448.666 441.016 432.341 435.248C394.589 421.904 357.191 407.479 320.149 391.973C294.057 381.033 267.412 370.077 242.881 355.532C238.097 352.676 233.581 349.346 229.395 345.586C224.923 341.638 219.372 339.872 213.745 338.555C178.815 330.38 140.548 336.656 105.474 340.591C96.571 341.588 87.6683 342.59 78.7405 343.288C71.0656 343.889 61.8772 345.61 54.4178 343.024C39.7194 337.933 52.5686 319.17 58.0009 311.525C77.1269 284.607 101.803 261.832 124.675 238.582C135.55 227.51 146.507 216.466 156.79 204.767C162.145 198.685 172.704 188.794 172.669 180.845Z" stroke="#6964E1" stroke-opacity="0.7"/>
<path fill-rule="evenodd" clip-rule="evenodd" d="M179.259 179.316C173.397 169.721 163.112 162.629 154.574 155.954C142.288 146.346 129.615 137.271 117.133 127.935C105.331 119.106 93.5036 110.177 82.5738 100.151C75.9091 94.037 67.5469 86.7256 64.3901 77.6827C57.5423 58.0825 94.3812 61.0562 103.476 60.5434C126.085 59.2746 151.718 58.9838 172.635 48.6643C185.696 42.2198 191.062 31.5329 188.276 16.6959C187.313 11.5626 185.578 7.17992 187.775 2.07301C190.315 -3.83747 196.157 -7.52227 201.513 -10.1233C218.29 -18.2727 238.121 -20.004 256.307 -21.4447C275.095 -22.9329 294.67 -23.9823 312.854 -22.8932C320.126 -22.4597 328.495 -24.9207 335.692 -26.808C346.764 -29.7157 357.724 -33.07 368.742 -36.1892C391.133 -42.5331 414.106 -48.6445 437.4 -49.3397C454.217 -49.8419 471.751 -47.1193 485.742 -36.5962C499.922 -25.9251 506.213 -9.38319 514.076 6.34197C527.656 33.5286 545.998 66.5834 577.416 72.3274C582.18 73.1997 586.758 72.7265 591.517 72.9406C593.965 73.049 596.75 73.3926 597.992 75.9381C601.214 82.5465 592.385 94.6291 589.414 99.6911C581.204 113.68 571.975 126.983 563.372 140.702C556.539 151.595 547.878 163.699 545.236 176.612C542.029 192.282 562.983 203.431 570.352 214.464C583.128 233.597 558.924 244.498 546.991 253.62C533.288 264.093 521.977 283.199 534.261 299.402C538.96 305.598 544.742 309.291 546.84 317.377C550.123 330.023 547.64 344.474 544.977 356.974C540.966 375.765 534.617 394.353 525.986 411.337C519.803 423.496 509.545 442.562 494.523 441.132C484.411 440.178 474.131 436.691 464.284 433.609C449.54 428.997 434.982 423.739 420.502 418.278C387.076 405.706 354.018 391.845 321.61 376.598C299.497 366.191 237.815 323.663 233.174 322.146C219.335 317.625 203.601 318.421 189.334 319.122C170.356 320.052 151.472 322.463 132.604 324.696C123.623 325.754 114.596 327.046 105.567 327.567C99.1402 327.937 90.7003 328.254 85.0712 324.313C74.0837 316.624 86.3249 299.03 91.3873 291.586C106.896 268.766 126.514 249.005 144.908 228.799C153.935 218.879 163.099 208.974 171.293 198.258C174.598 193.931 182.883 185.242 179.259 179.316Z" stroke="#6964E1" stroke-opacity="0.7"/>
<path fill-rule="evenodd" clip-rule="evenodd" d="M187.37 174.395C171.36 155.194 149.263 140.913 130.192 124.877C120.62 116.826 110.988 108.555 102.733 98.9652C98.4381 93.9784 93.0755 87.6723 92.2482 80.7211C90.037 62.1253 123.24 64.6399 133.178 63.9339C152.392 62.5643 174.098 61.5252 191.529 52.0356C202.179 46.2345 207.424 36.7132 205.433 24.1988C204.551 18.6463 203.177 13.9293 205.433 8.47723C207.72 2.95377 212.483 -0.943585 217.307 -3.86528C231.168 -12.2681 248.394 -14.9545 264 -16.9561C282.308 -19.2874 300.754 -20.1976 319.188 -19.6795C335.333 -19.2326 351.401 -24.259 367.165 -27.572C388.049 -31.9585 409.311 -35.7898 430.681 -35.2107C447.558 -34.7506 464.569 -31.1362 478.997 -21.5303C493.658 -11.7473 502.472 2.89558 510.42 18.6965C522.433 42.583 537.406 74.5921 563.762 83.6639C567.595 84.986 571.168 85.1314 575.121 85.3614C577.042 85.4725 579.521 85.5069 580.474 87.6195C582.765 92.7067 574.294 102.569 571.93 106.006C564.384 116.979 556.203 127.458 548.469 138.285C541.249 148.393 533.384 158.927 528.899 170.773C521.762 189.638 544.581 200.669 543.941 218.646C543.543 229.807 533.412 237.81 525.389 243.347C515.512 250.156 501.289 254.632 496.345 267.056C492.662 276.311 498.441 281.697 502.891 288.719C510.432 300.618 510.946 316.746 510.162 330.519C509.104 349.131 504.969 368.018 497.932 385.125C494.743 392.88 490.837 400.947 485.086 406.97C479.699 412.615 474.599 414.061 467.399 412.906C445.357 409.363 423.102 399.487 401.965 390.667C375.408 379.583 349.217 367.346 323.808 353.578C306.482 344.189 288.765 334.255 273.557 321.284C269.594 317.902 265.535 314.227 262.637 309.766C260.445 306.413 259.515 303.645 255.822 301.731C244.877 296.059 229.651 297.543 217.924 298.132C199.171 299.071 180.508 301.569 161.871 303.82C150.996 305.142 130.508 309.301 121.824 299.325C114.328 290.71 123.373 276.023 127.994 268.434C139.681 249.243 154.716 232.401 168.665 215.058C175.058 207.11 181.702 199.101 186.982 190.265C188.33 188.012 190.492 185.027 190.863 182.29C191.279 179.154 189.336 176.762 187.37 174.395Z" stroke="#6964E1" stroke-opacity="0.7"/>
<path fill-rule="evenodd" clip-rule="evenodd" d="M188.746 178.865C173.952 161.888 156.13 147.94 140.248 132.053C133.127 124.93 125.935 117.457 120.509 108.767C117.591 104.094 114.492 98.2118 115.296 92.4036C117.606 75.7332 144.914 77.2388 155.947 76.2624C172.34 74.8282 191.173 73.3834 205.669 64.3946C215.164 58.507 218.725 49.8119 216.952 38.5977C215.049 26.5686 219.304 17.8364 228.988 11.1259C241.129 2.71925 256.454 -0.70746 270.551 -3.14187C287.534 -6.06086 304.733 -7.35478 321.937 -7.00784C338.669 -6.66914 354.88 -9.62748 371.502 -11.5512C393.539 -14.0994 416.284 -15.3563 438.073 -10.1329C457.044 -5.58423 474.18 4.4392 487.026 19.9401C500.443 36.1184 507.085 56.5013 517.98 74.3996C524.775 85.5635 534.25 100.331 546.948 104.671C551.183 106.118 558.901 104.166 555.518 111.286C553.585 115.359 549.967 118.931 547.108 122.26C542.49 127.639 537.718 132.87 533.022 138.176C523.012 149.485 512.293 161.036 504.791 174.428C495.338 191.289 509.389 204.265 507.677 221.361C506.756 230.562 500.694 237.905 494.28 243.673C490.13 247.41 485.589 250.646 480.953 253.665C476.111 256.819 470.381 259.222 466.159 263.3C460.141 269.103 462.754 275.972 463.882 283.473C465.868 296.657 466.304 310.049 465.181 323.345C463.807 339.642 460.585 356.405 453.797 371.216C451.157 376.982 447.812 383.094 442.845 386.96C437.878 390.826 432.74 390.561 427.048 389.397C410.166 385.957 393.319 377.953 377.304 370.366C357.259 360.869 337.609 350.256 318.843 338.182C305.89 329.846 292.894 320.842 282.057 309.54C278.905 306.251 275.906 302.729 273.482 298.797C271.817 296.101 270.924 292.621 268.512 290.594C260.965 284.267 245.812 286.157 236.961 286.524C219.296 287.257 201.91 290.742 184.268 291.589C174.639 292.052 159.56 293.216 152.489 284.566C145.839 276.435 151.862 263.628 155.836 255.793C163.647 240.387 174.14 226.662 183.546 212.341C187.412 206.448 191.65 200.283 194.155 193.554C196.381 187.558 192.537 183.218 188.746 178.865Z" stroke="#6964E1" stroke-opacity="0.7"/>
<path fill-rule="evenodd" clip-rule="evenodd" d="M192.385 179.143C180.61 164.203 166.414 150.941 154.554 135.759C147.611 126.867 135.655 111.92 141.024 99.3846C146.915 85.6102 167.446 85.2351 179.314 84.1253C193.44 82.8041 210.028 80.9994 222.117 72.3987C225.94 69.6798 229.197 66.0809 230.577 61.3406C232.055 56.2674 230.44 51.8283 230.229 46.7498C229.788 36.096 235.816 27.5428 243.793 21.6689C255.068 13.3642 269.165 9.43769 282.482 6.70025C297.568 3.61272 312.905 2.09054 328.273 2.15549C342.959 2.20833 357.491 1.86484 372.192 1.4685C391.419 0.940033 410.916 1.79349 429.566 7.18116C447.938 12.4922 464.641 22.4458 477.762 37.0868C490.562 51.3738 499.198 68.8368 506.762 86.6249C511.054 96.7211 518.304 111.809 528.541 116.908C533.094 119.178 537.561 119.022 532.72 124.925C526.625 132.358 518.409 138.322 511.349 144.679C501.165 153.853 490.725 163.207 482.176 174.114C476.717 181.08 474.284 187.839 474.66 196.857C474.951 203.727 476.269 210.525 475.602 217.422C474.041 233.609 461.958 244.709 451.275 255.046C444.403 261.694 438.127 266.764 434.589 276.221C430.405 287.398 428.649 299.558 425.853 311.163C422.781 323.907 419.233 337.164 412.529 348.388C406.561 358.381 399.303 362.863 388.44 360.17C371.496 355.974 354.795 345.637 339.752 336.075C324.442 326.346 309.394 315.407 296.707 302.034C289.857 294.813 285.182 286.333 279.099 278.576C271.448 268.836 254.138 272.525 243.851 273.349C226.774 274.718 173.041 284.959 177.999 251.788C180.069 237.942 188.219 225.164 194.179 212.946C196.649 207.875 200.224 201.79 200.783 195.98C201.392 189.651 195.925 183.64 192.385 179.143Z" stroke="#6964E1" stroke-opacity="0.7"/>
<path fill-rule="evenodd" clip-rule="evenodd" d="M198.602 180.411C189.604 166.873 178.835 154.083 171.114 139.461C166.105 129.991 161.186 117.338 167.647 107.319C174.94 96.0116 191.021 93.3758 202.837 91.935C215.012 90.4519 229.545 89.2041 239.495 80.6306C242.661 77.8997 245.27 74.217 245.756 69.8073C246.224 65.5774 244.902 61.3476 245.34 57.041C246.322 47.3704 251.88 39.4023 259.045 33.6232C280.24 16.5265 311.786 12.7248 337.359 12.278C350.159 12.056 363.332 13.2218 376.215 14.0572C392.932 15.1412 409.675 17.4676 425.618 23.0749C459.516 34.9926 482.236 61.4242 498.104 94.3143C503.098 104.667 506.92 115.868 514.746 124.188C518.781 128.484 517.899 131.569 513.775 135.487C507.326 141.61 499.459 146.289 492.301 151.399C482.121 158.667 471.722 166.043 462.719 174.749C456.513 180.75 452.108 186.531 450.77 195.531C449.816 201.947 450.039 208.485 449.465 214.941C448.373 227.205 444.634 239.376 438.015 249.549C432.756 257.612 426.495 264.941 420.023 271.928C411.611 281.025 404.496 290.267 398.107 301.064C389.637 315.356 377.735 341.719 357.785 334.742C335.781 327.043 315.157 307.483 301.039 288.53C296.298 282.167 292.406 274.363 286.013 269.67C276.441 262.656 266.728 262.902 255.343 262.931C238.298 262.971 201.207 266.876 200.806 239.931C200.649 229.256 205.026 219.162 207.123 208.894C209.487 197.394 204.748 189.638 198.602 180.411Z" stroke="#6964E1" stroke-opacity="0.7"/>
<path fill-rule="evenodd" clip-rule="evenodd" d="M205.304 181.618C196.404 163.974 176.445 134.979 191.625 115.358C199.644 104.989 213.827 101.092 225.724 98.7703C235.299 96.8919 246.846 96.1866 254.08 88.2241C259.398 82.3698 257.037 73.8498 259.074 66.5214C261.603 57.4361 267.406 50.0019 274.538 44.4145C294.467 28.7985 322.176 24.0062 346.15 22.9865C371.048 21.9298 398.481 26.8726 421.911 36.3806C451.124 48.2398 473.01 70.6955 488.315 99.1322C491.14 104.382 493.705 109.768 496.417 115.081C498.239 118.645 500.94 122.092 502.376 125.841C504.766 132.092 501.95 137.201 497.434 141.275C490.939 147.14 482.96 151.314 475.556 155.715C465.43 161.739 455.078 167.654 445.659 174.721C439.329 179.476 432.704 184.598 430.438 192.849C428.892 198.476 428.571 204.436 428.627 210.264C428.747 222.76 428.125 232.865 422.598 244.309C413.501 263.098 399.514 279.993 384.737 294.05C373.14 305.082 354.79 322.22 337.893 314.844C322.733 308.239 313.864 292.43 303.876 279.649C299.02 273.436 293.565 267.761 287.155 263.341C279.073 257.769 271.466 255.431 261.891 254.52C245.776 252.985 221.477 252.586 216.495 232.191C214.656 224.665 215.706 216.868 214.741 209.244C213.481 199.163 209.795 190.519 205.304 181.618Z" stroke="#6964E1" stroke-opacity="0.7"/>
<path fill-rule="evenodd" clip-rule="evenodd" d="M214.559 182.272C208.221 162.965 199.895 138.633 215.203 121.474C222.618 113.161 233.048 108.514 243.142 105.042C250.372 102.553 261.851 101.82 266.284 94.169C269.539 88.5383 269.99 80.7706 272.935 74.7378C276.982 66.4438 283.112 59.6123 290.304 54.2646C309.04 40.3292 333.444 34.9445 355.698 33.4026C404.055 30.0569 453.257 56.7031 479.133 100.543C486.848 113.611 496.808 127.52 484.339 140.87C470.726 155.435 450.219 162.259 433.972 172.608C427.764 176.559 419.854 181.309 416.39 188.463C414.307 192.764 414.164 198.159 414.069 202.893C413.818 214.951 412.869 225.794 408.274 237.045C401.177 254.432 389.861 270.473 377.037 283.612C365.853 295.069 349.904 308.533 333.662 300.274C321.208 293.926 313.31 280.454 303.634 270.523C292.866 259.462 279.548 252.009 264.924 248.367C250.697 244.834 235.094 242.451 227.596 227.439C225.024 222.29 222.337 215.622 221.373 209.923C219.817 200.526 217.538 191.278 214.559 182.272Z" stroke="#6964E1" stroke-opacity="0.7"/>
<path fill-rule="evenodd" clip-rule="evenodd" d="M224.879 182.408C221.947 162.912 221.621 142.583 235.244 127.218C241.603 120.049 249.64 114.956 257.767 110.342C263.747 106.947 269.922 104.083 274.388 98.5173C278.526 93.3637 281.671 87.3798 285.666 82.0914C290.935 75.0831 297.241 69.0162 304.339 64.1239C322.133 51.8839 343.778 46.1591 364.487 44.1733C374.511 43.2081 385.385 42.7058 395.342 45.3368C404.958 47.8752 414.467 51.8891 423.308 56.5694C442.105 66.509 458.395 81.0654 470.204 99.4692C478.301 112.093 482.679 124.367 472.193 137.173C460.372 151.608 441.836 159.572 426.559 168.941C416.081 175.366 404.337 181.665 402.38 195.32C400.821 206.185 399.555 216.497 395.523 226.767C389.521 241.916 380.697 255.638 369.574 267.121C359.402 277.581 346.533 286.458 331.982 280.871C320.454 276.436 311.509 266.502 301.437 259.4C290.212 251.467 277.879 247.093 264.892 243.577C253.221 240.403 242.232 235.528 234.688 225.175C233.144 223.06 231.523 220.757 230.332 218.39C228.814 215.371 228.932 212.377 228.633 208.993C227.856 200.061 226.205 191.232 224.879 182.408Z" stroke="#6964E1" stroke-opacity="0.7"/>
<path fill-rule="evenodd" clip-rule="evenodd" d="M236.258 180.814C236.509 162.296 240.73 144.795 252.29 130.363C257.232 124.19 263.134 119.105 268.573 113.448C272.951 108.887 277.09 104.649 282.125 100.891C294.068 91.9923 303.775 80.4768 316.468 72.5525C333.412 61.9586 352.82 56.1029 372.078 53.7616C381.482 52.6175 391.196 52.2175 400.71 53.51C408.882 54.6197 416.707 58.5156 423.967 62.5016C438.195 70.3093 452.01 81.4064 461.248 95.446C481.616 126.399 441.459 148.903 420.848 162.082C411.369 168.144 396.885 175.165 393.003 187.173C390.227 195.752 388.536 204.476 384.962 212.789C375.36 235.116 355.869 261.376 329.895 257.88C318.78 256.386 308.65 250.318 298.274 246.245C287.59 242.05 276.563 239.711 265.459 237.145C255.081 234.748 246.809 231.337 240.106 222.191C236.902 217.824 237.185 212.596 236.9 207.238C236.434 198.437 236.146 189.586 236.258 180.814Z" stroke="#6964E1" stroke-opacity="0.7"/>
<path fill-rule="evenodd" clip-rule="evenodd" d="M246.619 178.442C250.792 150.491 266.29 119.976 289.078 103.743C315.883 84.648 344.923 68.5685 376.95 63.9461C391.798 61.8026 408.064 60.7481 422.074 67.7571C432.737 73.0879 445.123 81.0563 450.991 92.2622C465.348 119.672 433.415 141.492 415.221 154.173C405.425 160.999 392.957 167.651 385.574 177.62C381.291 183.4 379.104 191.046 375.646 197.395C365.166 216.632 347.915 232.149 326.426 234.924C316.49 236.206 306.482 234.62 296.621 233.359C286.527 232.07 276.308 231.369 266.277 229.57C258.27 228.132 248.833 225.698 245.884 216.656C242.165 205.263 244.916 189.857 246.619 178.442Z" stroke="#6964E1" stroke-opacity="0.7"/>
<path fill-rule="evenodd" clip-rule="evenodd" d="M256.78 173.952C262.865 147.673 275.753 122.039 297.417 106.351C308.906 98.0324 322.243 92.2899 335.048 86.6162C349.562 80.1859 364.726 75.1946 380.215 72.7188C399.499 69.6346 430.732 66.8546 440.808 90.0389C450.808 113.051 425.538 133.419 410.594 145.025C401.013 152.461 390.76 159.285 381.606 167.413C376.642 171.82 372.818 176.912 368.618 182.081C357.008 196.401 340.458 207.738 323.589 213.79C307.239 219.657 287.013 222.254 269.755 220.316C262.308 219.482 256.985 216.671 254.733 208.677C251.613 197.565 254.264 184.808 256.78 173.952Z" stroke="#6964E1" stroke-opacity="0.7"/>
<path fill-rule="evenodd" clip-rule="evenodd" d="M266.875 166.874C272.921 143.737 285.962 122.603 304.983 108.716C326.305 93.149 353.76 84.4987 378.995 80.0998C392.409 77.7634 421.476 71.4284 428.313 89.5588C435.15 107.689 415.385 125.556 404.01 135.392C390.203 147.311 375.318 158.819 360.45 169.514C347.532 178.812 333.748 188.318 319.756 195.499C311.865 199.572 303.644 202.898 295.192 205.437C288.933 207.302 280.975 210.084 274.413 208.696C257.863 205.19 263.984 177.937 266.875 166.874Z" stroke="#6964E1" stroke-opacity="0.7"/>
<path fill-rule="evenodd" clip-rule="evenodd" d="M279.337 159.946C292.602 116.189 334.631 94.6694 375.097 87.1684C384.501 85.4272 410.861 79.1495 416.117 92.516C421.21 105.476 405.012 120.845 397.428 128.127C373.928 150.69 344.895 167.42 317.383 183.994C308.796 189.168 293.308 200.394 282.656 195.215C271.09 189.582 276.589 169.019 279.337 159.946Z" stroke="#6964E1" stroke-opacity="0.7"/>
<path fill-rule="evenodd" clip-rule="evenodd" d="M292.925 151.524C304.461 119.301 338.015 100.819 368.864 94.7268C376.42 93.236 395.61 88.5945 401.333 97.5867C406.629 105.905 393.991 117.958 389.262 122.747C378.736 133.413 366.26 142.199 353.936 150.644C342.54 158.457 331.021 166.466 319.031 173.074C312.715 176.552 300.87 183.974 293.693 178.603C285.966 172.825 290.363 158.679 292.925 151.524Z" stroke="#6964E1" stroke-opacity="0.7"/>
<path fill-rule="evenodd" clip-rule="evenodd" d="M307.899 142.109C316.691 121.066 340.24 107.402 361.013 102.861C366.603 101.642 378.684 98.4788 383.399 104.099C387.74 109.274 380.744 116.861 377.639 120.365C363.877 135.897 343.725 149.771 325.26 158.292C320.618 160.434 312.272 164.639 307.497 160.315C302.598 155.875 305.879 146.941 307.899 142.109Z" stroke="#6964E1" stroke-opacity="0.7"/>
<path fill-rule="evenodd" clip-rule="evenodd" d="M323.782 133.27C328.737 122.821 341.686 114.937 352.413 112.428C359.962 110.663 369.036 112.187 362.457 121.283C355.921 130.309 343.794 138.553 333.516 142.208C325.674 144.995 319.527 142.245 323.782 133.27Z" stroke="#6964E1" stroke-opacity="0.7"/>
<path fill-rule="evenodd" clip-rule="evenodd" d="M-77.998 205.642C-78.3158 184.998 -88.7121 163.544 -83.5778 142.509C-79.3617 125.233 -58.1361 123.791 -45.4028 115.964C-35.2841 109.746 -29.5418 98.7303 -24.0696 88.1614C-19.1529 78.6729 -14.7366 68.8991 -9.55723 59.5665C-6.20438 53.5332 -0.446972 41.6858 6.82422 41.4718C13.7851 41.2658 20.1681 50.498 24.2115 55.9555C29.4835 63.0692 34.1575 70.6531 39.2769 77.8805C47.9042 90.0713 58.2555 99.0948 70.1081 107.635C83.5963 117.352 97.3071 126.738 111.241 135.791C121.499 142.477 131.828 149.113 141.689 156.459C147.874 161.068 161.526 169.717 161.589 178.215C161.619 182.27 157.978 186.76 155.523 190.002C151.37 195.488 146.636 200.504 141.887 205.412C133.042 214.555 123.821 223.283 114.701 232.116C102.863 243.58 91.5564 254.857 81.15 267.872C70.3908 281.344 60.1121 295.26 49.6232 308.985C42.5196 318.284 35.4236 328.726 25.1773 334.432C12.3439 341.564 1.80994 334.043 -11.1686 333.956C-22.3331 333.879 -21.5099 306.576 -22.9286 298.984C-24.3523 291.3 -27.49 284.147 -28.706 276.444C-30.2223 266.829 -30.2424 256.991 -30.6152 247.273C-31.0681 235.386 -31.2482 224.07 -43.286 219.537C-50.1368 216.961 -57.5481 216.42 -64.6391 214.877C-69.233 213.876 -77.8979 212.164 -77.998 205.642Z" stroke="#6964E1" stroke-opacity="0.7"/>
<path fill-rule="evenodd" clip-rule="evenodd" d="M-72.5099 201.97C-73.6802 184.665 -80.594 162.517 -74.056 144.654C-68.4703 129.389 -51.0016 127.41 -39.2388 119.391C-29.5283 112.777 -25.2056 101.954 -20.3516 91.322C-16.4574 82.7927 -12.681 74.1814 -8.26055 65.9246C-5.00285 59.8398 -0.0285836 49.5671 6.74493 48.3079C12.8343 47.1756 19.3647 56.2445 22.7828 60.8584C27.7696 67.594 32.0347 74.9089 36.4401 82.0705C44.1809 94.6501 52.1071 105.962 63.4364 115.203C74.8158 124.484 87.2652 131.423 99.8475 138.646C109.691 144.297 119.484 150.112 128.836 156.635C135.802 161.493 145.819 167.71 149.006 176.371C151.53 183.223 138.732 194.594 134.958 198.607C127.19 206.859 118.958 214.605 110.711 222.304C100.657 231.685 90.2824 239.889 81.4039 250.59C65.5238 269.723 52.25 293.548 31.8167 307.768C19.4925 316.345 5.77763 318.538 -7.92976 317.255C-13.3576 316.747 -14.6607 308.66 -15.3448 303.943C-16.4825 296.107 -16.6253 288.136 -17.4999 280.268C-18.3193 272.902 -20.1386 265.905 -21.6046 258.683C-23.0881 251.365 -23.5041 243.867 -24.5967 236.5C-25.2733 231.925 -25.9423 226.603 -28.9018 222.925C-31.9641 219.118 -37.016 217.523 -41.4315 216.311C-49.7235 214.057 -71.6829 214.182 -72.5099 201.97Z" stroke="#6964E1" stroke-opacity="0.7"/>
<path fill-rule="evenodd" clip-rule="evenodd" d="M-65.4456 194.726C-67.4138 178.842 -70.1692 159.057 -62.1512 144.423C-55.5975 132.457 -41.62 129.875 -31.6364 122.079C-23.3327 115.595 -20.1962 105.283 -16.0744 95.6999C-12.6922 87.8396 -9.2925 79.945 -5.19327 72.4652C-2.08438 66.7927 1.92209 59.1015 8.09474 57.1225C13.3723 55.4316 19.3344 63.0065 22.2603 66.7768C27.242 73.2024 31.3036 80.4021 35.3377 87.5067C41.9366 99.132 48.0089 111.55 57.4008 121.006C66.5269 130.182 77.3679 135.598 88.412 141.688C96.8712 146.354 105.278 151.2 113.248 156.764C119.368 161.034 126.952 166.093 130.141 173.198C132.899 179.325 125.819 186.578 122.281 190.9C116.44 198.034 109.956 204.578 103.563 211.149C96.6631 218.238 89.0213 224.777 82.3447 232.04C68.3045 247.325 57.0874 264.247 39.7829 275.957C28.5758 283.543 13.4952 290.433 0.24729 289.194C-9.27997 288.301 -8.65317 266.049 -9.56829 258.94C-11.0726 247.314 -13.9784 235.1 -18.5941 224.391C-22.558 215.215 -31.9774 212.386 -40.6422 210.327C-46.0702 209.035 -51.759 208.338 -57.009 206.341C-63.0864 204.026 -64.6208 201.384 -65.4456 194.726Z" stroke="#6964E1" stroke-opacity="0.7"/>
<path fill-rule="evenodd" clip-rule="evenodd" d="M-58.8561 187.28C-60.028 173.851 -59.7645 157.97 -52.1739 146.354C-45.5217 136.178 -33.6778 133.499 -25.2541 125.483C-18.6797 119.23 -16.0977 109.033 -12.5621 100.763C-8.24106 90.6512 -2.18612 71.9751 8.71428 68.1699C18.8544 64.6324 29.4587 87.2303 33.1298 93.9688C38.9413 104.634 43.8018 116.331 50.8504 126.18C56.9204 134.66 65.0531 139.347 73.6851 144.385C84.6908 150.818 101.4 158.447 107.285 170.986C111.671 180.33 97.408 194.22 92.5374 200.694C87.4436 207.456 83.6068 215.472 78.3499 221.996C70.0541 232.291 56.6118 240.579 45.5132 246.904C34.7232 253.057 20.7112 259.867 8.47088 259.462C0.426061 259.197 -1.10461 246.086 -2.82097 239.681C-5.28008 230.576 -8.5497 222.417 -15.5732 216.225C-22.7222 209.921 -31.1485 206.95 -40.0063 204.351C-44.5531 203.026 -49.7399 201.992 -53.8074 199.316C-58.3016 196.404 -58.4045 192.442 -58.8561 187.28Z" stroke="#6964E1" stroke-opacity="0.7"/>
<path fill-rule="evenodd" clip-rule="evenodd" d="M-50.827 179.54C-50.7619 167.938 -48.2483 155.566 -40.7948 146.616C-34.5869 139.162 -24.8699 136.67 -18.9271 129.05C-14.2199 123.017 -11.8238 114.547 -8.67233 107.541C-4.81804 98.9558 0.631994 83.9576 10.2165 80.978C19.5708 78.0775 27.8447 94.5972 31.4313 101.134C36.6838 110.719 40.9357 120.878 46.2357 130.437C50.3876 137.936 55.465 142.769 62.2257 147.603C70.1619 153.28 81.2345 159.568 85.474 168.961C88.5304 175.761 81.132 186.627 78.4457 192.618C76.6449 196.642 74.9966 200.729 74.0912 205.09C73.3859 208.487 73.3158 211.63 71.2724 214.546C66.1275 221.882 54.8472 222.839 47.1937 225.257C37.0289 228.466 26.2439 232.113 15.6065 232.809C9.06842 233.244 5.73187 226.886 2.00014 222.414C-2.40941 217.128 -8.65233 213.325 -14.1049 209.336C-21.3007 204.062 -29.1319 200.782 -37.2331 197.423C-40.8873 195.906 -45.1793 194.419 -48.0106 191.405C-50.967 188.281 -50.8495 183.727 -50.827 179.54Z" stroke="#6964E1" stroke-opacity="0.7"/>
<path fill-rule="evenodd" clip-rule="evenodd" d="M-42.3946 172.652C-41.1027 162.908 -37.0767 153.595 -30.2767 146.707C-25.0639 141.418 -18.1411 138.441 -13.9574 132.086C-10.0592 126.163 -7.34262 119.428 -4.12285 113.095C-0.71529 106.4 4.34722 95.2095 12.2064 93.3876C20.6765 91.4256 27.2011 102.714 30.814 108.97C35.3783 116.877 38.8459 125.383 42.927 133.562C46.0014 139.658 49.9232 145.233 54.5617 150.102C59.4265 155.234 66.0237 160.15 68.4849 167.208C70.6606 173.459 66.5896 181.021 65.871 187.359C65.1024 194.131 66.4494 201.245 62.1881 207.059C53.4 219.051 31.3448 216.827 18.7361 217.084C6.29511 217.348 -3.70723 210.01 -13.7747 203.029C-20.4245 198.42 -27.3498 194.518 -34.1674 190.223C-41.1177 185.842 -43.5313 181.227 -42.3946 172.652Z" stroke="#6964E1" stroke-opacity="0.7"/>
<path fill-rule="evenodd" clip-rule="evenodd" d="M-34.5602 167.075C-30.7398 152.958 -18.8073 145.456 -10.277 134.788C-3.29746 126.054 1.93596 107.968 13.6905 105.576C27.0359 102.86 35.0251 126.824 39.6647 136.071C44.813 146.326 53.9821 154.668 57.7951 165.524C59.7993 171.222 58.0782 176.539 57.011 182.234C55.841 188.488 54.9617 194.882 50.9232 199.915C42.9741 209.821 27.4492 209.752 16.2684 210.025C4.69423 210.308 -5.54466 203.52 -14.7664 196.745C-24.5468 189.57 -38.4734 181.551 -34.5602 167.075Z" stroke="#6964E1" stroke-opacity="0.7"/>
<path fill-rule="evenodd" clip-rule="evenodd" d="M-28.1616 163.247C-23.8566 153.19 -14.8101 145.013 -7.46949 137.294C-1.34261 130.859 5.24858 117.905 14.5903 116.982C25.5697 115.893 32.224 129.726 36.5441 138.207C40.7961 146.542 46.923 155.342 49.2773 164.489C51.7326 174.017 45.1944 186.851 38.959 193.593C32.0045 201.112 20.6263 203.89 10.8632 203.59C0.640807 203.285 -8.73877 197.071 -16.4806 190.626C-24.7575 183.736 -33.1681 174.922 -28.1616 163.247Z" stroke="#6964E1" stroke-opacity="0.7"/>
<path fill-rule="evenodd" clip-rule="evenodd" d="M-22.224 161.354C-18.1119 152.988 -10.9838 145.912 -4.41148 139.6C0.660492 134.727 8.14468 126.441 15.4622 126.238C23.5122 126.014 30.3346 132.969 33.5349 140.098C36.6897 147.13 40.0138 155.945 40.4861 163.66C41.5116 180.458 20.6327 199.276 4.95449 197.745C-9.91033 196.293 -30.423 178.021 -22.224 161.354Z" stroke="#6964E1" stroke-opacity="0.7"/>
<path fill-rule="evenodd" clip-rule="evenodd" d="M-16.7327 160.431C-11.0598 149.532 2.71984 133.994 15.477 133.625C30.12 133.203 33.7959 150.494 31.8873 163.025C29.9484 175.814 13.0659 194.325 -0.395601 191.824C-13.534 189.383 -23.4559 173.357 -16.7327 160.431Z" stroke="#6964E1" stroke-opacity="0.7"/>
<path fill-rule="evenodd" clip-rule="evenodd" d="M-10.9351 158.669C-6.13206 149.543 4.11734 138.145 14.8072 137.8C27.5445 137.391 27.3043 151.99 24.4159 161.076C21.4124 170.51 8.18456 186.623 -2.96838 184.078C-13.8135 181.595 -15.538 167.415 -10.9351 158.669Z" stroke="#6964E1" stroke-opacity="0.7"/>
<path fill-rule="evenodd" clip-rule="evenodd" d="M-5.88558 157.619C-2.71522 151.107 5.21947 142.877 12.7626 142.614C21.9825 142.297 20.1902 153.876 17.808 159.465C14.9766 166.115 5.48556 177.669 -2.47926 175.797C-10.3211 173.953 -8.50119 162.984 -5.88558 157.619Z" stroke="#6964E1" stroke-opacity="0.7"/>
<path fill-rule="evenodd" clip-rule="evenodd" d="M427.834 529.667C407.427 542.732 384.357 553.516 362.602 564.477C330.81 580.493 298.549 596.078 265.144 608.009C247.234 614.403 224.026 623.623 204.809 618.613C197.783 616.782 191.375 611.243 185.075 607.644C176.388 602.681 167.574 597.965 158.774 593.237C141.122 583.761 123.415 574.381 106.066 564.297C97.7124 559.44 89.6065 553.323 80.9096 549.179C75.8271 546.756 69.7453 547.89 64.3147 548.043C51.7351 548.4 39.1631 549.076 26.5911 549.652C11.2136 550.355 -4.19904 551.103 -19.5941 550.825C-26.5376 550.699 -43.5433 551.999 -47.3658 545.689C-49.4223 542.29 -44.5754 536.162 -42.3285 533.327C-38.2029 528.116 -33.4611 523.42 -28.782 518.772C-17.9609 508.023 -6.46846 497.786 3.15031 485.778C8.09246 479.605 14.5676 472.064 11.3413 463.637C8.08496 455.126 2.44392 447.756 -0.997796 439.273C-4.96053 429.512 -6.60374 419.354 -8.47489 409.004C-9.86009 401.354 -13.0864 394.576 -16.1198 387.523C-19.4714 379.728 -22.9431 371.866 -25.2702 363.646C-26.8082 358.215 -29.2905 348.446 -23.91 345.008C-16.2651 340.12 -1.92962 344.078 6.78489 345.518C18.8284 347.505 30.7842 350.037 42.7952 352.217C51.5147 353.802 60.2643 355.541 69.1291 355.726C83.4195 356.025 97.7575 354.991 112.01 354.03C138.402 352.249 164.604 349.833 191.085 349.833C214.284 349.833 267.897 378.153 280.447 383.139C305.495 393.093 331.211 402.53 354.914 415.774C361.327 419.36 371.196 424.137 374.57 431.518C376.652 436.065 375.695 438.695 380.605 441.625C387.303 445.623 395.884 447.193 403.299 448.982C415.24 451.862 427.273 454.301 439.269 456.909C463.531 462.17 487.628 468.121 511.791 473.847C519.095 475.578 527.932 475.961 534.896 479.011C539.385 480.969 538.919 483.434 535.444 486.41C529.35 491.631 520.808 494.53 513.609 497.508C503.061 501.871 492.34 505.763 481.614 509.6C470.888 513.437 460.107 517.155 449.376 521C442.287 523.531 434.204 525.59 427.834 529.667Z" stroke="#6964E1" stroke-opacity="0.7"/>
<path fill-rule="evenodd" clip-rule="evenodd" d="M411.04 526.793C389.454 539.884 365.492 550.313 342.392 560.488C312.828 573.518 282.595 585.731 251.445 593.876C233.155 598.655 211.576 603.932 192.888 598.451C186.221 596.496 181.24 592.1 175.525 588.221C169.011 583.794 162.246 579.737 155.482 575.744C141.557 567.525 127.484 559.586 113.265 551.928C105.734 547.855 97.4435 542.401 88.9351 540.988C82.1704 539.863 74.4862 541.491 67.6915 541.964C55.455 542.817 43.221 543.695 30.9795 544.441C16.8539 545.301 2.68821 546.095 -11.4675 545.958C-19.357 545.881 -32.9014 547.148 -38.481 541.769C-43.349 537.074 -25.6257 520.096 -22.5089 516.87C-12.7753 506.798 -2.53812 497.208 6.52151 486.438C11.8756 480.087 18.3947 472.363 20.6521 463.945C22.5738 456.771 18.8658 448.597 16.676 441.965C13.9376 433.658 11.7278 425.048 8.5459 416.916C5.71226 409.67 1.20246 403.216 -2.75862 396.629C-7.11555 389.384 -11.5276 382.019 -14.7621 374.115C-16.7439 369.251 -20.0235 361.106 -16.085 356.47C-11.5351 351.124 2.49028 354.618 8.25527 355.38C19.9506 356.946 31.5557 359.275 43.1709 361.36C62.4627 364.821 80.855 367.849 100.5 367.124C126.083 366.176 151.641 363.948 177.219 362.715C186.664 362.255 196.26 361.328 205.713 361.829C211.132 362.117 215.259 363.864 218.411 367.804C222.715 373.181 232.629 376.158 239.524 379.244C250.275 384.052 261.161 388.524 272.017 393.054C295.848 403.004 320.138 412.594 342.74 425.463C349.89 429.533 358.078 434.071 363.367 440.795C366.318 444.545 365.574 448.157 367.376 452.143C369.761 457.385 377.603 459.751 382.291 461.465C391.338 464.778 400.756 466.999 410.101 469.079C431.247 473.784 452.443 476.877 473.932 479.156C478.967 479.685 498.798 481.519 488.383 490.357C476.875 500.124 460.259 504.912 446.713 510.416C434.509 515.364 422.295 519.969 411.04 526.793Z" stroke="#6964E1" stroke-opacity="0.7"/>
<path fill-rule="evenodd" clip-rule="evenodd" d="M381.208 524.373C360.917 535.89 338.44 544.482 316.586 552.701C290.068 562.675 262.885 571.566 235.072 576.546C217.601 579.672 198.338 582.073 180.985 576.879C169.134 573.333 159.967 563.748 149.558 557.153C139.149 550.558 128.319 544.368 117.165 539.208C110.243 536.006 102.796 532.78 95.0939 533.202C76.3657 534.228 57.6601 536.672 38.9118 537.858C26.5092 538.65 14.0815 539.303 1.64116 539.108C-5.86064 538.991 -16.1666 539.467 -22.8081 535.303C-30.1494 530.698 8.93977 491.378 12.6342 486.952C21.8967 475.856 33.1131 461.128 31.3223 445.347C29.6092 430.261 22.1852 418.997 13.788 407.177C9.02253 400.453 -6.25947 382.489 -0.596118 373.744C2.63936 368.745 13.3039 370.475 18.3703 370.816C28.3552 371.487 38.2848 372.93 48.217 374.182C62.6989 375.997 77.5797 378.801 92.1243 379.622C102.252 380.193 112.44 379.429 122.585 379.413C137.133 379.392 151.68 379.509 166.227 379.646C178.441 379.762 190.759 379.646 202.931 380.882C210.498 381.643 216.241 383.353 221.669 388.183C226.392 392.384 233.517 394.843 239.537 397.515C249.479 401.924 259.552 406.012 269.592 410.165C290.612 418.863 311.874 427.378 331.994 438.248C341.179 443.207 356.621 450.151 358.776 462.175C359.553 466.51 360.125 468.384 364.138 470.849C369.834 474.347 376.656 475.924 383.047 477.296C397.945 480.492 413.275 480.014 428.148 483.174C434.205 484.477 442.113 487.288 435.198 493.724C427.129 501.251 415.384 505.389 405.718 510.039C400.892 512.359 395.921 514.531 391.339 517.363C387.82 519.545 384.807 522.343 381.208 524.373Z" stroke="#6964E1" stroke-opacity="0.7"/>
<path fill-rule="evenodd" clip-rule="evenodd" d="M342.777 520.777C324.031 530.131 303.672 536.932 283.679 543.063C261.472 549.864 238.729 555.498 215.686 557.894C199.774 559.555 182.821 560.045 167.378 554.963C157.612 551.747 150.991 544.986 142.587 539.316C129.903 530.745 116.18 523.955 100.943 525.608C83.8592 527.456 66.7199 528.843 49.5246 529.768C39.1524 530.327 28.7401 530.746 18.3553 530.356C11.7894 530.113 3.33035 529.702 -2.38164 526.564C-10.0244 522.361 18.6834 490.378 22.2618 485.717C31.1366 474.157 37.6424 462.027 41.4437 447.704C44.5439 436.017 38.2108 426.83 31.6775 418.087C27.6157 412.658 14.4914 399.003 18.6007 391.953C20.8545 388.065 28.2818 388.266 32.271 388.067C39.8736 387.691 47.5088 388.083 55.1114 388.255C66.3376 388.52 78.2875 386.701 89.4185 388.165C114.087 391.407 138.693 394.214 163.514 396.436C177.197 397.66 190.962 398.772 204.522 401.132C209.39 401.979 214.419 402.877 219.031 404.795C221.999 406.026 223.617 408.124 226.121 409.845C238.061 418.039 253.646 422.256 267.094 427.508C284.971 434.489 302.943 441.361 320.345 449.609C329.498 453.947 342.281 458.931 348.579 467.785C350.482 470.46 349.671 472.6 350.868 475.171C352.245 478.137 356.43 479.022 359.132 479.848C365.265 481.726 390.935 484.565 379.105 495.58C373.461 500.826 366.269 504.192 359.906 508.316C357.602 509.81 355.356 511.311 353.435 513.327C350.222 516.706 347.057 518.634 342.777 520.777Z" stroke="#6964E1" stroke-opacity="0.7"/>
<path fill-rule="evenodd" clip-rule="evenodd" d="M301.828 516.727C264.821 531.861 221.45 542.171 181.102 540.174C167.685 539.507 153.249 537.282 141.618 529.667C134.76 525.169 129.28 520.092 121.042 518.468C115.095 517.296 108.691 518.626 102.709 519.108C94.0442 519.806 85.3745 520.431 76.6973 520.936C65.9398 521.553 55.1473 522.029 44.3697 521.775C36.6686 521.592 26.0342 521.799 19.3443 517.433C11.3572 512.226 31.6877 487.8 34.5483 483.448C41.4815 472.899 46.3421 462.679 48.0986 449.966C48.6155 446.262 50.357 442.465 50.1312 438.732C49.8953 434.919 47.6695 431.525 45.6144 428.527C42.9269 424.598 33.6023 415.28 36.2722 410.488C37.7476 407.842 43.2857 407.509 46.1564 406.948C51.5414 405.89 57.0042 405.321 62.4218 404.479C71.6134 403.045 80.7398 398.376 89.964 398.508C114.769 398.857 139.932 406.974 164.24 411.433C178.691 414.092 193.24 416.505 207.515 420.105C212.032 421.246 216.685 422.426 220.978 424.36C223.974 425.709 225.899 428.114 228.674 429.625C239.316 435.427 251.554 438.949 262.981 442.854C277.816 447.934 292.702 452.86 307.434 458.268C316.668 461.657 328.542 464.639 336.499 470.926C342.311 475.516 338.339 476.889 335.272 481.165C333.707 483.345 334.068 485.493 333.388 487.962C332.417 491.486 329.672 494.023 327.097 496.304C323.546 499.455 318.816 502.051 315.913 505.913C314.889 507.273 314.937 508.961 314.109 510.147C311.7 513.599 305.309 515.303 301.828 516.727Z" stroke="#6964E1" stroke-opacity="0.7"/>
<path fill-rule="evenodd" clip-rule="evenodd" d="M262.482 511.335C232.446 520.85 199.026 526.268 167.277 523.753C156.231 522.877 145.117 520.842 134.827 516.372C130.145 514.344 126.631 512.084 121.501 511.962C109.598 511.682 97.6575 512.664 85.757 512.899C77.2405 513.069 68.6814 513.13 60.185 512.407C54.504 511.925 46.8216 511.348 42.1676 507.672C35.4045 502.318 47.6131 484.117 50.098 479.088C54.2159 470.748 58.3013 461.477 56.6682 451.827C56.1672 448.876 55.2805 446.269 55.1652 443.26C55.055 440.674 55.3631 438.287 54.4939 435.815C53.4194 432.75 48.6401 427.994 50.2833 425.173C51.403 423.246 54.7244 423.156 56.9337 422.539C60.517 421.539 64.0157 420.227 67.3939 418.617C70.9508 416.912 73.9792 414.279 77.6638 412.871C83.6454 410.589 90.3409 410.375 96.628 410.385C121.714 410.428 147.118 415.65 171.568 421.11C184.3 423.952 197.103 426.983 209.477 431.294C213.234 432.604 217.492 433.92 220.796 436.339C222.857 437.845 224.255 439.732 226.597 440.865C246.603 450.536 269.733 454.127 290.972 461.112C296.5 462.93 327.137 472.117 311.118 480.758C301.387 486.009 291.105 488.396 282.225 495.579C279.52 497.763 277.716 499.571 276.659 502.903C275.963 505.121 277.638 503.996 275.299 506.314C272.461 509.101 265.981 510.226 262.482 511.335Z" stroke="#6964E1" stroke-opacity="0.7"/>
<path fill-rule="evenodd" clip-rule="evenodd" d="M231.252 505.709C196.087 513.475 158.847 513.845 123.127 506.96C114.122 505.226 104.751 505.64 95.6355 505.199C86.779 504.777 71.0326 505.656 64.6 498.47C59.9356 493.261 64.9968 482.191 66.7475 476.364C68.978 468.941 70.9272 461.272 67.265 454.063C65.1199 449.84 62.1811 445.821 59.8803 441.639C58.7802 439.641 56.5145 436.58 57.459 434.688C59.0213 431.566 66.3306 430.252 69.8772 428.779C81.2129 424.074 93.2167 422.873 105.336 422.907C127.721 422.968 150.222 426.199 172.18 430.579C182.282 432.595 192.525 434.746 202.268 438.25C207.782 440.232 211.848 444.056 217.113 446.323C234.065 453.627 252.278 457.53 269.521 464.209C274.512 466.144 293.154 472.583 283.763 480.175C274.67 487.524 261.408 486.651 251.954 493.565C250.884 494.356 249.56 495.304 248.94 496.583C248.573 497.349 249.218 498.805 248.94 499.241C246.036 503.972 235.715 504.724 231.252 505.709Z" stroke="#6964E1" stroke-opacity="0.7"/>
<path fill-rule="evenodd" clip-rule="evenodd" d="M208.468 500.576C190.428 503.187 171.991 503.834 153.646 503.999C143.619 504.089 132.602 504.763 122.791 502.083C116.764 500.433 110.943 498.989 104.73 497.949C98.0454 496.83 87.2823 496.015 83.2117 489.947C80.1706 485.413 82.2549 476.092 82.3654 470.578C82.4834 464.531 81.3081 460.047 77.2626 455.72C74.7187 452.995 63.0491 443.104 64.3977 440.251C65.6809 437.534 73.8122 437.118 77.3279 436.412C88.44 434.173 99.7003 433.393 111.003 433.515C128.509 433.701 146.08 435.584 163.312 438.821C170.436 440.167 177.799 441.559 184.604 444.247C189.187 446.059 193.009 449.273 197.562 451.146C210.6 456.519 224.387 460.167 237.47 465.638C241.669 467.397 255.35 472.08 252.071 479.297C249.336 485.322 240.034 487.156 235.464 491.194C227.689 498.082 218.383 499.143 208.468 500.576Z" stroke="#6964E1" stroke-opacity="0.7"/>
<path fill-rule="evenodd" clip-rule="evenodd" d="M197.103 497.113C182.792 498.842 168.149 499.597 153.628 499.634C144.257 499.658 134.37 499.793 125.174 497.57C120.554 496.455 116.54 493.847 112.168 491.986C107.666 490.073 101.454 487.937 99.5081 483.55C97.6798 479.427 98.3626 473.412 96.757 468.441C95.3289 464.03 92.3401 461.305 89.1213 458.324C87.0705 456.418 76.5386 448.17 77.7566 446.349C79.0621 444.398 85.3873 444.557 88.6786 444.287C97.747 443.532 106.847 443.291 115.94 443.566C128.35 443.968 140.855 445.088 153.05 447.625C161.701 449.423 168.226 453.704 176.292 456.844C186.742 460.922 197.566 464.146 207.915 468.607C213.072 470.83 220.706 473.689 223.347 479.427C224.362 481.626 225.348 487.218 224.217 489.417C222.859 492.06 217.804 493.181 215.418 493.86C209.441 495.554 203.186 496.378 197.103 497.113Z" stroke="#6964E1" stroke-opacity="0.7"/>
</g>
</svg>
