<svg width="268" height="40" viewBox="0 0 268 40" fill="none" xmlns="http://www.w3.org/2000/svg">
<path fill-rule="evenodd" clip-rule="evenodd" d="M186.629 3.35409C186.629 1.54896 185.085 0.000244141 183.152 0.000244141C181.352 0.000244141 179.87 1.4823 179.87 3.35409V10.1182H175.552C173.747 10.1182 172.203 11.6618 172.203 13.4669C172.203 15.2721 173.747 16.8823 175.552 16.8823H179.87V36.3388C179.87 38.1439 181.352 39.6926 183.152 39.6926C185.085 39.6926 186.629 38.1439 186.629 36.3388V16.8823H190.88C192.752 16.8823 194.295 15.2721 194.295 13.4669C194.295 11.6618 192.747 10.1182 190.88 10.1182H186.629V3.35409ZM14.8134 10.1182C6.69546 10.1131 0.126222 16.6875 0.126222 24.867L0.121094 24.8823C0.121094 33.1234 6.69033 39.6978 14.8083 39.6978C18.9262 39.6978 22.5365 38.0208 25.3057 35.3798C26.5929 34.0259 26.5929 31.8362 25.3057 30.6106C24.6647 29.9029 23.8288 29.5798 22.9878 29.5798C22.0852 29.5798 21.1827 29.9029 20.5416 30.6106C19.0596 32.0259 17.1262 32.9285 14.8083 32.9285C10.4237 32.9285 6.81854 29.2618 6.81854 24.8772C6.81854 20.4926 10.4288 16.8208 14.8083 16.8208C17.0032 16.8208 19.0596 17.6567 20.5416 19.1387C21.1211 19.8464 22.0237 20.1695 22.9262 20.1695C23.7673 20.1695 24.6032 19.8413 25.3109 19.2003C26.598 17.8464 26.598 15.7234 25.3109 14.4311C22.5416 11.79 18.9365 10.1182 14.8134 10.1182ZM86.1269 23.4516C86.1269 16.1746 80.0705 10.1182 72.7935 10.1182H72.7884C65.4448 10.1182 59.3884 16.1746 59.3884 23.4516V36.3336C59.3884 38.1388 60.932 39.6875 62.7371 39.6875C64.6705 39.6875 66.1525 38.1388 66.1525 36.3336V23.4516C66.1525 19.7798 69.2448 16.8157 72.7884 16.8157C76.332 16.8157 79.3628 19.7798 79.3628 23.4516V36.3336C79.3628 38.1388 80.973 39.6875 82.7782 39.6875C84.5833 39.6875 86.1269 38.1388 86.1269 36.3336V23.4516ZM101.716 10.1182C108.993 10.1182 115.049 16.1746 115.049 23.4516V36.3336C115.049 38.1388 113.505 39.6875 111.7 39.6875C109.895 39.6875 108.285 38.1388 108.285 36.3336V23.4516C108.285 19.7798 105.254 16.8157 101.711 16.8157C98.1669 16.8157 95.0746 19.7798 95.0746 23.4516V36.3336C95.0746 38.1388 93.5926 39.6875 91.6592 39.6875C89.8541 39.6875 88.3105 38.1388 88.3105 36.3336V23.4516C88.3105 16.1746 94.3669 10.1182 101.711 10.1182H101.716ZM145.685 22.3541C144.593 15.4003 138.537 10.1182 131.321 10.1182L131.311 10.1234C123.07 10.1234 116.496 16.6362 116.496 24.8772C116.496 33.1183 123.065 39.6926 131.311 39.6926C135.311 39.6926 139.044 38.0157 141.685 35.3747C142.973 34.0208 142.973 31.8311 141.685 30.6054C141.044 29.8977 140.203 29.5747 139.367 29.5747C138.532 29.5747 137.629 29.8977 136.921 30.6054C135.439 32.0208 133.439 32.9234 131.316 32.9234C127.711 32.9234 124.685 30.5388 123.716 27.3182H141.819C145.424 27.3182 146.393 25.2567 145.685 22.3541ZM123.721 22.549C124.685 19.267 127.716 16.8157 131.321 16.8157C134.865 16.8157 137.896 19.2618 138.793 22.549H123.721ZM146.275 24.867C146.275 16.6875 152.844 10.1131 160.962 10.1182C165.085 10.1182 168.69 11.79 171.46 14.4311C172.747 15.7234 172.747 17.8464 171.46 19.2003C170.752 19.8413 169.916 20.1695 169.075 20.1695C168.173 20.1695 167.27 19.8464 166.69 19.1387C165.208 17.6567 163.152 16.8208 160.957 16.8208C156.578 16.8208 152.967 20.4926 152.967 24.8772C152.967 29.2618 156.572 32.9285 160.957 32.9285C163.275 32.9285 165.208 32.0259 166.69 30.6106C167.331 29.9029 168.234 29.5798 169.137 29.5798C169.978 29.5798 170.814 29.9029 171.46 30.6106C172.747 31.8362 172.747 34.0259 171.46 35.3798C168.69 38.0208 165.08 39.6978 160.962 39.6978C152.844 39.6978 146.275 33.1234 146.275 24.8823V24.867Z" fill="#1E4E79"/>
<path fill-rule="evenodd" clip-rule="evenodd" d="M253.13 10.1131C245.012 10.1131 238.443 16.6874 238.443 24.8669H238.438C238.438 33.108 244.94 39.6823 253.125 39.6823C261.309 39.6823 267.879 33.1131 267.879 24.8669V3.35409C267.879 1.4823 266.397 0.000244141 264.53 0.000244141C262.663 0.000244141 261.181 1.4823 261.181 3.35409V13.0772C259.053 11.2721 256.289 10.1131 253.13 10.1131ZM253.13 32.9182C248.75 32.9182 245.14 29.3131 245.14 24.8669C245.14 20.4823 248.684 16.8105 253.13 16.8105C257.576 16.8105 261.181 20.4208 261.181 24.8669C261.181 29.3131 257.509 32.9182 253.13 32.9182ZM216.859 13.9182C214.987 11.5951 211.961 10.1182 208.674 10.1182H208.679C202.238 10.1182 197.018 15.3387 197.018 21.8413V36.3388C197.018 38.1439 198.5 39.6926 200.366 39.6926C202.233 39.6926 203.715 38.1439 203.715 36.3388V21.8413C203.715 19.0721 205.905 16.8157 208.674 16.8157C211.315 16.8157 213.571 19.0721 213.571 21.8413V36.3388C213.571 38.1439 215.054 39.6926 216.859 39.6926C218.792 39.6926 220.274 38.1439 220.274 36.3388V21.8413C220.274 19.0721 222.592 16.8157 225.233 16.8157C227.874 16.8157 230.064 19.0721 230.064 21.8413V36.3388C230.064 38.1439 231.607 39.6926 233.541 39.6926C235.346 39.6926 236.828 38.1439 236.828 36.3388V21.8413C236.828 15.3387 231.612 10.1182 225.233 10.1182C221.884 10.1182 218.982 11.6003 216.859 13.9182Z" fill="#9BCFE5"/>
<path d="M47.4854 31.4923C46.2341 32.3795 44.7059 32.9025 43.0547 32.9025C38.8136 32.9025 35.3675 29.4564 35.3675 25.2153L34.1829 23.1641L32.9982 25.2153L31.8136 23.1641L30.629 25.2153L29.4444 23.1641L28.2598 25.2153C28.2598 33.3795 34.8803 40 43.0444 40C46.6547 40 49.9675 38.7025 52.5367 36.5487L47.4752 31.4872L47.4854 31.4923Z" fill="#9BCFE5"/>
<path d="M29.4551 19.0667L30.6346 21.1179H28.2705L29.4551 19.0667Z" fill="#9BCFE5"/>
<path d="M33.003 17.0154L34.1825 19.0667H31.8184L33.003 17.0154Z" fill="#9BCFE5"/>
<path d="M30.6291 17.0208L31.4137 18.3797H29.8496L30.6291 17.0208Z" fill="#9BCFE5"/>
<path d="M34.5883 19.759L35.3678 21.118H33.8037L34.5883 19.759Z" fill="#9BCFE5"/>
<path d="M34.7775 22.1384L35.3672 23.1641H34.1826L34.7775 22.1384Z" fill="#9BCFE5"/>
<path d="M31.8183 14.9797L32.408 16.0054H31.2285L31.8183 14.9797Z" fill="#9BCFE5"/>
<path d="M28.8603 22.1384L29.45 23.1641H28.2705L28.8603 22.1384Z" fill="#9BCFE5"/>
<path d="M34.5875 16.1846L35.0696 17.0205H34.1055L34.5875 16.1846Z" fill="#9BCFE5"/>
<path d="M29.4547 16.1846L29.9368 17.0205H28.9727L29.4547 16.1846Z" fill="#9BCFE5"/>
<path d="M31.8185 19.0667L34.1826 23.1641H29.4492L31.8185 19.0667Z" fill="#9BCFE5"/>
<path d="M57.8432 25.2172C57.8409 25.216 57.8395 25.2136 57.8395 25.2111C57.8372 17.0489 51.2175 10.4307 43.0548 10.4307C39.5245 10.4307 36.2786 11.6713 33.7343 13.7401C33.6414 13.8157 33.6354 13.9548 33.7201 14.0395L38.5022 18.8217C38.5726 18.892 38.6832 18.9012 38.7657 18.8454C39.9899 18.0179 41.4653 17.5332 43.0548 17.5332C47.2775 17.5332 50.7122 20.9497 50.7418 25.1655C50.7421 25.2013 50.7514 25.2368 50.7694 25.2678L51.7499 26.9657C51.8285 27.1017 52.0248 27.1017 52.1034 26.9657L52.9345 25.5265C53.0131 25.3904 53.2094 25.3904 53.288 25.5265L54.1191 26.9657C54.1977 27.1017 54.394 27.1017 54.4726 26.9657L55.3037 25.5265C55.3823 25.3904 55.5787 25.3904 55.6572 25.5265L56.4884 26.9657C56.5669 27.1017 56.7633 27.1017 56.8418 26.9657L57.8461 25.2267C57.8481 25.2233 57.8467 25.2189 57.8432 25.2172Z" fill="#9BCFE5"/>
<path d="M56.8321 31.058C56.7535 31.194 56.5572 31.194 56.4786 31.058L55.6475 29.6189C55.5689 29.4828 55.6671 29.3127 55.8242 29.3127H57.4864C57.6435 29.3127 57.7417 29.4828 57.6631 29.6189L56.8321 31.058Z" fill="#9BCFE5"/>
<path d="M53.2822 33.1093C53.2037 33.2453 53.0073 33.2453 52.9288 33.1093L52.0977 31.6702C52.0191 31.5341 52.1173 31.364 52.2744 31.364H53.9366C54.0937 31.364 54.1919 31.5341 54.1133 31.6702L53.2822 33.1093Z" fill="#9BCFE5"/>
<path d="M55.6518 33.1041C55.5732 33.2402 55.3769 33.2402 55.2983 33.1041L54.8672 32.3574C54.7886 32.2213 54.8868 32.0513 55.0439 32.0513H55.9062C56.0633 32.0513 56.1615 32.2213 56.0829 32.3574L55.6518 33.1041Z" fill="#9BCFE5"/>
<path d="M51.6974 30.3641C51.6191 30.5006 51.4223 30.5009 51.3436 30.3646L50.9131 29.6189C50.8345 29.4828 50.9327 29.3127 51.0898 29.3127H51.9481C52.1049 29.3127 52.2032 29.4823 52.1251 29.6184L51.6974 30.3641Z" fill="#9BCFE5"/>
<path d="M51.5071 27.9827C51.4287 28.1183 51.233 28.1187 51.1541 27.9833L50.9152 27.5735C50.8359 27.4374 50.934 27.2666 51.0915 27.2666H51.5673C51.7244 27.2666 51.8226 27.4367 51.744 27.5728L51.5071 27.9827Z" fill="#9BCFE5"/>
<path d="M54.4673 35.1453C54.389 35.2815 54.1927 35.2819 54.1139 35.146L53.874 34.7325C53.7951 34.5964 53.8933 34.426 54.0506 34.426H54.5281C54.6851 34.426 54.7833 34.5958 54.7051 34.7318L54.4673 35.1453Z" fill="#9BCFE5"/>
<path d="M57.4221 27.9833C57.3432 28.1187 57.1475 28.1183 57.0691 27.9827L56.8322 27.5728C56.7536 27.4367 56.8518 27.2666 57.0089 27.2666H57.4847C57.6422 27.2666 57.7403 27.4374 57.661 27.5735L57.4221 27.9833Z" fill="#9BCFE5"/>
<path d="M51.6989 33.9397C51.6204 34.0759 51.4238 34.0759 51.3453 33.9397L51.2165 33.7164C51.1381 33.5804 51.2363 33.4104 51.3933 33.4104H51.6509C51.8079 33.4104 51.9061 33.5804 51.8277 33.7164L51.6989 33.9397Z" fill="#9BCFE5"/>
<path d="M56.8317 33.9397C56.7532 34.0759 56.5566 34.0759 56.4781 33.9397L56.3493 33.7164C56.2709 33.5804 56.3691 33.4104 56.5261 33.4104H56.7837C56.9407 33.4104 57.0389 33.5804 56.9605 33.7164L56.8317 33.9397Z" fill="#9BCFE5"/>
<path d="M54.4667 31.058C54.3882 31.194 54.1919 31.1941 54.1133 31.0582L52.098 27.5728C52.0193 27.4368 52.1175 27.2666 52.2746 27.2666H56.3009C56.458 27.2666 56.5561 27.4366 56.4776 27.5727L54.4667 31.058Z" fill="#9BCFE5"/>
</svg>
