<svg width="195" height="30" viewBox="0 0 195 30" fill="none" xmlns="http://www.w3.org/2000/svg">
<path fill-rule="evenodd" clip-rule="evenodd" d="M135.218 2.93154C135.218 1.62282 134.099 0.5 132.697 0.5C131.392 0.5 130.318 1.57449 130.318 2.93154V7.83552H127.187C125.879 7.83552 124.76 8.95462 124.76 10.2633C124.76 11.5721 125.879 12.7395 127.187 12.7395H130.318V26.8454C130.318 28.1541 131.392 29.2769 132.697 29.2769C134.099 29.2769 135.218 28.1541 135.218 26.8454V12.7395H138.3C139.657 12.7395 140.777 11.5721 140.777 10.2633C140.777 8.95462 139.654 7.83552 138.3 7.83552H135.218V2.93154ZM10.6519 7.83549C4.76641 7.83178 0.00371795 12.5982 0.00371795 18.5283L0 18.5395C0 24.5142 4.76269 29.2806 10.6482 29.2806C13.6337 29.2806 16.2512 28.0649 18.2589 26.1501C19.1921 25.1686 19.1921 23.581 18.2589 22.6924C17.7941 22.1793 17.1881 21.9451 16.5783 21.9451C15.924 21.9451 15.2696 22.1793 14.8049 22.6924C13.7304 23.7186 12.3287 24.3729 10.6482 24.3729C7.46936 24.3729 4.85564 21.7146 4.85564 18.5358C4.85564 15.3569 7.47308 12.6949 10.6482 12.6949C12.2395 12.6949 13.7304 13.3009 14.8049 14.3754C15.225 14.8884 15.8794 15.1227 16.5337 15.1227C17.1435 15.1227 17.7495 14.8847 18.2626 14.42C19.1958 13.4384 19.1958 11.8992 18.2626 10.9623C16.2549 9.04755 13.6412 7.83549 10.6519 7.83549ZM62.3539 17.5022C62.3539 12.2264 57.963 7.83549 52.6872 7.83549H52.6835C47.3594 7.83549 42.9685 12.2264 42.9685 17.5022V26.8417C42.9685 28.1504 44.0876 29.2732 45.3963 29.2732C46.798 29.2732 47.8724 28.1504 47.8724 26.8417V17.5022C47.8724 14.8401 50.1144 12.6911 52.6835 12.6911C55.2526 12.6911 57.4499 14.8401 57.4499 17.5022V26.8417C57.4499 28.1504 58.6173 29.2732 59.926 29.2732C61.2348 29.2732 62.3539 28.1504 62.3539 26.8417V17.5022ZM73.6563 7.83549C78.9321 7.83549 83.323 12.2264 83.323 17.5022V26.8417C83.323 28.1504 82.2039 29.2732 80.8952 29.2732C79.5865 29.2732 78.419 28.1504 78.419 26.8417V17.5022C78.419 14.8401 76.2217 12.6911 73.6526 12.6911C71.0835 12.6911 68.8416 14.8401 68.8416 17.5022V26.8417C68.8416 28.1504 67.7671 29.2732 66.3654 29.2732C65.0567 29.2732 63.9376 28.1504 63.9376 26.8417V17.5022C63.9376 12.2264 68.3285 7.83549 73.6526 7.83549H73.6563ZM105.534 16.7065C104.742 11.665 100.351 7.83549 95.12 7.83549L95.1126 7.83921C89.1378 7.83921 84.3714 12.561 84.3714 18.5358C84.3714 24.5105 89.1341 29.2769 95.1126 29.2769C98.0126 29.2769 100.719 28.0611 102.634 26.1464C103.567 25.1649 103.567 23.5773 102.634 22.6887C102.169 22.1756 101.56 21.9414 100.953 21.9414C100.347 21.9414 99.6931 22.1756 99.18 22.6887C98.1055 23.7149 96.6555 24.3692 95.1163 24.3692C92.5026 24.3692 90.309 22.6404 89.6063 20.3055H102.731C105.344 20.3055 106.047 18.8109 105.534 16.7065ZM89.61 16.8478C90.309 14.4683 92.5063 12.6911 95.12 12.6911C97.6891 12.6911 99.8864 14.4646 100.537 16.8478H89.61ZM105.962 18.5283C105.962 12.5982 110.724 7.83178 116.61 7.83549C119.599 7.83549 122.213 9.04755 124.221 10.9623C125.154 11.8992 125.154 13.4384 124.221 14.42C123.707 14.8847 123.101 15.1227 122.492 15.1227C121.837 15.1227 121.183 14.8884 120.763 14.3754C119.688 13.3009 118.197 12.6949 116.606 12.6949C113.431 12.6949 110.814 15.3569 110.814 18.5358C110.814 21.7146 113.427 24.3729 116.606 24.3729C118.287 24.3729 119.688 23.7186 120.763 22.6924C121.228 22.1793 121.882 21.9451 122.536 21.9451C123.146 21.9451 123.752 22.1793 124.221 22.6924C125.154 23.581 125.154 25.1686 124.221 26.1501C122.213 28.0649 119.595 29.2806 116.61 29.2806C110.724 29.2806 105.962 24.5142 105.962 18.5395V18.5283Z" fill="white"/>
<path fill-rule="evenodd" clip-rule="evenodd" d="M183.432 7.8318C177.547 7.8318 172.784 12.5982 172.784 18.5283H172.781C172.781 24.5031 177.495 29.2695 183.429 29.2695C189.363 29.2695 194.125 24.5068 194.125 18.5283V2.93154C194.125 1.57449 193.051 0.5 191.697 0.5C190.344 0.5 189.27 1.57449 189.27 2.93154V9.98077C187.727 8.67205 185.723 7.8318 183.432 7.8318ZM183.432 24.3655C180.257 24.3655 177.64 21.7518 177.64 18.5283C177.64 15.3495 180.209 12.6874 183.432 12.6874C186.656 12.6874 189.27 15.3049 189.27 18.5283C189.27 21.7518 186.608 24.3655 183.432 24.3655ZM157.135 10.5905C155.778 8.90626 153.585 7.83549 151.202 7.83549H151.205C146.536 7.83549 142.751 11.6204 142.751 16.3347V26.8454C142.751 28.1541 143.825 29.2769 145.179 29.2769C146.532 29.2769 147.606 28.1541 147.606 26.8454V16.3347C147.606 14.327 149.194 12.6911 151.202 12.6911C153.116 12.6911 154.752 14.327 154.752 16.3347V26.8454C154.752 28.1541 155.827 29.2769 157.135 29.2769C158.537 29.2769 159.612 28.1541 159.612 26.8454V16.3347C159.612 14.327 161.292 12.6911 163.207 12.6911C165.122 12.6911 166.709 14.327 166.709 16.3347V26.8454C166.709 28.1541 167.828 29.2769 169.23 29.2769C170.539 29.2769 171.613 28.1541 171.613 26.8454V16.3347C171.613 11.6204 167.832 7.83549 163.207 7.83549C160.779 7.83549 158.675 8.90998 157.135 10.5905Z" fill="#9BCFE5"/>
<path d="M34.339 23.3319C33.4318 23.9751 32.3239 24.3543 31.1267 24.3543C28.0519 24.3543 25.5535 21.8559 25.5535 18.7811L24.6946 17.2939L23.8358 18.7811L22.9769 17.2939L22.1181 18.7811L21.2592 17.2939L20.4004 18.7811C20.4004 24.7001 25.2003 29.5 31.1192 29.5C33.7367 29.5 36.1385 28.5593 38.0012 26.9978L34.3316 23.3282L34.339 23.3319Z" fill="#9BCFE5"/>
<path d="M21.2666 14.3232L22.1217 15.8104H20.4077L21.2666 14.3232Z" fill="#9BCFE5"/>
<path d="M23.8396 12.8362L24.6947 14.3234H22.9807L23.8396 12.8362Z" fill="#9BCFE5"/>
<path d="M22.118 12.8398L22.6868 13.8251H21.5529L22.118 12.8398Z" fill="#9BCFE5"/>
<path d="M24.9884 14.8252L25.5535 15.8105H24.4196L24.9884 14.8252Z" fill="#9BCFE5"/>
<path d="M25.126 16.5503L25.5535 17.2939H24.6947L25.126 16.5503Z" fill="#9BCFE5"/>
<path d="M22.9805 11.3601L23.4081 12.1037H22.553L22.9805 11.3601Z" fill="#9BCFE5"/>
<path d="M20.8353 16.5503L21.2628 17.2939H20.4077L20.8353 16.5503Z" fill="#9BCFE5"/>
<path d="M24.9884 12.2339L25.3379 12.8399H24.6389L24.9884 12.2339Z" fill="#9BCFE5"/>
<path d="M21.2667 12.2339L21.6162 12.8399H20.9172L21.2667 12.2339Z" fill="#9BCFE5"/>
<path d="M22.9808 14.3232L24.6947 17.2939H21.2631L22.9808 14.3232Z" fill="#9BCFE5"/>
<path d="M41.8484 18.7825C41.8467 18.7816 41.8456 18.7799 41.8456 18.778C41.844 12.8605 37.0448 8.06226 31.1268 8.06226C28.5673 8.06226 26.2141 8.96169 24.3694 10.4616C24.3021 10.5164 24.2977 10.6173 24.3591 10.6787L27.8262 14.1457C27.8772 14.1967 27.9574 14.2034 28.0172 14.163C28.9047 13.563 29.9744 13.2116 31.1268 13.2116C34.1882 13.2116 36.6784 15.6885 36.6999 18.745C36.7 18.771 36.7068 18.7967 36.7198 18.8192L37.4307 20.0501C37.4877 20.1488 37.63 20.1488 37.687 20.0501L38.2896 19.0067C38.3465 18.9081 38.4889 18.9081 38.5458 19.0067L39.1484 20.0501C39.2054 20.1488 39.3477 20.1488 39.4047 20.0501L40.0073 19.0067C40.0642 18.9081 40.2066 18.9081 40.2635 19.0067L40.8661 20.0501C40.9231 20.1488 41.0654 20.1488 41.1224 20.0501L41.8505 18.7894C41.8519 18.7869 41.8509 18.7837 41.8484 18.7825Z" fill="#9BCFE5"/>
<path d="M41.1148 23.017C41.0578 23.1156 40.9155 23.1156 40.8585 23.017L40.256 21.9737C40.199 21.875 40.2702 21.7517 40.3841 21.7517H41.5892C41.7031 21.7517 41.7743 21.875 41.7173 21.9737L41.1148 23.017Z" fill="#9BCFE5"/>
<path d="M38.542 24.5043C38.4851 24.6029 38.3427 24.6029 38.2858 24.5043L37.6832 23.461C37.6263 23.3623 37.6975 23.239 37.8114 23.239H39.0164C39.1303 23.239 39.2015 23.3623 39.1446 23.461L38.542 24.5043Z" fill="#9BCFE5"/>
<path d="M40.2597 24.5004C40.2028 24.599 40.0604 24.599 40.0035 24.5004L39.6909 23.959C39.6339 23.8604 39.7051 23.7371 39.819 23.7371H40.4442C40.5581 23.7371 40.6292 23.8604 40.5723 23.959L40.2597 24.5004Z" fill="#9BCFE5"/>
<path d="M37.3929 22.5139C37.3362 22.6129 37.1935 22.6131 37.1365 22.5143L36.8243 21.9736C36.7674 21.875 36.8385 21.7517 36.9524 21.7517H37.5747C37.6884 21.7517 37.7596 21.8746 37.703 21.9733L37.3929 22.5139Z" fill="#9BCFE5"/>
<path d="M37.255 20.7875C37.1982 20.8858 37.0563 20.8861 36.9991 20.7879L36.8258 20.4908C36.7684 20.3921 36.8395 20.2683 36.9537 20.2683H37.2986C37.4125 20.2683 37.4837 20.3917 37.4267 20.4903L37.255 20.7875Z" fill="#9BCFE5"/>
<path d="M39.4004 25.9802C39.3437 26.0789 39.2013 26.0792 39.1442 25.9807L38.9703 25.6809C38.9131 25.5823 38.9843 25.4587 39.0983 25.4587H39.4445C39.5583 25.4587 39.6295 25.5818 39.5728 25.6805L39.4004 25.9802Z" fill="#9BCFE5"/>
<path d="M41.5426 20.7879C41.4854 20.8861 41.3435 20.8858 41.2867 20.7875L41.115 20.4903C41.058 20.3917 41.1292 20.2683 41.2431 20.2683H41.588C41.7022 20.2683 41.7734 20.3921 41.7159 20.4908L41.5426 20.7879Z" fill="#9BCFE5"/>
<path d="M37.3932 25.1062C37.3363 25.2049 37.1938 25.2049 37.1368 25.1062L37.0435 24.9443C36.9866 24.8456 37.0578 24.7224 37.1717 24.7224H37.3584C37.4722 24.7224 37.5434 24.8456 37.4866 24.9443L37.3932 25.1062Z" fill="#9BCFE5"/>
<path d="M41.1147 25.1062C41.0578 25.2049 40.9153 25.2049 40.8584 25.1062L40.765 24.9443C40.7082 24.8456 40.7793 24.7224 40.8932 24.7224H41.0799C41.1938 24.7224 41.265 24.8456 41.2081 24.9443L41.1147 25.1062Z" fill="#9BCFE5"/>
<path d="M39.4008 23.0171C39.3439 23.1157 39.2015 23.1158 39.1445 23.0172L37.6834 20.4903C37.6264 20.3917 37.6976 20.2683 37.8115 20.2683H40.7305C40.8444 20.2683 40.9156 20.3916 40.8587 20.4902L39.4008 23.0171Z" fill="#9BCFE5"/>
</svg>
