<svg width="101" height="101" viewBox="0 0 101 101" fill="none" xmlns="http://www.w3.org/2000/svg">
<path d="M0.235352 50.4444C0.235352 9.18882 9.07761 0.346558 50.3331 0.346558C91.5887 0.346558 100.431 9.18882 100.431 50.4444C100.431 91.6999 91.5887 100.542 50.3331 100.542C9.07761 100.542 0.235352 91.6999 0.235352 50.4444Z" fill="white"/>
<g clip-path="url(#clip0_141_527)">
<path opacity="0.4" d="M26.9583 46.1659C26.9583 45.5901 27.3192 45.0745 27.8606 44.8769L37.6747 41.3104C37.8981 42.1183 38.1903 42.9175 38.5083 43.6823C39.2129 45.3581 40.1583 47.0769 41.1637 48.7011C43.1661 51.9495 45.5036 55.0003 46.9129 56.7534C48.6747 58.9534 51.9918 58.9534 53.7536 56.7534C55.1629 54.9917 57.5004 51.9409 59.5028 48.7011C60.3278 47.3604 61.1184 45.9511 61.7715 44.5503L71.8606 40.8808C72.7543 40.5542 73.7083 41.2159 73.7083 42.1698V64.5909C73.7083 65.1667 73.3473 65.6823 72.8059 65.88L59.9583 70.555V53.6597C59.9583 53.2815 59.6489 52.9722 59.2708 52.9722C58.8926 52.9722 58.5833 53.2815 58.5833 53.6597V70.6065L42.0833 65.5276V53.6597C42.0833 53.2815 41.7739 52.9722 41.3958 52.9722C41.0176 52.9722 40.7083 53.2815 40.7083 53.6597V65.5534L28.8059 69.8847C27.9036 70.2112 26.9583 69.5409 26.9583 68.587V46.1659ZM53.0833 37.8472C53.0833 38.5765 52.7935 39.276 52.2778 39.7917C51.7621 40.3074 51.0626 40.5972 50.3333 40.5972C49.6039 40.5972 48.9044 40.3074 48.3887 39.7917C47.873 39.276 47.5833 38.5765 47.5833 37.8472C47.5833 37.1178 47.873 36.4183 48.3887 35.9026C48.9044 35.3869 49.6039 35.0972 50.3333 35.0972C51.0626 35.0972 51.7621 35.3869 52.2778 35.9026C52.7935 36.4183 53.0833 37.1178 53.0833 37.8472Z" fill="#1E4E79"/>
<path d="M58.3512 42.0753C57.7583 43.4847 56.9247 45.0144 55.9879 46.5354C54.1145 49.5776 51.8973 52.4737 50.5309 54.1753C50.4192 54.3128 50.2387 54.3128 50.1356 54.1753C48.7692 52.4737 46.552 49.569 44.6786 46.5354C43.7418 45.0144 42.9083 43.4847 42.3153 42.0753C41.7137 40.6401 41.3958 39.437 41.3958 38.5347C41.3958 33.6019 45.4004 29.5972 50.3333 29.5972C55.2661 29.5972 59.2708 33.6019 59.2708 38.5347C59.2708 39.437 58.9614 40.6401 58.3512 42.0753ZM51.6051 55.0347C54.3637 51.5886 60.6458 43.2269 60.6458 38.5347C60.6458 32.837 56.0309 28.2222 50.3333 28.2222C44.6356 28.2222 40.0208 32.837 40.0208 38.5347C40.0208 43.2269 46.3028 51.5886 49.0614 55.0347C49.7231 55.8597 50.952 55.8597 51.6051 55.0347ZM61.7715 44.5503L71.8606 40.8808C72.7543 40.5542 73.7083 41.2159 73.7083 42.1698V64.5909C73.7083 65.1667 73.3473 65.6823 72.8059 65.88L59.9583 70.555V53.6597C59.9583 53.2815 59.6489 52.9722 59.2708 52.9722C58.8926 52.9722 58.5833 53.2815 58.5833 53.6597V70.6065L42.0833 65.5276V53.6597C42.0833 53.2815 41.7739 52.9722 41.3958 52.9722C41.0176 52.9722 40.7083 53.2815 40.7083 53.6597V65.5534L28.8059 69.8847C27.9036 70.2112 26.9583 69.5409 26.9583 68.587V46.1659C26.9583 45.5901 27.3192 45.0745 27.8606 44.8769L37.6747 41.3104C37.5543 40.8636 37.4512 40.4081 37.3825 39.9526L27.3965 43.5792C26.3051 43.9745 25.5833 45.0144 25.5833 46.1659V68.587C25.5833 70.4948 27.4825 71.8269 29.27 71.1737L41.4129 66.7565L59.0645 72.1878C59.2106 72.2308 59.3567 72.2308 59.5028 72.1792L73.27 67.169C74.3528 66.7737 75.0833 65.7425 75.0833 64.5823V42.1612C75.0833 40.2534 73.184 38.9214 71.3965 39.5745L62.502 42.8144C62.3903 43.1065 62.2786 43.3901 62.1583 43.6737C62.0379 43.9573 61.909 44.2495 61.7715 44.5417V44.5503ZM47.5833 37.8472C47.5833 37.1178 47.873 36.4183 48.3887 35.9026C48.9044 35.3869 49.6039 35.0972 50.3333 35.0972C51.0626 35.0972 51.7621 35.3869 52.2778 35.9026C52.7935 36.4183 53.0833 37.1178 53.0833 37.8472C53.0833 38.5765 52.7935 39.276 52.2778 39.7917C51.7621 40.3074 51.0626 40.5972 50.3333 40.5972C49.6039 40.5972 48.9044 40.3074 48.3887 39.7917C47.873 39.276 47.5833 38.5765 47.5833 37.8472ZM54.4583 37.8472C54.4583 36.7531 54.0237 35.7039 53.2501 34.9304C52.4765 34.1568 51.4273 33.7222 50.3333 33.7222C49.2392 33.7222 48.19 34.1568 47.4164 34.9304C46.6428 35.7039 46.2083 36.7531 46.2083 37.8472C46.2083 38.9412 46.6428 39.9904 47.4164 40.764C48.19 41.5376 49.2392 41.9722 50.3333 41.9722C51.4273 41.9722 52.4765 41.5376 53.2501 40.764C54.0237 39.9904 54.4583 38.9412 54.4583 37.8472Z" fill="#1E4E79"/>
</g>
<defs>
<clipPath id="clip0_141_527">
<rect width="49.5" height="44" fill="white" transform="translate(25.5833 28.2222)"/>
</clipPath>
</defs>
</svg>
