<svg width="102" height="101" viewBox="0 0 102 101" fill="none" xmlns="http://www.w3.org/2000/svg">
<path d="M0.9021 50.4444C0.9021 9.18882 9.74436 0.346558 50.9999 0.346558C92.2554 0.346558 101.098 9.18882 101.098 50.4444C101.098 91.6999 92.2554 100.542 50.9999 100.542C9.74436 100.542 0.9021 91.6999 0.9021 50.4444Z" fill="white"/>
<g clip-path="url(#clip0_141_503)">
<path opacity="0.4" d="M27.375 33.7222C27.375 31.4448 29.2227 29.5972 31.5 29.5972H43.5398C43.6516 29.5972 43.7633 29.6058 43.875 29.6144V39.9097C43.875 41.8089 45.4133 43.3472 47.3125 43.3472H57.6078C57.625 43.4589 57.625 43.5706 57.625 43.6823V46.5698C55.425 47.4464 53.225 48.3315 51.025 49.2081C49.1945 49.9386 48 51.7089 48 53.6769C48 58.2401 49.4352 65.4417 54.9523 70.5894C54.4969 70.7612 54.007 70.8558 53.5 70.8558L31.5 70.8472C29.2227 70.8472 27.375 68.9995 27.375 66.7222V33.7222Z" fill="#1E4E79"/>
<path d="M53.5 70.8472H31.5C29.2227 70.8472 27.375 68.9995 27.375 66.7222V33.7222C27.375 31.4448 29.2227 29.5972 31.5 29.5972H43.5398C43.6516 29.5972 43.7633 29.6058 43.875 29.6144V39.9097C43.875 41.8089 45.4133 43.3472 47.3125 43.3472H57.6078C57.625 43.4589 57.625 43.5706 57.625 43.6823V46.5698L59 46.0198V43.6823C59 42.5909 58.5617 41.5425 57.7883 40.769L46.4617 29.4339C45.6883 28.6604 44.6398 28.2222 43.5484 28.2222H31.5C28.4664 28.2222 26 30.6886 26 33.7222V66.7222C26 69.7558 28.4664 72.2222 31.5 72.2222H53.5C54.4367 72.2222 55.3219 71.9901 56.0953 71.569C55.7 71.2511 55.3133 70.9159 54.9523 70.5808C54.4969 70.7526 54.007 70.8472 53.5 70.8472ZM57.032 41.9722H47.3125C46.1695 41.9722 45.25 41.0526 45.25 39.9097V30.1901C45.3359 30.2589 45.4133 30.3276 45.482 30.3964L56.8172 41.7401C56.8945 41.8175 56.9633 41.8948 57.0234 41.9722H57.032ZM52.5547 53.0237L62.4375 49.0706V70.6151C54.1789 66.9284 52.125 58.7558 52.125 53.6597C52.125 53.3761 52.2969 53.1269 52.5547 53.0237ZM74.125 53.6597C74.125 58.7558 72.0711 66.9284 63.8125 70.6151V49.0706L73.6953 53.0237C73.9531 53.1269 74.125 53.3847 74.125 53.6597ZM63.8898 47.6183C63.4 47.4206 62.85 47.4206 62.3602 47.6183L52.0477 51.7433C51.2656 52.0612 50.75 52.8175 50.75 53.6597C50.75 59.0995 52.9758 68.1659 62.3344 72.0675C62.8414 72.2823 63.4172 72.2823 63.9242 72.0675C73.2742 68.1659 75.5 59.0995 75.5 53.6597C75.5 52.8175 74.9844 52.0612 74.2023 51.7433L63.8898 47.6183Z" fill="#1E4E79"/>
</g>
<defs>
<clipPath id="clip0_141_503">
<rect width="49.5" height="44" fill="white" transform="translate(26 28.2222)"/>
</clipPath>
</defs>
</svg>
