<svg width="81" height="82" viewBox="0 0 81 82" fill="none" xmlns="http://www.w3.org/2000/svg">
<path d="M0.588867 41C0.588867 7.99556 7.66268 0.921753 40.6671 0.921753C73.6715 0.921753 80.7453 7.99556 80.7453 41C80.7453 74.0044 73.6715 81.0782 40.6671 81.0782C7.66268 81.0782 0.588867 74.0044 0.588867 41Z" fill="white"/>
<g clip-path="url(#clip0_148_9550)">
<path opacity="0.4" d="M23.417 39.021C23.417 42.5716 24.5526 45.8203 26.5723 48.3647C27.4061 49.4141 28.017 50.7078 28.017 52.131V59.225C28.017 59.5413 27.7582 59.8 27.442 59.8H44.692C44.3757 59.8 44.117 59.5413 44.117 59.225V54.625C44.117 54.3088 44.3757 54.05 44.692 54.05H50.442C52.0304 54.05 53.317 52.7635 53.317 51.175V46C53.317 45.6838 53.5757 45.425 53.892 45.425H55.3151C56.7526 45.425 57.917 44.2607 57.917 42.8232C57.917 42.0828 57.6007 41.3713 57.0473 40.8825L56.7742 40.6382C55.4229 39.4378 54.4526 37.9572 53.6476 36.4047C53.1301 35.4128 52.6629 34.3635 52.2029 33.3357C51.9514 32.775 51.707 32.2216 51.4554 31.6897C49.3782 27.2622 44.6489 24.15 39.4954 24.15H38.2879C30.0726 24.15 23.417 30.8056 23.417 39.021ZM27.9667 37.95C27.9667 37.0013 28.7357 36.2394 29.6773 36.2394C31.3592 36.2394 32.2001 34.2053 31.0142 33.0194C30.3457 32.351 30.3457 31.2656 31.0142 30.5972C31.6826 29.9288 32.7679 29.9288 33.4364 30.5972C34.6223 31.7831 36.6564 30.9422 36.6564 29.2603C36.6564 28.3116 37.4254 27.5497 38.367 27.5497C39.3086 27.5497 40.0776 28.3188 40.0776 29.2603C40.0776 30.9422 42.1117 31.7831 43.2976 30.5972C43.9661 29.9288 45.0514 29.9288 45.7198 30.5972C46.3882 31.2656 46.3882 32.351 45.7198 33.0194C44.5339 34.2053 45.3748 36.2394 47.0567 36.2394C48.0054 36.2394 48.7673 37.0085 48.7673 37.95C48.7673 38.8916 47.9982 39.6607 47.0567 39.6607C45.3748 39.6607 44.5339 41.6947 45.7198 42.8807C46.3882 43.5491 46.3882 44.6344 45.7198 45.3028C45.0514 45.9713 43.9661 45.9713 43.2976 45.3028C42.1117 44.1169 40.0776 44.9578 40.0776 46.6397C40.0776 47.5885 39.3086 48.3503 38.367 48.3503C37.4254 48.3503 36.6564 47.5813 36.6564 46.6397C36.6564 44.9578 34.6223 44.1169 33.4364 45.3028C32.7679 45.9713 31.6826 45.9713 31.0142 45.3028C30.3457 44.6344 30.3457 43.5491 31.0142 42.8807C32.2001 41.6947 31.3592 39.6607 29.6773 39.6607C28.7286 39.6607 27.9667 38.8916 27.9667 37.95Z" fill="black"/>
<path d="M23.4171 39.0209C23.4171 30.8056 30.0727 24.15 38.288 24.15H39.4955C44.6418 24.15 49.3783 27.2622 51.4555 31.6969C51.7071 32.2287 51.9515 32.7822 52.203 33.3428C52.663 34.3706 53.1302 35.42 53.6477 36.4119C54.4599 37.9644 55.4302 39.445 56.7743 40.6453L57.0474 40.8897C57.6008 41.3856 57.9171 42.09 57.9171 42.8303C57.9171 44.2678 56.7527 45.4322 55.3152 45.4322L53.8921 45.425C53.5758 45.425 53.3171 45.6837 53.3171 46V51.175C53.3171 52.7634 52.0305 54.05 50.4421 54.05H44.6921C44.3758 54.05 44.1171 54.3087 44.1171 54.625V59.225C44.1171 59.5412 44.3758 59.8 44.6921 59.8C45.0083 59.8 45.2671 59.5412 45.2671 59.225V55.2H50.4421C52.663 55.2 54.4671 53.3959 54.4671 51.175V46.575H55.3152C57.3852 46.575 59.0671 44.8931 59.0671 42.8231C59.0671 41.7522 58.6071 40.7316 57.8093 40.02L57.5362 39.7756C56.3358 38.7047 55.4374 37.3606 54.6612 35.8656C54.158 34.9025 53.7196 33.9178 53.274 32.9187C53.0224 32.3509 52.7637 31.7759 52.4977 31.2009C50.2337 26.3709 45.0946 23 39.4955 23H38.288C29.4402 23 22.2671 30.1731 22.2671 39.0209C22.2671 42.8159 23.4818 46.3162 25.674 49.0762C26.3999 49.9891 26.8671 51.0456 26.8671 52.1309V59.225C26.8671 59.5412 27.1258 59.8 27.4421 59.8C27.7583 59.8 28.0171 59.5412 28.0171 59.225V52.1309C28.0171 50.7078 27.4062 49.4141 26.5724 48.3647C24.5527 45.8203 23.4171 42.5716 23.4171 39.0209ZM37.8065 29.2603C37.8065 28.9512 38.058 28.6997 38.3671 28.6997C38.6762 28.6997 38.9277 28.9512 38.9277 29.2603C38.9277 31.9628 42.198 33.3212 44.1099 31.4094C44.3327 31.1866 44.6849 31.1866 44.9077 31.4094C45.1305 31.6322 45.1305 31.9844 44.9077 32.2072C42.9958 34.1191 44.3471 37.3894 47.0568 37.3894C47.3658 37.3894 47.6174 37.6409 47.6174 37.95C47.6174 38.2591 47.3658 38.5106 47.0568 38.5106C44.3543 38.5106 42.9958 41.7809 44.9077 43.6928C45.1305 43.9156 45.1305 44.2678 44.9077 44.4906C44.6849 44.7134 44.3327 44.7134 44.1099 44.4906C42.198 42.5787 38.9277 43.93 38.9277 46.6397C38.9277 46.9487 38.6762 47.2003 38.3671 47.2003C38.058 47.2003 37.8065 46.9487 37.8065 46.6397C37.8065 43.9372 34.5362 42.5787 32.6243 44.4906C32.4015 44.7134 32.0493 44.7134 31.8265 44.4906C31.6037 44.2678 31.6037 43.9156 31.8265 43.6928C33.7383 41.7809 32.3871 38.5106 29.6774 38.5106C29.3683 38.5106 29.1168 38.2591 29.1168 37.95C29.1168 37.6409 29.3683 37.3894 29.6774 37.3894C32.3799 37.3894 33.7383 34.1191 31.8265 32.2072C31.6037 31.9844 31.6037 31.6322 31.8265 31.4094C32.0493 31.1866 32.4015 31.1866 32.6243 31.4094C34.5362 33.3212 37.8065 31.97 37.8065 29.2603ZM38.3671 27.5497C37.4183 27.5497 36.6565 28.3187 36.6565 29.2603C36.6565 30.9422 34.6224 31.7831 33.4365 30.5972C32.768 29.9287 31.6827 29.9287 31.0143 30.5972C30.3458 31.2656 30.3458 32.3509 31.0143 33.0194C32.2002 34.2053 31.3593 36.2394 29.6774 36.2394C28.7287 36.2394 27.9668 37.0084 27.9668 37.95C27.9668 38.8916 28.7358 39.6606 29.6774 39.6606C31.3593 39.6606 32.2002 41.6947 31.0143 42.8806C30.3458 43.5491 30.3458 44.6344 31.0143 45.3028C31.6827 45.9712 32.768 45.9712 33.4365 45.3028C34.6224 44.1169 36.6565 44.9578 36.6565 46.6397C36.6565 47.5884 37.4255 48.3503 38.3671 48.3503C39.3087 48.3503 40.0777 47.5812 40.0777 46.6397C40.0777 44.9578 42.1118 44.1169 43.2977 45.3028C43.9662 45.9712 45.0515 45.9712 45.7199 45.3028C46.3883 44.6344 46.3883 43.5491 45.7199 42.8806C44.534 41.6947 45.3749 39.6606 47.0568 39.6606C48.0055 39.6606 48.7674 38.8916 48.7674 37.95C48.7674 37.0084 47.9983 36.2394 47.0568 36.2394C45.3749 36.2394 44.534 34.2053 45.7199 33.0194C46.3883 32.3509 46.3883 31.2656 45.7199 30.5972C45.0515 29.9287 43.9662 29.9287 43.2977 30.5972C42.1118 31.7831 40.0777 30.9422 40.0777 29.2603C40.0777 28.3116 39.3087 27.5497 38.3671 27.5497ZM36.0671 36.8C36.3721 36.8 36.6646 36.6788 36.8803 36.4632C37.0959 36.2475 37.2171 35.955 37.2171 35.65C37.2171 35.345 37.0959 35.0525 36.8803 34.8368C36.6646 34.6212 36.3721 34.5 36.0671 34.5C35.7621 34.5 35.4696 34.6212 35.2539 34.8368C35.0383 35.0525 34.9171 35.345 34.9171 35.65C34.9171 35.955 35.0383 36.2475 35.2539 36.4632C35.4696 36.6788 35.7621 36.8 36.0671 36.8ZM41.8171 40.25C41.8171 39.945 41.6959 39.6525 41.4803 39.4368C41.2646 39.2212 40.9721 39.1 40.6671 39.1C40.3621 39.1 40.0696 39.2212 39.8539 39.4368C39.6383 39.6525 39.5171 39.945 39.5171 40.25C39.5171 40.555 39.6383 40.8475 39.8539 41.0632C40.0696 41.2788 40.3621 41.4 40.6671 41.4C40.9721 41.4 41.2646 41.2788 41.4803 41.0632C41.6959 40.8475 41.8171 40.555 41.8171 40.25Z" fill="black"/>
</g>
<defs>
<clipPath id="clip0_148_9550">
<rect width="36.8" height="36.8" fill="white" transform="translate(22.2671 23)"/>
</clipPath>
</defs>
</svg>
