<svg width="81" height="82" viewBox="0 0 81 82" fill="none" xmlns="http://www.w3.org/2000/svg">
<path d="M0.588867 41C0.588867 7.99556 7.66268 0.921753 40.6671 0.921753C73.6715 0.921753 80.7453 7.99556 80.7453 41C80.7453 74.0044 73.6715 81.0782 40.6671 81.0782C7.66268 81.0782 0.588867 74.0044 0.588867 41Z" fill="white"/>
<g clip-path="url(#clip0_148_10303)">
<path opacity="0.4" d="M23.417 35.4703C23.417 37.6481 24.2651 39.7397 25.7817 41.3066L25.8751 41.4H31.0932C31.7904 41.4 32.4157 40.9831 32.6889 40.3363L34.9745 34.8522C35.0607 34.6438 35.2692 34.5 35.4992 34.5C35.7292 34.5 35.9376 34.6294 36.0311 34.8378L40.7101 45.2309L44.7711 37.1163C44.8717 36.9222 45.0657 36.8 45.2886 36.8C45.5114 36.8 45.7054 36.9222 45.8061 37.1163L47.4736 40.4441C47.7682 41.0263 48.3648 41.4 49.0189 41.4H55.502L55.5954 41.3066C57.1048 39.7397 57.9529 37.6481 57.9529 35.4775C57.917 31.2656 54.7473 27.6934 50.557 27.1472C47.4736 26.7447 44.3901 28.0528 42.5645 30.5684L41.127 32.545C41.0192 32.6959 40.8467 32.7822 40.6598 32.7822C40.4729 32.7822 40.3004 32.6959 40.1926 32.545L38.7551 30.5684C36.9295 28.06 33.8461 26.7447 30.7626 27.1472C26.5867 27.6934 23.417 31.2584 23.417 35.4703ZM25.3792 42.55C26.1195 43.3191 26.8598 44.0809 27.6073 44.85H29.2101L40.092 56.0912C40.2501 56.2566 40.4657 56.35 40.6957 56.35C40.9257 56.35 41.1414 56.2566 41.2995 56.0912L52.1454 44.85H53.7411C54.4814 44.0809 55.2217 43.3191 55.962 42.55H55.617H48.9829C47.8976 42.55 46.8986 41.9319 46.4098 40.9616L45.2598 38.6616L41.1845 46.8337C41.0839 47.035 40.8826 47.1572 40.6598 47.15C40.437 47.1428 40.2357 47.0134 40.1495 46.8122L35.5136 36.5197L33.7382 40.7819C33.2926 41.8528 32.2432 42.55 31.0861 42.55H25.6451H25.3864H25.3792Z" fill="black"/>
<path d="M50.5571 27.1472C54.7474 27.6935 57.9171 31.2656 57.9171 35.4775C57.9171 37.6553 57.0762 39.7397 55.5596 41.3066L55.4733 41.4H48.9902C48.3362 41.4 47.7396 41.0335 47.4449 40.4441L45.7774 37.1163C45.6768 36.9222 45.4827 36.8 45.2599 36.8C45.0371 36.8 44.843 36.9222 44.7424 37.1163L40.6958 45.2381L36.0168 34.8378C35.9233 34.6294 35.7149 34.4928 35.4849 34.5C35.2549 34.5072 35.0537 34.6438 34.9602 34.8522L32.6746 40.3363C32.4087 40.976 31.7762 41.4 31.079 41.4H25.8608L25.7674 41.3066C24.2652 39.7397 23.4171 37.6481 23.4171 35.4703C23.4171 31.2585 26.5868 27.6935 30.7699 27.1472C33.8533 26.7447 36.9368 28.0528 38.7624 30.5685L40.1999 32.545C40.3077 32.696 40.4802 32.7822 40.6671 32.7822C40.854 32.7822 41.0265 32.696 41.1343 32.545L42.5718 30.5685C44.3974 28.06 47.4808 26.7447 50.5643 27.1472H50.5571ZM55.6171 42.55H55.9621L56.3933 42.1044C58.104 40.3291 59.0671 37.95 59.0671 35.4775C59.0671 30.6763 55.459 26.6225 50.708 26.0044C47.2149 25.5516 43.7146 27.0322 41.6374 29.8856L40.6671 31.2225L39.6968 29.8856C37.6196 27.0322 34.1193 25.5444 30.6262 26.0044C25.8752 26.6225 22.2671 30.6763 22.2671 35.4703C22.2671 37.95 23.2302 40.3291 24.9552 42.1044L25.3865 42.55H25.6452H31.0862C32.2433 42.55 33.2927 41.8528 33.7383 40.7819L35.5137 36.5197L40.1424 46.8122C40.2358 47.0135 40.4299 47.15 40.6527 47.15C40.8755 47.15 41.0768 47.0278 41.1774 46.8338L45.2671 38.6616L46.4171 40.9616C46.9058 41.9391 47.8977 42.55 48.9902 42.55H55.6171ZM27.6074 44.85L39.2655 56.8963C39.6393 57.2844 40.1568 57.5 40.6958 57.5C41.2349 57.5 41.7524 57.2844 42.1262 56.8891L53.7412 44.85H52.1455L41.2924 56.0913C41.1343 56.2566 40.9187 56.35 40.6887 56.35C40.4587 56.35 40.243 56.2566 40.0849 56.0913L29.2102 44.85H27.6074Z" fill="black"/>
</g>
<defs>
<clipPath id="clip0_148_10303">
<rect width="36.8" height="36.8" fill="white" transform="translate(22.2671 23)"/>
</clipPath>
</defs>
</svg>
