<svg width="82" height="82" viewBox="0 0 82 82" fill="none" xmlns="http://www.w3.org/2000/svg">
<path d="M0.921875 41C0.921875 7.99556 7.99568 0.921753 41.0001 0.921753C74.0045 0.921753 81.0784 7.99556 81.0784 41C81.0784 74.0044 74.0045 81.0782 41.0001 81.0782C7.99568 81.0782 0.921875 74.0044 0.921875 41Z" fill="white"/>
<g clip-path="url(#clip0_148_10313)">
<path opacity="0.4" d="M28.4502 42.0253C28.4502 42.32 28.6874 42.55 28.9749 42.55H38.8002C38.9943 42.55 39.1739 42.6506 39.2818 42.8088C39.3896 42.9669 39.4039 43.1753 39.3321 43.355L33.1508 57.7588C32.9711 58.1828 33.2802 58.65 33.7402 58.65C33.8983 58.65 34.0493 58.5925 34.1643 58.4919L53.5418 41.3281C53.6711 41.2131 53.7502 41.0406 53.7502 40.8681C53.7502 40.5303 53.4771 40.25 53.1321 40.25H43.4002C43.2061 40.25 43.0264 40.1494 42.9186 39.9913C42.8108 39.8331 42.7964 39.6247 42.8683 39.445L49.0496 25.0413C49.2293 24.6244 48.9202 24.15 48.4674 24.15C48.3093 24.15 48.1583 24.2075 48.0433 24.3081L28.6299 41.63C28.5149 41.7306 28.4502 41.8744 28.4502 42.0253Z" fill="black"/>
<path d="M47.2744 23.4528C47.5978 23.1581 48.0219 23 48.4603 23C49.7397 23 50.6094 24.3153 50.1062 25.4941L44.27 39.1H53.1322C54.1097 39.1 54.9003 39.8906 54.9003 40.8681C54.9003 41.3713 54.6847 41.8528 54.3037 42.1906L34.9262 59.3472C34.5956 59.6347 34.1787 59.8 33.7403 59.8C32.4537 59.8 31.5912 58.4847 32.0944 57.3059L37.9306 43.7H28.975C28.055 43.7 27.3003 42.9453 27.3003 42.0253C27.3003 41.5438 27.5015 41.0909 27.8609 40.7747L47.2744 23.4528ZM48.4603 24.15C48.3022 24.15 48.1512 24.2075 48.0362 24.3081L28.63 41.63C28.515 41.7306 28.4503 41.8744 28.4503 42.0253C28.4503 42.32 28.6875 42.55 28.975 42.55H38.8003C38.9944 42.55 39.174 42.6506 39.2819 42.8088C39.3897 42.9669 39.404 43.1753 39.3322 43.355L33.1509 57.7587C32.9712 58.1828 33.2803 58.65 33.7403 58.65C33.8984 58.65 34.0494 58.5925 34.1644 58.4919L53.5419 41.3281C53.6712 41.2131 53.7503 41.0406 53.7503 40.8681C53.7503 40.5303 53.4772 40.25 53.1322 40.25H43.4003C43.2062 40.25 43.0265 40.1494 42.9187 39.9912C42.8109 39.8331 42.7965 39.6247 42.8684 39.445L49.0497 25.0412C49.2294 24.6244 48.9203 24.15 48.4675 24.15H48.4603Z" fill="black"/>
</g>
<defs>
<clipPath id="clip0_148_10313">
<rect width="32.2" height="36.8" fill="white" transform="translate(25 23)"/>
</clipPath>
</defs>
</svg>
