<svg width="82" height="82" viewBox="0 0 82 82" fill="none" xmlns="http://www.w3.org/2000/svg">
<path d="M0.921875 41C0.921875 7.99556 7.99568 0.921753 41.0001 0.921753C74.0045 0.921753 81.0784 7.99556 81.0784 41C81.0784 74.0044 74.0045 81.0782 41.0001 81.0782C7.99568 81.0782 0.921875 74.0044 0.921875 41Z" fill="white"/>
<g clip-path="url(#clip0_148_9570)">
<path opacity="0.4" d="M19.1499 31.05C19.1499 29.7778 20.1777 28.75 21.4499 28.75C22.7221 28.75 23.7499 29.7778 23.7499 31.05V41.6156C23.7499 43.1034 24.3393 44.5338 25.3958 45.5831L26.7974 46.9847L30.8152 51.0025C31.0093 51.1966 31.1962 51.3834 31.3902 51.5775C31.613 51.8003 31.9796 51.8003 32.2024 51.5775C32.4252 51.3547 32.4252 50.9881 32.2024 50.7653L31.6274 50.1903C30.2905 48.8534 28.9465 47.5094 27.6096 46.1725C26.8477 45.4106 26.7974 44.1816 27.5018 43.3622C28.2852 42.4494 29.6796 42.3919 30.5349 43.2472L37.2049 49.91C38.1608 50.8659 38.6999 52.1669 38.6999 53.5253V59.2178C38.6999 59.5341 38.9587 59.7928 39.2749 59.7928H32.9499H31.7999H27.1999C27.3508 59.7928 27.4946 59.7353 27.6096 59.6275C27.8324 59.4047 27.8324 59.0381 27.6096 58.8153L21.0043 52.2172C19.8183 51.0312 19.1499 49.4213 19.1499 47.7394V31.05ZM42.7249 59.8C43.0412 59.8 43.2999 59.5412 43.2999 59.225V53.5325C43.2999 52.1741 43.839 50.8731 44.7949 49.9172L51.4649 43.2544C52.313 42.3991 53.7146 42.4566 54.498 43.3694C55.2024 44.1887 55.1521 45.4106 54.3902 46.1797C53.0462 47.5237 51.7093 48.8606 50.3724 50.1975C50.1783 50.3916 49.9915 50.5784 49.7974 50.7725C49.5746 50.9953 49.5746 51.3619 49.7974 51.5847C50.0202 51.8075 50.3868 51.8075 50.6096 51.5847L51.1846 51.0097L55.2024 46.9919L56.604 45.5903C57.6605 44.5266 58.2499 43.1034 58.2499 41.6156V31.05C58.2499 29.7778 59.2777 28.75 60.5499 28.75C61.8221 28.75 62.8499 29.7778 62.8499 31.05V47.7394C62.8499 49.4141 62.1815 51.0241 60.9955 52.21L54.3902 58.8153C54.1674 59.0381 54.1674 59.4047 54.3902 59.6275C54.5052 59.7425 54.649 59.7928 54.7927 59.7928H50.1927H49.0427H42.7177L42.7249 59.8Z" fill="black"/>
<path d="M41 26.371L39.7278 25.0772C37.6147 22.9354 34.1934 22.9354 32.0803 25.0772C29.9672 27.2191 29.9672 30.6979 32.0803 32.8397L39.3828 40.2572C39.8284 40.71 40.4106 40.9329 41 40.9329C41.5894 40.9329 42.1716 40.71 42.6172 40.2572L49.9197 32.8397C52.0328 30.6979 52.0328 27.2191 49.9197 25.0772C47.8066 22.9354 44.3853 22.9354 42.2722 25.0772L41 26.371ZM41.4097 27.5929L43.0916 25.8822C44.7519 24.1932 47.44 24.1932 49.1003 25.8822C50.7678 27.5785 50.7678 30.3313 49.1003 32.0275L41.7978 39.4522C41.575 39.675 41.2875 39.79 41 39.79C40.7125 39.79 40.425 39.6822 40.2022 39.4522L32.8997 32.0347C31.2322 30.3385 31.2322 27.5857 32.8997 25.8894C34.56 24.2004 37.2481 24.2004 38.9084 25.8894L40.5903 27.6C40.8131 27.83 41.1869 27.83 41.4097 27.6V27.5929ZM24.9 31.05C24.9 29.1454 23.3547 27.6 21.45 27.6C19.5453 27.6 18 29.1454 18 31.05V47.7394C18 49.7232 18.7906 51.6207 20.1922 53.0222L26.7975 59.6275C27.0203 59.8504 27.3869 59.8504 27.6097 59.6275C27.8325 59.4047 27.8325 59.0382 27.6097 58.8154L21.0044 52.2172C19.8184 51.0313 19.15 49.4213 19.15 47.7394V31.05C19.15 29.7779 20.1778 28.75 21.45 28.75C22.7222 28.75 23.75 29.7779 23.75 31.05V41.6157C23.75 43.1035 24.3394 44.5338 25.3959 45.5832L26.7975 46.9847L30.8153 51.0025L31.3903 51.5775C31.6131 51.8004 31.9797 51.8004 32.2025 51.5775C32.4253 51.3547 32.4253 50.9882 32.2025 50.7654L31.6275 50.1904L27.6097 46.1725C26.8478 45.4107 26.7975 44.1888 27.5019 43.3622C28.2853 42.4494 29.6797 42.3919 30.535 43.2472L37.205 49.91C38.1609 50.866 38.7 52.1669 38.7 53.5254V59.2179C38.7 59.5341 38.9587 59.7929 39.275 59.7929C39.5912 59.7929 39.85 59.5341 39.85 59.2179V53.5254C39.85 51.865 39.1887 50.2694 38.0172 49.0979L31.3472 42.4279C30.0247 41.1054 27.8469 41.1844 26.6322 42.6075C26.1866 43.125 25.935 43.7504 25.8703 44.3829C25.245 43.6066 24.9 42.6291 24.9 41.6157V31.05ZM60.55 27.6C58.6453 27.6 57.1 29.1454 57.1 31.05V41.6157C57.1 42.6291 56.755 43.6138 56.1297 44.3972C56.065 43.7647 55.8134 43.1394 55.3678 42.6219C54.1459 41.1988 51.9753 41.1125 50.6528 42.4422L43.99 49.1122C42.8184 50.2838 42.1572 51.8794 42.1572 53.5397V59.2322C42.1572 59.5485 42.4159 59.8072 42.7322 59.8072C43.0484 59.8072 43.3072 59.5485 43.3072 59.2322V53.5397C43.3072 52.1813 43.8462 50.8804 44.8022 49.9244L51.4722 43.2616C52.3203 42.4063 53.7219 42.4638 54.5053 43.3766C55.2097 44.196 55.1594 45.4179 54.3975 46.1869L50.3797 50.2047L49.8047 50.7797C49.5819 51.0025 49.5819 51.3691 49.8047 51.5919C50.0275 51.8147 50.3941 51.8147 50.6169 51.5919L51.1919 51.0169L55.2097 46.9991L56.6113 45.5975C57.6606 44.5266 58.25 43.1035 58.25 41.6157V31.05C58.25 29.7779 59.2778 28.75 60.55 28.75C61.8222 28.75 62.85 29.7779 62.85 31.05V47.7394C62.85 49.4141 62.1816 51.0241 60.9956 52.21L54.3903 58.8154C54.1675 59.0382 54.1675 59.4047 54.3903 59.6275C54.6131 59.8504 54.9797 59.8504 55.2025 59.6275L61.8078 53.0222C63.2094 51.6207 64 49.716 64 47.7394V31.05C64 29.1454 62.4547 27.6 60.55 27.6Z" fill="black"/>
</g>
<defs>
<clipPath id="clip0_148_9570">
<rect width="46" height="36.8" fill="white" transform="translate(18 23)"/>
</clipPath>
</defs>
</svg>
