<svg width="81" height="82" viewBox="0 0 81 82" fill="none" xmlns="http://www.w3.org/2000/svg">
<path d="M0.255371 41C0.255371 7.99556 7.32918 0.921753 40.3336 0.921753C73.338 0.921753 80.4118 7.99556 80.4118 41C80.4118 74.0044 73.338 81.0782 40.3336 81.0782C7.32918 81.0782 0.255371 74.0044 0.255371 41Z" fill="white"/>
<g clip-path="url(#clip0_148_9560)">
<path opacity="0.4" d="M23.0835 41.2994L31.2844 45.0872C31.536 45.2022 31.7301 45.4034 31.8451 45.6478L35.6329 53.8488L39.4135 45.6406C39.5285 45.3891 39.7297 45.195 39.9741 45.08L48.1751 41.2922L39.9741 37.5116C39.7226 37.3966 39.5285 37.1953 39.4135 36.9509L35.6329 28.75L31.8451 36.9509C31.7301 37.2025 31.5288 37.3966 31.2844 37.5116L23.0835 41.2994Z" fill="black"/>
<path d="M52.9836 25.875C53.2998 25.875 53.5586 26.1337 53.5586 26.45V30.475H57.5836C57.8998 30.475 58.1586 30.7337 58.1586 31.05C58.1586 31.3662 57.8998 31.625 57.5836 31.625H53.5586V35.65C53.5586 35.9662 53.2998 36.225 52.9836 36.225C52.6673 36.225 52.4086 35.9662 52.4086 35.65V31.625H48.3836C48.0673 31.625 47.8086 31.3662 47.8086 31.05C47.8086 30.7337 48.0673 30.475 48.3836 30.475H52.4086V26.45C52.4086 26.1337 52.6673 25.875 52.9836 25.875ZM52.9836 46.575C53.2998 46.575 53.5586 46.8337 53.5586 47.15V51.175H57.5836C57.8998 51.175 58.1586 51.4337 58.1586 51.75C58.1586 52.0662 57.8998 52.325 57.5836 52.325H53.5586V56.35C53.5586 56.6662 53.2998 56.925 52.9836 56.925C52.6673 56.925 52.4086 56.6662 52.4086 56.35V52.325H48.3836C48.0673 52.325 47.8086 52.0662 47.8086 51.75C47.8086 51.4337 48.0673 51.175 48.3836 51.175H52.4086V47.15C52.4086 46.8337 52.6673 46.575 52.9836 46.575ZM31.2845 37.5116L23.0836 41.2994L31.2845 45.0872C31.5361 45.2022 31.7302 45.4034 31.8452 45.6478L35.633 53.8488L39.4136 45.6406C39.5286 45.3891 39.7298 45.195 39.9742 45.08L48.1752 41.2922L39.9742 37.5116C39.7227 37.3966 39.5286 37.1953 39.4136 36.9509L35.633 28.75L31.8452 36.9509C31.7302 37.2025 31.5289 37.3966 31.2845 37.5116ZM30.803 46.1294L22.602 42.3416C22.1923 42.1547 21.9336 41.745 21.9336 41.2994C21.9336 40.8538 22.1923 40.4441 22.602 40.2572L30.803 36.4694L34.5836 28.2684C34.7705 27.8588 35.1802 27.6 35.6258 27.6C36.0714 27.6 36.4811 27.8588 36.668 28.2684L40.4558 36.4694L48.6567 40.25C49.0664 40.4369 49.3252 40.8466 49.3252 41.2922C49.3252 41.7378 49.0664 42.1475 48.6567 42.3344L40.463 46.1294L36.6752 54.3231C36.4883 54.7328 36.0786 54.9916 35.633 54.9916C35.1873 54.9916 34.7777 54.7328 34.5908 54.3231L30.803 46.1294Z" fill="black"/>
</g>
<defs>
<clipPath id="clip0_148_9560">
<rect width="36.8" height="36.8" fill="white" transform="translate(21.9336 23)"/>
</clipPath>
</defs>
</svg>
