<svg width="102" height="101" viewBox="0 0 102 101" fill="none" xmlns="http://www.w3.org/2000/svg">
<path d="M0.9021 50.4444C0.9021 9.18882 9.74436 0.346558 50.9999 0.346558C92.2554 0.346558 101.098 9.18882 101.098 50.4444C101.098 91.6999 92.2554 100.542 50.9999 100.542C9.74436 100.542 0.9021 91.6999 0.9021 50.4444Z" fill="white"/>
<g clip-path="url(#clip0_141_521)">
<path opacity="0.4" d="M33.125 39.2222V50.2222H40.6875C40.9195 50.2222 41.1344 50.3339 41.2633 50.5315L44.6406 55.6105L49.668 42.419C49.7625 42.1612 50.0031 41.9894 50.2781 41.9808C50.5531 41.9722 50.8023 42.1183 50.9313 42.3589L54.8586 50.2222H61.3125C61.6906 50.2222 62 50.5315 62 50.9097C62 51.2878 61.6906 51.5972 61.3125 51.5972H54.4375C54.1797 51.5972 53.9391 51.4511 53.8187 51.219L50.3984 44.3698L45.457 57.3464C45.3625 57.587 45.1477 57.7589 44.8898 57.7847C44.632 57.8104 44.3828 57.6987 44.2367 57.4839L40.318 51.5972H33.125V61.2222C33.125 61.9784 33.7437 62.5972 34.5 62.5972H67.5C68.2562 62.5972 68.875 61.9784 68.875 61.2222V39.2222C68.875 38.4659 68.2562 37.8472 67.5 37.8472H34.5C33.7437 37.8472 33.125 38.4659 33.125 39.2222Z" fill="#1E4E79"/>
<path d="M70.25 32.3472C72.5273 32.3472 74.375 34.1948 74.375 36.4722V63.9722C74.375 66.2495 72.5273 68.0972 70.25 68.0972H31.75C29.4727 68.0972 27.625 66.2495 27.625 63.9722V36.4722C27.625 34.1948 29.4727 32.3472 31.75 32.3472H70.25ZM31.75 30.9722C28.7164 30.9722 26.25 33.4386 26.25 36.4722V63.9722C26.25 67.0058 28.7164 69.4722 31.75 69.4722H70.25C73.2836 69.4722 75.75 67.0058 75.75 63.9722V36.4722C75.75 33.4386 73.2836 30.9722 70.25 30.9722H31.75ZM50.2781 41.9722C50.0031 41.9894 49.7711 42.1612 49.668 42.4104L44.6406 55.6105L41.2547 50.5315C41.1258 50.3425 40.9109 50.2222 40.6789 50.2222H33.1164V39.2222C33.1164 38.4659 33.7352 37.8472 34.4914 37.8472H67.4914C68.2477 37.8472 68.8664 38.4659 68.8664 39.2222V61.2222C68.8664 61.9784 68.2477 62.5972 67.4914 62.5972H34.5C33.7438 62.5972 33.125 61.9784 33.125 61.2222V51.5972H40.318L44.2367 57.4753C44.3828 57.6901 44.632 57.8019 44.8898 57.7761C45.1477 57.7503 45.3625 57.5784 45.457 57.3378L50.3984 44.3612L53.8273 51.2104C53.9477 51.4425 54.1797 51.5886 54.4461 51.5886H61.3211C61.6992 51.5886 62.0086 51.2792 62.0086 50.9011C62.0086 50.5229 61.6992 50.2136 61.3211 50.2136H54.8672L50.9313 42.3417C50.8109 42.1011 50.5531 41.9464 50.2781 41.9636V41.9722ZM31.75 39.2222V61.2222C31.75 62.7433 32.9789 63.9722 34.5 63.9722H67.5C69.0211 63.9722 70.25 62.7433 70.25 61.2222V39.2222C70.25 37.7011 69.0211 36.4722 67.5 36.4722H34.5C32.9789 36.4722 31.75 37.7011 31.75 39.2222Z" fill="#1E4E79"/>
</g>
<defs>
<clipPath id="clip0_141_521">
<rect width="49.5" height="44" fill="white" transform="translate(26.25 28.2222)"/>
</clipPath>
</defs>
</svg>
