<svg width="101" height="101" viewBox="0 0 101 101" fill="none" xmlns="http://www.w3.org/2000/svg">
<path d="M0.568848 50.4444C0.568848 9.18882 9.41111 0.346558 50.6666 0.346558C91.9222 0.346558 100.764 9.18882 100.764 50.4444C100.764 91.6999 91.9222 100.542 50.6666 100.542C9.41111 100.542 0.568848 91.6999 0.568848 50.4444Z" fill="white"/>
<g clip-path="url(#clip0_141_515)">
<path opacity="0.4" d="M63.125 44.7222C63.125 45.8162 63.5596 46.8654 64.3332 47.639C65.1068 48.4126 66.156 48.8472 67.25 48.8472C68.344 48.8472 69.3932 48.4126 70.1668 47.639C70.9404 46.8654 71.375 45.8162 71.375 44.7222C71.375 43.6281 70.9404 42.5789 70.1668 41.8054C69.3932 41.0318 68.344 40.5972 67.25 40.5972C66.156 40.5972 65.1068 41.0318 64.3332 41.8054C63.5596 42.5789 63.125 43.6281 63.125 44.7222Z" fill="#1E4E79"/>
<path d="M36.957 28.669C37.0945 29.0213 36.9141 29.4166 36.5531 29.5541L32.8406 30.9463C32.0328 31.2471 31.5 32.0206 31.5 32.8799V44.7221C31.5 50.7979 36.4242 55.7221 42.5 55.7221C48.5758 55.7221 53.5 50.7979 53.5 44.7221V32.8799C53.5 32.0206 52.9672 31.2471 52.1594 30.9463L48.4469 29.5541C48.0945 29.4166 47.9141 29.0213 48.043 28.669C48.1719 28.3166 48.5758 28.1362 48.9281 28.2651L52.6406 29.6573C53.9813 30.1643 54.875 31.4448 54.875 32.8799V44.7221C54.875 51.3221 49.7016 56.719 43.1875 57.0799V57.0971V59.1596C43.1875 65.6135 48.4211 70.8471 54.875 70.8471C61.3289 70.8471 66.5625 65.6135 66.5625 59.1596V50.1791C63.8469 49.844 61.75 47.5237 61.75 44.7221C61.75 41.6885 64.2164 39.2221 67.25 39.2221C70.2836 39.2221 72.75 41.6885 72.75 44.7221C72.75 47.5237 70.6531 49.844 67.9375 50.1791V59.1596C67.9375 66.3698 62.0852 72.2221 54.875 72.2221C47.6648 72.2221 41.8125 66.3698 41.8125 59.1596V57.0971V57.0799C35.2984 56.719 30.125 51.3221 30.125 44.7221V32.8799C30.125 31.4448 31.0102 30.1643 32.3594 29.6573L36.0719 28.2651C36.4242 28.1276 36.8195 28.3081 36.957 28.669ZM67.25 40.5971C66.156 40.5971 65.1068 41.0317 64.3332 41.8053C63.5596 42.5789 63.125 43.6281 63.125 44.7221C63.125 45.8161 63.5596 46.8653 64.3332 47.6389C65.1068 48.4125 66.156 48.8471 67.25 48.8471C68.344 48.8471 69.3932 48.4125 70.1668 47.6389C70.9404 46.8653 71.375 45.8161 71.375 44.7221C71.375 43.6281 70.9404 42.5789 70.1668 41.8053C69.3932 41.0317 68.344 40.5971 67.25 40.5971Z" fill="#1E4E79"/>
</g>
<defs>
<clipPath id="clip0_141_515">
<rect width="49.5" height="44" fill="white" transform="translate(26 28.2222)"/>
</clipPath>
</defs>
</svg>
